<?xml version="1.0" encoding="utf-8"?>
<!-- Generator: Adobe Illustrator 16.0.0, SVG Export Plug-In . SVG Version: 6.00 Build 0)  -->
<!DOCTYPE svg PUBLIC "-//W3C//DTD SVG 1.1//EN" "http://www.w3.org/Graphics/SVG/1.1/DTD/svg11.dtd">
<svg version="1.1" xmlns="http://www.w3.org/2000/svg" xmlns:xlink="http://www.w3.org/1999/xlink" x="0px" y="0px"
	 width="30.418px" height="48.399px" viewBox="0 0 30.418 48.399" enable-background="new 0 0 30.418 48.399" xml:space="preserve">
<g id="Laag_1">
</g>
<g id="Layer_1">
	<g>
		<g>
			<path fill="#383839" d="M30.407,24.866c-1.681-1.283-2.466,0.01-3.523-0.076c-0.894-0.07-1.731-1.516-2.425-1.17
				c-1.319,0.67,0.53,3.047,1.333,3.533c0.716,0.426,1.616,0.822,1.832,0.924c1.062,0.494,1.484,1.246,1.617,2.416
				c0.034,0.271,0,0.887-0.066,1.17c-0.484,2.057-4.086,3.924-6.154,2.512c-0.973-0.668-1.861-1.531-2.17-3.057
				c-0.557-2.701-2.507-4.688-3.132-7.33c-0.38-1.606-0.662-3.303-1.081-4.918c-0.428-1.67-0.865-3.325-1.215-4.844
				c-0.318-1.411-0.99-3.521-1.475-4.805c-1.977-5.157-2.869-4.783-2.869-4.783s0.719,1.433,3.336,14.072
				c0.107,0.518,1.058,6.086,1.752,7.92c0.248,0.656,0.682,2.059,0.967,2.678c0.832,1.812,3.029,4.557,3.174,7.033
				c0.084,1.43,0.246,2.613,0.281,3.697c0.02,0.316,0.16,1.607,0.367,2.182c0.535,1.508,4.867,6.379,9.463,6.379v-3.691
				c-4.567,0-8.871-2.561-8.978-2.83c-0.065-0.119,0.237-1.867,0.547-2.643c0.6-1.506,1.728-2.877,3.712-3.025
				c2.213-0.158,3.549,0.484,4.719,0.484L30.407,24.866z"/>
			<path fill="#383839" d="M10.57,11.47c-0.167,2.763-4.444,6.543-5.786,8.965c-0.656,1.195-1.459,3.238-1.666,4.427
				c-0.568,3.296,0.153,5.345,0.957,7.274c1.416,3.395-0.191,4.641,0.916,3.953c1.369-1.117,1.162-3.721,1.061-5.346
				c-0.08-1.318-0.168-2.818,0.031-4.391c0.381-2.941,2.161-6.099,3.682-8.307C11.571,15.413,10.915,12.69,10.57,11.47"/>
			<path fill="#383839" d="M11.432,19.321c0,0,0.455,2.189-1.477,7.82c-5.053,14.723,4.599,16.119,7.347,19.582
				c0,0,1.063-1.498-3.313-6.301c-1.599-1.752-3.041-5.621-1.785-11.141C14.021,21.288,11.432,19.321,11.432,19.321"/>
			<path fill="#383839" d="M1.877,9.664c-0.23-0.87-0.301-1.648-0.25-2.344C1.86,3.86,5.003,2.461,5.786,1.944
				c0,0,1.414-0.968,1.596-1.944c0,0,1.447,3.642-1.871,5.728C3.827,6.788,2.682,8.029,1.877,9.664"/>
			<path fill="#383839" d="M9.803,6.318c0.179,0.351,1.48,2.259-3.854,6.66c-5.324,4.397-3.661,7.54-3.661,7.54
				s-5.684-3.16,0.863-8.621c6.545-5.459,5.202-6.564,5.202-6.564S9.292,5.286,9.803,6.318"/>
			<path fill="#383839" d="M16.727,8.005c0.922,0.121,1.508,2.994,3.64,3.62c1.567,0.456,3.233,0.208,3.603,1.151
				c-0.719,0.381-0.15,1.646,0.572,1.439C25.137,12.537,25.438,6.045,16.727,8.005z M19.598,9.298
				c0.077-0.206,0.188-0.039,0.422-0.186c0.249-0.236,0.504-0.622,0.909-0.752c0.29-0.09,0.688-0.047,0.958,0.059
				c0.181,0.044,0.072,0.508-0.064,0.628c-0.287,0.214-1.139-0.138-1.139,0.501c0.035,1.045,1.415-0.035,2.135-0.004
				C23.171,12.097,18.97,11.396,19.598,9.298z"/>
		</g>
	</g>
</g>
</svg>
