<?xml version="1.0" standalone="no"?>
<!DOCTYPE svg PUBLIC "-//W3C//DTD SVG 1.1//EN" "http://www.w3.org/Graphics/SVG/1.1/DTD/svg11.dtd" >
<svg xmlns="http://www.w3.org/2000/svg">
<metadata></metadata>
<defs>
<font id="flanders_art_serifregular" horiz-adv-x="494" >
<font-face units-per-em="2048" ascent="1536" descent="-512" />
<missing-glyph horiz-adv-x="600" />
<glyph unicode="fi" horiz-adv-x="1145" d="M1096 121q9 -14 9 -52q0 -47 -12 -61q-14 -8 -127 -8h-116q-113 0 -127 8q-12 14 -12 61q0 39 9 52q46 11 111 20v754h-468v-754q68 -10 111 -20q9 -13 9 -52q0 -47 -12 -61q-14 -8 -127 -8h-116q-113 0 -127 8q-12 14 -12 61q0 39 9 52q46 11 111 20v754h-168v143h168v4 q0 115 23 195.5t67 126t101 65t134 19.5q53 0 111.5 -8t115 -23t94 -26t82 -26.5t45.5 -15.5q-1 -202 -7 -212q-12 -12 -61 -12q-39 0 -53 8q-21 88 -25 114q-185 58 -292 58q-92 0 -136.5 -57.5t-44.5 -205.5v-4h622v-897q68 -10 111 -20z" />
<glyph unicode="fl" horiz-adv-x="1140" d="M1091 121q9 -14 9 -52q0 -47 -12 -61q-14 -8 -127 -8h-116q-113 0 -127 8q-12 14 -12 61q0 39 9 52q46 11 111 20v1148q-134 17 -220 17q-58 0 -98.5 -10t-75.5 -37t-52 -79t-17 -130v-12h234v-144h-234v-753q68 -10 111 -20q9 -13 9 -52q0 -47 -12 -61q-14 -8 -127 -8 h-116q-113 0 -127 8q-12 14 -12 61q0 39 9 52q46 11 111 20v753h-168v144h168v12q0 99 17 170.5t46.5 115t76 69t96.5 34.5t118 9q115 0 263 -20l144 20h10v-1307q68 -10 111 -20z" />
<glyph unicode="fl&#x2a;" horiz-adv-x="5545" d="M2311 1046v-92h-236v-131h226v-92h-226v-221h-94v536h330zM2464 1098v-588h-96v582l83 6h13zM2698 582q31 0 47 13q31 16 31 61v26h-28q-51 0 -73 -6q-36 -9 -36 -41q0 -53 59 -53zM2714 942q65 0 109 -32q47 -37 47 -109v-155q0 -28 17 -45q15 -10 46 -19l-44 -78 q-30 0 -46 8q-32 17 -48 34q-39 -25 -48 -29q-23 -13 -64 -13q-33 0 -63 9q-36 14 -53 40q-24 34 -24 84q0 58 32 86q31 31 115 31q50 0 86 -3v22q0 41 -23 62q-26 18 -58 18q-16 0 -58 -10q-40 -13 -54 -20l-24 83q74 36 155 36zM3212 942q62 0 106 -36q46 -43 46 -114 v-282h-94v252q0 42 -30 69q-26 18 -65 18q-49 0 -92 -26v-313h-96v422h81l10 -33q67 43 134 43zM3639 595q46 0 87 25v223q-42 10 -68 10q-55 0 -88 -33q-33 -36 -33 -99q0 -51 27 -86q27 -40 75 -40zM3820 1098v-588h-72l-17 33q-48 -39 -113 -39q-88 0 -134 61 q-45 57 -45 141q0 112 64 176q62 60 161 60q24 0 62 -5v155l80 6h14zM4001 762h169q-3 45 -28 67q-20 20 -50 20q-35 0 -56 -20q-31 -27 -35 -67zM4089 942q26 0 62 -13q43 -11 72 -51q35 -51 35 -129v-62h-257q12 -49 49 -74q28 -18 76 -18q58 0 105 26l5 -1v-92 q-33 -14 -61 -19q-21 -5 -58 -5q-95 0 -153 55q-66 61 -66 164q0 100 60 162q55 57 131 57zM4533 942q15 0 42 -5q24 -5 42 -13l-30 -96q-37 21 -72 21q-42 0 -86 -31v-308h-93v422h79l10 -34q51 44 108 44zM4792 942q45 0 94 -18v-86l-7 -1q-40 17 -71 17q-30 0 -49 -11 q-19 -10 -19 -28t28 -31q7 -5 29 -11l25 -9q25 -10 37 -18q35 -19 49 -54q7 -24 7 -47q0 -71 -48 -108q-43 -33 -113 -33q-68 0 -109 28v88l3 3q29 -13 47 -19q19 -9 58 -9q32 0 47 9q23 15 23 39t-30 41q-10 6 -26 11q-60 22 -66 25q-32 15 -48 50q-8 22 -8 45q0 60 44 95 q43 32 103 32zM559 1120q33 0 91 -155q32 -86 48 -155q3 -12 39 -157q5 -17 35 -158q10 -40 51 -116t50 -122q12 -57 70 -98q23 -16 57 -16q47 0 90.5 30t51.5 67q7 20 3 38q-8 59 -52 79q-18 6 -60 28q-14 9 -31.5 32t-24.5 47.5t13 36.5q2 2 8 2q10 0 34 -19.5t38 -21.5h2 l32 8q22 9 33 9q18 0 46 -19v-382q-13 0 -55 8.5t-75 8.5q-3 0 -10.5 -1t-11.5 -1q-86 -7 -120 -98q-5 -12 -10 -32.5t-7.5 -36t-0.5 -16.5q3 -7 42 -28t110.5 -42.5t137.5 -21.5v-120q-98 0 -192.5 78t-112.5 130q-13 28 -13 70q-1 19 -4.5 59.5t-4.5 60.5 q-2 35 -20.5 76.5t-46 88t-35.5 62.5q-5 11 -16.5 44.5t-15.5 42.5q-19 53 -57 255q-37 182 -64 295.5t-35 136.5l-8 23h1zM542 893q35 -123 -25 -212q-106 -147 -120 -269q-8 -59 -2 -142q6 -36 0 -92.5t-34 -81.5q-9 -4 -11 -4q-5 6 -1 14.5t1.5 43.5t-17.5 74 q-25 59 -35 111.5t2 124.5q14 67 54 143q14 24 47 65.5t62 76t53 76t26 72.5zM570 638l8.5 -8.5t16.5 -30t16.5 -57t2 -92.5t-20.5 -133q-21 -87 -14 -160.5t25.5 -121.5t46.5 -79q40 -43 65.5 -80t34 -59t11 -37.5t0.5 -21.5l-3 -6q-16 21 -49.5 45.5t-65.5 47t-67 54 t-58.5 74.5t-36.5 98.5t-3.5 136.5t43.5 179q28 80 40 143t10 86zM439 1263q2 -5 4.5 -13t4.5 -32t-2 -46t-21 -48.5t-47 -45.5q-76 -46 -119 -127q-9 44 -6 77q2 31 13 58t30.5 46.5t33.5 31t34.5 24t21.5 13.5q47 31 53 62zM470 1092q30 0 47 -33q37 -82 -125 -214 q-48 -40 -78 -80t-38 -68.5t-9 -51.5t3 -35l5 -11q-4 2 -10 6t-21 18.5t-25.5 30.5t-16 41t0.5 51.5t30.5 61.5t67.5 71q95 79 137 132t37 67zM890 903q22 0 36.5 13t12.5 40h-2q-4 0 -8 -1.5t-10 -3.5t-10 -3q-24 -8 -28 -8q-13 0 -13 16q0 12 17 12.5t19 2.5q4 4 6 11.5 t-2 9.5q-15 3 -21 3t-11 -2q-16 -7 -29 -25q-3 -2 -8.5 -1.5t-5.5 -3.5q-7 -27 12 -43.5t45 -16.5zM836 1017q64 0 103.5 -25.5t50 -63t10.5 -69.5t-8 -55q0 -1 -3 -1q-17 0 -23.5 19t7.5 29q-5 13 -21 18.5t-46 9.5t-47 9q-23 6 -43 25.5t-31 39t-23 35.5t-22 16 q52 13 96 13zM1158 1499l732 -2114l-7 -4l-735 2114zM1947 -63v-36q33 -14 68 -14q50 0 82 25q37 24 37 75q0 29 -11 44q-6 10 -31 26q-20 15 -52 28q-31 17 -40 25q-14 10 -14 36q0 28 18 41q21 9 49 9q8 0 59 -6v2v32q-23 8 -59 8q-48 0 -72 -19q-33 -24 -33 -71 q0 -41 27 -63q8 -6 45 -26q5 -3 23 -12.5t25 -14.5q30 -16 30 -47q0 -28 -23 -44q-21 -12 -53 -12q-8 0 -23.5 2t-17.5 2q-6 2 -17.5 5t-16.5 5zM2170 157v-37h28v-130q0 -55 25 -80q21 -23 56 -23q29 0 66 15l-11 36q-28 -15 -48 -15q-24 0 -35 15q-14 17 -14 52v130h74v37 h-74v53h-1l-38 -6v-47h-28zM2576 -113l22 37q-22 8 -30 27q-6 18 -6 39v84q0 49 -23 69q-23 19 -58 19q-29 0 -52 -5q-23 -6 -45 -17l9 -34q22 10 41 15q20 3 39 3q26 0 36 -9q14 -14 14 -41v-31q-13 0 -30 1t-23 1q-53 0 -78 -19q-24 -21 -24 -56q0 -42 30 -68 q26 -15 56 -15q25 0 47 11q25 11 35 26q15 -29 40 -37zM2523 9v-22q0 -37 -25 -53q-21 -11 -47 -11q-13 0 -25 9q-18 10 -18 38q0 27 31 34q19 5 84 5zM2620 157v-37h28v-130q0 -52 25 -80q21 -23 58 -23q29 0 66 15l-11 36q-30 -15 -49 -15q-22 0 -36 15q-12 17 -12 52v130 h73v37h-73v53h-3l-38 -6v-47h-28zM3025 13v36q0 28 -7 52q-7 29 -25 42q-20 19 -59 19q-56 0 -87 -39q-27 -34 -27 -95q0 -70 36 -108q34 -33 86 -33q38 0 76 19v36l-1 1q-37 -20 -70 -20q-34 0 -60 23q-25 23 -28 67h166zM2986 49h-125q5 35 25 55q16 20 47 20t40 -21 q9 -14 13 -54zM3214 24q0 -56 34 -97q35 -40 88 -40q52 0 87 40q33 36 33 99q0 56 -31 95q-36 41 -88 41q-51 0 -87 -41t-36 -97zM3253 26q0 41 22 70q21 28 61 28q39 0 62 -29q19 -28 19 -72t-19 -72q-23 -28 -61 -28t-62 29q-22 33 -22 74zM3489 157v-37h42v-228h39v228 h61v37h-61q0 35 13 53q9 14 32 14q19 0 46 -9l12 34q-36 13 -62 13q-37 0 -58 -24q-22 -25 -22 -81h-42zM3806 157v-37h30v-130q0 -56 23 -80q25 -23 58 -23q29 0 66 15l-11 36q-30 -15 -50 -15q-25 0 -33 15q-14 15 -14 52v130h72v37h-72v53h-3l-36 -6v-47h-30zM4026 256 v-364h39v209q6 2 17 8t18 9q22 6 34 6q30 0 42 -12q17 -17 17 -52v-168h40v170q0 52 -27 76q-25 24 -67 24q-9 0 -38 -9q-16 -5 -36 -18v127h-3zM4497 13v36q0 28 -7 52q-7 31 -26 42q-19 19 -58 19q-58 0 -88 -39q-26 -37 -26 -95q0 -70 36 -108q34 -33 86 -33q38 0 76 19 v36l-1 1q-40 -20 -71 -20q-33 0 -59 23q-25 22 -28 67h166zM4458 49h-125q7 38 23 55q17 20 48 20t43 -21q11 -24 11 -54zM4889 -30l26 -78h43l-118 336h-51l-116 -336h41l26 78h149zM4753 7l61 178l62 -178h-123zM5004 157v-265h39v198q25 34 55 34q18 0 38 -6l12 35 q-4 2 -22 6q-18 3 -22 3q-34 0 -64 -36l-9 31h-27zM5168 157v-37h29v-130q0 -53 25 -80q21 -23 57 -23q29 0 66 15l-11 36q-28 -15 -48 -15q-24 0 -35 15q-14 17 -14 52v130h74v37h-74v53h-1l-39 -6v-47h-29z" />
<glyph unicode="vl&#x2a;" horiz-adv-x="5729" d="M2292 1010h-92l-132 -380l-129 380h-94l173 -499h102zM2353 1052v-533h86v539h-11zM2829 511l41 72q-24 4 -42 19q-16 14 -16 39v145q0 67 -44 100q-40 29 -100 29q-74 0 -142 -35l22 -75q19 11 50 19q27 8 52 8q33 0 53 -16q25 -18 25 -58v-18q-36 3 -82 3 q-72 0 -106 -28q-28 -24 -28 -82q0 -52 20 -76q17 -25 49 -36q25 -10 58 -10q30 0 59 11q13 6 45 30q18 -21 44 -33q19 -8 42 -8zM2725 676v-24q0 -41 -27 -58q-17 -12 -44 -12q-25 0 -40.5 13.5t-15.5 36.5q0 32 34 37q22 7 93 7zM3212 511l39 72q-24 4 -42 19 q-16 18 -16 39v145q0 69 -43 100q-41 29 -100 29q-75 0 -143 -35l22 -75q15 9 50 19q27 8 52 8q33 0 55 -16q21 -16 21 -58v-18q-34 3 -79 3q-73 0 -107 -28q-28 -25 -28 -82q0 -51 22 -76q14 -24 47 -36q25 -10 58 -10q32 0 59 11q7 4 46 30q16 -20 43 -33q19 -8 44 -8z M3107 676v-24q0 -40 -28 -58q-16 -12 -43 -12q-25 0 -41 13.5t-16 36.5q0 32 35 37q22 7 93 7zM3303 905v-386h89v286q36 25 84 25q36 0 61 -17q27 -24 27 -64v-230h87v257q0 70 -42 104q-37 33 -98 33q-73 0 -125 -37l-10 29h-73zM4070 519v539h-14l-75 -6v-142 q-19 3 -56 3q-93 0 -149 -52q-58 -60 -58 -164q0 -79 41 -129q44 -57 123 -57q61 0 105 36l16 -28h67zM3981 824v-205q-39 -25 -78 -25q-46 0 -71 38q-23 34 -23 79q0 59 31 93q27 28 81 28q33 0 60 -8zM4451 619h-3q-52 -25 -98 -25q-39 0 -72 21q-32 20 -42 64h235v59 q0 73 -32 117q-24 36 -66 49q-23 9 -58 9q-70 0 -119 -50q-56 -56 -56 -152q0 -94 60 -151q55 -49 140 -49q23 0 55 5q41 11 56 17v86zM4390 749h-156q9 42 33 61q21 20 51 20t47 -20q24 -24 25 -61zM4765 810l28 89q-13 6 -37 12q-14 2 -39 2q-54 0 -100 -37l-10 29h-73 v-386h87v283q40 27 79 27q35 0 65 -19zM5100 619h-4q-48 -25 -98 -25q-40 0 -69 21q-36 20 -45 64h236v59q0 76 -33 117q-26 36 -67 49q-22 9 -55 9q-74 0 -120 -50q-55 -57 -55 -152q0 -94 60 -151q53 -49 140 -49q23 0 53 5q34 8 57 17v86zM5040 749h-156q4 38 31 61 q23 20 52 20q28 0 47 -20q20 -19 26 -61zM5182 905v-386h88v286q39 25 84 25q38 0 63 -17q26 -24 26 -64v-230h86v257q0 72 -40 104q-38 33 -99 33q-72 0 -125 -37l-9 29h-74zM2161 177h-35l-65 -186l-63 186h-34l76 -220h44zM2353 58v30q0 22 -5 42q-10 28 -20 36 q-18 14 -50 14q-47 0 -74 -29q-20 -30 -20 -82q0 -54 28 -89q28 -28 72 -28q32 0 64 16v31q-31 -17 -59 -17q-27 0 -49 20q-21 19 -25 56h138zM2320 88h-105q8 31 21 45q16 18 42 18q22 0 33 -19q9 -14 9 -44zM2412 177v-220h33v164q18 31 45 31q9 0 30 -8l11 28q-5 7 -19 7 q-5 1 -17 1q-31 0 -53 -28l-8 25h-22zM2571 260v-292q35 -16 75 -16q57 0 85 36q26 26 26 81q0 53 -26 78q-25 33 -69 33q-29 0 -58 -19v102h-1zM2604 -10v137q20 24 53 24t52 -24q16 -20 16 -56q0 -40 -22 -64q-22 -25 -55 -25q-17 0 -44 8zM2962 58v30q0 30 -5 42 q-5 21 -21 36q-15 14 -50 14q-48 0 -72 -29q-22 -33 -22 -82q0 -56 31 -89q24 -28 70 -28q31 0 64 16v31h-1q-31 -17 -60 -17q-26 0 -48 20q-22 24 -23 56h137zM2929 88h-103q3 25 19 45q18 18 41 18q21 0 34 -19q9 -16 9 -44zM3161 58v30q0 30 -4 42q-5 21 -21 36 q-15 14 -49 14q-49 0 -72 -29q-23 -32 -23 -82q0 -53 29 -89q27 -28 74 -28q29 0 62 16v31q-32 -17 -59 -17t-50 20q-22 24 -23 56h136zM3131 88h-105q4 28 20 45q18 18 40 18q24 0 35 -19q4 -8 10 -44zM3209 260v-303h33v306h-2zM3478 -43v306h-2l-31 -3v-83q-21 3 -41 3 q-56 0 -83 -33q-29 -26 -29 -76q0 -45 26 -83q29 -36 69 -36q30 0 64 25l5 -20h22zM3445 143v-136q-20 -25 -52 -25q-35 0 -53 28q-14 18 -14 56q0 42 22 64q20 22 55 22q6 0 42 -9zM3546 236q0 -7 5 -14q7 -7 16 -7q13 0 17 7q8 6 8 14q0 11 -8 16q-4 8 -17 8q-8 0 -16 -8 q-5 -5 -5 -16zM3551 177v-220h33v220h-33zM3659 177v-220h33v173q23 13 26 14q29 8 32 8q19 0 34 -12q14 -16 14 -44v-139h33v140q0 47 -24 64q-18 19 -54 19q-20 0 -35 -8q-9 -4 -31 -15l-6 20h-22zM3984 2h-42q-27 0 -27 20q0 11 8 18q14 -8 41 -8q36 0 57 23q24 22 24 53 q0 26 -13 43q28 14 41 15l-8 27q-13 0 -28 -5q-28 -16 -30 -17q-17 9 -42 9q-34 0 -59 -20q-22 -22 -22 -52q0 -20 5 -28q6 -19 14 -25q-17 -22 -17 -39q0 -3 2 -9.5t2 -9.5q1 -3 3.5 -6t6 -6t4.5 -5q-26 -22 -26 -55q0 -26 22 -50q24 -21 59 -21q39 0 77 26q35 27 35 61 q0 29 -21 44q-22 17 -66 17zM3929 -25h25q41 0 60 -6q25 -7 25 -29q0 -24 -21 -40q-23 -17 -54 -17q-24 0 -41 13q-12 12 -12 33q0 23 18 46zM3964 152q21 0 37 -14q13 -12 13 -33q0 -19 -13 -31q-9 -14 -36 -14q-25 0 -37 14q-14 13 -14 33q0 18 14 31q14 14 36 14z M4534 177h-30l-59 -184l-55 184h-29l-55 -184l-58 184h-33l71 -220h40l50 167l49 -167h40zM4729 58v30q0 28 -6 42q-5 24 -22 36q-15 14 -48 14q-49 0 -72 -29q-24 -31 -24 -82q0 -54 32 -89q25 -28 72 -28q29 0 62 16v31q-31 -17 -59 -17q-27 0 -50 20q-21 21 -24 56h139z M4696 88h-104q5 30 20 45q18 18 39 18q27 0 36 -19q9 -20 9 -44zM4787 177v-220h33v164q18 31 45 31q7 0 31 -8l11 28q-11 7 -18 7q-7 1 -18 1q-29 0 -54 -28l-8 25h-22zM5101 -48l14 28q-10 4 -39 27q-15 12 -36 37q-19 19 -20 27l91 106h-43l-87 -105v191h-2l-31 -5v-301 h33v112q0 -3 6 -9l2 -4t3 -4.5t3 -4.5q5 -8 31 -40q25 -27 39 -38q20 -14 36 -17zM5131 177v-31h22v-108q0 -42 20 -67q19 -19 48 -19q24 0 57 14l-10 31q-23 -15 -40 -15q-19 0 -30 14q-9 12 -9 42v108h59v31h-59v45h-5l-31 -6v-39h-22zM1953 -660l11 4l-763 2242l-11 -4z M1195 468v-388q-11 0 -61 9.5t-91 6.5q-85 -4 -123 -99q-7 -17 -13.5 -49.5t-5.5 -36.5q3 -8 43 -29t112 -42t139 -21v-120q-52 0 -108 25t-96.5 60.5t-69 69t-35.5 53.5q-11 28 -11 70q-1 20 -5 62t-6 60q-1 36 -19.5 78t-46.5 87.5t-36 64.5q-3 8 -15 41.5t-18 45.5 q-10 27 -23 87t-23.5 115.5t-11.5 57.5q-37 184 -64 299t-35 138l-8 23q3 1 9.5 -1.5t30.5 -41t53 -113.5q29 -76 49 -156q12 -57 39 -159q6 -26 17 -81t17 -82q10 -41 52 -116.5t51 -122.5q14 -63 72 -102q49 -31 119 1t83 84q3 27 1 37q-6 57 -54 80q-2 1 -11.5 5.5 t-23.5 11.5t-25 13q-15 10 -32 32.5t-24 46.5t14 36q13 6 39.5 -15.5t40.5 -21.5q10 -2 24 3t25.5 9.5t29 1.5t35.5 -17zM545 905q38 -123 -25 -214q-105 -154 -120 -270q-7 -44 -2 -145q1 -30 2.5 -61t-7 -64.5t-29.5 -51.5q-11 -7 -13 -5.5t0 11.5t2.5 18.5t0 25t-6 37 t-15.5 43.5q-12 30 -18.5 50.5t-12.5 51t-5.5 64.5t7.5 73q14 66 53 143q16 28 65 87.5t85.5 113.5t38.5 93zM575 649l8.5 -8.5t17 -31t17 -58.5t2.5 -94t-20 -135q-22 -87 -16 -161t25.5 -122.5t49.5 -80.5q40 -44 65.5 -81.5t34 -59.5t11 -37.5t0.5 -21.5l-3 -6 q-16 21 -49.5 45.5t-66 47.5t-68.5 54.5t-59.5 75t-37 100t-4 138t43.5 180.5q28 83 40.5 147t10.5 86zM261 966q40 76 120 128q31 19 48.5 45t20.5 50t2 45.5t-6 34.5l-4 13q-3 -15 -16 -31t-25 -25l-12 -8q-2 -1 -18 -11t-27 -17.5t-28.5 -23.5t-29 -32t-21 -40.5 t-11.5 -50.5q-2 -42 7 -77zM520 1076q-7 15 -19 23t-20 8h-8l4 -10q4 -54 -165 -198q-4 -4 -9 -8q-44 -36 -69 -71t-30.5 -62.5t-1.5 -51.5t16.5 -41t24.5 -29.5t22 -18.5l10 -6q-2 4 -4.5 12t-2.5 33t9 52t39 68t79 81q172 143 125 219zM746 1019q86 21 138.5 9t81 -37 t38 -61.5t8 -65t-8.5 -48.5q-18 -6 -26.5 16t9.5 31q-7 14 -24 19.5t-47 9.5t-47 9q-24 7 -44 26.5t-31.5 39t-24 35.5t-22.5 17zM842 977q-11 -35 26 -53q34 -17 61 -1q22 14 17 46q-6 1 -15.5 -2.5t-18 -6.5t-17 -5t-13.5 1t-6 13q0 13 18.5 13.5t20.5 2.5t3.5 11t-1.5 11 q-15 5 -31 1q-7 -2 -12 -6t-11 -11t-7 -8q-4 -3 -8 -3t-6 -3z" />
<glyph unicode="vll&#x2a;" horiz-adv-x="1595" d="M1295 483v-388q-10 0 -60.5 9.5t-91.5 6.5q-87 -4 -123 -99q-5 -11 -10 -32t-7 -36.5t-1 -17.5q3 -7 42.5 -28t111.5 -42.5t139 -21.5v-121q-68 0 -140.5 43t-115 90t-53.5 76q-11 28 -11 71q-1 19 -5 60.5t-6 61.5q-2 36 -20.5 77.5t-46 87t-35.5 63.5q-4 11 -16 44.5 t-17 44.5q-10 26 -23 86t-24 115.5t-11 57.5q-37 184 -64 299t-35 138l-9 24q3 1 9.5 -1.5t31 -41.5t53.5 -114q28 -71 49 -156q7 -35 39 -159q7 -29 18 -83.5t16 -78.5q10 -41 52 -117t51 -122q13 -62 72 -102q49 -32 119 0t83 84q4 18 2 37q-9 58 -55 80l-23 11 q-22 11 -36 19q-15 10 -32 32.5t-24.5 47t13.5 35.5q12 6 39 -15.5t40 -22.5q10 -1 24.5 4t25.5 9.5t28.5 1.5t36.5 -17zM645 921q41 -122 -25 -214q-105 -156 -121 -272q-6 -42 -1 -144q1 -30 2.5 -61t-7.5 -64.5t-30 -50.5q-10 -7 -12 -5.5t0 10.5q1 9 2 14.5t1 18.5 t-1.5 25t-6.5 30t-13 36q-12 29 -18.5 50t-13 51.5t-6 65t7.5 72.5q12 68 53 144q16 28 65 87t85.5 113t38.5 94zM674 664l8.5 -8.5t17 -30.5t17 -58t3 -94t-19.5 -135q-22 -88 -15.5 -161.5t26 -122t48.5 -80.5q40 -44 65.5 -81.5t34 -60t11 -38t0.5 -21.5l-3 -6 q-15 19 -43 40.5t-56.5 40t-60 45.5t-57.5 56.5t-44.5 74t-25 97t4 126.5t40.5 161q28 83 40.5 147t10.5 87zM361 981q38 75 119 129q31 19 48.5 45t20.5 50t2 45.5t-5 34.5l-5 13q-2 -15 -15 -31.5t-25 -25.5l-12 -9q-1 -1 -15 -8.5t-22.5 -13.5t-24 -17.5t-26 -24.5 t-22 -29t-18 -37t-7.5 -44q-3 -36 7 -77zM620 1090q-7 16 -18.5 24t-19.5 8l-8 1l4 -10q3 -55 -166 -199q-4 -4 -9 -8q-44 -36 -69 -71t-30.5 -62t-1.5 -51.5t16.5 -41.5t24.5 -29.5t22 -18.5l10 -6q-2 4 -4.5 12t-2.5 33.5t9 52.5t39 68t78 81q171 140 126 217zM847 1034 q71 14 120 11.5t78 -22.5t44.5 -45t19.5 -55t2 -53t-8 -39q-18 -5 -27 16.5t9 30.5q-6 14 -22.5 20t-47 9t-47.5 8q-24 7 -44.5 27t-31.5 39.5t-23 35.5t-22 17zM942 993q-11 -36 27 -54q34 -17 61 0q22 13 17 45q-6 1 -16 -2.5t-18.5 -6.5t-16.5 -5t-13 1t-6 13q0 13 18 14 t20 3q3 3 4 11t-3 10q-13 6 -30 2q-9 -4 -20 -14l-11 -11q-3 -3 -7.5 -3t-5.5 -3z" />
<glyph unicode="&#xd;" horiz-adv-x="0" />
<glyph unicode=" "  horiz-adv-x="600" />
<glyph unicode="&#x09;" horiz-adv-x="600" />
<glyph unicode="&#xa0;" horiz-adv-x="600" />
<glyph unicode="!" horiz-adv-x="467" d="M292 406h-112q-12 96 -18.5 428t-6.5 594h164q0 -249 -7.5 -587t-19.5 -435zM120 92q0 46 33.5 79t79.5 33q47 0 80.5 -33t33.5 -79t-33.5 -79t-80.5 -33q-46 0 -79.5 33t-33.5 79z" />
<glyph unicode="&#x22;" horiz-adv-x="718" d="M84 1336q0 46 33 79t79 33q43 0 79 -30.5t36 -92.5q0 -80 -59.5 -161.5t-129.5 -118.5l-42 54q49 84 49 130t-45 107zM412 1336q0 46 33 79t79 33q43 0 78.5 -30.5t35.5 -92.5q0 -80 -59 -161.5t-129 -118.5l-43 54q49 81 49 130q0 47 -44 107z" />
<glyph unicode="#" horiz-adv-x="1153" d="M1113 935l-53 -144h-144l-70 -261h221l5 -6l-53 -144h-213l-79 -299l-4 -2l-141 52l66 249h-276l-79 -299l-4 -2l-141 52l66 249h-168l-6 6l53 144h161l70 261h-237l-6 6l53 144h230l75 280l6 3l139 -51l-62 -232h276l75 280l6 3l139 -51l-62 -232h152zM412 530h276 l70 261h-276z" />
<glyph unicode="$" horiz-adv-x="919" d="M685 341q0 63 -28.5 106.5t-87.5 80.5q-43 28 -184 98t-184 105q-104 83 -104 252q0 149 78.5 233.5t206.5 109.5v122h154v-111q98 -4 201 -34v-132q0 -112 -7 -126q-12 -12 -61 -12q-39 0 -53 8q-14 55 -26 150q-47 5 -85 5q-267 0 -267 -201q0 -87 57 -138 q37 -32 174.5 -101.5t194.5 -105.5q82 -52 123.5 -112.5t41.5 -162.5q0 -143 -81 -237t-212 -133v-154h-154v130q-8 -1 -23 -1q-147 0 -269 58v140q0 112 7 126q12 12 61 12q39 0 53 -8q19 -84 27 -171q75 -13 145 -13q84 0 148.5 19t109 69.5t44.5 128.5z" />
<glyph unicode="%" horiz-adv-x="1638" d="M80 1000q0 143 93 240.5t237 97.5q143 0 233.5 -96.5t90.5 -236.5q0 -143 -93 -240t-237 -97q-143 0 -233.5 96t-90.5 236zM220 1001q0 -80 51.5 -135t133.5 -55q83 0 136 56t53 138q0 79 -52 134.5t-133 55.5q-83 0 -136 -56t-53 -138zM904 312q0 143 93 240.5t237 97.5 q143 0 233.5 -96.5t90.5 -236.5q0 -143 -93 -240t-237 -97q-143 0 -233.5 96t-90.5 236zM1044 313q0 -80 51.5 -135t133.5 -55q83 0 136 56t53 138q0 79 -52 134.5t-133 55.5q-83 0 -136 -56t-53 -138zM432 241l646 924l126 -88l-646 -924z" />
<glyph unicode="&#x26;" horiz-adv-x="1252" d="M986 730l134 -54q-40 -241 -134 -401l186 -186l-107 -109l-171 170q-158 -170 -392 -170q-187 0 -304.5 103t-117.5 282q0 116 56.5 201.5t177.5 158.5q-118 121 -118 291q0 145 88 233.5t237 88.5q133 0 222 -73.5t89 -213.5q0 -57 -17.5 -106t-42.5 -82t-66.5 -64.5 t-73.5 -49t-80 -40.5l322 -323q69 140 104 344h8zM499 124q172 0 289 132l-379 379q-175 -108 -175 -273q0 -108 70 -173t195 -65zM350 1029q0 -123 109 -228q13 5 16 7q34 15 55.5 26t53 33t50 45t32.5 58.5t14 77.5q0 146 -155 146q-86 0 -130.5 -44t-44.5 -121z" />
<glyph unicode="'" horiz-adv-x="391" d="M84 1336q0 46 33 79t79 33q43 0 79 -30.5t36 -92.5q0 -80 -59.5 -161.5t-129.5 -118.5l-42 54q49 84 49 130t-45 107z" />
<glyph unicode="(" horiz-adv-x="570" d="M336 -20h-4q-212 315 -212 700q0 393 215 768h4l111 -98q-161 -333 -161 -664q0 -329 161 -605z" />
<glyph unicode=")" horiz-adv-x="570" d="M234 -20l-114 101q161 276 161 605q0 331 -161 664l111 98h4q215 -375 215 -768q0 -385 -212 -700h-4z" />
<glyph unicode="*" horiz-adv-x="909" d="M747 260l-134 -94q-82 117 -158 268q-76 -150 -159 -268l-134 94q80 115 197 238q-151 -23 -309 -23v164q147 0 311 -26q-115 120 -199 241l134 94q87 -125 159 -269q77 155 158 269l134 -94q-83 -120 -197 -240q164 25 309 25v-164q-156 0 -306 23q105 -111 194 -238z M371 505l84 -59l85 60l-2 104l-85 58l-82 -59v-104z" />
<glyph unicode="+" horiz-adv-x="1030" d="M592 910v-318h318v-154h-318v-318h-154v318h-318v154h318v318h154z" />
<glyph unicode="," horiz-adv-x="392" d="M85 92q0 46 33 79t79 33q43 0 79 -30.5t36 -92.5q0 -80 -59.5 -161.5t-129.5 -118.5l-43 54q50 83 50 130q0 46 -45 107z" />
<glyph unicode="-" horiz-adv-x="600" d="M50 618h500v-144h-500v144z" />
<glyph unicode="." horiz-adv-x="387" d="M80 92q0 46 33.5 79t79.5 33q47 0 80.5 -33t33.5 -79t-33.5 -79t-80.5 -33q-46 0 -79.5 33t-33.5 79z" />
<glyph unicode="/" horiz-adv-x="971" d="M708 1448l144 -53l-588 -1616l-144 53z" />
<glyph unicode="0" horiz-adv-x="1112" d="M1032 646q-4 -332 -133 -499t-347 -167q-105 0 -188.5 42t-135.5 109.5t-86.5 159t-48 183t-13.5 189.5q0 327 127.5 501t344.5 174q218 0 349 -177t131 -515zM877 665q0 279 -82 404t-242 125t-239 -131.5t-79 -400.5q0 -538 318 -538q81 0 139 27t100.5 89t63.5 167.5 t21 257.5z" />
<glyph unicode="1" horiz-adv-x="618" d="M569 121q9 -13 9 -52q0 -47 -12 -61q-14 -8 -127 -8h-116q-113 0 -127 8q-12 14 -12 61q0 39 9 52q46 11 111 20v984q-129 -46 -264 -46v145q100 0 173 26q56 19 132 68h113v-1177q68 -10 111 -20z" />
<glyph unicode="2" horiz-adv-x="1008" d="M30 0v144q706 499 706 805q0 111 -79.5 177.5t-206.5 66.5q-94 0 -189 -35q-8 -127 -31 -195q-17 -9 -59 -8t-55 12q-7 14 -7 265q74 47 180 76.5t199 29.5q79 0 148.5 -23.5t123.5 -68t85.5 -117t31.5 -164.5q0 -86 -29 -170.5t-80 -162t-131 -161.5t-171 -160.5 t-212 -166.5h530q8 65 23 130q14 8 53 8q49 0 61 -12q7 -14 7 -126v-144h-898z" />
<glyph unicode="3" horiz-adv-x="973" d="M92 1150v84q82 51 177.5 77.5t178.5 26.5q49 0 98.5 -9t101 -33t91 -60t64.5 -95t25 -133q0 -197 -166 -306q242 -89 242 -338q0 -82 -28.5 -148.5t-74.5 -109.5t-106 -72t-120.5 -41.5t-121.5 -12.5q-95 0 -212 29t-196 82v68q0 112 7 126q12 12 61 12q39 0 53 -8 q13 -63 21 -120q127 -47 245 -47q135 0 226.5 72.5t91.5 181.5q0 83 -59.5 139t-145.5 79t-189 23h-132v140h156q39 0 78.5 8t79 27t69.5 46t49 68.5t19 91.5q0 96 -71 147.5t-179 51.5q-93 0 -188 -36q-13 -95 -24 -141q-14 -8 -53 -8q-49 0 -61 12q-7 14 -7 126z" />
<glyph unicode="4" horiz-adv-x="970" d="M613 1318h176v-875h152v-143h-152v-300h-154v300h-615v143zM635 443v634l-432 -634h432z" />
<glyph unicode="5" horiz-adv-x="973" d="M202 1291v27h645v-142h-517l-40 -369q69 0 121 -2.5t119.5 -12t117 -25.5t100.5 -45.5t83 -70t52.5 -101.5t20.5 -138q0 -109 -38.5 -194.5t-102.5 -136t-140.5 -76t-159.5 -25.5q-94 0 -205.5 29.5t-187.5 81.5v81q0 112 7 126q12 12 61 12q39 0 53 -8q15 -68 23 -134 q126 -46 239 -46q133 0 214.5 84.5t81.5 210.5q0 138 -113.5 193.5t-362.5 55.5h-140z" />
<glyph unicode="6" horiz-adv-x="968" d="M834 1338v-144q-93 0 -172 -20.5t-137 -58t-103 -83t-77 -102t-52.5 -108t-34.5 -108.5q119 93 260 93q157 0 264 -113t107 -270q0 -53 -12.5 -109.5t-43 -117.5t-76 -108.5t-118 -78t-162.5 -30.5q-101 0 -178.5 37.5t-124.5 104t-70.5 151t-23.5 184.5q0 128 25 249.5 t82.5 237.5t142 202.5t214.5 139t290 52.5zM497 662q-111 0 -264 -100q-5 -46 -5 -104q0 -158 79 -245.5t193 -87.5q58 0 104.5 25t74 65.5t42 89.5t14.5 100q0 118 -71 187.5t-167 69.5z" />
<glyph unicode="7" horiz-adv-x="838" d="M50 1318h768l-532 -1318h-154l473 1174h-407q-3 -31 -27 -135q-14 -8 -53 -8q-49 0 -61 12q-7 14 -7 265v10z" />
<glyph unicode="8" horiz-adv-x="988" d="M870 1001q0 -108 -54.5 -181.5t-158.5 -131.5q58 -27 102 -56t85 -70.5t63 -98t22 -124.5q0 -87 -37.5 -157t-99.5 -113t-138.5 -66t-159.5 -23q-84 0 -160.5 23t-138 66.5t-98.5 113.5t-37 156q0 71 23.5 129t66.5 99.5t85 68.5t97 52q-103 57 -158 130.5t-55 182.5 q0 106 54 184t138 115.5t183 37.5q72 0 138.5 -21.5t120 -62.5t85.5 -106.5t32 -146.5zM214 333q0 -96 83.5 -152.5t196.5 -56.5t197 56.5t84 155.5q0 33 -10 62.5t-32.5 55t-44.5 45t-60 41t-63.5 34.5t-70.5 34q-47 -23 -72 -35.5t-64 -34.5t-59.5 -41t-43 -44.5 t-32 -55.5t-9.5 -64zM715 1001q0 93 -66 143t-155 50q-90 0 -155 -49.5t-65 -142.5q0 -86 57 -142t163 -102q107 46 164 102.5t57 140.5z" />
<glyph unicode="9" horiz-adv-x="968" d="M135 -20v144q110 0 201.5 30.5t152 77.5t107.5 113t72.5 127.5t42.5 130.5q-118 -92 -260 -92q-157 0 -264 113t-107 270q0 53 12.5 109.5t43 117.5t76 108.5t118 78t162.5 30.5q101 0 178.5 -37.5t124.5 -104t70.5 -151t23.5 -184.5q0 -128 -25 -249.5t-82.5 -237.5 t-142 -202.5t-214.5 -139t-290 -52.5zM472 656q111 0 264 100q5 56 5 104q0 158 -79 245.5t-193 87.5q-58 0 -104.5 -25t-74 -65.5t-42 -89.5t-14.5 -100q0 -118 71 -187.5t167 -69.5z" />
<glyph unicode=":" horiz-adv-x="387" d="M80 92q0 46 33.5 79t79.5 33q47 0 80.5 -33t33.5 -79t-33.5 -79t-80.5 -33q-46 0 -79.5 33t-33.5 79zM80 946q0 46 33.5 79t79.5 33q47 0 80.5 -33t33.5 -79t-33.5 -79t-80.5 -33q-46 0 -79.5 33t-33.5 79z" />
<glyph unicode=";" horiz-adv-x="392" d="M85 92q0 46 33 79t79 33q43 0 79 -30.5t36 -92.5q0 -80 -59.5 -161.5t-129.5 -118.5l-43 54q50 83 50 130q0 46 -45 107zM84 946q0 46 33.5 79t79.5 33q47 0 80.5 -33t33.5 -79t-33.5 -79t-80.5 -33q-46 0 -79.5 33t-33.5 79z" />
<glyph unicode="&#x3c;" horiz-adv-x="918" d="M710 931l88 -125l-411 -288l411 -288l-88 -125l-590 413z" />
<glyph unicode="=" horiz-adv-x="1030" d="M910 592h-790v154h790v-154zM910 284h-790v154h790v-154z" />
<glyph unicode="&#x3e;" horiz-adv-x="918" d="M208 105l-88 125l411 288l-411 288l88 125l590 -413z" />
<glyph unicode="?" horiz-adv-x="975" d="M162 1191l-42 115q49 63 143.5 102.5t201.5 39.5q75 0 143.5 -21t124.5 -61t89.5 -107t33.5 -152q0 -66 -21 -120t-55 -93t-74.5 -76.5t-81 -81t-74.5 -95t-55 -130.5t-21 -177h-154q0 105 21.5 191.5t55.5 143.5t75 104.5t82 84t75 71.5t55.5 77.5t21.5 91.5 q0 91 -66.5 147t-186.5 56q-88 0 -167 -30t-115 -80h-9zM285 92q0 46 33.5 79t79.5 33q47 0 80.5 -33t33.5 -79t-33.5 -79t-80.5 -33q-46 0 -79.5 33t-33.5 79z" />
<glyph unicode="@" horiz-adv-x="1422" d="M1322 335l-88 -145q-103 34 -157 145q-128 -145 -320 -145q-45 0 -88.5 8t-89.5 30.5t-80.5 57t-56.5 92t-22 131.5q0 150 94.5 225.5t301.5 75.5q71 0 209 -12v62q0 109 -62 153.5t-192 44.5q-249 0 -393 -134t-144 -380q0 -243 136 -398t367 -155q219 0 325 97l104 -94 q-80 -76 -193.5 -111.5t-235.5 -35.5q-199 0 -349.5 89.5t-229 245t-78.5 353.5q0 136 39 248.5t105.5 188.5t156 128.5t188.5 76.5t205 24q104 0 176.5 -16t125.5 -54.5t78 -105t25 -165.5v-263q0 -48 4.5 -83t18 -73t44 -65t76.5 -41zM767 334q28 0 57 4.5t67 20.5 t66 41.5t48 73t20 109.5v84q-19 0 -53 0.5t-50 0.5q-74 0 -122.5 -3t-95.5 -12t-73 -26t-42 -46t-16 -71q0 -85 54 -130.5t140 -45.5z" />
<glyph unicode="A" horiz-adv-x="1308" d="M285 0h-116q-113 0 -127 8q-12 14 -12 61q0 39 9 52q49 12 106 19l405 1178h207l405 -1178q59 -7 107 -19q9 -14 9 -52q0 -47 -12 -61q-14 -8 -127 -8h-116q-113 0 -127 8q-12 14 -12 61q0 39 9 52q47 11 109 20l-57 166h-582l-58 -166q65 -10 110 -20q9 -13 9 -52 q0 -47 -12 -61q-14 -8 -127 -8zM412 451h484l-242 701z" />
<glyph unicode="B" horiz-adv-x="1106" d="M386 0h-207q-113 0 -127 8q-12 14 -12 61q0 39 9 52q46 11 111 20v1035q-54 8 -111 21q-9 13 -9 52q0 47 12 61q14 8 127 8h181q320 0 461.5 -78t141.5 -273q0 -188 -118 -273q103 -41 152 -117t49 -193q0 -74 -18.5 -132.5t-49 -98.5t-81 -69t-101.5 -45t-124.5 -25 t-136 -11.5t-149.5 -2.5zM315 605v-459h101q76 0 127 1.5t105 7t88.5 15t67 26t49.5 40t27.5 57t10.5 77.5q0 60 -19 102.5t-51.5 68.5t-88.5 40t-117.5 19t-151.5 5h-148zM315 1174v-423h57q59 0 92.5 0.5t79.5 2.5t71 5.5t58 10.5t50 17t36.5 25t28.5 35t15 46t6 59 q0 51 -11.5 87.5t-39 61t-59.5 39.5t-86 22t-104.5 9.5t-128.5 2.5h-65z" />
<glyph unicode="C" horiz-adv-x="1081" d="M1041 163v-142q-142 -41 -304 -41t-288 51.5t-206 145t-121.5 221t-41.5 282.5q3 141 44.5 259.5t121 208t205 140t286.5 50.5q162 0 304 -41v-142q0 -112 -7 -126q-12 -12 -61 -12q-39 0 -53 8q-17 69 -26 157q-85 11 -149 11q-249 0 -380 -144.5t-131 -388.5 q0 -242 131 -388.5t380 -146.5q64 0 149 11q9 88 26 157q14 8 53 8q49 0 61 -12q7 -14 7 -126z" />
<glyph unicode="D" horiz-adv-x="1298" d="M549 0h-370q-113 0 -127 8q-12 14 -12 61q0 39 9 52q46 11 111 20v1035q-54 8 -111 21q-9 13 -9 52q0 47 12 61q14 8 127 8h354q191 0 347.5 -84t247 -235t90.5 -339q0 -189 -86.5 -340t-239.5 -235.5t-343 -84.5zM315 1174v-1030h234q236 0 375 138.5t139 361.5 q0 153 -71.5 275.5t-192.5 188.5t-266 66h-218z" />
<glyph unicode="E" horiz-adv-x="998" d="M954 1318v-144q0 -112 -7 -126q-12 -12 -61 -12q-39 0 -53 8q-15 67 -23 130h-495v-443h391q8 65 23 130q14 8 53 8q49 0 61 -12q7 -14 7 -126v-144q0 -112 -7 -126q-12 -12 -61 -12q-39 0 -53 8q-15 67 -23 130h-391v-443h495q8 65 23 130q14 8 53 8q49 0 61 -12 q7 -14 7 -126v-144h-775q-113 0 -127 8q-12 14 -12 61q0 39 9 52q46 11 111 20v1035q-54 8 -111 21q-9 13 -9 52q0 47 12 61q14 8 127 8h775z" />
<glyph unicode="F" horiz-adv-x="1011" d="M315 0h-155q-96 0 -108 8q-12 14 -12 61q0 39 9 52q46 11 111 20v1035q-54 8 -111 21q-9 13 -9 52q0 47 12 61q14 8 127 8h787v-144q0 -112 -7 -126q-12 -12 -61 -12q-39 0 -53 8q-15 67 -23 130h-507v-438h379q9 69 22 125q14 8 53 8q49 0 61 -12q7 -14 7 -126v-144 q0 -112 -7 -126q-12 -12 -61 -12q-39 0 -53 8q-15 61 -23 125h-378v-441q68 -10 111 -20q9 -13 9 -52q0 -47 -12 -61q-12 -8 -108 -8z" />
<glyph unicode="G" horiz-adv-x="1268" d="M1069 -2l-92 71q-130 -89 -291 -89q-179 0 -317.5 89t-213.5 245.5t-75 352.5q0 112 25 211.5t77.5 184t129 145.5t184 95.5t237.5 34.5q167 0 309 -41v-142q0 -112 -7 -126q-12 -12 -61 -12q-39 0 -53 8q-17 69 -26 157q-76 11 -150 11q-125 0 -223.5 -40.5t-160.5 -111 t-94 -163.5t-32 -202q0 -153 59.5 -279t167 -199.5t241.5 -73.5q102 0 172 37t102 77v331h-285v155h436v-726h-59z" />
<glyph unicode="H" horiz-adv-x="1274" d="M160 1318h136q113 0 127 -8q12 -14 12 -61q0 -39 -9 -52q-55 -13 -111 -21v-440h643v441q-65 10 -110 20q-9 13 -9 52q0 47 12 61q14 8 127 8h117q113 0 127 -8q12 -14 12 -61q0 -39 -9 -52q-60 -14 -112 -21v-1035q64 -9 112 -20q9 -14 9 -52q0 -47 -12 -61 q-14 -8 -127 -8h-117q-113 0 -127 8q-12 14 -12 61q0 39 9 52q45 10 110 20v441h-643v-441q65 -10 110 -20q9 -13 9 -52q0 -47 -12 -61q-9 -6 -107 -8h-155q-96 0 -108 8q-12 14 -12 61q0 39 9 52q46 11 111 20v1035q-54 8 -111 21q-9 13 -9 52q0 47 12 61q12 6 108 8z" />
<glyph unicode="I" horiz-adv-x="474" d="M295 0h-116q-113 0 -127 8q-12 14 -12 61q0 39 9 52q46 11 111 20v1035q-54 8 -111 21q-9 13 -9 52q0 47 12 61q14 8 127 8h116q113 0 127 -8q12 -14 12 -61q0 -39 -9 -52q-55 -13 -111 -21v-1035q68 -10 111 -20q9 -13 9 -52q0 -47 -12 -61q-14 -8 -127 -8z" />
<glyph unicode="J" horiz-adv-x="701" d="M410 1318h117q113 0 127 -8q12 -14 12 -61q0 -39 -9 -52q-55 -13 -111 -21v-792q0 -206 -96 -305t-253 -99q-73 0 -137 15v129q0 112 7 126q12 12 61 12q39 0 53 -8q11 -50 23 -131q85 0 136 63t51 198v792q-54 8 -111 21q-9 13 -9 52q0 47 12 61q14 8 127 8z" />
<glyph unicode="K" horiz-adv-x="1120" d="M978 0q-2 0 -6 2q-101 47 -244 177t-259 272t-154 231v-541q68 -10 111 -20q9 -13 9 -52q0 -47 -12 -61q-12 -8 -108 -8h-155q-96 0 -108 8q-12 14 -12 61q0 39 9 52q46 11 111 20v1035q-54 8 -111 21q-9 13 -9 52q0 47 12 61q12 6 108 8h136q113 0 127 -8q12 -14 12 -61 q0 -39 -9 -52q-55 -13 -111 -21v-476l409 486q-47 10 -49 11q-9 13 -9 52q0 47 12 61q14 8 127 8h117q113 0 127 -8q12 -14 12 -61q0 -39 -9 -52q-58 -14 -143 -25l-403 -478q50 -96 183 -241t263 -244q45 45 65 55q42 -6 83 -53q-5 -28 -38 -86.5t-84 -124.5z" />
<glyph unicode="L" horiz-adv-x="968" d="M179 1318h116q113 0 127 -8q12 -14 12 -61q0 -39 -9 -52q-55 -13 -120 -22v-1031h475q8 65 23 130q14 8 53 8q49 0 61 -12q7 -14 7 -126v-144h-745q-113 0 -127 8q-12 14 -12 61q0 39 9 52q54 12 101 19v1038q-53 7 -101 19q-9 13 -9 52q0 47 12 61q14 8 127 8z" />
<glyph unicode="M" horiz-adv-x="1413" d="M1244 0h-116q-113 0 -127 8q-12 14 -12 61q0 39 9 52q47 11 109 20l-4 962l-372 -723h-36l-376 732l-4 -971q65 -10 110 -20q9 -13 9 -52q0 -47 -12 -61q-14 -8 -127 -8h-116q-113 0 -127 8q-12 14 -12 61q0 39 9 52q46 11 111 20l4 1035q-73 10 -115 21q-9 13 -9 52 q0 47 12 61q14 8 127 8h195l337 -664h4l337 664h192q113 0 127 -8q12 -14 12 -61q0 -39 -9 -52q-44 -11 -117 -21l5 -1035q64 -9 112 -20q9 -14 9 -52q0 -47 -12 -61q-14 -8 -127 -8z" />
<glyph unicode="N" horiz-adv-x="1263" d="M958 299v877q-54 8 -111 21q-9 13 -9 52q0 47 12 61q14 8 127 8h117q113 0 127 -8q12 -14 12 -61q0 -39 -9 -52q-55 -13 -111 -21v-1176h-155l-643 1028v-887q65 -10 110 -20q9 -13 9 -52q0 -47 -12 -61q-14 -8 -127 -8h-116q-113 0 -127 8q-12 14 -12 61q0 39 9 52 q46 11 111 20v1035q-54 8 -111 21q-9 13 -9 52q0 47 12 61q14 8 127 8h142z" />
<glyph unicode="O" horiz-adv-x="1383" d="M80 660q0 190 77.5 344.5t219.5 244t321 89.5t317.5 -89.5t213 -243.5t74.5 -345q0 -190 -77 -345t-218.5 -245t-320.5 -90t-318 90t-214 244.5t-75 345.5zM234 672q0 -156 53.5 -279t160 -196t251.5 -73q211 0 330.5 146t119.5 378q0 157 -51.5 279t-155.5 194.5 t-248 72.5q-212 0 -336 -146.5t-124 -375.5z" />
<glyph unicode="P" horiz-adv-x="1130" d="M296 0h-117q-113 0 -127 8q-12 14 -12 61q0 39 9 52q46 11 111 20v1035q-54 8 -111 21q-9 13 -9 52q0 47 12 61q14 8 127 8h240q328 0 489.5 -102.5t161.5 -325.5q0 -104 -35 -184.5t-94.5 -133t-145 -86.5t-180 -48t-205.5 -14h-95v-283q68 -10 111 -20q9 -13 9 -52 q0 -47 -12 -61q-14 -8 -127 -8zM315 1172v-602h124q113 0 197 14.5t148.5 47.5t97.5 91.5t33 142.5q0 70 -24.5 123.5t-66 87.5t-103 56t-130 30.5t-152.5 8.5h-124z" />
<glyph unicode="Q" horiz-adv-x="1383" d="M1092 -282q-79 10 -177 87.5t-150 179.5q-43 -5 -78 -5q-179 0 -318 90t-214 244.5t-75 345.5q0 190 77.5 344.5t219.5 244t321 89.5t317.5 -89.5t213 -243.5t74.5 -345q0 -221 -104 -393t-281 -243q50 -67 127 -118q66 68 86 76q42 -6 83 -53q-5 -28 -38 -86.5 t-84 -124.5zM232 672q0 -155 54 -278.5t161 -196.5t252 -73q211 0 331.5 146t120.5 378q0 157 -52 279t-156.5 194.5t-248.5 72.5q-212 0 -337 -146.5t-125 -375.5z" />
<glyph unicode="R" horiz-adv-x="1240" d="M1098 -20q-44 10 -94.5 49t-93.5 91t-86 116t-73 117t-53 101q-115 -23 -287 -23h-96v-290q68 -10 111 -20q9 -13 9 -52q0 -47 -12 -61q-14 -8 -127 -8h-117q-113 0 -127 8q-12 14 -12 61q0 39 9 52q46 11 111 20v1035q-54 8 -111 21q-9 13 -9 52q0 47 12 61q14 8 127 8 h304q218 0 347.5 -47.5t184.5 -140t55 -243.5q0 -283 -223 -385q25 -69 88 -159.5t133 -157.5q50 50 69 59q42 -6 83 -53q-5 -28 -38 -86.5t-84 -124.5zM315 1173v-597h133q112 0 195 15t146.5 48.5t96 92.5t32.5 142q0 88 -30.5 147.5t-92 92t-138.5 46t-184 13.5h-158z " />
<glyph unicode="S" horiz-adv-x="919" d="M685 341q0 63 -28.5 106.5t-87.5 80.5q-43 28 -184 98t-184 105q-104 83 -104 252q0 77 23 138.5t61 101.5t91 66.5t110.5 37.5t122.5 11q114 0 232 -35v-132q0 -112 -7 -126q-12 -12 -61 -12q-39 0 -53 8q-14 55 -26 150q-47 5 -85 5q-267 0 -267 -201q0 -87 57 -138 q37 -32 174.5 -101.5t194.5 -105.5q82 -52 123.5 -112.5t41.5 -162.5q0 -98 -40 -175t-107.5 -124t-150 -71.5t-172.5 -24.5q-147 0 -269 58v140q0 112 7 126q12 12 61 12q39 0 53 -8q19 -84 27 -171q75 -13 145 -13q84 0 148.5 19t109 69.5t44.5 128.5z" />
<glyph unicode="T" horiz-adv-x="1060" d="M45 1318h970v-147q0 -112 -7 -126q-12 -12 -61 -12q-39 0 -53 8q-12 46 -24 133h-263v-1033q68 -10 111 -20q9 -13 9 -52q0 -47 -12 -61q-14 -8 -127 -8h-116q-113 0 -127 8q-12 14 -12 61q0 39 9 52q46 11 111 20v1033h-264q-12 -84 -23 -133q-14 -8 -53 -8 q-49 0 -61 12q-7 14 -7 126v147z" />
<glyph unicode="U" horiz-adv-x="1291" d="M174 1318h116q113 0 127 -8q12 -14 12 -61q0 -39 -9 -52q-55 -13 -111 -21v-636q0 -82 10.5 -147t27 -108t43.5 -74.5t53 -48t63.5 -26t66.5 -12t69 -2.5q43 0 75 2.5t69.5 12.5t64 27.5t53 48.5t42.5 74.5t26 107.5t10 145v636q-54 8 -111 21q-9 13 -9 52q0 47 12 61 q14 8 127 8h116q113 0 127 -8q12 -14 12 -61q0 -39 -9 -52q-55 -13 -111 -21v-686q0 -94 -16 -170t-42 -128t-65.5 -91.5t-80.5 -62t-93 -36t-97 -18t-99 -4.5q-53 0 -97.5 4.5t-96 18t-92.5 36t-80 61.5t-65 91t-41.5 128.5t-15.5 170.5v686q-54 8 -111 21q-9 13 -9 52 q0 47 12 61q14 8 127 8z" />
<glyph unicode="V" horiz-adv-x="1308" d="M654 165l349 1012q-65 10 -110 20q-9 13 -9 52q0 47 12 61q14 8 127 8h116q113 0 127 -8q12 -14 12 -61q0 -39 -9 -52q-42 -10 -106 -20l-406 -1177h-207l-405 1177q-61 9 -106 20q-9 13 -9 52q0 47 12 61q14 8 127 8h116q113 0 127 -8q12 -14 12 -61q0 -39 -9 -52 q-45 -10 -110 -20z" />
<glyph unicode="W" horiz-adv-x="1866" d="M1310 272l258 904q-73 10 -117 21q-9 13 -9 52q0 47 12 61q14 8 127 8h116q113 0 127 -8q12 -14 12 -61q0 -39 -9 -52q-48 -12 -101 -19l-338 -1178h-156l-299 1045l-299 -1045h-156l-338 1178q-53 7 -101 19q-9 13 -9 52q0 47 12 61q14 8 127 8h116q113 0 127 -8 q12 -14 12 -61q0 -39 -9 -52q-43 -11 -118 -21l258 -904l300 1046h156z" />
<glyph unicode="X" horiz-adv-x="1242" d="M285 0h-116q-113 0 -127 8q-12 14 -12 61q0 39 9 52q51 12 132 23l360 555l-309 475q-63 8 -130 23q-9 13 -9 52q0 47 12 61q14 8 127 8h116q113 0 127 -8q12 -14 12 -61q0 -39 -9 -52q-37 -9 -72 -14l225 -346l224 346q-36 6 -70 14q-9 13 -9 52q0 47 12 61q14 8 127 8 h116q113 0 127 -8q12 -14 12 -61q0 -39 -9 -52q-52 -13 -131 -23l-309 -475l360 -555q80 -11 132 -23q9 -14 9 -52q0 -47 -12 -61q-14 -8 -127 -8h-116q-113 0 -127 8q-12 14 -12 61q0 39 9 52l70 14l-276 425l-276 -425l70 -14q9 -13 9 -52q0 -47 -12 -61q-14 -8 -127 -8z " />
<glyph unicode="Y" horiz-adv-x="1166" d="M641 0h-116q-113 0 -127 8q-12 14 -12 61q0 39 9 52q46 11 111 20v351l-333 681q-86 12 -134 24q-9 13 -9 52q0 47 12 61q14 8 127 8h116q113 0 127 -8q12 -14 12 -61q0 -39 -9 -52q-39 -9 -91 -17l259 -530l258 530q-49 7 -90 17q-9 13 -9 52q0 47 12 61q14 8 127 8h116 q113 0 127 -8q12 -14 12 -61q0 -39 -9 -52q-46 -12 -135 -24l-332 -681v-351q68 -10 111 -20q9 -13 9 -52q0 -47 -12 -61q-14 -8 -127 -8z" />
<glyph unicode="Z" horiz-adv-x="960" d="M880 1318l4 -5l-596 -1169h459q8 84 27 164q14 8 53 8q49 0 61 -12q7 -14 7 -126v-178h-826l-4 5l593 1169h-430q-12 -84 -23 -133q-14 -8 -53 -8q-49 0 -61 12q-7 14 -7 126v147h796z" />
<glyph unicode="[" horiz-adv-x="580" d="M120 1448h340v-144h-186v-1160h186v-144h-340v1448z" />
<glyph unicode="\" horiz-adv-x="971" d="M852 -168l-144 -53l-588 1616l144 53z" />
<glyph unicode="]" horiz-adv-x="580" d="M460 0h-340v144h186v1160h-186v144h340v-1448z" />
<glyph unicode="_" horiz-adv-x="800" d="M0 144h800v-144h-800v144z" />
<glyph unicode="`" horiz-adv-x="667" d="M182 1558q180 -158 391 -253q-3 -30 -16.5 -67.5t-25.5 -47.5q-123 24 -262 106.5t-175 136.5q6 39 30.5 73.5t57.5 51.5z" />
<glyph unicode="a" horiz-adv-x="1022" d="M137 875v101q119 47 192 64.5t187 17.5q323 0 323 -341v-330q0 -48 4.5 -83t18 -73t44 -65t76.5 -41l-88 -145q-103 34 -157 145q-128 -145 -320 -145q-45 0 -88.5 8t-89.5 30.5t-80.5 57t-56.5 92.5t-22 132q0 149 94.5 224.5t301.5 75.5q71 0 209 -12v129 q0 198 -196 198q-110 0 -207 -31q-10 -74 -24 -139q-14 -8 -53 -8q-49 0 -61 12q-7 14 -7 126zM405 124q38 0 71.5 4.5t73.5 20.5t68 41.5t47.5 72.5t19.5 110v84q-227 2 -297 -9q-118 -18 -145 -87q-10 -26 -10 -61q0 -43 15 -76.5t36 -51.5t47 -29.5t44 -15t30 -3.5z" />
<glyph unicode="b" horiz-adv-x="1110" d="M161 54v1240q-102 2 -108 7q-11 4 -11 67q0 31 7 45q43 14 106.5 22.5t99 10.5t54.5 2h6v-481q121 91 267 91q201 0 324.5 -151.5t123.5 -381.5q0 -112 -32 -209t-94.5 -173t-164.5 -119.5t-232 -43.5q-168 0 -346 74zM561 914q-166 0 -246 -113v-647q84 -32 203 -32 q158 0 257.5 112t99.5 305q0 79 -18.5 145.5t-55 118.5t-98 81.5t-142.5 29.5z" />
<glyph unicode="c" horiz-adv-x="899" d="M578 124q77 0 156 20q9 97 28 176q14 8 53 8q49 0 61 -12q7 -14 7 -126v-136q-148 -74 -321 -74q-97 0 -181 31.5t-152.5 95.5t-108.5 171.5t-40 247.5q0 111 25.5 201t69.5 151t106 102t132 59.5t149 18.5q173 0 321 -74v-136q0 -112 -7 -126q-12 -12 -61 -12 q-39 0 -53 8q-19 79 -28 176q-85 20 -156 20q-73 0 -134 -21t-109 -65t-75 -119.5t-27 -176.5q0 -200 97 -304t248 -104z" />
<glyph unicode="d" horiz-adv-x="1173" d="M949 1448v-1314q161 0 172 -7q11 -4 11 -67q0 -31 -7 -45q-43 -14 -106.5 -22.5t-99 -10.5t-54.5 -2h-6l-39 112q-129 -111 -292 -111q-132 0 -235.5 75.5t-158 201t-54.5 276.5q0 112 32 206t94.5 165.5t164 112t232.5 40.5q85 0 192 -21v257q-102 2 -108 7 q-11 4 -11 67q0 31 7 45q43 14 106.5 22.5t99 10.5t54.5 2h6zM549 125q167 0 246 113v637q-105 41 -203 41q-161 0 -259 -102t-98 -293q0 -79 18.5 -148.5t55 -126t98.5 -89t142 -32.5z" />
<glyph unicode="e" horiz-adv-x="946" d="M881 480h-647q12 -173 107 -264.5t236 -91.5q135 0 280 74l3 -1v-143q-149 -74 -298 -74q-99 0 -184.5 33t-153 98.5t-106 173.5t-38.5 247q0 114 26.5 208t79.5 166t139.5 112t200.5 40q66 0 120 -14.5t90 -37.5t63.5 -58.5t42.5 -72t24 -83t12 -86t3 -86.5v-140z M523 914q-114 0 -188 -81t-94 -213h488q-1 64 -10.5 113.5t-32 92t-63.5 65.5t-100 23z" />
<glyph unicode="f" horiz-adv-x="593" d="M520 1448q103 0 253 -46q0 -251 -7 -265q-12 -12 -61 -12q-39 0 -53 8q-25 108 -30 162q-52 10 -86 10q-84 0 -128.5 -60t-44.5 -203v-4h209v-143h-209v-754q68 -10 111 -20q9 -13 9 -52q0 -47 -12 -61q-14 -8 -127 -8h-116q-113 0 -127 8q-12 14 -12 61q0 39 9 52 q46 11 111 20v754h-168v143h168v4q0 406 311 406z" />
<glyph unicode="g" horiz-adv-x="1034" d="M98 712q0 149 108 247.5t276 98.5q111 0 201 -48q65 48 138 76.5t127 28.5l46 -131q-101 -17 -195 -75q60 -87 60 -193q0 -151 -110 -258.5t-277 -107.5q-102 0 -192 45q-35 -44 -35 -85q0 -40 34 -66.5t94 -26.5h196q204 0 311.5 -83.5t107.5 -208.5 q0 -109 -79.5 -203.5t-202 -147t-252.5 -52.5q-174 0 -279 94.5t-105 236.5q0 63 33 134t91 130q-40 23 -62.5 71.5t-22.5 95.5q0 88 75 181q-41 44 -63.5 110.5t-22.5 136.5zM431 84h-117q-42 -48 -67 -106t-25 -111q0 -97 60.5 -153.5t191.5 -56.5q151 0 253.5 80 t102.5 178q0 38 -13.5 66.5t-42 46.5t-61 29.5t-82.5 17t-94 7.5t-106 2zM478 920q-109 0 -172.5 -66.5t-63.5 -150.5q0 -85 64 -150.5t175 -65.5q109 0 170.5 64.5t61.5 149.5q0 86 -63 152.5t-172 66.5z" />
<glyph unicode="h" horiz-adv-x="1150" d="M1100 121q9 -14 9 -52q0 -47 -12 -61q-14 -8 -127 -8h-116q-113 0 -127 8q-12 14 -12 61q0 39 9 52q46 11 111 20v515q0 259 -227 259q-113 0 -274 -100v-674q68 -10 111 -20q9 -13 9 -52q0 -47 -12 -61q-14 -8 -127 -8h-116q-113 0 -127 8q-12 14 -12 61q0 39 9 52 q46 11 111 20v1153q-102 2 -108 7q-11 4 -11 67q0 31 7 45q43 14 106.5 22.5t99 10.5t54.5 2h6v-492q168 102 289 102q77 0 141 -21t115.5 -65.5t80.5 -123t29 -184.5v-523q68 -10 111 -20z" />
<glyph unicode="i" d="M257 1215q-44 0 -75.5 31t-31.5 75t31.5 75.5t75.5 31.5t76 -31.5t32 -75.5q0 -43 -32 -74.5t-76 -31.5zM445 121q9 -13 9 -52q0 -47 -12 -61q-14 -8 -127 -8h-116q-113 0 -127 8q-12 14 -12 61q0 39 9 52q46 11 111 20v763q-103 2 -109 7q-11 4 -11 67q0 31 7 45 q43 14 107 22.5t99.5 10.5t54.5 2h6v-917q68 -10 111 -20z" />
<glyph unicode="j" horiz-adv-x="540" d="M348 1058v-1132q0 -207 -88.5 -305.5t-233.5 -98.5q-119 0 -256 63v129q0 112 7 126q12 12 61 12q39 0 53 -8q19 -80 27 -164q47 -15 89 -15q85 0 136 63t51 198v978q-102 2 -108 7q-11 4 -11 67q0 31 7 45q43 14 106.5 22.5t99 10.5t54.5 2h6zM165 1321q0 44 31.5 75.5 t75.5 31.5t76 -31.5t32 -75.5q0 -43 -32 -74.5t-76 -31.5t-75.5 31t-31.5 75z" />
<glyph unicode="k" horiz-adv-x="1029" d="M921 244q42 -6 83 -53q-5 -28 -38 -86.5t-84 -124.5q-58 3 -136 56t-149 127.5t-135 152.5t-103 136t-44 75v-386q68 -10 111 -20q9 -13 9 -52q0 -47 -12 -61q-14 -8 -127 -8h-116q-113 0 -127 8q-12 14 -12 61q0 39 9 52q46 11 111 20v1153q-102 2 -108 7q-11 4 -11 67 q0 31 7 45q43 14 106.5 22.5t99 10.5t54.5 2h6v-902l299 358q-43 7 -65 13q-9 14 -9 52q0 47 12 61q14 8 127 8h116q113 0 127 -8q12 -14 12 -61q0 -38 -9 -52q-55 -13 -120 -22l-302 -359q11 -45 120.5 -167.5t215.5 -196.5q57 60 82 72z" />
<glyph unicode="l" d="M445 121q9 -13 9 -52q0 -47 -12 -61q-14 -8 -127 -8h-116q-113 0 -127 8q-12 14 -12 61q0 39 9 52q46 11 111 20v1153q-103 2 -109 7q-11 4 -11 67q0 31 7 45q43 14 107 22.5t99.5 10.5t54.5 2h6v-1307q68 -10 111 -20z" />
<glyph unicode="m" horiz-adv-x="1662" d="M1622 121q9 -14 9 -52q0 -47 -12 -61q-14 -8 -127 -8h-116q-113 0 -127 8q-12 14 -12 61q0 39 9 52q46 11 111 20v514q0 260 -227 260q-97 0 -234 -77q24 -77 24 -173v-524q68 -10 111 -20q9 -14 9 -52q0 -47 -12 -61q-14 -8 -127 -8h-116q-113 0 -127 8q-12 14 -12 61 q0 39 9 52q46 11 111 20v515q0 259 -191 259q-116 0 -246 -98v-676q68 -10 111 -20q9 -13 9 -52q0 -47 -12 -61q-14 -8 -127 -8h-116q-113 0 -127 8q-12 14 -12 61q0 39 9 52q46 11 111 20v763q-103 2 -109 7q-11 4 -11 67q0 31 7 45q108 35 197 35h6l42 -115 q96 62 163 88.5t133 26.5q150 0 237 -112q73 46 156 79t149 33q77 0 141 -21t115.5 -65.5t80.5 -123t29 -184.5v-523q68 -10 111 -20z" />
<glyph unicode="n" horiz-adv-x="1135" d="M1095 121q9 -14 9 -52q0 -47 -12 -61q-14 -8 -127 -8h-116q-113 0 -127 8q-12 14 -12 61q0 39 9 52q46 11 111 20v514q0 260 -227 260q-109 0 -274 -100v-674q68 -10 111 -20q9 -13 9 -52q0 -47 -12 -61q-14 -8 -127 -8h-116q-113 0 -127 8q-12 14 -12 61q0 39 9 52 q46 11 111 20v763q-103 2 -109 7q-11 4 -11 67q0 31 7 45q108 35 204 35h6l35 -116q72 48 157 82t154 34q77 0 141 -21t115.5 -65.5t80.5 -123t29 -184.5v-523q68 -10 111 -20z" />
<glyph unicode="o" horiz-adv-x="1112" d="M80 516q0 150 60.5 273.5t171 196t248.5 72.5t247 -73t167 -195t58 -269q0 -150 -60 -273t-170.5 -195.5t-249.5 -72.5t-247.5 72.5t-166.5 194.5t-58 269zM235 524q0 -172 85.5 -286t240.5 -114q151 0 233.5 108t82.5 281q0 113 -34.5 202t-108.5 144t-178 55 q-151 0 -236 -109.5t-85 -280.5z" />
<glyph unicode="p" horiz-adv-x="1110" d="M582 1058q201 0 324.5 -151t123.5 -381q0 -112 -32 -209t-94.5 -173.5t-164.5 -120t-232 -43.5q-95 0 -192 21v-318q68 -10 111 -20q9 -13 9 -52q0 -47 -12 -61q-14 -8 -127 -8h-116q-113 0 -127 8q-12 14 -12 61q0 39 9 52q46 11 111 20v1221q-103 2 -109 7 q-11 4 -11 67q0 31 7 45q108 35 204 35h6l34 -110q128 110 290 110zM518 122q158 0 257.5 112t99.5 305q0 79 -18.5 145.5t-55 118.5t-98 81.5t-142.5 29.5q-167 0 -246 -112v-640q97 -40 203 -40z" />
<glyph unicode="q" horiz-adv-x="1110" d="M1060 -337q9 -14 9 -52q0 -47 -12 -61q-14 -8 -127 -8h-116q-113 0 -127 8q-12 14 -12 61q0 39 9 52q46 11 111 20v388q-117 -91 -267 -91q-132 0 -235.5 76t-158 202t-54.5 277q0 112 32 205.5t94.5 165.5t164 112t232.5 40q168 0 346 -74v-1301q68 -10 111 -20z M549 123q166 0 246 113v648q-88 32 -203 32q-161 0 -259 -102t-98 -293q0 -79 18.5 -148.5t55 -126.5t98.5 -90t142 -33z" />
<glyph unicode="r" horiz-adv-x="766" d="M574 1058q93 0 172 -36q0 -251 -7 -265q-12 -12 -61 -12q-39 0 -53 8q-25 106 -30 158q-21 4 -46 4q-124 0 -215 -139v-635q68 -10 111 -20q9 -13 9 -52q0 -47 -12 -61q-14 -8 -127 -8h-116q-113 0 -127 8q-12 14 -12 61q0 39 9 52q46 11 111 20v763q-103 2 -109 7 q-11 4 -11 67q0 31 7 45q108 35 204 35h6l42 -138q119 138 255 138z" />
<glyph unicode="s" horiz-adv-x="801" d="M576 293q0 44 -27.5 77.5t-72 55.5t-98 42.5t-107 46t-98 58.5t-72 87t-27.5 125q0 75 29.5 129.5t80.5 85t111 44.5t131 14q127 0 254 -41v-84q0 -112 -7 -126q-12 -12 -61 -12q-39 0 -53 8q-12 48 -19 103q-80 13 -137 13q-35 0 -64.5 -5.5t-55.5 -18.5t-41 -38 t-15 -59q0 -46 28 -80.5t72 -56.5t98 -42t108 -44.5t98 -56t72 -84t28 -121.5q0 -65 -24.5 -120.5t-66 -94t-96 -65.5t-115 -40t-123.5 -13q-127 0 -236 47v145q0 112 7 126q12 12 61 12q39 0 53 -8q16 -70 27 -167q46 -10 97 -10q39 0 81.5 9t84 27.5t68.5 53t27 78.5z" />
<glyph unicode="t" horiz-adv-x="754" d="M734 172v-129q-137 -63 -256 -63q-145 0 -234 98.5t-89 305.5v510h-115v144h115v186l145 27h10v-213h288v-144h-288v-510q0 -135 51 -198t136 -63q41 0 89 14q8 85 27 165q14 8 53 8q49 0 61 -12q7 -14 7 -126z" />
<glyph unicode="u" horiz-adv-x="1162" d="M960 1058v-924q160 0 171 -7q11 -4 11 -67q0 -31 -7 -45q-43 -14 -107 -22.5t-99.5 -10.5t-54.5 -2h-6l-37 119q-72 -49 -159 -84t-156 -35q-77 0 -141 21t-116 65.5t-81 123t-29 184.5v530q-102 2 -108 7q-11 4 -11 67q0 31 7 45q43 14 107 22.5t99.5 10.5t54.5 2h6 v-675q0 -260 227 -260q111 0 274 99v682q-102 2 -108 7q-11 4 -11 67q0 31 7 45q43 14 107 22.5t99.5 10.5t54.5 2h6z" />
<glyph unicode="v" horiz-adv-x="1114" d="M829 1038h116q113 0 127 -8q12 -14 12 -61q0 -38 -9 -52q-43 -10 -107 -20l-308 -897h-207l-308 897q-61 9 -106 20q-9 14 -9 52q0 47 12 61q14 8 127 8h116q113 0 127 -8q12 -14 12 -61q0 -38 -9 -52q-47 -11 -109 -20l251 -732l251 732q-66 10 -109 20q-9 14 -9 52 q0 47 12 61q14 8 127 8z" />
<glyph unicode="w" horiz-adv-x="1719" d="M1434 1038h116q113 0 127 -8q12 -14 12 -61q0 -38 -9 -52q-41 -11 -114 -21l-284 -896h-192l-231 790l-231 -790h-193l-284 896q-57 8 -112 21q-9 14 -9 52q0 47 12 61q14 8 127 8h116q113 0 127 -8q12 -14 12 -61q0 -38 -9 -52q-43 -11 -114 -21l230 -725l257 867h142 l257 -867l230 725q-57 8 -113 21q-9 14 -9 52q0 47 12 61q14 8 127 8z" />
<glyph unicode="x" horiz-adv-x="1107" d="M285 0h-116q-113 0 -127 8q-12 14 -12 61q0 39 9 52q68 15 134 23l288 412l-236 337q-86 12 -134 24q-9 14 -9 52q0 47 12 61q14 8 127 8h116q113 0 127 -8q12 -14 12 -61q0 -38 -9 -52q-21 -6 -64 -13l155 -222l155 222q-43 7 -64 13q-9 14 -9 52q0 47 12 61q14 8 127 8 h116q113 0 127 -8q12 -14 12 -61q0 -38 -9 -52q-48 -12 -134 -24l-241 -344l284 -405q66 -8 134 -23q9 -14 9 -52q0 -47 -12 -61q-14 -8 -127 -8h-116q-113 0 -127 8q-12 14 -12 61q0 39 9 52q42 9 64 13l-203 290l-202 -290q13 -2 64 -13q9 -13 9 -52q0 -47 -12 -61 q-14 -8 -127 -8z" />
<glyph unicode="y" horiz-adv-x="1052" d="M941 1038l-1 -2q54 -2 65 -6q12 -14 12 -61q0 -38 -9 -52q-44 -11 -116 -21l-396 -1148q-79 -226 -300 -226q-117 0 -256 63v129q0 112 7 126q12 12 61 12q39 0 53 -8q16 -68 27 -164q45 -15 89 -15q57 0 103.5 27.5t66.5 84.5l77 223h-48l-309 899q-37 5 -95 18 q-9 14 -9 52q0 47 12 61q7 3 45 5l-1 3h199q113 0 127 -8q12 -14 12 -61q0 -38 -9 -52q-55 -13 -120 -22l252 -730l253 733q-53 7 -101 19q-9 14 -9 52q0 47 12 61q14 8 127 8h179z" />
<glyph unicode="z" horiz-adv-x="911" d="M55 0l-5 5l546 889h-386q-11 -78 -23 -130q-14 -8 -53 -8q-49 0 -61 12q-7 14 -7 126v144h790l5 -6l-546 -888h399q8 65 23 130q14 8 53 8q49 0 61 -12q7 -14 7 -126v-144h-803z" />
<glyph unicode="{" horiz-adv-x="810" d="M690 123v-142q-6 0 -19 -0.5t-20 -0.5q-323 0 -323 341v124q0 194 -188 198h-20v142h12q196 0 196 198v124q0 341 323 341q7 0 20 -0.5t19 -0.5v-142h-12q-196 0 -196 -198v-124q0 -184 -96 -269q96 -85 96 -269v-124q0 -198 196 -198h12z" />
<glyph unicode="|" horiz-adv-x="314" d="M80 1448h154v-1718h-154v1718z" />
<glyph unicode="}" horiz-adv-x="810" d="M120 123h12q196 0 196 198v124q0 184 96 269q-96 85 -96 269v124q0 198 -196 198h-12v142q6 0 19 0.5t20 0.5q323 0 323 -341v-124q0 -198 196 -198h12v-142h-20q-188 -4 -188 -198v-124q0 -341 -323 -341q-7 0 -20 0.5t-19 0.5v142z" />
<glyph unicode="~" horiz-adv-x="1031" d="M749 654v7q110 16 162 -31q-12 -98 -88.5 -160t-178.5 -62q-47 0 -86 15t-60.5 33t-51 33t-61.5 15q-44 0 -73.5 -23t-29.5 -66v-7q-110 -16 -162 31q12 98 87.5 160t174.5 62q49 0 94 -24t87.5 -48t83.5 -24q42 0 72 23t30 66z" />
<glyph unicode="&#xa1;" horiz-adv-x="467" d="M175 633h112q12 -96 18.5 -428t6.5 -594h-164q0 249 7.5 587t19.5 435zM347 947q0 -46 -33.5 -79t-79.5 -33q-47 0 -80.5 33t-33.5 79t33.5 79t80.5 33q46 0 79.5 -33t33.5 -79z" />
<glyph unicode="&#xa2;" horiz-adv-x="899" d="M578 124q68 0 132 17q9 98 28 179q14 8 53 8q49 0 61 -12q7 -14 7 -126v-136q-115 -57 -222 -69v-135h-154v136q-84 12 -155 49.5t-127.5 101.5t-88.5 163.5t-32 225.5q0 124 31 221.5t87 160t127.5 98.5t157.5 47v155h154v-155q107 -12 222 -69v-136q0 -112 -7 -126 q-12 -12 -61 -12q-39 0 -53 8q-18 74 -29 179q-68 17 -131 17q-73 0 -134 -21t-109 -65t-75 -119.5t-27 -176.5q0 -200 97 -304t248 -104z" />
<glyph unicode="&#xa3;" horiz-adv-x="1002" d="M42 0v144q40 0 82 18.5t78 52t59 89.5t23 123q0 59 -26 182h-218v144h189q-19 105 -19 189q0 203 101 299.5t266 96.5q159 0 311 -68v-99q0 -112 -7 -126q-12 -12 -61 -12q-39 0 -53 8q-12 46 -24 135q-63 17 -123 17q-124 0 -189.5 -70t-65.5 -193q0 -61 20 -177h357 v-144h-329q28 -144 28 -203q0 -142 -111 -262h488q8 65 23 130q14 8 53 8q49 0 61 -12q7 -14 7 -126v-144h-920z" />
<glyph unicode="&#xa5;" horiz-adv-x="1010" d="M107 612h262l-274 561q-86 12 -134 24q-9 13 -9 52q0 47 12 61q14 8 127 8h116q113 0 127 -8q12 -14 12 -61q0 -39 -9 -52q-39 -9 -91 -17l259 -530l258 530q-49 7 -90 17q-9 13 -9 52q0 47 12 61q14 8 127 8h116q113 0 127 -8q12 -14 12 -61q0 -39 -9 -52 q-46 -12 -135 -24l-274 -561h257v-154h-315v-85h315v-154h-315v-78q68 -10 111 -20q9 -13 9 -52q0 -47 -12 -61q-14 -8 -127 -8h-116q-113 0 -127 8q-12 14 -12 61q0 39 9 52q46 11 111 20v78h-321v154h321v85h-321v154z" />
<glyph unicode="&#xa6;" horiz-adv-x="314" d="M80 748v700h154v-700h-154zM234 430v-700h-154v700h154z" />
<glyph unicode="&#xa7;" horiz-adv-x="930" d="M850 353q0 -135 -37.5 -269t-109.5 -232q-27 -70 -81.5 -116t-117 -64.5t-136.5 -18.5q-101 0 -206 35v132l7 6q114 -30 194 -30q232 0 232 202q0 49 -13 79t-38 57q-38 42 -94.5 82.5t-104.5 67.5t-98.5 69.5t-86 89.5t-58 125.5t-22.5 179.5q0 135 37 269t110 232 q27 70 81.5 116t117 64.5t136.5 18.5q101 0 206 -35v-132l-7 -6q-114 30 -194 30q-232 0 -232 -202q0 -49 13 -79t38 -57q38 -42 94.5 -82.5t104.5 -67.5t98.5 -69.5t86 -89.5t58 -125.5t22.5 -179.5zM293 822q-36 36 -57 82q-13 -66 -13 -129q0 -75 22 -137.5t56 -102.5 t81 -77.5t90 -62t90 -56.5t75 -60q34 -35 57 -83q13 75 13 130q0 75 -22 137.5t-56 102.5t-81 77.5t-90 62t-90 56.5t-75 60z" />
<glyph unicode="&#xa8;" horiz-adv-x="791" d="M99 1302q0 46 33.5 79t79.5 33q47 0 80.5 -33t33.5 -79t-33.5 -79t-80.5 -33q-46 0 -79.5 33t-33.5 79zM465 1302q0 46 33.5 79t79.5 33q47 0 80.5 -33t33.5 -79t-33.5 -79t-80.5 -33q-46 0 -79.5 33t-33.5 79z" />
<glyph unicode="&#xa9;" horiz-adv-x="1604" d="M80 709q0 -150 51.5 -283t145.5 -233q96 -102 228.5 -158.5t290.5 -56.5t292.5 56.5t232.5 158.5q97 101 150 236t53 287q0 150 -51.5 284t-145.5 234q-96 102 -228.5 158t-290.5 56q-157 0 -291.5 -56.5t-232.5 -158.5q-98 -101 -151 -236t-53 -288zM223 710 q0 164 75 301q74 133 205 212q136 80 303 80q253 0 416 -173q76 -81 117 -188t41 -227q0 -122 -42 -230t-120 -189q-167 -173 -420 -173q-251 0 -416 173q-76 80 -117.5 187t-41.5 227zM1054 487l-5 3q-105 -50 -200 -50q-110 0 -175 66q-71 73 -71 211q0 132 70 197 q63 60 168 60q95 0 208 -51l5 4v140q-112 58 -231 58q-165 0 -262 -96q-112 -110 -112 -317q0 -211 115 -324q100 -100 259 -100q119 0 231 58v141z" />
<glyph unicode="&#xab;" horiz-adv-x="1188" d="M936 1449l132 -77l-381 -658l381 -658l-132 -77l-424 735zM544 1449l132 -77l-381 -658l381 -658l-132 -77l-424 735z" />
<glyph unicode="&#xae;" horiz-adv-x="1218" d="M80 906q0 150 67 273.5t189.5 196t276.5 72.5t275 -73t185.5 -195t64.5 -269q0 -150 -66.5 -273t-189 -195.5t-277.5 -72.5q-154 0 -275 72.5t-185.5 194.5t-64.5 269zM201 907q0 -175 113 -294.5t292 -119.5q180 0 295 120.5t115 296.5q0 175 -112.5 295t-291.5 120 t-295 -120.5t-116 -297.5zM876 670l-80 -52q-83 38 -158 198q-42 -4 -67 -4h-65v-186h-108v570h180q139 0 197 -44.5t58 -141.5q0 -120 -96 -167q14 -40 56 -92.5t80 -73.5zM506 1095v-181h68q78 0 115.5 18.5t37.5 70.5q0 55 -35.5 73.5t-110.5 18.5h-75z" />
<glyph unicode="&#xaf;" horiz-adv-x="842" d="M120 1338h602v-144h-602v144z" />
<glyph unicode="&#xb0;" horiz-adv-x="814" d="M80 1000q0 143 93 240.5t237 97.5q143 0 233.5 -96.5t90.5 -236.5q0 -143 -93 -240t-237 -97q-143 0 -233.5 96t-90.5 236zM220 1001q0 -80 51.5 -135t133.5 -55q83 0 136 56t53 138q0 79 -52 134.5t-133 55.5q-83 0 -136 -56t-53 -138z" />
<glyph unicode="&#xb1;" horiz-adv-x="1030" d="M592 1038v-318h318v-154h-318v-318h-154v318h-318v154h318v318h154zM910 0h-790v154h790v-154z" />
<glyph unicode="&#xb4;" horiz-adv-x="662" d="M485 1558q33 -17 57.5 -51.5t30.5 -73.5q-36 -54 -175 -136.5t-262 -106.5q-12 10 -25.5 47.5t-16.5 67.5q211 95 391 253z" />
<glyph unicode="&#xb6;" horiz-adv-x="1334" d="M518 0v536q-48 0 -87 3t-86 12t-83 24.5t-71.5 42.5t-58.5 63.5t-37.5 90.5t-14.5 121q0 81 21 147.5t54.5 111.5t82 79.5t97.5 54t107 31.5t104.5 16t95.5 4q206 0 367.5 -64.5t224.5 -164.5l-102 -106h-4q-69 79 -164 126v-1128h-161v1181q-72 12 -131 12v-1193h-154z M224 895q0 -112 78.5 -158.5t215.5 -48.5v493q-152 -27 -223 -104t-71 -182z" />
<glyph unicode="&#xb7;" horiz-adv-x="387" d="M80 518q0 46 33.5 79t79.5 33q47 0 80.5 -33t33.5 -79t-33.5 -79t-80.5 -33q-46 0 -79.5 33t-33.5 79z" />
<glyph unicode="&#xb8;" horiz-adv-x="543" d="M197 0h159v-80q61 -17 97 -70.5t36 -121.5q0 -93 -70.5 -149.5t-178.5 -56.5q-96 0 -174 51q8 78 47 107q77 -33 140 -33q40 0 71.5 22t31.5 61q0 52 -51 81.5t-108 29.5v159z" />
<glyph unicode="&#xbb;" horiz-adv-x="1188" d="M252 -21l-132 77l380 658l-380 658l132 77l424 -735zM644 -21l-132 77l380 658l-380 658l132 77l424 -735z" />
<glyph unicode="&#xbf;" horiz-adv-x="975" d="M814 -153l42 -115q-49 -63 -143.5 -102.5t-201.5 -39.5q-75 0 -143.5 21t-124.5 61t-89.5 107t-33.5 152q0 66 21 120t55 93t74.5 76.5t81 81t74.5 95t55 130.5t21 177h154q0 -105 -21.5 -191.5t-55.5 -143.5t-75 -104.5t-82 -84t-75 -71.5t-55.5 -77.5t-21.5 -91.5 q0 -91 66.5 -147t186.5 -56q88 0 167 30t115 80h9zM691 946q0 -46 -33.5 -79t-79.5 -33q-47 0 -80.5 33t-33.5 79t33.5 79t80.5 33q46 0 79.5 -33t33.5 -79z" />
<glyph unicode="&#xc0;" horiz-adv-x="1308" d="M503 1776q180 -158 391 -253q-3 -30 -16.5 -67.5t-25.5 -47.5q-123 24 -262 106.5t-175 136.5q6 39 30.5 73.5t57.5 51.5zM285 0h-116q-113 0 -127 8q-12 14 -12 61q0 39 9 52q49 12 106 19l405 1178h207l405 -1178q59 -7 107 -19q9 -14 9 -52q0 -47 -12 -61 q-14 -8 -127 -8h-116q-113 0 -127 8q-12 14 -12 61q0 39 9 52q47 11 109 20l-57 166h-582l-58 -166q65 -10 110 -20q9 -13 9 -52q0 -47 -12 -61q-14 -8 -127 -8zM412 451h484l-242 701z" />
<glyph unicode="&#xc1;" horiz-adv-x="1308" d="M806 1776q33 -17 57.5 -51.5t30.5 -73.5q-36 -54 -175 -136.5t-262 -106.5q-12 10 -25.5 47.5t-16.5 67.5q211 95 391 253zM285 0h-116q-113 0 -127 8q-12 14 -12 61q0 39 9 52q49 12 106 19l405 1178h207l405 -1178q59 -7 107 -19q9 -14 9 -52q0 -47 -12 -61 q-14 -8 -127 -8h-116q-113 0 -127 8q-12 14 -12 61q0 39 9 52q47 11 109 20l-57 166h-582l-58 -166q65 -10 110 -20q9 -13 9 -52q0 -47 -12 -61q-14 -8 -127 -8zM412 451h484l-242 701z" />
<glyph unicode="&#xc2;" horiz-adv-x="1308" d="M656 1604h-5q-115 -106 -296 -196q-13 10 -26.5 47.5t-16.5 67.5q173 92 338 249h8q166 -158 338 -249q-3 -30 -16.5 -67.5t-26.5 -47.5q-176 86 -297 196zM285 0h-116q-113 0 -127 8q-12 14 -12 61q0 39 9 52q49 12 106 19l405 1178h207l405 -1178q59 -7 107 -19 q9 -14 9 -52q0 -47 -12 -61q-14 -8 -127 -8h-116q-113 0 -127 8q-12 14 -12 61q0 39 9 52q47 11 109 20l-57 166h-582l-58 -166q65 -10 110 -20q9 -13 9 -52q0 -47 -12 -61q-14 -8 -127 -8zM412 451h484l-242 701z" />
<glyph unicode="&#xc3;" horiz-adv-x="1308" d="M285 0h-116q-113 0 -127 8q-12 14 -12 61q0 39 9 52q49 12 106 19l405 1178h207l405 -1178q59 -7 107 -19q9 -14 9 -52q0 -47 -12 -61q-14 -8 -127 -8h-116q-113 0 -127 8q-12 14 -12 61q0 39 9 52q47 11 109 20l-57 166h-582l-58 -166q65 -10 110 -20q9 -13 9 -52 q0 -47 -12 -61q-14 -8 -127 -8zM412 451h484l-242 701zM858 1633v6q96 14 141 -27q-10 -86 -77 -140t-156 -54q-41 0 -75 13t-53 29t-45 29t-53 13q-39 0 -65 -20t-26 -58v-6q-96 -14 -141 27q10 86 76 140t153 54q52 0 120.5 -42t110.5 -42q37 0 63.5 20t26.5 58z" />
<glyph unicode="&#xc4;" horiz-adv-x="1308" d="M358 1520q0 46 33.5 79t79.5 33q47 0 80.5 -33t33.5 -79t-33.5 -79t-80.5 -33q-46 0 -79.5 33t-33.5 79zM724 1520q0 46 33.5 79t79.5 33q47 0 80.5 -33t33.5 -79t-33.5 -79t-80.5 -33q-46 0 -79.5 33t-33.5 79zM285 0h-116q-113 0 -127 8q-12 14 -12 61q0 39 9 52 q49 12 106 19l405 1178h207l405 -1178q59 -7 107 -19q9 -14 9 -52q0 -47 -12 -61q-14 -8 -127 -8h-116q-113 0 -127 8q-12 14 -12 61q0 39 9 52q47 11 109 20l-57 166h-582l-58 -166q65 -10 110 -20q9 -13 9 -52q0 -47 -12 -61q-14 -8 -127 -8zM412 451h484l-242 701z" />
<glyph unicode="&#xc5;" horiz-adv-x="1308" d="M285 0h-116q-113 0 -127 8q-12 14 -12 61q0 39 9 52q49 12 106 19l405 1178h207l405 -1178q59 -7 107 -19q9 -14 9 -52q0 -47 -12 -61q-14 -8 -127 -8h-116q-113 0 -127 8q-12 14 -12 61q0 39 9 52q47 11 109 20l-57 166h-582l-58 -166q65 -10 110 -20q9 -13 9 -52 q0 -47 -12 -61q-14 -8 -127 -8zM412 451h484l-242 701zM453 1487q0 80 59 138.5t141 58.5q81 0 141 -58.5t60 -138.5t-60 -139.5t-141 -59.5t-140.5 59t-59.5 140zM572 1487q0 -33 24 -57t57 -24t57.5 24t24.5 57q0 32 -24.5 56.5t-57.5 24.5t-57 -24.5t-24 -56.5z" />
<glyph unicode="&#xc6;" horiz-adv-x="1493" d="M285 0h-116q-113 0 -127 8q-12 14 -12 61q0 39 9 52q49 12 106 19l405 1178h898v-144q0 -112 -7 -126q-12 -12 -61 -12q-39 0 -53 8q-15 67 -23 130h-498l153 -443h241q8 65 23 130q14 8 53 8q49 0 61 -12q7 -14 7 -126v-144q0 -112 -7 -126q-12 -12 -61 -12q-39 0 -53 8 q-15 67 -23 130h-192l153 -443h143q8 65 23 130q14 8 53 8q49 0 61 -12q7 -14 7 -126v-144h-425q-113 0 -127 8q-12 14 -12 61q0 39 9 52q47 11 109 20l-57 166h-582l-58 -166q65 -10 110 -20q9 -13 9 -52q0 -47 -12 -61q-14 -8 -127 -8zM412 451h484l-242 701z" />
<glyph unicode="&#xc7;" horiz-adv-x="1081" d="M1041 163v-142q-142 -41 -304 -41t-288 51.5t-206 145t-121.5 221t-41.5 282.5q3 141 44.5 259.5t121 208t205 140t286.5 50.5q162 0 304 -41v-142q0 -112 -7 -126q-12 -12 -61 -12q-39 0 -53 8q-17 69 -26 157q-85 11 -149 11q-249 0 -380 -144.5t-131 -388.5 q0 -242 131 -388.5t380 -146.5q64 0 149 11q9 88 26 157q14 8 53 8q49 0 61 -12q7 -14 7 -126zM653 0h159v-80q61 -17 97 -70.5t36 -121.5q0 -93 -70.5 -149.5t-178.5 -56.5q-96 0 -174 51q8 78 47 107q77 -33 140 -33q40 0 71.5 22t31.5 61q0 52 -51 81.5t-108 29.5v159z " />
<glyph unicode="&#xc8;" horiz-adv-x="998" d="M413 1776q180 -158 391 -253q-3 -30 -16.5 -67.5t-25.5 -47.5q-123 24 -262 106.5t-175 136.5q6 39 30.5 73.5t57.5 51.5zM954 1318v-144q0 -112 -7 -126q-12 -12 -61 -12q-39 0 -53 8q-15 67 -23 130h-495v-443h391q8 65 23 130q14 8 53 8q49 0 61 -12q7 -14 7 -126 v-144q0 -112 -7 -126q-12 -12 -61 -12q-39 0 -53 8q-15 67 -23 130h-391v-443h495q8 65 23 130q14 8 53 8q49 0 61 -12q7 -14 7 -126v-144h-775q-113 0 -127 8q-12 14 -12 61q0 39 9 52q46 11 111 20v1035q-54 8 -111 21q-9 13 -9 52q0 47 12 61q14 8 127 8h775z" />
<glyph unicode="&#xc9;" horiz-adv-x="998" d="M705 1776q33 -17 57.5 -51.5t30.5 -73.5q-36 -54 -175 -136.5t-262 -106.5q-12 10 -25.5 47.5t-16.5 67.5q211 95 391 253zM954 1318v-144q0 -112 -7 -126q-12 -12 -61 -12q-39 0 -53 8q-15 67 -23 130h-495v-443h391q8 65 23 130q14 8 53 8q49 0 61 -12q7 -14 7 -126 v-144q0 -112 -7 -126q-12 -12 -61 -12q-39 0 -53 8q-15 67 -23 130h-391v-443h495q8 65 23 130q14 8 53 8q49 0 61 -12q7 -14 7 -126v-144h-775q-113 0 -127 8q-12 14 -12 61q0 39 9 52q46 11 111 20v1035q-54 8 -111 21q-9 13 -9 52q0 47 12 61q14 8 127 8h775z" />
<glyph unicode="&#xca;" horiz-adv-x="998" d="M585 1604h-5q-115 -106 -296 -196q-13 10 -26.5 47.5t-16.5 67.5q173 92 338 249h8q166 -158 338 -249q-3 -30 -16.5 -67.5t-26.5 -47.5q-176 86 -297 196zM954 1318v-144q0 -112 -7 -126q-12 -12 -61 -12q-39 0 -53 8q-15 67 -23 130h-495v-443h391q8 65 23 130 q14 8 53 8q49 0 61 -12q7 -14 7 -126v-144q0 -112 -7 -126q-12 -12 -61 -12q-39 0 -53 8q-15 67 -23 130h-391v-443h495q8 65 23 130q14 8 53 8q49 0 61 -12q7 -14 7 -126v-144h-775q-113 0 -127 8q-12 14 -12 61q0 39 9 52q46 11 111 20v1035q-54 8 -111 21q-9 13 -9 52 q0 47 12 61q14 8 127 8h775z" />
<glyph unicode="&#xcb;" horiz-adv-x="998" d="M261 1520q0 46 33.5 79t79.5 33q47 0 80.5 -33t33.5 -79t-33.5 -79t-80.5 -33q-46 0 -79.5 33t-33.5 79zM627 1520q0 46 33.5 79t79.5 33q47 0 80.5 -33t33.5 -79t-33.5 -79t-80.5 -33q-46 0 -79.5 33t-33.5 79zM954 1318v-144q0 -112 -7 -126q-12 -12 -61 -12 q-39 0 -53 8q-15 67 -23 130h-495v-443h391q8 65 23 130q14 8 53 8q49 0 61 -12q7 -14 7 -126v-144q0 -112 -7 -126q-12 -12 -61 -12q-39 0 -53 8q-15 67 -23 130h-391v-443h495q8 65 23 130q14 8 53 8q49 0 61 -12q7 -14 7 -126v-144h-775q-113 0 -127 8q-12 14 -12 61 q0 39 9 52q46 11 111 20v1035q-54 8 -111 21q-9 13 -9 52q0 47 12 61q14 8 127 8h775z" />
<glyph unicode="&#xcc;" horiz-adv-x="474" d="M82 1776q180 -158 391 -253q-3 -30 -16.5 -67.5t-25.5 -47.5q-123 24 -262 106.5t-175 136.5q6 39 30.5 73.5t57.5 51.5zM295 0h-116q-113 0 -127 8q-12 14 -12 61q0 39 9 52q46 11 111 20v1035q-54 8 -111 21q-9 13 -9 52q0 47 12 61q14 8 127 8h116q113 0 127 -8 q12 -14 12 -61q0 -39 -9 -52q-55 -13 -111 -21v-1035q68 -10 111 -20q9 -13 9 -52q0 -47 -12 -61q-14 -8 -127 -8z" />
<glyph unicode="&#xcd;" horiz-adv-x="474" d="M391 1776q33 -17 57.5 -51.5t30.5 -73.5q-36 -54 -175 -136.5t-262 -106.5q-12 10 -25.5 47.5t-16.5 67.5q211 95 391 253zM295 0h-116q-113 0 -127 8q-12 14 -12 61q0 39 9 52q46 11 111 20v1035q-54 8 -111 21q-9 13 -9 52q0 47 12 61q14 8 127 8h116q113 0 127 -8 q12 -14 12 -61q0 -39 -9 -52q-55 -13 -111 -21v-1035q68 -10 111 -20q9 -13 9 -52q0 -47 -12 -61q-14 -8 -127 -8z" />
<glyph unicode="&#xce;" horiz-adv-x="474" d="M240 1604h-5q-115 -106 -296 -196q-13 10 -26.5 47.5t-16.5 67.5q173 92 338 249h8q166 -158 338 -249q-3 -30 -16.5 -67.5t-26.5 -47.5q-176 86 -297 196zM295 0h-116q-113 0 -127 8q-12 14 -12 61q0 39 9 52q46 11 111 20v1035q-54 8 -111 21q-9 13 -9 52q0 47 12 61 q14 8 127 8h116q113 0 127 -8q12 -14 12 -61q0 -39 -9 -52q-55 -13 -111 -21v-1035q68 -10 111 -20q9 -13 9 -52q0 -47 -12 -61q-14 -8 -127 -8z" />
<glyph unicode="&#xcf;" horiz-adv-x="474" d="M-58 1520q0 46 33.5 79t79.5 33q47 0 80.5 -33t33.5 -79t-33.5 -79t-80.5 -33q-46 0 -79.5 33t-33.5 79zM308 1520q0 46 33.5 79t79.5 33q47 0 80.5 -33t33.5 -79t-33.5 -79t-80.5 -33q-46 0 -79.5 33t-33.5 79zM295 0h-116q-113 0 -127 8q-12 14 -12 61q0 39 9 52 q46 11 111 20v1035q-54 8 -111 21q-9 13 -9 52q0 47 12 61q14 8 127 8h116q113 0 127 -8q12 -14 12 -61q0 -39 -9 -52q-55 -13 -111 -21v-1035q68 -10 111 -20q9 -13 9 -52q0 -47 -12 -61q-14 -8 -127 -8z" />
<glyph unicode="&#xd0;" horiz-adv-x="1350" d="M40 729h172v447q-54 8 -111 21q-9 13 -9 52q0 47 12 61q14 8 127 8h354q191 0 347.5 -84t247 -235t90.5 -339q0 -189 -86.5 -340t-239.5 -235.5t-343 -84.5h-370q-113 0 -127 8q-12 14 -12 61q0 39 9 52q46 11 111 20v444h-172v144zM367 1174v-445h173v-144h-173v-441 h234q236 0 375 138.5t139 361.5q0 153 -71.5 275.5t-192.5 188.5t-266 66h-218z" />
<glyph unicode="&#xd1;" horiz-adv-x="1263" d="M958 299v877q-54 8 -111 21q-9 13 -9 52q0 47 12 61q14 8 127 8h117q113 0 127 -8q12 -14 12 -61q0 -39 -9 -52q-55 -13 -111 -21v-1176h-155l-643 1028v-887q65 -10 110 -20q9 -13 9 -52q0 -47 -12 -61q-14 -8 -127 -8h-116q-113 0 -127 8q-12 14 -12 61q0 39 9 52 q46 11 111 20v1035q-54 8 -111 21q-9 13 -9 52q0 47 12 61q14 8 127 8h142zM836 1633v6q96 14 141 -27q-10 -86 -77 -140t-156 -54q-41 0 -75 13t-53 29t-45 29t-53 13q-39 0 -65 -20t-26 -58v-6q-96 -14 -141 27q10 86 76 140t153 54q52 0 120.5 -42t110.5 -42 q37 0 63.5 20t26.5 58z" />
<glyph unicode="&#xd2;" horiz-adv-x="1383" d="M553 1776q180 -158 391 -253q-3 -30 -16.5 -67.5t-25.5 -47.5q-123 24 -262 106.5t-175 136.5q6 39 30.5 73.5t57.5 51.5zM80 660q0 190 77.5 344.5t219.5 244t321 89.5t317.5 -89.5t213 -243.5t74.5 -345q0 -190 -77 -345t-218.5 -245t-320.5 -90t-318 90t-214 244.5 t-75 345.5zM234 672q0 -156 53.5 -279t160 -196t251.5 -73q211 0 330.5 146t119.5 378q0 157 -51.5 279t-155.5 194.5t-248 72.5q-212 0 -336 -146.5t-124 -375.5z" />
<glyph unicode="&#xd3;" horiz-adv-x="1383" d="M852 1776q33 -17 57.5 -51.5t30.5 -73.5q-36 -54 -175 -136.5t-262 -106.5q-12 10 -25.5 47.5t-16.5 67.5q211 95 391 253zM80 660q0 190 77.5 344.5t219.5 244t321 89.5t317.5 -89.5t213 -243.5t74.5 -345q0 -190 -77 -345t-218.5 -245t-320.5 -90t-318 90t-214 244.5 t-75 345.5zM234 672q0 -156 53.5 -279t160 -196t251.5 -73q211 0 330.5 146t119.5 378q0 157 -51.5 279t-155.5 194.5t-248 72.5q-212 0 -336 -146.5t-124 -375.5z" />
<glyph unicode="&#xd4;" horiz-adv-x="1383" d="M697 1604h-5q-115 -106 -296 -196q-13 10 -26.5 47.5t-16.5 67.5q173 92 338 249h8q166 -158 338 -249q-3 -30 -16.5 -67.5t-26.5 -47.5q-176 86 -297 196zM80 660q0 190 77.5 344.5t219.5 244t321 89.5t317.5 -89.5t213 -243.5t74.5 -345q0 -190 -77 -345t-218.5 -245 t-320.5 -90t-318 90t-214 244.5t-75 345.5zM234 672q0 -156 53.5 -279t160 -196t251.5 -73q211 0 330.5 146t119.5 378q0 157 -51.5 279t-155.5 194.5t-248 72.5q-212 0 -336 -146.5t-124 -375.5z" />
<glyph unicode="&#xd5;" horiz-adv-x="1383" d="M80 660q0 190 77.5 344.5t219.5 244t321 89.5t317.5 -89.5t213 -243.5t74.5 -345q0 -190 -77 -345t-218.5 -245t-320.5 -90t-318 90t-214 244.5t-75 345.5zM234 672q0 -156 53.5 -279t160 -196t251.5 -73q211 0 330.5 146t119.5 378q0 157 -51.5 279t-155.5 194.5 t-248 72.5q-212 0 -336 -146.5t-124 -375.5zM896 1633v6q96 14 141 -27q-10 -86 -77 -140t-156 -54q-41 0 -75 13t-53 29t-45 29t-53 13q-39 0 -65 -20t-26 -58v-6q-96 -14 -141 27q10 86 76 140t153 54q52 0 120.5 -42t110.5 -42q37 0 63.5 20t26.5 58z" />
<glyph unicode="&#xd6;" horiz-adv-x="1383" d="M397 1520q0 46 33.5 79t79.5 33q47 0 80.5 -33t33.5 -79t-33.5 -79t-80.5 -33q-46 0 -79.5 33t-33.5 79zM763 1520q0 46 33.5 79t79.5 33q47 0 80.5 -33t33.5 -79t-33.5 -79t-80.5 -33q-46 0 -79.5 33t-33.5 79zM80 660q0 190 77.5 344.5t219.5 244t321 89.5t317.5 -89.5 t213 -243.5t74.5 -345q0 -190 -77 -345t-218.5 -245t-320.5 -90t-318 90t-214 244.5t-75 345.5zM234 672q0 -156 53.5 -279t160 -196t251.5 -73q211 0 330.5 146t119.5 378q0 157 -51.5 279t-155.5 194.5t-248 72.5q-212 0 -336 -146.5t-124 -375.5z" />
<glyph unicode="&#xd7;" horiz-adv-x="908" d="M120 290l225 225l-225 225l109 109l225 -225l225 225l109 -109l-225 -225l225 -225l-109 -109l-225 225l-225 -225z" />
<glyph unicode="&#xd8;" horiz-adv-x="1383" d="M342 -168l76 210q-158 80 -248 244t-90 374q0 190 77.5 344.5t219.5 244t321 89.5q91 0 182 -27l50 137l144 -53l-55 -150q134 -87 209 -241t75 -344t-77 -345t-218.5 -245t-320.5 -90q-64 0 -124 12l-77 -213zM234 672q0 -165 61 -294t174 -195l361 991q-63 20 -136 20 q-212 0 -336 -146.5t-124 -375.5zM1149 648q0 146 -47 264.5t-135 190.5l-353 -972q38 -7 85 -7q211 0 330.5 146t119.5 378z" />
<glyph unicode="&#xd9;" horiz-adv-x="1291" d="M487 1776q180 -158 391 -253q-3 -30 -16.5 -67.5t-25.5 -47.5q-123 24 -262 106.5t-175 136.5q6 39 30.5 73.5t57.5 51.5zM174 1318h116q113 0 127 -8q12 -14 12 -61q0 -39 -9 -52q-55 -13 -111 -21v-636q0 -82 10.5 -147t27 -108t43.5 -74.5t53 -48t63.5 -26t66.5 -12 t69 -2.5q43 0 75 2.5t69.5 12.5t64 27.5t53 48.5t42.5 74.5t26 107.5t10 145v636q-54 8 -111 21q-9 13 -9 52q0 47 12 61q14 8 127 8h116q113 0 127 -8q12 -14 12 -61q0 -39 -9 -52q-55 -13 -111 -21v-686q0 -94 -16 -170t-42 -128t-65.5 -91.5t-80.5 -62t-93 -36t-97 -18 t-99 -4.5q-53 0 -97.5 4.5t-96 18t-92.5 36t-80 61.5t-65 91t-41.5 128.5t-15.5 170.5v686q-54 8 -111 21q-9 13 -9 52q0 47 12 61q14 8 127 8z" />
<glyph unicode="&#xda;" horiz-adv-x="1291" d="M836 1776q33 -17 57.5 -51.5t30.5 -73.5q-36 -54 -175 -136.5t-262 -106.5q-12 10 -25.5 47.5t-16.5 67.5q211 95 391 253zM174 1318h116q113 0 127 -8q12 -14 12 -61q0 -39 -9 -52q-55 -13 -111 -21v-636q0 -82 10.5 -147t27 -108t43.5 -74.5t53 -48t63.5 -26t66.5 -12 t69 -2.5q43 0 75 2.5t69.5 12.5t64 27.5t53 48.5t42.5 74.5t26 107.5t10 145v636q-54 8 -111 21q-9 13 -9 52q0 47 12 61q14 8 127 8h116q113 0 127 -8q12 -14 12 -61q0 -39 -9 -52q-55 -13 -111 -21v-686q0 -94 -16 -170t-42 -128t-65.5 -91.5t-80.5 -62t-93 -36t-97 -18 t-99 -4.5q-53 0 -97.5 4.5t-96 18t-92.5 36t-80 61.5t-65 91t-41.5 128.5t-15.5 170.5v686q-54 8 -111 21q-9 13 -9 52q0 47 12 61q14 8 127 8z" />
<glyph unicode="&#xdb;" horiz-adv-x="1291" d="M656 1604h-5q-115 -106 -296 -196q-13 10 -26.5 47.5t-16.5 67.5q173 92 338 249h8q166 -158 338 -249q-3 -30 -16.5 -67.5t-26.5 -47.5q-176 86 -297 196zM174 1318h116q113 0 127 -8q12 -14 12 -61q0 -39 -9 -52q-55 -13 -111 -21v-636q0 -82 10.5 -147t27 -108 t43.5 -74.5t53 -48t63.5 -26t66.5 -12t69 -2.5q43 0 75 2.5t69.5 12.5t64 27.5t53 48.5t42.5 74.5t26 107.5t10 145v636q-54 8 -111 21q-9 13 -9 52q0 47 12 61q14 8 127 8h116q113 0 127 -8q12 -14 12 -61q0 -39 -9 -52q-55 -13 -111 -21v-686q0 -94 -16 -170t-42 -128 t-65.5 -91.5t-80.5 -62t-93 -36t-97 -18t-99 -4.5q-53 0 -97.5 4.5t-96 18t-92.5 36t-80 61.5t-65 91t-41.5 128.5t-15.5 170.5v686q-54 8 -111 21q-9 13 -9 52q0 47 12 61q14 8 127 8z" />
<glyph unicode="&#xdc;" horiz-adv-x="1291" d="M354 1520q0 46 33.5 79t79.5 33q47 0 80.5 -33t33.5 -79t-33.5 -79t-80.5 -33q-46 0 -79.5 33t-33.5 79zM720 1520q0 46 33.5 79t79.5 33q47 0 80.5 -33t33.5 -79t-33.5 -79t-80.5 -33q-46 0 -79.5 33t-33.5 79zM174 1318h116q113 0 127 -8q12 -14 12 -61q0 -39 -9 -52 q-55 -13 -111 -21v-636q0 -82 10.5 -147t27 -108t43.5 -74.5t53 -48t63.5 -26t66.5 -12t69 -2.5q43 0 75 2.5t69.5 12.5t64 27.5t53 48.5t42.5 74.5t26 107.5t10 145v636q-54 8 -111 21q-9 13 -9 52q0 47 12 61q14 8 127 8h116q113 0 127 -8q12 -14 12 -61q0 -39 -9 -52 q-55 -13 -111 -21v-686q0 -94 -16 -170t-42 -128t-65.5 -91.5t-80.5 -62t-93 -36t-97 -18t-99 -4.5q-53 0 -97.5 4.5t-96 18t-92.5 36t-80 61.5t-65 91t-41.5 128.5t-15.5 170.5v686q-54 8 -111 21q-9 13 -9 52q0 47 12 61q14 8 127 8z" />
<glyph unicode="&#xdd;" horiz-adv-x="1166" d="M789 1776q33 -17 57.5 -51.5t30.5 -73.5q-36 -54 -175 -136.5t-262 -106.5q-12 10 -25.5 47.5t-16.5 67.5q211 95 391 253zM641 0h-116q-113 0 -127 8q-12 14 -12 61q0 39 9 52q46 11 111 20v351l-333 681q-86 12 -134 24q-9 13 -9 52q0 47 12 61q14 8 127 8h116 q113 0 127 -8q12 -14 12 -61q0 -39 -9 -52q-39 -9 -91 -17l259 -530l258 530q-49 7 -90 17q-9 13 -9 52q0 47 12 61q14 8 127 8h116q113 0 127 -8q12 -14 12 -61q0 -39 -9 -52q-46 -12 -135 -24l-332 -681v-351q68 -10 111 -20q9 -13 9 -52q0 -47 -12 -61q-14 -8 -127 -8z " />
<glyph unicode="&#xde;" horiz-adv-x="1150" d="M906 1001q164 -105 164 -328q0 -172 -92 -278q-87 -101 -238 -146q-142 -42 -330 -42h-95v-66q68 -10 111 -20q9 -13 9 -52q0 -47 -12 -61q-14 -8 -127 -8h-117q-113 0 -127 8q-12 14 -12 61q0 39 9 52q46 11 111 20v1036q-65 9 -111 20q-9 13 -9 52q0 47 12 61 q14 8 127 8h117q113 0 127 -8q12 -14 12 -61q0 -39 -9 -52q-43 -10 -111 -20v-76h104q327 0 487 -100zM786 416q129 71 129 233q0 167 -138 243q-114 63 -338 63h-124v-602h124q232 0 347 63z" />
<glyph unicode="&#xdf;" horiz-adv-x="1161" d="M630 758q2 -45 28.5 -76.5t67 -50t89.5 -34.5t97.5 -36.5t88.5 -49.5t65 -80.5t25 -122.5q0 -105 -53.5 -181t-139 -111.5t-192.5 -35.5q-102 0 -199 34v158q0 112 7 126q12 12 61 12q39 0 53 -8q19 -84 27 -173q28 -4 60 -4q39 0 76.5 9t70.5 27.5t53.5 51.5t20.5 75 q0 46 -25.5 79t-66 52.5t-89.5 36.5t-97.5 39t-89 51.5t-66 82t-25.5 123.5q0 72 16.5 125t43.5 83.5t59 52t64 35.5t59 28.5t43.5 37.5t16.5 55q0 67 -60.5 101t-145.5 34q-131 0 -194.5 -80t-63.5 -198v-885q68 -10 111 -20q9 -13 9 -52q0 -47 -12 -61q-14 -8 -127 -8 h-116q-113 0 -127 8q-12 14 -12 61q0 39 9 52q46 11 111 20v776h-1q-113 0 -127 8q-12 14 -12 61q0 37 9 52q78 0 132 27q10 198 114 290.5t297 92.5q61 0 113 -8.5t100 -29.5t81.5 -54t53.5 -84t20 -117q0 -60 -16.5 -103.5t-43 -68t-59 -42t-65.5 -31.5t-60.5 -31.5 t-46 -47.5t-20.5 -73z" />
<glyph unicode="&#xe0;" horiz-adv-x="1022" d="M137 875v101q119 47 192 64.5t187 17.5q323 0 323 -341v-330q0 -48 4.5 -83t18 -73t44 -65t76.5 -41l-88 -145q-103 34 -157 145q-128 -145 -320 -145q-45 0 -88.5 8t-89.5 30.5t-80.5 57t-56.5 92.5t-22 132q0 149 94.5 224.5t301.5 75.5q71 0 209 -12v129 q0 198 -196 198q-110 0 -207 -31q-10 -74 -24 -139q-14 -8 -53 -8q-49 0 -61 12q-7 14 -7 126zM405 124q38 0 71.5 4.5t73.5 20.5t68 41.5t47.5 72.5t19.5 110v84q-227 2 -297 -9q-118 -18 -145 -87q-10 -26 -10 -61q0 -43 15 -76.5t36 -51.5t47 -29.5t44 -15t30 -3.5z M359 1558q180 -158 391 -253q-3 -30 -16.5 -67.5t-25.5 -47.5q-123 24 -262 106.5t-175 136.5q6 39 30.5 73.5t57.5 51.5z" />
<glyph unicode="&#xe1;" horiz-adv-x="1022" d="M137 875v101q119 47 192 64.5t187 17.5q323 0 323 -341v-330q0 -48 4.5 -83t18 -73t44 -65t76.5 -41l-88 -145q-103 34 -157 145q-128 -145 -320 -145q-45 0 -88.5 8t-89.5 30.5t-80.5 57t-56.5 92.5t-22 132q0 149 94.5 224.5t301.5 75.5q71 0 209 -12v129 q0 198 -196 198q-110 0 -207 -31q-10 -74 -24 -139q-14 -8 -53 -8q-49 0 -61 12q-7 14 -7 126zM405 124q38 0 71.5 4.5t73.5 20.5t68 41.5t47.5 72.5t19.5 110v84q-227 2 -297 -9q-118 -18 -145 -87q-10 -26 -10 -61q0 -43 15 -76.5t36 -51.5t47 -29.5t44 -15t30 -3.5z M662 1558q33 -17 57.5 -51.5t30.5 -73.5q-36 -54 -175 -136.5t-262 -106.5q-12 10 -25.5 47.5t-16.5 67.5q211 95 391 253z" />
<glyph unicode="&#xe2;" horiz-adv-x="1022" d="M137 875v101q119 47 192 64.5t187 17.5q323 0 323 -341v-330q0 -48 4.5 -83t18 -73t44 -65t76.5 -41l-88 -145q-103 34 -157 145q-128 -145 -320 -145q-45 0 -88.5 8t-89.5 30.5t-80.5 57t-56.5 92.5t-22 132q0 149 94.5 224.5t301.5 75.5q71 0 209 -12v129 q0 198 -196 198q-110 0 -207 -31q-10 -74 -24 -139q-14 -8 -53 -8q-49 0 -61 12q-7 14 -7 126zM405 124q38 0 71.5 4.5t73.5 20.5t68 41.5t47.5 72.5t19.5 110v84q-227 2 -297 -9q-118 -18 -145 -87q-10 -26 -10 -61q0 -43 15 -76.5t36 -51.5t47 -29.5t44 -15t30 -3.5z M486 1386h-5q-115 -106 -296 -196q-13 10 -26.5 47.5t-16.5 67.5q173 92 338 249h8q166 -158 338 -249q-3 -30 -16.5 -67.5t-26.5 -47.5q-176 86 -297 196z" />
<glyph unicode="&#xe3;" horiz-adv-x="1022" d="M137 875v101q119 47 192 64.5t187 17.5q323 0 323 -341v-330q0 -48 4.5 -83t18 -73t44 -65t76.5 -41l-88 -145q-103 34 -157 145q-128 -145 -320 -145q-45 0 -88.5 8t-89.5 30.5t-80.5 57t-56.5 92.5t-22 132q0 149 94.5 224.5t301.5 75.5q71 0 209 -12v129 q0 198 -196 198q-110 0 -207 -31q-10 -74 -24 -139q-14 -8 -53 -8q-49 0 -61 12q-7 14 -7 126zM405 124q38 0 71.5 4.5t73.5 20.5t68 41.5t47.5 72.5t19.5 110v84q-227 2 -297 -9q-118 -18 -145 -87q-10 -26 -10 -61q0 -43 15 -76.5t36 -51.5t47 -29.5t44 -15t30 -3.5z M703 1442v6q96 14 141 -27q-10 -86 -77 -140t-156 -54q-41 0 -75 13t-53 29t-45 29t-53 13q-39 0 -65 -20t-26 -58v-6q-96 -14 -141 27q10 86 76 140t153 54q52 0 120.5 -42t110.5 -42q37 0 63.5 20t26.5 58z" />
<glyph unicode="&#xe4;" horiz-adv-x="1022" d="M137 875v101q119 47 192 64.5t187 17.5q323 0 323 -341v-330q0 -48 4.5 -83t18 -73t44 -65t76.5 -41l-88 -145q-103 34 -157 145q-128 -145 -320 -145q-45 0 -88.5 8t-89.5 30.5t-80.5 57t-56.5 92.5t-22 132q0 149 94.5 224.5t301.5 75.5q71 0 209 -12v129 q0 198 -196 198q-110 0 -207 -31q-10 -74 -24 -139q-14 -8 -53 -8q-49 0 -61 12q-7 14 -7 126zM405 124q38 0 71.5 4.5t73.5 20.5t68 41.5t47.5 72.5t19.5 110v84q-227 2 -297 -9q-118 -18 -145 -87q-10 -26 -10 -61q0 -43 15 -76.5t36 -51.5t47 -29.5t44 -15t30 -3.5z M193 1302q0 46 33.5 79t79.5 33q47 0 80.5 -33t33.5 -79t-33.5 -79t-80.5 -33q-46 0 -79.5 33t-33.5 79zM559 1302q0 46 33.5 79t79.5 33q47 0 80.5 -33t33.5 -79t-33.5 -79t-80.5 -33q-46 0 -79.5 33t-33.5 79z" />
<glyph unicode="&#xe5;" horiz-adv-x="1022" d="M137 875v101q119 47 192 64.5t187 17.5q323 0 323 -341v-330q0 -48 4.5 -83t18 -73t44 -65t76.5 -41l-88 -145q-103 34 -157 145q-128 -145 -320 -145q-45 0 -88.5 8t-89.5 30.5t-80.5 57t-56.5 92.5t-22 132q0 149 94.5 224.5t301.5 75.5q71 0 209 -12v129 q0 198 -196 198q-110 0 -207 -31q-10 -74 -24 -139q-14 -8 -53 -8q-49 0 -61 12q-7 14 -7 126zM405 124q38 0 71.5 4.5t73.5 20.5t68 41.5t47.5 72.5t19.5 110v84q-227 2 -297 -9q-118 -18 -145 -87q-10 -26 -10 -61q0 -43 15 -76.5t36 -51.5t47 -29.5t44 -15t30 -3.5z M319 1411q0 80 59 138.5t141 58.5q81 0 141 -58.5t60 -138.5t-60 -139.5t-141 -59.5t-140.5 59t-59.5 140zM438 1411q0 -33 24 -57t57 -24t57.5 24t24.5 57q0 32 -24.5 56.5t-57.5 24.5t-57 -24.5t-24 -56.5z" />
<glyph unicode="&#xe6;" horiz-adv-x="1535" d="M137 875v101q119 47 192 64.5t187 17.5q323 0 323 -341v-220q0 -16 -29.5 -52t-26.5 -53q5 -29 15.5 -43t13 -17t-2.5 -42q-2 -10 -5 -29.5t-5.5 -29.5t-9 -27.5t-19.5 -36t-33 -42.5q-128 -145 -320 -145q-45 0 -88.5 8t-89.5 30.5t-80.5 57t-56.5 92.5t-22 132 q0 149 94.5 224.5t301.5 75.5q71 0 209 -12v129q0 198 -196 198q-110 0 -207 -31q-10 -74 -24 -139q-14 -8 -53 -8q-49 0 -61 12q-7 14 -7 126zM405 124q38 0 71.5 4.5t73.5 20.5t68 41.5t47.5 72.5t19.5 110v84q-227 2 -297 -9q-118 -18 -145 -87q-10 -26 -10 -61 q0 -43 15 -76.5t36 -51.5t47 -29.5t44 -15t30 -3.5zM1485 480h-647q12 -173 107 -264.5t236 -91.5q135 0 280 74l3 -1v-143q-149 -74 -298 -74q-99 0 -184.5 33t-153 98.5t-106 173.5t-38.5 247q0 114 26.5 208t79.5 166t139.5 112t200.5 40q66 0 120 -14.5t90 -37.5 t63.5 -58.5t42.5 -72t24 -83t12 -86t3 -86.5v-140zM1127 914q-114 0 -188 -81t-94 -213h488q-1 64 -10.5 113.5t-32 92t-63.5 65.5t-100 23z" />
<glyph unicode="&#xe7;" horiz-adv-x="899" d="M578 124q77 0 156 20q9 97 28 176q14 8 53 8q49 0 61 -12q7 -14 7 -126v-136q-148 -74 -321 -74q-97 0 -181 31.5t-152.5 95.5t-108.5 171.5t-40 247.5q0 111 25.5 201t69.5 151t106 102t132 59.5t149 18.5q173 0 321 -74v-136q0 -112 -7 -126q-12 -12 -61 -12 q-39 0 -53 8q-19 79 -28 176q-85 20 -156 20q-73 0 -134 -21t-109 -65t-75 -119.5t-27 -176.5q0 -200 97 -304t248 -104zM497 0h159v-80q61 -17 97 -70.5t36 -121.5q0 -93 -70.5 -149.5t-178.5 -56.5q-96 0 -174 51q8 78 47 107q77 -33 140 -33q40 0 71.5 22t31.5 61 q0 52 -51 81.5t-108 29.5v159z" />
<glyph unicode="&#xe8;" horiz-adv-x="946" d="M881 480h-647q12 -173 107 -264.5t236 -91.5q135 0 280 74l3 -1v-143q-149 -74 -298 -74q-99 0 -184.5 33t-153 98.5t-106 173.5t-38.5 247q0 114 26.5 208t79.5 166t139.5 112t200.5 40q66 0 120 -14.5t90 -37.5t63.5 -58.5t42.5 -72t24 -83t12 -86t3 -86.5v-140z M523 914q-114 0 -188 -81t-94 -213h488q-1 64 -10.5 113.5t-32 92t-63.5 65.5t-100 23zM321 1558q180 -158 391 -253q-3 -30 -16.5 -67.5t-25.5 -47.5q-123 24 -262 106.5t-175 136.5q6 39 30.5 73.5t57.5 51.5z" />
<glyph unicode="&#xe9;" horiz-adv-x="946" d="M881 480h-647q12 -173 107 -264.5t236 -91.5q135 0 280 74l3 -1v-143q-149 -74 -298 -74q-99 0 -184.5 33t-153 98.5t-106 173.5t-38.5 247q0 114 26.5 208t79.5 166t139.5 112t200.5 40q66 0 120 -14.5t90 -37.5t63.5 -58.5t42.5 -72t24 -83t12 -86t3 -86.5v-140z M523 914q-114 0 -188 -81t-94 -213h488q-1 64 -10.5 113.5t-32 92t-63.5 65.5t-100 23zM624 1558q33 -17 57.5 -51.5t30.5 -73.5q-36 -54 -175 -136.5t-262 -106.5q-12 10 -25.5 47.5t-16.5 67.5q211 95 391 253z" />
<glyph unicode="&#xea;" horiz-adv-x="946" d="M881 480h-647q12 -173 107 -264.5t236 -91.5q135 0 280 74l3 -1v-143q-149 -74 -298 -74q-99 0 -184.5 33t-153 98.5t-106 173.5t-38.5 247q0 114 26.5 208t79.5 166t139.5 112t200.5 40q66 0 120 -14.5t90 -37.5t63.5 -58.5t42.5 -72t24 -83t12 -86t3 -86.5v-140z M523 914q-114 0 -188 -81t-94 -213h488q-1 64 -10.5 113.5t-32 92t-63.5 65.5t-100 23zM523 1386h-5q-115 -106 -296 -196q-13 10 -26.5 47.5t-16.5 67.5q173 92 338 249h8q166 -158 338 -249q-3 -30 -16.5 -67.5t-26.5 -47.5q-176 86 -297 196z" />
<glyph unicode="&#xeb;" horiz-adv-x="946" d="M881 480h-647q12 -173 107 -264.5t236 -91.5q135 0 280 74l3 -1v-143q-149 -74 -298 -74q-99 0 -184.5 33t-153 98.5t-106 173.5t-38.5 247q0 114 26.5 208t79.5 166t139.5 112t200.5 40q66 0 120 -14.5t90 -37.5t63.5 -58.5t42.5 -72t24 -83t12 -86t3 -86.5v-140z M523 914q-114 0 -188 -81t-94 -213h488q-1 64 -10.5 113.5t-32 92t-63.5 65.5t-100 23zM176 1302q0 46 33.5 79t79.5 33q47 0 80.5 -33t33.5 -79t-33.5 -79t-80.5 -33q-46 0 -79.5 33t-33.5 79zM542 1302q0 46 33.5 79t79.5 33q47 0 80.5 -33t33.5 -79t-33.5 -79t-80.5 -33 q-46 0 -79.5 33t-33.5 79z" />
<glyph unicode="&#xec;" d="M96 1558q180 -158 391 -253q-3 -30 -16.5 -67.5t-25.5 -47.5q-123 24 -262 106.5t-175 136.5q6 39 30.5 73.5t57.5 51.5zM445 121q9 -13 9 -52q0 -47 -12 -61q-14 -8 -127 -8h-116q-113 0 -127 8q-12 14 -12 61q0 39 9 52q46 11 111 20v763q-103 2 -109 7q-11 4 -11 67 q0 31 7 45q43 14 107 22.5t99.5 10.5t54.5 2h6v-917q68 -10 111 -20z" />
<glyph unicode="&#xed;" d="M377 1558q33 -17 57.5 -51.5t30.5 -73.5q-36 -54 -175 -136.5t-262 -106.5q-12 10 -25.5 47.5t-16.5 67.5q211 95 391 253zM445 121q9 -13 9 -52q0 -47 -12 -61q-14 -8 -127 -8h-116q-113 0 -127 8q-12 14 -12 61q0 39 9 52q46 11 111 20v763q-103 2 -109 7q-11 4 -11 67 q0 31 7 45q43 14 107 22.5t99.5 10.5t54.5 2h6v-917q68 -10 111 -20z" />
<glyph unicode="&#xee;" d="M249 1386h-5q-115 -106 -296 -196q-13 10 -26.5 47.5t-16.5 67.5q173 92 338 249h8q166 -158 338 -249q-3 -30 -16.5 -67.5t-26.5 -47.5q-176 86 -297 196zM445 121q9 -13 9 -52q0 -47 -12 -61q-14 -8 -127 -8h-116q-113 0 -127 8q-12 14 -12 61q0 39 9 52q46 11 111 20 v763q-103 2 -109 7q-11 4 -11 67q0 31 7 45q43 14 107 22.5t99.5 10.5t54.5 2h6v-917q68 -10 111 -20z" />
<glyph unicode="&#xef;" d="M-49 1302q0 46 33.5 79t79.5 33q47 0 80.5 -33t33.5 -79t-33.5 -79t-80.5 -33q-46 0 -79.5 33t-33.5 79zM317 1302q0 46 33.5 79t79.5 33q47 0 80.5 -33t33.5 -79t-33.5 -79t-80.5 -33q-46 0 -79.5 33t-33.5 79zM445 121q9 -13 9 -52q0 -47 -12 -61q-14 -8 -127 -8h-116 q-113 0 -127 8q-12 14 -12 61q0 39 9 52q46 11 111 20v763q-103 2 -109 7q-11 4 -11 67q0 31 7 45q43 14 107 22.5t99.5 10.5t54.5 2h6v-917q68 -10 111 -20z" />
<glyph unicode="&#xf0;" horiz-adv-x="968" d="M924 1276l-211 -78q299 -288 299 -677q0 -259 -127.5 -400t-338.5 -141q-214 0 -340 140.5t-126 364.5q0 228 130 370.5t341 142.5q95 0 171 -30q-57 94 -155 177l-195 -71q-2 -56 -5 -61q-12 -12 -61 -12q-39 0 -53 8q-15 63 -24 143l216 79q-87 55 -205 108l80 110 q139 -48 285 -159l177 65q10 70 21 115q14 8 53 8q49 0 61 -12q7 -14 7 -126v-64zM235 494q0 -169 80 -269.5t238 -100.5q151 0 227.5 94t76.5 265q0 172 -77.5 271.5t-233.5 99.5q-153 0 -232 -95.5t-79 -264.5z" />
<glyph unicode="&#xf1;" horiz-adv-x="1135" d="M1095 121q9 -14 9 -52q0 -47 -12 -61q-14 -8 -127 -8h-116q-113 0 -127 8q-12 14 -12 61q0 39 9 52q46 11 111 20v514q0 260 -227 260q-109 0 -274 -100v-674q68 -10 111 -20q9 -13 9 -52q0 -47 -12 -61q-14 -8 -127 -8h-116q-113 0 -127 8q-12 14 -12 61q0 39 9 52 q46 11 111 20v763q-103 2 -109 7q-11 4 -11 67q0 31 7 45q108 35 204 35h6l35 -116q72 48 157 82t154 34q77 0 141 -21t115.5 -65.5t80.5 -123t29 -184.5v-523q68 -10 111 -20zM778 1442v6q96 14 141 -27q-10 -86 -77 -140t-156 -54q-41 0 -75 13t-53 29t-45 29t-53 13 q-39 0 -65 -20t-26 -58v-6q-96 -14 -141 27q10 86 76 140t153 54q52 0 120.5 -42t110.5 -42q37 0 63.5 20t26.5 58z" />
<glyph unicode="&#xf2;" horiz-adv-x="1112" d="M80 516q0 150 60.5 273.5t171 196t248.5 72.5t247 -73t167 -195t58 -269q0 -150 -60 -273t-170.5 -195.5t-249.5 -72.5t-247.5 72.5t-166.5 194.5t-58 269zM235 524q0 -172 85.5 -286t240.5 -114q151 0 233.5 108t82.5 281q0 113 -34.5 202t-108.5 144t-178 55 q-151 0 -236 -109.5t-85 -280.5zM404 1558q180 -158 391 -253q-3 -30 -16.5 -67.5t-25.5 -47.5q-123 24 -262 106.5t-175 136.5q6 39 30.5 73.5t57.5 51.5z" />
<glyph unicode="&#xf3;" horiz-adv-x="1112" d="M80 516q0 150 60.5 273.5t171 196t248.5 72.5t247 -73t167 -195t58 -269q0 -150 -60 -273t-170.5 -195.5t-249.5 -72.5t-247.5 72.5t-166.5 194.5t-58 269zM235 524q0 -172 85.5 -286t240.5 -114q151 0 233.5 108t82.5 281q0 113 -34.5 202t-108.5 144t-178 55 q-151 0 -236 -109.5t-85 -280.5zM707 1558q33 -17 57.5 -51.5t30.5 -73.5q-36 -54 -175 -136.5t-262 -106.5q-12 10 -25.5 47.5t-16.5 67.5q211 95 391 253z" />
<glyph unicode="&#xf4;" horiz-adv-x="1112" d="M80 516q0 150 60.5 273.5t171 196t248.5 72.5t247 -73t167 -195t58 -269q0 -150 -60 -273t-170.5 -195.5t-249.5 -72.5t-247.5 72.5t-166.5 194.5t-58 269zM235 524q0 -172 85.5 -286t240.5 -114q151 0 233.5 108t82.5 281q0 113 -34.5 202t-108.5 144t-178 55 q-151 0 -236 -109.5t-85 -280.5zM558 1386h-5q-115 -106 -296 -196q-13 10 -26.5 47.5t-16.5 67.5q173 92 338 249h8q166 -158 338 -249q-3 -30 -16.5 -67.5t-26.5 -47.5q-176 86 -297 196z" />
<glyph unicode="&#xf5;" horiz-adv-x="1112" d="M80 516q0 150 60.5 273.5t171 196t248.5 72.5t247 -73t167 -195t58 -269q0 -150 -60 -273t-170.5 -195.5t-249.5 -72.5t-247.5 72.5t-166.5 194.5t-58 269zM235 524q0 -172 85.5 -286t240.5 -114q151 0 233.5 108t82.5 281q0 113 -34.5 202t-108.5 144t-178 55 q-151 0 -236 -109.5t-85 -280.5zM760 1442v6q96 14 141 -27q-10 -86 -77 -140t-156 -54q-41 0 -75 13t-53 29t-45 29t-53 13q-39 0 -65 -20t-26 -58v-6q-96 -14 -141 27q10 86 76 140t153 54q52 0 120.5 -42t110.5 -42q37 0 63.5 20t26.5 58z" />
<glyph unicode="&#xf6;" horiz-adv-x="1112" d="M80 516q0 150 60.5 273.5t171 196t248.5 72.5t247 -73t167 -195t58 -269q0 -150 -60 -273t-170.5 -195.5t-249.5 -72.5t-247.5 72.5t-166.5 194.5t-58 269zM235 524q0 -172 85.5 -286t240.5 -114q151 0 233.5 108t82.5 281q0 113 -34.5 202t-108.5 144t-178 55 q-151 0 -236 -109.5t-85 -280.5zM259 1302q0 46 33.5 79t79.5 33q47 0 80.5 -33t33.5 -79t-33.5 -79t-80.5 -33q-46 0 -79.5 33t-33.5 79zM625 1302q0 46 33.5 79t79.5 33q47 0 80.5 -33t33.5 -79t-33.5 -79t-80.5 -33q-46 0 -79.5 33t-33.5 79z" />
<glyph unicode="&#xf7;" horiz-adv-x="1030" d="M401 92q0 46 33.5 79t79.5 33q47 0 80.5 -33t33.5 -79t-33.5 -79t-80.5 -33q-46 0 -79.5 33t-33.5 79zM401 946q0 46 33.5 79t79.5 33q47 0 80.5 -33t33.5 -79t-33.5 -79t-80.5 -33q-46 0 -79.5 33t-33.5 79zM910 438h-790v154h790v-154z" />
<glyph unicode="&#xf8;" horiz-adv-x="1112" d="M896 1187l-512 -1408l-144 53l513 1409zM80 516q0 150 60.5 273.5t171 196t248.5 72.5t247 -73t167 -195t58 -269q0 -150 -60 -273t-170.5 -195.5t-249.5 -72.5t-247.5 72.5t-166.5 194.5t-58 269zM235 524q0 -172 85.5 -286t240.5 -114q151 0 233.5 108t82.5 281 q0 113 -34.5 202t-108.5 144t-178 55q-151 0 -236 -109.5t-85 -280.5z" />
<glyph unicode="&#xf9;" horiz-adv-x="1162" d="M960 1058v-924q160 0 171 -7q11 -4 11 -67q0 -31 -7 -45q-43 -14 -107 -22.5t-99.5 -10.5t-54.5 -2h-6l-37 119q-72 -49 -159 -84t-156 -35q-77 0 -141 21t-116 65.5t-81 123t-29 184.5v530q-102 2 -108 7q-11 4 -11 67q0 31 7 45q43 14 107 22.5t99.5 10.5t54.5 2h6 v-675q0 -260 227 -260q111 0 274 99v682q-102 2 -108 7q-11 4 -11 67q0 31 7 45q43 14 107 22.5t99.5 10.5t54.5 2h6zM429 1558q180 -158 391 -253q-3 -30 -16.5 -67.5t-25.5 -47.5q-123 24 -262 106.5t-175 136.5q6 39 30.5 73.5t57.5 51.5z" />
<glyph unicode="&#xfa;" horiz-adv-x="1162" d="M960 1058v-924q160 0 171 -7q11 -4 11 -67q0 -31 -7 -45q-43 -14 -107 -22.5t-99.5 -10.5t-54.5 -2h-6l-37 119q-72 -49 -159 -84t-156 -35q-77 0 -141 21t-116 65.5t-81 123t-29 184.5v530q-102 2 -108 7q-11 4 -11 67q0 31 7 45q43 14 107 22.5t99.5 10.5t54.5 2h6 v-675q0 -260 227 -260q111 0 274 99v682q-102 2 -108 7q-11 4 -11 67q0 31 7 45q43 14 107 22.5t99.5 10.5t54.5 2h6zM732 1558q33 -17 57.5 -51.5t30.5 -73.5q-36 -54 -175 -136.5t-262 -106.5q-12 10 -25.5 47.5t-16.5 67.5q211 95 391 253z" />
<glyph unicode="&#xfb;" horiz-adv-x="1162" d="M960 1058v-924q160 0 171 -7q11 -4 11 -67q0 -31 -7 -45q-43 -14 -107 -22.5t-99.5 -10.5t-54.5 -2h-6l-37 119q-72 -49 -159 -84t-156 -35q-77 0 -141 21t-116 65.5t-81 123t-29 184.5v530q-102 2 -108 7q-11 4 -11 67q0 31 7 45q43 14 107 22.5t99.5 10.5t54.5 2h6 v-675q0 -260 227 -260q111 0 274 99v682q-102 2 -108 7q-11 4 -11 67q0 31 7 45q43 14 107 22.5t99.5 10.5t54.5 2h6zM583 1386h-5q-115 -106 -296 -196q-13 10 -26.5 47.5t-16.5 67.5q173 92 338 249h8q166 -158 338 -249q-3 -30 -16.5 -67.5t-26.5 -47.5q-176 86 -297 196 z" />
<glyph unicode="&#xfc;" horiz-adv-x="1162" d="M960 1058v-924q160 0 171 -7q11 -4 11 -67q0 -31 -7 -45q-43 -14 -107 -22.5t-99.5 -10.5t-54.5 -2h-6l-37 119q-72 -49 -159 -84t-156 -35q-77 0 -141 21t-116 65.5t-81 123t-29 184.5v530q-102 2 -108 7q-11 4 -11 67q0 31 7 45q43 14 107 22.5t99.5 10.5t54.5 2h6 v-675q0 -260 227 -260q111 0 274 99v682q-102 2 -108 7q-11 4 -11 67q0 31 7 45q43 14 107 22.5t99.5 10.5t54.5 2h6zM284 1302q0 46 33.5 79t79.5 33q47 0 80.5 -33t33.5 -79t-33.5 -79t-80.5 -33q-46 0 -79.5 33t-33.5 79zM650 1302q0 46 33.5 79t79.5 33q47 0 80.5 -33 t33.5 -79t-33.5 -79t-80.5 -33q-46 0 -79.5 33t-33.5 79z" />
<glyph unicode="&#xfd;" horiz-adv-x="1052" d="M941 1038l-1 -2q54 -2 65 -6q12 -14 12 -61q0 -38 -9 -52q-44 -11 -116 -21l-396 -1148q-79 -226 -300 -226q-117 0 -256 63v129q0 112 7 126q12 12 61 12q39 0 53 -8q16 -68 27 -164q45 -15 89 -15q57 0 103.5 27.5t66.5 84.5l77 223h-48l-309 899q-37 5 -95 18 q-9 14 -9 52q0 47 12 61q7 3 45 5l-1 3h199q113 0 127 -8q12 -14 12 -61q0 -38 -9 -52q-55 -13 -120 -22l252 -730l253 733q-53 7 -101 19q-9 14 -9 52q0 47 12 61q14 8 127 8h179zM677 1558q33 -17 57.5 -51.5t30.5 -73.5q-36 -54 -175 -136.5t-262 -106.5 q-12 10 -25.5 47.5t-16.5 67.5q211 95 391 253z" />
<glyph unicode="&#xfe;" horiz-adv-x="1130" d="M602 1058q201 0 324.5 -151.5t123.5 -381.5q0 -112 -32 -209t-94.5 -173t-164.5 -119.5t-232 -43.5q-93 0 -192 23v-320q68 -10 111 -20q9 -13 9 -52q0 -47 -12 -61q-14 -8 -127 -8h-116q-113 0 -127 8q-12 14 -12 61q0 39 9 52q46 11 111 20v1611q-102 2 -108 7 q-11 4 -11 67q0 31 7 45q43 14 106.5 22.5t99 10.5t54.5 2h6v-481q121 91 267 91zM538 122q158 0 257.5 112t99.5 305q0 79 -18.5 145.5t-55 118.5t-98 81.5t-142.5 29.5q-167 0 -246 -112v-640q97 -40 203 -40z" />
<glyph unicode="&#xff;" horiz-adv-x="1052" d="M941 1038l-1 -2q54 -2 65 -6q12 -14 12 -61q0 -38 -9 -52q-44 -11 -116 -21l-396 -1148q-79 -226 -300 -226q-117 0 -256 63v129q0 112 7 126q12 12 61 12q39 0 53 -8q16 -68 27 -164q45 -15 89 -15q57 0 103.5 27.5t66.5 84.5l77 223h-48l-309 899q-37 5 -95 18 q-9 14 -9 52q0 47 12 61q7 3 45 5l-1 3h199q113 0 127 -8q12 -14 12 -61q0 -38 -9 -52q-55 -13 -120 -22l252 -730l253 733q-53 7 -101 19q-9 14 -9 52q0 47 12 61q14 8 127 8h179zM187 1302q0 46 33.5 79t79.5 33q47 0 80.5 -33t33.5 -79t-33.5 -79t-80.5 -33 q-46 0 -79.5 33t-33.5 79zM553 1302q0 46 33.5 79t79.5 33q47 0 80.5 -33t33.5 -79t-33.5 -79t-80.5 -33q-46 0 -79.5 33t-33.5 79z" />
<glyph unicode="&#x100;" horiz-adv-x="1308" d="M285 0h-116q-113 0 -127 8q-12 14 -12 61q0 39 9 52q49 12 106 19l405 1178h207l405 -1178q59 -7 107 -19q9 -14 9 -52q0 -47 -12 -61q-14 -8 -127 -8h-116q-113 0 -127 8q-12 14 -12 61q0 39 9 52q47 11 109 20l-57 166h-582l-58 -166q65 -10 110 -20q9 -13 9 -52 q0 -47 -12 -61q-14 -8 -127 -8zM412 451h484l-242 701zM353 1554h602v-144h-602v144z" />
<glyph unicode="&#x101;" horiz-adv-x="1022" d="M137 875v101q119 47 192 64.5t187 17.5q323 0 323 -341v-330q0 -48 4.5 -83t18 -73t44 -65t76.5 -41l-88 -145q-103 34 -157 145q-128 -145 -320 -145q-45 0 -88.5 8t-89.5 30.5t-80.5 57t-56.5 92.5t-22 132q0 149 94.5 224.5t301.5 75.5q71 0 209 -12v129 q0 198 -196 198q-110 0 -207 -31q-10 -74 -24 -139q-14 -8 -53 -8q-49 0 -61 12q-7 14 -7 126zM405 124q38 0 71.5 4.5t73.5 20.5t68 41.5t47.5 72.5t19.5 110v84q-227 2 -297 -9q-118 -18 -145 -87q-10 -26 -10 -61q0 -43 15 -76.5t36 -51.5t47 -29.5t44 -15t30 -3.5z M210 1338h602v-144h-602v144z" />
<glyph unicode="&#x102;" horiz-adv-x="1308" d="M285 0h-116q-113 0 -127 8q-12 14 -12 61q0 39 9 52q49 12 106 19l405 1178h207l405 -1178q59 -7 107 -19q9 -14 9 -52q0 -47 -12 -61q-14 -8 -127 -8h-116q-113 0 -127 8q-12 14 -12 61q0 39 9 52q47 11 109 20l-57 166h-582l-58 -166q65 -10 110 -20q9 -13 9 -52 q0 -47 -12 -61q-14 -8 -127 -8zM412 451h484l-242 701zM389 1662q86 -114 259 -114q174 0 269 114q26 -16 50 -50.5t25 -61.5q-54 -68 -145.5 -105t-189.5 -37q-101 0 -192.5 35.5t-150.5 106.5q1 27 25 61.5t50 50.5z" />
<glyph unicode="&#x103;" horiz-adv-x="1022" d="M137 875v101q119 47 192 64.5t187 17.5q323 0 323 -341v-330q0 -48 4.5 -83t18 -73t44 -65t76.5 -41l-88 -145q-103 34 -157 145q-128 -145 -320 -145q-45 0 -88.5 8t-89.5 30.5t-80.5 57t-56.5 92.5t-22 132q0 149 94.5 224.5t301.5 75.5q71 0 209 -12v129 q0 198 -196 198q-110 0 -207 -31q-10 -74 -24 -139q-14 -8 -53 -8q-49 0 -61 12q-7 14 -7 126zM405 124q38 0 71.5 4.5t73.5 20.5t68 41.5t47.5 72.5t19.5 110v84q-227 2 -297 -9q-118 -18 -145 -87q-10 -26 -10 -61q0 -43 15 -76.5t36 -51.5t47 -29.5t44 -15t30 -3.5z M241 1448q86 -114 259 -114q174 0 269 114q26 -16 50 -50.5t25 -61.5q-54 -68 -145.5 -105t-189.5 -37q-101 0 -192.5 35.5t-150.5 106.5q1 27 25 61.5t50 50.5z" />
<glyph unicode="&#x104;" horiz-adv-x="1308" d="M285 0h-116q-113 0 -127 8q-12 14 -12 61q0 39 9 52q49 12 106 19l405 1178h207l405 -1178q59 -7 107 -19q9 -14 9 -52q0 -47 -12 -61q-14 -8 -127 -8h-116q-113 0 -127 8q-12 14 -12 61q0 39 9 52q47 11 109 20l-57 166h-582l-58 -166q65 -10 110 -20q9 -13 9 -52 q0 -47 -12 -61q-14 -8 -127 -8zM412 451h484l-242 701zM1135 101l24 -101q-91 -42 -132.5 -106.5t-41.5 -126.5q0 -104 91 -104q60 0 152 46l7 -5v-131q-72 -51 -156 -51q-99 0 -170 71.5t-71 175.5t88 192.5t209 139.5z" />
<glyph unicode="&#x105;" horiz-adv-x="1022" d="M853 75l41 -95q-71 -43 -103.5 -101t-32.5 -112q0 -104 91 -104q60 0 152 46l7 -5v-131q-72 -51 -156 -51q-99 0 -170 71.5t-71 175.5q0 92 69 171.5t173 134.5zM137 875v101q119 47 192 64.5t187 17.5q323 0 323 -341v-330q0 -48 4.5 -83t18 -73t44 -65t76.5 -41 l-88 -145q-103 34 -157 145q-128 -145 -320 -145q-45 0 -88.5 8t-89.5 30.5t-80.5 57t-56.5 92.5t-22 132q0 149 94.5 224.5t301.5 75.5q71 0 209 -12v129q0 198 -196 198q-110 0 -207 -31q-10 -74 -24 -139q-14 -8 -53 -8q-49 0 -61 12q-7 14 -7 126zM405 124 q38 0 71.5 4.5t73.5 20.5t68 41.5t47.5 72.5t19.5 110v84q-227 2 -297 -9q-118 -18 -145 -87q-10 -26 -10 -61q0 -43 15 -76.5t36 -51.5t47 -29.5t44 -15t30 -3.5z" />
<glyph unicode="&#x106;" horiz-adv-x="1081" d="M874 1776q33 -17 57.5 -51.5t30.5 -73.5q-36 -54 -175 -136.5t-262 -106.5q-12 10 -25.5 47.5t-16.5 67.5q211 95 391 253zM1041 163v-142q-142 -41 -304 -41t-288 51.5t-206 145t-121.5 221t-41.5 282.5q3 141 44.5 259.5t121 208t205 140t286.5 50.5q162 0 304 -41 v-142q0 -112 -7 -126q-12 -12 -61 -12q-39 0 -53 8q-17 69 -26 157q-85 11 -149 11q-249 0 -380 -144.5t-131 -388.5q0 -242 131 -388.5t380 -146.5q64 0 149 11q9 88 26 157q14 8 53 8q49 0 61 -12q7 -14 7 -126z" />
<glyph unicode="&#x107;" horiz-adv-x="899" d="M578 124q77 0 156 20q9 97 28 176q14 8 53 8q49 0 61 -12q7 -14 7 -126v-136q-148 -74 -321 -74q-97 0 -181 31.5t-152.5 95.5t-108.5 171.5t-40 247.5q0 111 25.5 201t69.5 151t106 102t132 59.5t149 18.5q173 0 321 -74v-136q0 -112 -7 -126q-12 -12 -61 -12 q-39 0 -53 8q-19 79 -28 176q-85 20 -156 20q-73 0 -134 -21t-109 -65t-75 -119.5t-27 -176.5q0 -200 97 -304t248 -104zM746 1558q33 -17 57.5 -51.5t30.5 -73.5q-36 -54 -175 -136.5t-262 -106.5q-12 10 -25.5 47.5t-16.5 67.5q211 95 391 253z" />
<glyph unicode="&#x108;" horiz-adv-x="1081" d="M1041 163v-142q-142 -41 -304 -41t-288 51.5t-206 145t-121.5 221t-41.5 282.5q3 141 44.5 259.5t121 208t205 140t286.5 50.5q162 0 304 -41v-142q0 -112 -7 -126q-12 -12 -61 -12q-39 0 -53 8q-17 69 -26 157q-85 11 -149 11q-249 0 -380 -144.5t-131 -388.5 q0 -242 131 -388.5t380 -146.5q64 0 149 11q9 88 26 157q14 8 53 8q49 0 61 -12q7 -14 7 -126zM717 1604h-5q-115 -106 -296 -196q-13 10 -26.5 47.5t-16.5 67.5q173 92 338 249h8q166 -158 338 -249q-3 -30 -16.5 -67.5t-26.5 -47.5q-176 86 -297 196z" />
<glyph unicode="&#x109;" horiz-adv-x="899" d="M578 124q77 0 156 20q9 97 28 176q14 8 53 8q49 0 61 -12q7 -14 7 -126v-136q-148 -74 -321 -74q-97 0 -181 31.5t-152.5 95.5t-108.5 171.5t-40 247.5q0 111 25.5 201t69.5 151t106 102t132 59.5t149 18.5q173 0 321 -74v-136q0 -112 -7 -126q-12 -12 -61 -12 q-39 0 -53 8q-19 79 -28 176q-85 20 -156 20q-73 0 -134 -21t-109 -65t-75 -119.5t-27 -176.5q0 -200 97 -304t248 -104zM575 1386h-5q-115 -106 -296 -196q-13 10 -26.5 47.5t-16.5 67.5q173 92 338 249h8q166 -158 338 -249q-3 -30 -16.5 -67.5t-26.5 -47.5 q-176 86 -297 196z" />
<glyph unicode="&#x10c;" horiz-adv-x="1081" d="M1041 163v-142q-142 -41 -304 -41t-288 51.5t-206 145t-121.5 221t-41.5 282.5q3 141 44.5 259.5t121 208t205 140t286.5 50.5q162 0 304 -41v-142q0 -112 -7 -126q-12 -12 -61 -12q-39 0 -53 8q-17 69 -26 157q-85 11 -149 11q-249 0 -380 -144.5t-131 -388.5 q0 -242 131 -388.5t380 -146.5q64 0 149 11q9 88 26 157q14 8 53 8q49 0 61 -12q7 -14 7 -126zM729 1576h5q121 110 297 196q13 -10 26.5 -47.5t16.5 -67.5q-172 -91 -338 -249h-8q-165 157 -338 249q3 30 16.5 67.5t26.5 47.5q181 -90 296 -196z" />
<glyph unicode="&#x10d;" horiz-adv-x="899" d="M578 124q77 0 156 20q9 97 28 176q14 8 53 8q49 0 61 -12q7 -14 7 -126v-136q-148 -74 -321 -74q-97 0 -181 31.5t-152.5 95.5t-108.5 171.5t-40 247.5q0 111 25.5 201t69.5 151t106 102t132 59.5t149 18.5q173 0 321 -74v-136q0 -112 -7 -126q-12 -12 -61 -12 q-39 0 -53 8q-19 79 -28 176q-85 20 -156 20q-73 0 -134 -21t-109 -65t-75 -119.5t-27 -176.5q0 -200 97 -304t248 -104zM571 1358h5q121 110 297 196q13 -10 26.5 -47.5t16.5 -67.5q-172 -91 -338 -249h-8q-165 157 -338 249q3 30 16.5 67.5t26.5 47.5q181 -90 296 -196z " />
<glyph unicode="&#x10e;" horiz-adv-x="1298" d="M549 0h-370q-113 0 -127 8q-12 14 -12 61q0 39 9 52q46 11 111 20v1035q-54 8 -111 21q-9 13 -9 52q0 47 12 61q14 8 127 8h354q191 0 347.5 -84t247 -235t90.5 -339q0 -189 -86.5 -340t-239.5 -235.5t-343 -84.5zM315 1174v-1030h234q236 0 375 138.5t139 361.5 q0 153 -71.5 275.5t-192.5 188.5t-266 66h-218zM514 1576h5q121 110 297 196q13 -10 26.5 -47.5t16.5 -67.5q-172 -91 -338 -249h-8q-165 157 -338 249q3 30 16.5 67.5t26.5 47.5q181 -90 296 -196z" />
<glyph unicode="&#x10f;" horiz-adv-x="1501" d="M1194 1336q0 46 33 79t79 33q43 0 79 -30.5t36 -92.5q0 -80 -59.5 -161.5t-129.5 -118.5l-42 54q49 84 49 130t-45 107zM949 1448v-1314q161 0 172 -7q11 -4 11 -67q0 -31 -7 -45q-43 -14 -106.5 -22.5t-99 -10.5t-54.5 -2h-6l-39 112q-129 -111 -292 -111 q-132 0 -235.5 75.5t-158 201t-54.5 276.5q0 112 32 206t94.5 165.5t164 112t232.5 40.5q85 0 192 -21v257q-102 2 -108 7q-11 4 -11 67q0 31 7 45q43 14 106.5 22.5t99 10.5t54.5 2h6zM549 125q167 0 246 113v637q-105 41 -203 41q-161 0 -259 -102t-98 -293 q0 -79 18.5 -148.5t55 -126t98.5 -89t142 -32.5z" />
<glyph unicode="&#x111;" horiz-adv-x="1173" d="M1121 127q11 -4 11 -67q0 -31 -7 -45q-43 -14 -106.5 -22.5t-99 -10.5t-54.5 -2h-6l-39 112q-129 -111 -292 -111q-132 0 -235.5 75.5t-158 201t-54.5 276.5q0 112 32 206t94.5 165.5t164 112t232.5 40.5q85 0 192 -21v61h-187v144h187v52q-102 2 -108 7q-11 4 -11 67 q0 31 7 45q43 14 106.5 22.5t99 10.5t54.5 2h6v-206h150v-144h-150v-964q161 0 172 -7zM795 238v637q-105 41 -203 41q-161 0 -259 -102t-98 -293q0 -79 18.5 -148.5t55 -126t98.5 -89t142 -32.5q167 0 246 113z" />
<glyph unicode="&#x112;" horiz-adv-x="998" d="M954 1318v-144q0 -112 -7 -126q-12 -12 -61 -12q-39 0 -53 8q-15 67 -23 130h-495v-443h391q8 65 23 130q14 8 53 8q49 0 61 -12q7 -14 7 -126v-144q0 -112 -7 -126q-12 -12 -61 -12q-39 0 -53 8q-15 67 -23 130h-391v-443h495q8 65 23 130q14 8 53 8q49 0 61 -12 q7 -14 7 -126v-144h-775q-113 0 -127 8q-12 14 -12 61q0 39 9 52q46 11 111 20v1035q-54 8 -111 21q-9 13 -9 52q0 47 12 61q14 8 127 8h775zM198 1554h602v-144h-602v144z" />
<glyph unicode="&#x113;" horiz-adv-x="946" d="M881 480h-647q12 -173 107 -264.5t236 -91.5q135 0 280 74l3 -1v-143q-149 -74 -298 -74q-99 0 -184.5 33t-153 98.5t-106 173.5t-38.5 247q0 114 26.5 208t79.5 166t139.5 112t200.5 40q66 0 120 -14.5t90 -37.5t63.5 -58.5t42.5 -72t24 -83t12 -86t3 -86.5v-140z M523 914q-114 0 -188 -81t-94 -213h488q-1 64 -10.5 113.5t-32 92t-63.5 65.5t-100 23zM236 1338h602v-144h-602v144z" />
<glyph unicode="&#x116;" horiz-adv-x="998" d="M459 1520q0 46 33.5 79t79.5 33q47 0 80.5 -33t33.5 -79t-33.5 -79t-80.5 -33q-46 0 -79.5 33t-33.5 79zM954 1318v-144q0 -112 -7 -126q-12 -12 -61 -12q-39 0 -53 8q-15 67 -23 130h-495v-443h391q8 65 23 130q14 8 53 8q49 0 61 -12q7 -14 7 -126v-144q0 -112 -7 -126 q-12 -12 -61 -12q-39 0 -53 8q-15 67 -23 130h-391v-443h495q8 65 23 130q14 8 53 8q49 0 61 -12q7 -14 7 -126v-144h-775q-113 0 -127 8q-12 14 -12 61q0 39 9 52q46 11 111 20v1035q-54 8 -111 21q-9 13 -9 52q0 47 12 61q14 8 127 8h775z" />
<glyph unicode="&#x117;" horiz-adv-x="946" d="M881 480h-647q12 -173 107 -264.5t236 -91.5q135 0 280 74l3 -1v-143q-149 -74 -298 -74q-99 0 -184.5 33t-153 98.5t-106 173.5t-38.5 247q0 114 26.5 208t79.5 166t139.5 112t200.5 40q66 0 120 -14.5t90 -37.5t63.5 -58.5t42.5 -72t24 -83t12 -86t3 -86.5v-140z M523 914q-114 0 -188 -81t-94 -213h488q-1 64 -10.5 113.5t-32 92t-63.5 65.5t-100 23zM410 1302q0 46 33.5 79t79.5 33q47 0 80.5 -33t33.5 -79t-33.5 -79t-80.5 -33q-46 0 -79.5 33t-33.5 79z" />
<glyph unicode="&#x118;" horiz-adv-x="998" d="M954 1318v-144q0 -112 -7 -126q-12 -12 -61 -12q-39 0 -53 8q-15 67 -23 130h-495v-443h391q8 65 23 130q14 8 53 8q49 0 61 -12q7 -14 7 -126v-144q0 -112 -7 -126q-12 -12 -61 -12q-39 0 -53 8q-15 67 -23 130h-391v-443h495q8 65 23 130q14 8 53 8q49 0 61 -12 q7 -14 7 -126v-144h-775q-113 0 -127 8q-12 14 -12 61q0 39 9 52q46 11 111 20v1035q-54 8 -111 21q-9 13 -9 52q0 47 12 61q14 8 127 8h775zM930 101l24 -101q-91 -42 -132.5 -106.5t-41.5 -126.5q0 -104 91 -104q60 0 152 46l7 -5v-131q-72 -51 -156 -51q-99 0 -170 71.5 t-71 175.5t88 192.5t209 139.5z" />
<glyph unicode="&#x119;" horiz-adv-x="946" d="M881 480h-647q12 -173 107 -264.5t236 -91.5q135 0 280 74l3 -1v-143q-149 -74 -298 -74q-99 0 -184.5 33t-153 98.5t-106 173.5t-38.5 247q0 114 26.5 208t79.5 166t139.5 112t200.5 40q66 0 120 -14.5t90 -37.5t63.5 -58.5t42.5 -72t24 -83t12 -86t3 -86.5v-140z M523 914q-114 0 -188 -81t-94 -213h488q-1 64 -10.5 113.5t-32 92t-63.5 65.5t-100 23zM693 101l24 -101q-91 -42 -132.5 -106.5t-41.5 -126.5q0 -104 91 -104q60 0 152 46l7 -5v-131q-72 -51 -156 -51q-99 0 -170 71.5t-71 175.5t88 192.5t209 139.5z" />
<glyph unicode="&#x11a;" horiz-adv-x="998" d="M954 1318v-144q0 -112 -7 -126q-12 -12 -61 -12q-39 0 -53 8q-15 67 -23 130h-495v-443h391q8 65 23 130q14 8 53 8q49 0 61 -12q7 -14 7 -126v-144q0 -112 -7 -126q-12 -12 -61 -12q-39 0 -53 8q-15 67 -23 130h-391v-443h495q8 65 23 130q14 8 53 8q49 0 61 -12 q7 -14 7 -126v-144h-775q-113 0 -127 8q-12 14 -12 61q0 39 9 52q46 11 111 20v1035q-54 8 -111 21q-9 13 -9 52q0 47 12 61q14 8 127 8h775zM548 1576h5q121 110 297 196q13 -10 26.5 -47.5t16.5 -67.5q-172 -91 -338 -249h-8q-165 157 -338 249q3 30 16.5 67.5t26.5 47.5 q181 -90 296 -196z" />
<glyph unicode="&#x11b;" horiz-adv-x="946" d="M881 480h-647q12 -173 107 -264.5t236 -91.5q135 0 280 74l3 -1v-143q-149 -74 -298 -74q-99 0 -184.5 33t-153 98.5t-106 173.5t-38.5 247q0 114 26.5 208t79.5 166t139.5 112t200.5 40q66 0 120 -14.5t90 -37.5t63.5 -58.5t42.5 -72t24 -83t12 -86t3 -86.5v-140z M523 914q-114 0 -188 -81t-94 -213h488q-1 64 -10.5 113.5t-32 92t-63.5 65.5t-100 23zM518 1358h5q121 110 297 196q13 -10 26.5 -47.5t16.5 -67.5q-172 -91 -338 -249h-8q-165 157 -338 249q3 30 16.5 67.5t26.5 47.5q181 -90 296 -196z" />
<glyph unicode="&#x11c;" horiz-adv-x="1268" d="M688 1604h-5q-115 -106 -296 -196q-13 10 -26.5 47.5t-16.5 67.5q173 92 338 249h8q166 -158 338 -249q-3 -30 -16.5 -67.5t-26.5 -47.5q-176 86 -297 196zM1069 -2l-92 71q-130 -89 -291 -89q-179 0 -317.5 89t-213.5 245.5t-75 352.5q0 112 25 211.5t77.5 184 t129 145.5t184 95.5t237.5 34.5q167 0 309 -41v-142q0 -112 -7 -126q-12 -12 -61 -12q-39 0 -53 8q-17 69 -26 157q-76 11 -150 11q-125 0 -223.5 -40.5t-160.5 -111t-94 -163.5t-32 -202q0 -153 59.5 -279t167 -199.5t241.5 -73.5q102 0 172 37t102 77v331h-285v155h436 v-726h-59z" />
<glyph unicode="&#x11d;" horiz-adv-x="1034" d="M98 712q0 149 108 247.5t276 98.5q111 0 201 -48q65 48 138 76.5t127 28.5l46 -131q-101 -17 -195 -75q60 -87 60 -193q0 -151 -110 -258.5t-277 -107.5q-102 0 -192 45q-35 -44 -35 -85q0 -40 34 -66.5t94 -26.5h196q204 0 311.5 -83.5t107.5 -208.5 q0 -109 -79.5 -203.5t-202 -147t-252.5 -52.5q-174 0 -279 94.5t-105 236.5q0 63 33 134t91 130q-40 23 -62.5 71.5t-22.5 95.5q0 88 75 181q-41 44 -63.5 110.5t-22.5 136.5zM431 84h-117q-42 -48 -67 -106t-25 -111q0 -97 60.5 -153.5t191.5 -56.5q151 0 253.5 80 t102.5 178q0 38 -13.5 66.5t-42 46.5t-61 29.5t-82.5 17t-94 7.5t-106 2zM478 920q-109 0 -172.5 -66.5t-63.5 -150.5q0 -85 64 -150.5t175 -65.5q109 0 170.5 64.5t61.5 149.5q0 86 -63 152.5t-172 66.5zM519 1386h-5q-115 -106 -296 -196q-13 10 -26.5 47.5t-16.5 67.5 q173 92 338 249h8q166 -158 338 -249q-3 -30 -16.5 -67.5t-26.5 -47.5q-176 86 -297 196z" />
<glyph unicode="&#x11e;" horiz-adv-x="1268" d="M1069 -2l-92 71q-130 -89 -291 -89q-179 0 -317.5 89t-213.5 245.5t-75 352.5q0 112 25 211.5t77.5 184t129 145.5t184 95.5t237.5 34.5q167 0 309 -41v-142q0 -112 -7 -126q-12 -12 -61 -12q-39 0 -53 8q-17 69 -26 157q-76 11 -150 11q-125 0 -223.5 -40.5t-160.5 -111 t-94 -163.5t-32 -202q0 -153 59.5 -279t167 -199.5t241.5 -73.5q102 0 172 37t102 77v331h-285v155h436v-726h-59zM423 1662q86 -114 259 -114q174 0 269 114q26 -16 50 -50.5t25 -61.5q-54 -68 -145.5 -105t-189.5 -37q-101 0 -192.5 35.5t-150.5 106.5q1 27 25 61.5 t50 50.5z" />
<glyph unicode="&#x11f;" horiz-adv-x="1034" d="M98 712q0 149 108 247.5t276 98.5q111 0 201 -48q65 48 138 76.5t127 28.5l46 -131q-101 -17 -195 -75q60 -87 60 -193q0 -151 -110 -258.5t-277 -107.5q-102 0 -192 45q-35 -44 -35 -85q0 -40 34 -66.5t94 -26.5h196q204 0 311.5 -83.5t107.5 -208.5 q0 -109 -79.5 -203.5t-202 -147t-252.5 -52.5q-174 0 -279 94.5t-105 236.5q0 63 33 134t91 130q-40 23 -62.5 71.5t-22.5 95.5q0 88 75 181q-41 44 -63.5 110.5t-22.5 136.5zM431 84h-117q-42 -48 -67 -106t-25 -111q0 -97 60.5 -153.5t191.5 -56.5q151 0 253.5 80 t102.5 178q0 38 -13.5 66.5t-42 46.5t-61 29.5t-82.5 17t-94 7.5t-106 2zM478 920q-109 0 -172.5 -66.5t-63.5 -150.5q0 -85 64 -150.5t175 -65.5q109 0 170.5 64.5t61.5 149.5q0 86 -63 152.5t-172 66.5zM232 1448q86 -114 259 -114q174 0 269 114q26 -16 50 -50.5 t25 -61.5q-54 -68 -145.5 -105t-189.5 -37q-101 0 -192.5 35.5t-150.5 106.5q1 27 25 61.5t50 50.5z" />
<glyph unicode="&#x120;" horiz-adv-x="1268" d="M1069 -2l-92 71q-130 -89 -291 -89q-179 0 -317.5 89t-213.5 245.5t-75 352.5q0 112 25 211.5t77.5 184t129 145.5t184 95.5t237.5 34.5q167 0 309 -41v-142q0 -112 -7 -126q-12 -12 -61 -12q-39 0 -53 8q-17 69 -26 157q-76 11 -150 11q-125 0 -223.5 -40.5t-160.5 -111 t-94 -163.5t-32 -202q0 -153 59.5 -279t167 -199.5t241.5 -73.5q102 0 172 37t102 77v331h-285v155h436v-726h-59zM621 1520q0 46 33.5 79t79.5 33q47 0 80.5 -33t33.5 -79t-33.5 -79t-80.5 -33q-46 0 -79.5 33t-33.5 79z" />
<glyph unicode="&#x121;" horiz-adv-x="1034" d="M98 712q0 149 108 247.5t276 98.5q111 0 201 -48q65 48 138 76.5t127 28.5l46 -131q-101 -17 -195 -75q60 -87 60 -193q0 -151 -110 -258.5t-277 -107.5q-102 0 -192 45q-35 -44 -35 -85q0 -40 34 -66.5t94 -26.5h196q204 0 311.5 -83.5t107.5 -208.5 q0 -109 -79.5 -203.5t-202 -147t-252.5 -52.5q-174 0 -279 94.5t-105 236.5q0 63 33 134t91 130q-40 23 -62.5 71.5t-22.5 95.5q0 88 75 181q-41 44 -63.5 110.5t-22.5 136.5zM431 84h-117q-42 -48 -67 -106t-25 -111q0 -97 60.5 -153.5t191.5 -56.5q151 0 253.5 80 t102.5 178q0 38 -13.5 66.5t-42 46.5t-61 29.5t-82.5 17t-94 7.5t-106 2zM478 920q-109 0 -172.5 -66.5t-63.5 -150.5q0 -85 64 -150.5t175 -65.5q109 0 170.5 64.5t61.5 149.5q0 86 -63 152.5t-172 66.5zM379 1334q0 46 33.5 79t79.5 33q47 0 80.5 -33t33.5 -79t-33.5 -79 t-80.5 -33q-46 0 -79.5 33t-33.5 79z" />
<glyph unicode="&#x122;" horiz-adv-x="1268" d="M1069 -2l-92 71q-130 -89 -291 -89q-179 0 -317.5 89t-213.5 245.5t-75 352.5q0 112 25 211.5t77.5 184t129 145.5t184 95.5t237.5 34.5q167 0 309 -41v-142q0 -112 -7 -126q-12 -12 -61 -12q-39 0 -53 8q-17 69 -26 157q-76 11 -150 11q-125 0 -223.5 -40.5t-160.5 -111 t-94 -163.5t-32 -202q0 -153 59.5 -279t167 -199.5t241.5 -73.5q102 0 172 37t102 77v331h-285v155h436v-726h-59zM572 -187q0 46 33 79t79 33q43 0 79 -30.5t36 -92.5q0 -80 -59.5 -161.5t-129.5 -118.5l-42 54q49 84 49 130t-45 107z" />
<glyph unicode="&#x123;" horiz-adv-x="1034" d="M601 1300q0 -46 -33 -79t-79 -33q-43 0 -78.5 30.5t-35.5 92.5q0 80 59 161.5t129 118.5l43 -54q-49 -81 -49 -130q0 -47 44 -107zM98 712q0 149 108 247.5t276 98.5q111 0 201 -48q65 48 138 76.5t127 28.5l46 -131q-101 -17 -195 -75q60 -87 60 -193 q0 -151 -110 -258.5t-277 -107.5q-102 0 -192 45q-35 -44 -35 -85q0 -40 34 -66.5t94 -26.5h196q204 0 311.5 -83.5t107.5 -208.5q0 -109 -79.5 -203.5t-202 -147t-252.5 -52.5q-174 0 -279 94.5t-105 236.5q0 63 33 134t91 130q-40 23 -62.5 71.5t-22.5 95.5q0 88 75 181 q-41 44 -63.5 110.5t-22.5 136.5zM431 84h-117q-42 -48 -67 -106t-25 -111q0 -97 60.5 -153.5t191.5 -56.5q151 0 253.5 80t102.5 178q0 38 -13.5 66.5t-42 46.5t-61 29.5t-82.5 17t-94 7.5t-106 2zM478 920q-109 0 -172.5 -66.5t-63.5 -150.5q0 -85 64 -150.5t175 -65.5 q109 0 170.5 64.5t61.5 149.5q0 86 -63 152.5t-172 66.5z" />
<glyph unicode="&#x124;" horiz-adv-x="1273" d="M646 1604h-5q-115 -106 -296 -196q-13 10 -26.5 47.5t-16.5 67.5q173 92 338 249h8q166 -158 338 -249q-3 -30 -16.5 -67.5t-26.5 -47.5q-176 86 -297 196zM160 1318h136q113 0 127 -8q12 -14 12 -61q0 -39 -9 -52q-55 -13 -111 -21v-440h643v441q-65 10 -110 20 q-9 13 -9 52q0 47 12 61q14 8 127 8h117q113 0 127 -8q12 -14 12 -61q0 -39 -9 -52q-60 -14 -112 -21v-1035q64 -9 112 -20q9 -14 9 -52q0 -47 -12 -61q-14 -8 -127 -8h-117q-113 0 -127 8q-12 14 -12 61q0 39 9 52q45 10 110 20v441h-643v-441q65 -10 110 -20q9 -13 9 -52 q0 -47 -12 -61q-9 -6 -107 -8h-155q-96 0 -108 8q-12 14 -12 61q0 39 9 52q46 11 111 20v1035q-54 8 -111 21q-9 13 -9 52q0 47 12 61q12 6 108 8z" />
<glyph unicode="&#x125;" horiz-adv-x="1150" d="M225 1644h-5q-115 -106 -296 -196q-13 10 -26.5 47.5t-16.5 67.5q173 92 338 249h8q166 -158 338 -249q-3 -30 -16.5 -67.5t-26.5 -47.5q-176 86 -297 196zM1100 121q9 -14 9 -52q0 -47 -12 -61q-14 -8 -127 -8h-116q-113 0 -127 8q-12 14 -12 61q0 39 9 52q46 11 111 20 v515q0 259 -227 259q-113 0 -274 -100v-674q68 -10 111 -20q9 -13 9 -52q0 -47 -12 -61q-14 -8 -127 -8h-116q-113 0 -127 8q-12 14 -12 61q0 39 9 52q46 11 111 20v1153q-102 2 -108 7q-11 4 -11 67q0 31 7 45q43 14 106.5 22.5t99 10.5t54.5 2h6v-492q168 102 289 102 q77 0 141 -21t115.5 -65.5t80.5 -123t29 -184.5v-523q68 -10 111 -20z" />
<glyph unicode="&#x126;" horiz-adv-x="1274" d="M179 1318h117q113 0 127 -8q12 -14 12 -61q0 -39 -9 -52q-55 -13 -111 -21v-138h643v139q-65 10 -110 20q-9 13 -9 52q0 47 12 61q12 6 107 8h155q95 -2 109 -8q12 -14 12 -61q0 -39 -9 -52q-60 -14 -112 -21v-1035q64 -9 112 -20q9 -14 9 -52q0 -47 -12 -61 q-14 -8 -109 -8h-155q-98 2 -107 8q-12 14 -12 61q0 39 9 52q45 10 110 20v441h-643v-441q65 -10 110 -20q9 -13 9 -52q0 -47 -12 -61q-9 -6 -107 -8h-155q-96 0 -108 8q-12 14 -12 61q0 39 9 52q46 11 111 20v1035q-54 8 -111 21q-9 13 -9 52q0 47 12 61q14 8 127 8z M958 736v146h-643v-146h643z" />
<glyph unicode="&#x127;" horiz-adv-x="1111" d="M1082 121q9 -14 9 -52q0 -47 -12 -61q-14 -8 -127 -8h-116q-113 0 -127 8q-12 14 -12 61q0 39 9 52q46 11 111 20v515q0 259 -227 259q-113 0 -274 -100v-674q68 -10 111 -20q9 -13 9 -52q0 -47 -12 -61q-14 -8 -127 -8h-116q-113 0 -127 8q-12 14 -12 61q0 39 9 52 q46 11 111 20v953h-122v144h122v56q-102 2 -108 7q-11 4 -11 67q0 31 7 45q43 14 106.5 22.5t99 10.5t54.5 2h6v-210h283v-144h-283v-138q168 102 289 102q77 0 141 -21t115.5 -65.5t80.5 -123t29 -184.5v-523q68 -10 111 -20z" />
<glyph unicode="&#x128;" horiz-adv-x="474" d="M295 0h-116q-113 0 -127 8q-12 14 -12 61q0 39 9 52q46 11 111 20v1035q-54 8 -111 21q-9 13 -9 52q0 47 12 61q14 8 127 8h116q113 0 127 -8q12 -14 12 -61q0 -39 -9 -52q-55 -13 -111 -21v-1035q68 -10 111 -20q9 -13 9 -52q0 -47 -12 -61q-14 -8 -127 -8zM442 1633v6 q96 14 141 -27q-10 -86 -77 -140t-156 -54q-41 0 -75 13t-53 29t-45 29t-53 13q-39 0 -65 -20t-26 -58v-6q-96 -14 -141 27q10 86 76 140t153 54q52 0 120.5 -42t110.5 -42q37 0 63.5 20t26.5 58z" />
<glyph unicode="&#x12a;" horiz-adv-x="474" d="M295 0h-116q-113 0 -127 8q-12 14 -12 61q0 39 9 52q46 11 111 20v1035q-54 8 -111 21q-9 13 -9 52q0 47 12 61q14 8 127 8h116q113 0 127 -8q12 -14 12 -61q0 -39 -9 -52q-55 -13 -111 -21v-1035q68 -10 111 -20q9 -13 9 -52q0 -47 -12 -61q-14 -8 -127 -8zM-64 1554 h602v-144h-602v144z" />
<glyph unicode="&#x12b;" d="M-54 1338h602v-144h-602v144zM445 121q9 -13 9 -52q0 -47 -12 -61q-14 -8 -127 -8h-116q-113 0 -127 8q-12 14 -12 61q0 39 9 52q46 11 111 20v763q-103 2 -109 7q-11 4 -11 67q0 31 7 45q43 14 107 22.5t99.5 10.5t54.5 2h6v-917q68 -10 111 -20z" />
<glyph unicode="&#x12c;" horiz-adv-x="474" d="M295 0h-116q-113 0 -127 8q-12 14 -12 61q0 39 9 52q46 11 111 20v1035q-54 8 -111 21q-9 13 -9 52q0 47 12 61q14 8 127 8h116q113 0 127 -8q12 -14 12 -61q0 -39 -9 -52q-55 -13 -111 -21v-1035q68 -10 111 -20q9 -13 9 -52q0 -47 -12 -61q-14 -8 -127 -8zM-27 1662 q86 -114 259 -114q174 0 269 114q26 -16 50 -50.5t25 -61.5q-54 -68 -145.5 -105t-189.5 -37q-101 0 -192.5 35.5t-150.5 106.5q1 27 25 61.5t50 50.5z" />
<glyph unicode="&#x12d;" d="M-52 1448q86 -114 259 -114q174 0 269 114q26 -16 50 -50.5t25 -61.5q-54 -68 -145.5 -105t-189.5 -37q-101 0 -192.5 35.5t-150.5 106.5q1 27 25 61.5t50 50.5zM445 121q9 -13 9 -52q0 -47 -12 -61q-14 -8 -127 -8h-116q-113 0 -127 8q-12 14 -12 61q0 39 9 52 q46 11 111 20v763q-103 2 -109 7q-11 4 -11 67q0 31 7 45q43 14 107 22.5t99.5 10.5t54.5 2h6v-917q68 -10 111 -20z" />
<glyph unicode="&#x12e;" horiz-adv-x="474" d="M295 0h-116q-113 0 -127 8q-12 14 -12 61q0 39 9 52q46 11 111 20v1035q-54 8 -111 21q-9 13 -9 52q0 47 12 61q14 8 127 8h116q113 0 127 -8q12 -14 12 -61q0 -39 -9 -52q-55 -13 -111 -21v-1035q68 -10 111 -20q9 -13 9 -52q0 -47 -12 -61q-14 -8 -127 -8zM285 101 l24 -101q-91 -42 -132.5 -106.5t-41.5 -126.5q0 -104 91 -104q60 0 152 46l7 -5v-131q-72 -51 -156 -51q-99 0 -170 71.5t-71 175.5t88 192.5t209 139.5z" />
<glyph unicode="&#x12f;" d="M418 109l24 -101q-90 -42 -133 -110.5t-43 -130.5q0 -104 91 -104q60 0 152 46l7 -5v-131q-72 -51 -156 -51q-99 0 -170 71.5t-71 175.5q0 71 46 140.5t111.5 118.5t141.5 81zM150 1321q0 44 31.5 75.5t75.5 31.5t76 -31.5t32 -75.5q0 -43 -32 -74.5t-76 -31.5t-75.5 31 t-31.5 75zM445 121q9 -13 9 -52q0 -47 -12 -61q-14 -8 -127 -8h-116q-113 0 -127 8q-12 14 -12 61q0 39 9 52q46 11 111 20v763q-103 2 -109 7q-11 4 -11 67q0 31 7 45q43 14 107 22.5t99.5 10.5t54.5 2h6v-917q68 -10 111 -20z" />
<glyph unicode="&#x130;" horiz-adv-x="474" d="M295 0h-116q-113 0 -127 8q-12 14 -12 61q0 39 9 52q46 11 111 20v1035q-54 8 -111 21q-9 13 -9 52q0 47 12 61q14 8 127 8h116q113 0 127 -8q12 -14 12 -61q0 -39 -9 -52q-55 -13 -111 -21v-1035q68 -10 111 -20q9 -13 9 -52q0 -47 -12 -61q-14 -8 -127 -8zM123 1520 q0 46 33.5 79t79.5 33q47 0 80.5 -33t33.5 -79t-33.5 -79t-80.5 -33q-46 0 -79.5 33t-33.5 79z" />
<glyph unicode="&#x131;" d="M445 121q9 -13 9 -52q0 -47 -12 -61q-14 -8 -127 -8h-116q-113 0 -127 8q-12 14 -12 61q0 39 9 52q46 11 111 20v763q-103 2 -109 7q-11 4 -11 67q0 31 7 45q43 14 107 22.5t99.5 10.5t54.5 2h6v-917q68 -10 111 -20z" />
<glyph unicode="&#x132;" horiz-adv-x="1177" d="M867 1318h154q95 -2 109 -8q12 -14 12 -61q0 -39 -9 -52q-60 -14 -112 -21v-686q0 -125 -25.5 -217.5t-67.5 -148t-106 -88.5t-129 -44.5t-149 -11.5q-75 0 -219 12t-174 14v129q0 112 7 126q12 12 61 12q39 0 53 -8q11 -50 23 -131q122 -16 255 -16q49 0 87.5 7t76 24 t64 48t47.5 76.5t31.5 112.5t10.5 154v636q-54 8 -111 21q-9 13 -9 52q0 47 12 61q12 6 108 8zM130 1581q0 44 31.5 75.5t75.5 31.5t76 -31.5t32 -75.5q0 -43 -32 -74.5t-76 -31.5t-75.5 31t-31.5 75zM837 1581q0 44 31.5 75.5t75.5 31.5t76 -31.5t32 -75.5q0 -43 -32 -74.5 t-76 -31.5t-75.5 31t-31.5 75zM295 441h-116q-113 0 -127 8q-12 14 -12 61q0 38 9 52q46 11 111 20v594q-54 8 -111 21q-9 13 -9 52q0 47 12 61q14 8 127 8h116q113 0 127 -8q12 -14 12 -61q0 -39 -9 -52q-55 -13 -111 -21v-594q68 -10 111 -20q9 -14 9 -52q0 -47 -12 -61 q-14 -8 -127 -8z" />
<glyph unicode="&#x133;" horiz-adv-x="1181" d="M267 1215q-44 0 -75.5 31t-31.5 75t31.5 75.5t75.5 31.5t76 -31.5t32 -75.5q0 -43 -32 -74.5t-76 -31.5zM923 1428q44 0 76 -31.5t32 -75.5q0 -43 -32 -74.5t-76 -31.5t-75.5 31t-31.5 75t31.5 75.5t75.5 31.5zM803 1040q102 18 191 18h6v-1132q0 -92 -24.5 -163.5 t-65 -116t-98.5 -73t-120.5 -40t-136.5 -11.5q-181 0 -395 63v129q0 112 7 126q12 12 61 12q39 0 53 -8q14 -59 25 -146q144 -34 245 -34q294 0 294 262v156q-165 -102 -289 -102q-77 0 -141 21t-116 65.5t-81 123t-29 184.5v530q-102 2 -108 7q-11 4 -11 67q0 31 7 45 q43 14 107 22.5t99.5 10.5t54.5 2h6v-675q0 -260 227 -260q111 0 274 99v682l-13 1h-10q-23 0 -55 2q-4 0 -10.5 0.5t-8.5 0.5t-5 0.5t-4 1.5q-2 0 -2 1h-1q-3 2 -5 12q-1 2 -1 5l-1 4q0 4 -2 14q-1 10 -1 32v8q0 8 2 20v2l1 2v3l1 2q0 2 2 6q0 1 1 2q4 2 7 2l23 6q4 2 8 2 q10 3 32 7z" />
<glyph unicode="&#x134;" horiz-adv-x="701" d="M470 1604h-5q-115 -106 -296 -196q-13 10 -26.5 47.5t-16.5 67.5q173 92 338 249h8q166 -158 338 -249q-3 -30 -16.5 -67.5t-26.5 -47.5q-176 86 -297 196zM410 1318h117q113 0 127 -8q12 -14 12 -61q0 -39 -9 -52q-55 -13 -111 -21v-792q0 -206 -96 -305t-253 -99 q-73 0 -137 15v129q0 112 7 126q12 12 61 12q39 0 53 -8q11 -50 23 -131q85 0 136 63t51 198v792q-54 8 -111 21q-9 13 -9 52q0 47 12 61q14 8 127 8z" />
<glyph unicode="&#x135;" horiz-adv-x="540" d="M348 1058v-1132q0 -207 -88.5 -305.5t-233.5 -98.5q-119 0 -256 63v129q0 112 7 126q12 12 61 12q39 0 53 -8q19 -80 27 -164q47 -15 89 -15q85 0 136 63t51 198v978q-102 2 -108 7q-11 4 -11 67q0 31 7 45q43 14 106.5 22.5t99 10.5t54.5 2h6zM272 1386h-5 q-115 -106 -296 -196q-13 10 -26.5 47.5t-16.5 67.5q173 92 338 249h8q166 -158 338 -249q-3 -30 -16.5 -67.5t-26.5 -47.5q-176 86 -297 196z" />
<glyph unicode="&#x136;" horiz-adv-x="1120" d="M978 0q-2 0 -6 2q-101 47 -244 177t-259 272t-154 231v-541q68 -10 111 -20q9 -13 9 -52q0 -47 -12 -61q-14 -8 -127 -8h-136q-96 0 -108 8q-12 14 -12 61q0 39 9 52q46 11 111 20v1035q-54 8 -111 21q-9 13 -9 52q0 47 12 61q12 6 108 8h155q96 -2 108 -8q12 -14 12 -61 q0 -39 -9 -52q-55 -13 -111 -21v-476l409 486q-47 10 -49 11q-9 13 -9 52q0 47 12 61q14 8 127 8h117q113 0 127 -8q12 -14 12 -61q0 -39 -9 -52q-58 -14 -143 -25l-403 -478q50 -96 183 -241t263 -244q45 45 65 55q42 -6 83 -53q-5 -28 -38 -86.5t-84 -124.5zM456 -187 q0 46 33 79t79 33q43 0 79 -30.5t36 -92.5q0 -80 -59.5 -161.5t-129.5 -118.5l-42 54q49 84 49 130t-45 107z" />
<glyph unicode="&#x137;" horiz-adv-x="1029" d="M921 244q42 -6 83 -53q-5 -28 -38 -86.5t-84 -124.5q-58 3 -136 56t-149 127.5t-135 152.5t-103 136t-44 75v-386q68 -10 111 -20q9 -13 9 -52q0 -47 -12 -61q-14 -8 -127 -8h-116q-113 0 -127 8q-12 14 -12 61q0 39 9 52q46 11 111 20v1153q-102 2 -108 7q-11 4 -11 67 q0 31 7 45q43 14 106.5 22.5t99 10.5t54.5 2h6v-902l299 358q-43 7 -65 13q-9 14 -9 52q0 47 12 61q14 8 127 8h116q113 0 127 -8q12 -14 12 -61q0 -38 -9 -52q-55 -13 -120 -22l-302 -359q11 -45 120.5 -167.5t215.5 -196.5q57 60 82 72zM457 -186q0 46 33 79t79 33 q43 0 79 -30.5t36 -92.5q0 -80 -59.5 -161.5t-129.5 -118.5l-43 54q50 83 50 130q0 46 -45 107z" />
<glyph unicode="&#x139;" horiz-adv-x="968" d="M448 1776q33 -17 57.5 -51.5t30.5 -73.5q-36 -54 -175 -136.5t-262 -106.5q-12 10 -25.5 47.5t-16.5 67.5q211 95 391 253zM179 1318h116q113 0 127 -8q12 -14 12 -61q0 -39 -9 -52q-55 -13 -120 -22v-1031h475q8 65 23 130q14 8 53 8q49 0 61 -12q7 -14 7 -126v-144 h-745q-113 0 -127 8q-12 14 -12 61q0 39 9 52q54 12 101 19v1038q-53 7 -101 19q-9 13 -9 52q0 47 12 61q14 8 127 8z" />
<glyph unicode="&#x13a;" d="M445 121q9 -13 9 -52q0 -47 -12 -61q-14 -8 -127 -8h-116q-113 0 -127 8q-12 14 -12 61q0 39 9 52q46 11 111 20v1153q-103 2 -109 7q-11 4 -11 67q0 31 7 45q43 14 107 22.5t99.5 10.5t54.5 2h6v-1307q68 -10 111 -20zM330 1847q33 -17 57.5 -51.5t30.5 -73.5 q-36 -54 -175 -136.5t-262 -106.5q-12 10 -25.5 47.5t-16.5 67.5q211 95 391 253z" />
<glyph unicode="&#x13b;" horiz-adv-x="968" d="M924 0h-745q-113 0 -127 8q-12 14 -12 61q0 39 9 52q54 12 101 19v1038q-53 7 -101 19q-9 13 -9 52q0 47 12 61q14 8 127 8h116q113 0 127 -8q12 -14 12 -61q0 -39 -9 -52q-55 -13 -120 -22v-1031h475q8 65 23 130q14 8 53 8q49 0 61 -12q7 -14 7 -126v-144zM403 -187 q0 46 33 79t79 33q43 0 79 -30.5t36 -92.5q0 -80 -59.5 -161.5t-129.5 -118.5l-42 54q49 84 49 130t-45 107z" />
<glyph unicode="&#x13c;" d="M445 121q9 -13 9 -52q0 -47 -12 -61q-14 -8 -127 -8h-116q-113 0 -127 8q-12 14 -12 61q0 39 9 52q46 11 111 20v1153q-103 2 -109 7q-11 4 -11 67q0 31 7 45q43 14 107 22.5t99.5 10.5t54.5 2h6v-1307q68 -10 111 -20zM145 -186q0 46 33 79t79 33q43 0 79 -30.5 t36 -92.5q0 -80 -59.5 -161.5t-129.5 -118.5l-43 54q50 83 50 130q0 46 -45 107z" />
<glyph unicode="&#x13d;" horiz-adv-x="968" d="M179 1318h116q113 0 127 -8q12 -14 12 -61q0 -39 -9 -52q-55 -13 -120 -22v-1031h475q8 65 23 130q14 8 53 8q49 0 61 -12q7 -14 7 -126v-144h-745q-113 0 -127 8q-12 14 -12 61q0 39 9 52q54 12 101 19v1038q-53 7 -101 19q-9 13 -9 52q0 47 12 61q14 8 127 8zM671 1336 q0 46 33 79t79 33q43 0 79 -30.5t36 -92.5q0 -80 -59.5 -161.5t-129.5 -118.5l-42 54q49 84 49 130t-45 107z" />
<glyph unicode="&#x13e;" horiz-adv-x="885" d="M498 1335q0 46 33 79t79 33q43 0 79 -30.5t36 -92.5q0 -80 -59.5 -161.5t-129.5 -118.5l-42 54q49 84 49 130t-45 107zM445 121q9 -13 9 -52q0 -47 -12 -61q-14 -8 -127 -8h-116q-113 0 -127 8q-12 14 -12 61q0 39 9 52q46 11 111 20v1153q-103 2 -109 7q-11 4 -11 67 q0 31 7 45q43 14 107 22.5t99.5 10.5t54.5 2h6v-1307q68 -10 111 -20z" />
<glyph unicode="&#x13f;" horiz-adv-x="968" d="M924 0h-745q-113 0 -127 8q-12 14 -12 61q0 39 9 52q54 12 101 19v1038q-53 7 -101 19q-9 13 -9 52q0 47 12 61q14 8 127 8h116q113 0 127 -8q12 -14 12 -61q0 -39 -9 -52q-55 -13 -120 -22v-1031h475q8 65 23 130q14 8 53 8q49 0 61 -12q7 -14 7 -126v-144zM675 729 q0 46 33.5 79t79.5 33q47 0 80.5 -33t33.5 -79t-33.5 -79t-80.5 -33q-46 0 -79.5 33t-33.5 79z" />
<glyph unicode="&#x140;" d="M445 121q9 -13 9 -52q0 -47 -12 -61q-14 -8 -127 -8h-116q-113 0 -127 8q-12 14 -12 61q0 39 9 52q46 11 111 20v1153q-103 2 -109 7q-11 4 -11 67q0 31 7 45q43 14 107 22.5t99.5 10.5t54.5 2h6v-1307q68 -10 111 -20zM460 729q0 46 33.5 79t79.5 33q47 0 80.5 -33 t33.5 -79t-33.5 -79t-80.5 -33q-46 0 -79.5 33t-33.5 79z" />
<glyph unicode="&#x142;" horiz-adv-x="644" d="M40 871l537 194l47 -127l-537 -194zM535 121q9 -13 9 -52q0 -47 -12 -61q-14 -8 -127 -8h-116q-113 0 -127 8q-12 14 -12 61q0 39 9 52q46 11 111 20v1153q-103 2 -109 7q-11 4 -11 67q0 31 7 45q43 14 107 22.5t99.5 10.5t54.5 2h6v-1307q68 -10 111 -20z" />
<glyph unicode="&#x143;" horiz-adv-x="1263" d="M790 1776q33 -17 57.5 -51.5t30.5 -73.5q-36 -54 -175 -136.5t-262 -106.5q-12 10 -25.5 47.5t-16.5 67.5q211 95 391 253zM958 299v877q-54 8 -111 21q-9 13 -9 52q0 47 12 61q14 8 127 8h117q113 0 127 -8q12 -14 12 -61q0 -39 -9 -52q-55 -13 -111 -21v-1176h-155 l-643 1028v-887q65 -10 110 -20q9 -13 9 -52q0 -47 -12 -61q-14 -8 -127 -8h-116q-113 0 -127 8q-12 14 -12 61q0 39 9 52q46 11 111 20v1035q-54 8 -111 21q-9 13 -9 52q0 47 12 61q14 8 127 8h142z" />
<glyph unicode="&#x144;" horiz-adv-x="1135" d="M1095 121q9 -14 9 -52q0 -47 -12 -61q-14 -8 -127 -8h-116q-113 0 -127 8q-12 14 -12 61q0 39 9 52q46 11 111 20v514q0 260 -227 260q-109 0 -274 -100v-674q68 -10 111 -20q9 -13 9 -52q0 -47 -12 -61q-14 -8 -127 -8h-116q-113 0 -127 8q-12 14 -12 61q0 39 9 52 q46 11 111 20v763q-103 2 -109 7q-11 4 -11 67q0 31 7 45q108 35 204 35h6l35 -116q72 48 157 82t154 34q77 0 141 -21t115.5 -65.5t80.5 -123t29 -184.5v-523q68 -10 111 -20zM760 1558q33 -17 57.5 -51.5t30.5 -73.5q-36 -54 -175 -136.5t-262 -106.5q-12 10 -25.5 47.5 t-16.5 67.5q211 95 391 253z" />
<glyph unicode="&#x145;" horiz-adv-x="1273" d="M958 299v877q-54 8 -111 21q-9 13 -9 52q0 47 12 61q14 8 127 8h117q113 0 127 -8q12 -14 12 -61q0 -39 -9 -52q-55 -13 -111 -21v-1176h-155l-643 1028v-887q65 -10 110 -20q9 -13 9 -52q0 -47 -12 -61q-14 -8 -127 -8h-116q-113 0 -127 8q-12 14 -12 61q0 39 9 52 q46 11 111 20v1035q-54 8 -111 21q-9 13 -9 52q0 47 12 61q14 8 127 8h142zM535 -187q0 46 33 79t79 33q43 0 79 -30.5t36 -92.5q0 -80 -59.5 -161.5t-129.5 -118.5l-42 54q49 84 49 130t-45 107z" />
<glyph unicode="&#x146;" horiz-adv-x="1135" d="M1095 121q9 -14 9 -52q0 -47 -12 -61q-14 -8 -127 -8h-116q-113 0 -127 8q-12 14 -12 61q0 39 9 52q46 11 111 20v514q0 260 -227 260q-109 0 -274 -100v-674q68 -10 111 -20q9 -13 9 -52q0 -47 -12 -61q-14 -8 -127 -8h-116q-113 0 -127 8q-12 14 -12 61q0 39 9 52 q46 11 111 20v763q-103 2 -109 7q-11 4 -11 67q0 31 7 45q108 35 204 35h6l35 -116q72 48 157 82t154 34q77 0 141 -21t115.5 -65.5t80.5 -123t29 -184.5v-523q68 -10 111 -20zM457 -186q0 46 33 79t79 33q43 0 79 -30.5t36 -92.5q0 -80 -59.5 -161.5t-129.5 -118.5l-43 54 q50 83 50 130q0 46 -45 107z" />
<glyph unicode="&#x147;" horiz-adv-x="1263" d="M958 299v877q-54 8 -111 21q-9 13 -9 52q0 47 12 61q14 8 127 8h117q113 0 127 -8q12 -14 12 -61q0 -39 -9 -52q-55 -13 -111 -21v-1176h-155l-643 1028v-887q65 -10 110 -20q9 -13 9 -52q0 -47 -12 -61q-14 -8 -127 -8h-116q-113 0 -127 8q-12 14 -12 61q0 39 9 52 q46 11 111 20v1035q-54 8 -111 21q-9 13 -9 52q0 47 12 61q14 8 127 8h142zM628 1576h5q121 110 297 196q13 -10 26.5 -47.5t16.5 -67.5q-172 -91 -338 -249h-8q-165 157 -338 249q3 30 16.5 67.5t26.5 47.5q181 -90 296 -196z" />
<glyph unicode="&#x148;" horiz-adv-x="1135" d="M1095 121q9 -14 9 -52q0 -47 -12 -61q-14 -8 -127 -8h-116q-113 0 -127 8q-12 14 -12 61q0 39 9 52q46 11 111 20v514q0 260 -227 260q-109 0 -274 -100v-674q68 -10 111 -20q9 -13 9 -52q0 -47 -12 -61q-14 -8 -127 -8h-116q-113 0 -127 8q-12 14 -12 61q0 39 9 52 q46 11 111 20v763q-103 2 -109 7q-11 4 -11 67q0 31 7 45q108 35 204 35h6l35 -116q72 48 157 82t154 34q77 0 141 -21t115.5 -65.5t80.5 -123t29 -184.5v-523q68 -10 111 -20zM577 1358h5q121 110 297 196q13 -10 26.5 -47.5t16.5 -67.5q-172 -91 -338 -249h-8 q-165 157 -338 249q3 30 16.5 67.5t26.5 47.5q181 -90 296 -196z" />
<glyph unicode="&#x14a;" horiz-adv-x="1273" d="M295 0h-116q-113 0 -127 8q-12 14 -12 61q0 39 9 52q46 11 111 20v1035q-54 8 -111 21q-9 13 -9 52q0 47 12 61q14 8 127 8h142l637 -1019v877q-54 8 -111 21q-9 13 -9 52q0 47 12 61q14 8 127 8h117q113 0 127 -8q12 -14 12 -61q0 -39 -9 -52q-55 -13 -111 -21v-1250 q0 -206 -96 -305t-253 -99q-73 0 -137 15v129q0 112 7 126q12 12 61 12q39 0 53 -8q11 -50 23 -131q85 0 136 63t51 198v74l-643 1028v-887q65 -10 110 -20q9 -13 9 -52q0 -47 -12 -61q-14 -8 -127 -8z" />
<glyph unicode="&#x14b;" horiz-adv-x="1135" d="M618 1058q77 0 141 -21t115.5 -65.5t80.5 -123t29 -184.5v-738q0 -207 -88.5 -305.5t-233.5 -98.5q-119 0 -256 63v129q0 112 7 126q12 12 61 12q39 0 53 -8q19 -80 27 -164q46 -15 89 -15q85 0 136 63t51 198v729q0 260 -227 260q-109 0 -274 -100v-674q68 -10 111 -20 q9 -13 9 -52q0 -47 -12 -61q-14 -8 -127 -8h-116q-113 0 -127 8q-12 14 -12 61q0 39 9 52q46 11 111 20v763q-103 2 -109 7q-11 4 -11 67q0 31 7 45q108 35 204 35h6l35 -116q72 48 157 82t154 34z" />
<glyph unicode="&#x14c;" horiz-adv-x="1383" d="M80 660q0 190 77.5 344.5t219.5 244t321 89.5t317.5 -89.5t213 -243.5t74.5 -345q0 -190 -77 -345t-218.5 -245t-320.5 -90t-318 90t-214 244.5t-75 345.5zM234 672q0 -156 53.5 -279t160 -196t251.5 -73q211 0 330.5 146t119.5 378q0 157 -51.5 279t-155.5 194.5 t-248 72.5q-212 0 -336 -146.5t-124 -375.5zM390 1554h602v-144h-602v144z" />
<glyph unicode="&#x14d;" horiz-adv-x="1112" d="M80 516q0 150 60.5 273.5t171 196t248.5 72.5t247 -73t167 -195t58 -269q0 -150 -60 -273t-170.5 -195.5t-249.5 -72.5t-247.5 72.5t-166.5 194.5t-58 269zM235 524q0 -172 85.5 -286t240.5 -114q151 0 233.5 108t82.5 281q0 113 -34.5 202t-108.5 144t-178 55 q-151 0 -236 -109.5t-85 -280.5zM255 1340h602v-144h-602v144z" />
<glyph unicode="&#x150;" horiz-adv-x="1383" d="M1037 1865q36 -7 70.5 -32t52.5 -60q-19 -63 -126 -184t-216 -181q-14 6 -38.5 37t-36.5 58q170 155 294 362zM676 1865q37 -7 71.5 -32t51.5 -60q-19 -63 -125.5 -184t-215.5 -181q-14 6 -38.5 37t-37.5 58q175 159 294 362zM80 660q0 190 77.5 344.5t219.5 244 t321 89.5t317.5 -89.5t213 -243.5t74.5 -345q0 -190 -77 -345t-218.5 -245t-320.5 -90t-318 90t-214 244.5t-75 345.5zM234 672q0 -156 53.5 -279t160 -196t251.5 -73q211 0 330.5 146t119.5 378q0 157 -51.5 279t-155.5 194.5t-248 72.5q-212 0 -336 -146.5t-124 -375.5z " />
<glyph unicode="&#x151;" horiz-adv-x="1112" d="M80 516q0 150 60.5 273.5t171 196t248.5 72.5t247 -73t167 -195t58 -269q0 -150 -60 -273t-170.5 -195.5t-249.5 -72.5t-247.5 72.5t-166.5 194.5t-58 269zM235 524q0 -172 85.5 -286t240.5 -114q151 0 233.5 108t82.5 281q0 113 -34.5 202t-108.5 144t-178 55 q-151 0 -236 -109.5t-85 -280.5zM936 1647q36 -7 70.5 -32t52.5 -60q-19 -63 -126 -184t-216 -181q-14 6 -38.5 37t-36.5 58q170 155 294 362zM575 1647q37 -7 71.5 -32t51.5 -60q-19 -63 -125.5 -184t-215.5 -181q-14 6 -38.5 37t-37.5 58q175 159 294 362z" />
<glyph unicode="&#x152;" horiz-adv-x="1696" d="M934 187l77 -114q-145 -93 -324 -93t-318 90t-214 244.5t-75 345.5q0 190 77.5 344.5t219.5 244t321 89.5q184 0 326 -95l-62 -135q-109 86 -268 86q-212 0 -336 -146.5t-124 -375.5q0 -156 53.5 -279t160 -196t251.5 -73q133 0 235 63zM1651 1318v-144q0 -112 -7 -126 q-12 -12 -61 -12q-39 0 -53 8q-15 67 -23 130h-495v-443h391q8 65 23 130q14 8 53 8q49 0 61 -12q7 -14 7 -126v-144q0 -112 -7 -126q-12 -12 -61 -12q-39 0 -53 8q-15 67 -23 130h-391v-443h495q8 65 23 130q14 8 53 8q49 0 61 -12q7 -14 7 -126v-144h-775q-113 0 -127 8 q-12 14 -12 61q0 39 9 52q46 11 111 20v1035q-54 8 -111 21q-9 13 -9 52q0 47 12 61q14 8 127 8h775z" />
<glyph unicode="&#x153;" horiz-adv-x="1728" d="M80 516q0 150 60.5 273.5t171 196t248.5 72.5t247 -73t167 -195t58 -269q0 -150 -60 -273t-170.5 -195.5t-249.5 -72.5t-247.5 72.5t-166.5 194.5t-58 269zM235 524q0 -172 85.5 -286t240.5 -114q151 0 233.5 108t82.5 281q0 113 -34.5 202t-108.5 144t-178 55 q-151 0 -236 -109.5t-85 -280.5zM1678 480h-647q12 -173 107 -264.5t236 -91.5q135 0 280 74l3 -1v-143q-149 -74 -298 -74q-99 0 -184.5 33t-153 98.5t-106 173.5t-38.5 247q0 114 26.5 208t79.5 166t139.5 112t200.5 40q66 0 120 -14.5t90 -37.5t63.5 -58.5t42.5 -72 t24 -83t12 -86t3 -86.5v-140zM1320 914q-114 0 -188 -81t-94 -213h488q-1 64 -10.5 113.5t-32 92t-63.5 65.5t-100 23z" />
<glyph unicode="&#x154;" horiz-adv-x="1240" d="M727 1776q33 -17 57.5 -51.5t30.5 -73.5q-36 -54 -175 -136.5t-262 -106.5q-12 10 -25.5 47.5t-16.5 67.5q211 95 391 253zM1098 -20q-44 10 -94.5 49t-93.5 91t-86 116t-73 117t-53 101q-115 -23 -287 -23h-96v-290q68 -10 111 -20q9 -13 9 -52q0 -47 -12 -61 q-14 -8 -127 -8h-117q-113 0 -127 8q-12 14 -12 61q0 39 9 52q46 11 111 20v1035q-54 8 -111 21q-9 13 -9 52q0 47 12 61q14 8 127 8h304q218 0 347.5 -47.5t184.5 -140t55 -243.5q0 -283 -223 -385q25 -69 88 -159.5t133 -157.5q50 50 69 59q42 -6 83 -53q-5 -28 -38 -86.5 t-84 -124.5zM315 1173v-597h133q112 0 195 15t146.5 48.5t96 92.5t32.5 142q0 88 -30.5 147.5t-92 92t-138.5 46t-184 13.5h-158z" />
<glyph unicode="&#x155;" horiz-adv-x="766" d="M574 1058q93 0 172 -36q0 -251 -7 -265q-12 -12 -61 -12q-39 0 -53 8q-25 106 -30 158q-21 4 -46 4q-124 0 -215 -139v-635q68 -10 111 -20q9 -13 9 -52q0 -47 -12 -61q-14 -8 -127 -8h-116q-113 0 -127 8q-12 14 -12 61q0 39 9 52q46 11 111 20v763q-103 2 -109 7 q-11 4 -11 67q0 31 7 45q108 35 204 35h6l42 -138q119 138 255 138zM615 1558q33 -17 57.5 -51.5t30.5 -73.5q-36 -54 -175 -136.5t-262 -106.5q-12 10 -25.5 47.5t-16.5 67.5q211 95 391 253z" />
<glyph unicode="&#x156;" horiz-adv-x="1240" d="M1098 -20q-44 10 -94.5 49t-93.5 91t-86 116t-73 117t-53 101q-115 -23 -287 -23h-96v-290q68 -10 111 -20q9 -13 9 -52q0 -47 -12 -61q-14 -8 -127 -8h-117q-113 0 -127 8q-12 14 -12 61q0 39 9 52q46 11 111 20v1035q-54 8 -111 21q-9 13 -9 52q0 47 12 61q14 8 127 8 h304q218 0 347.5 -47.5t184.5 -140t55 -243.5q0 -283 -223 -385q25 -69 88 -159.5t133 -157.5q50 50 69 59q42 -6 83 -53q-5 -28 -38 -86.5t-84 -124.5zM315 1173v-597h133q112 0 195 15t146.5 48.5t96 92.5t32.5 142q0 88 -30.5 147.5t-92 92t-138.5 46t-184 13.5h-158z M495 -187q0 46 33 79t79 33q43 0 79 -30.5t36 -92.5q0 -80 -59.5 -161.5t-129.5 -118.5l-42 54q49 84 49 130t-45 107z" />
<glyph unicode="&#x157;" horiz-adv-x="766" d="M574 1058q93 0 172 -36q0 -251 -7 -265q-12 -12 -61 -12q-39 0 -53 8q-25 106 -30 158q-21 4 -46 4q-124 0 -215 -139v-635q68 -10 111 -20q9 -13 9 -52q0 -47 -12 -61q-14 -8 -127 -8h-116q-113 0 -127 8q-12 14 -12 61q0 39 9 52q46 11 111 20v763q-103 2 -109 7 q-11 4 -11 67q0 31 7 45q108 35 204 35h6l42 -138q119 138 255 138zM181 -186q0 46 33 79t79 33q43 0 79 -30.5t36 -92.5q0 -80 -59.5 -161.5t-129.5 -118.5l-43 54q50 83 50 130q0 46 -45 107z" />
<glyph unicode="&#x158;" horiz-adv-x="1240" d="M1098 -20q-44 10 -94.5 49t-93.5 91t-86 116t-73 117t-53 101q-115 -23 -287 -23h-96v-290q68 -10 111 -20q9 -13 9 -52q0 -47 -12 -61q-14 -8 -127 -8h-117q-113 0 -127 8q-12 14 -12 61q0 39 9 52q46 11 111 20v1035q-54 8 -111 21q-9 13 -9 52q0 47 12 61q14 8 127 8 h304q218 0 347.5 -47.5t184.5 -140t55 -243.5q0 -283 -223 -385q25 -69 88 -159.5t133 -157.5q50 50 69 59q42 -6 83 -53q-5 -28 -38 -86.5t-84 -124.5zM315 1173v-597h133q112 0 195 15t146.5 48.5t96 92.5t32.5 142q0 88 -30.5 147.5t-92 92t-138.5 46t-184 13.5h-158z M526 1576h5q121 110 297 196q13 -10 26.5 -47.5t16.5 -67.5q-172 -91 -338 -249h-8q-165 157 -338 249q3 30 16.5 67.5t26.5 47.5q181 -90 296 -196z" />
<glyph unicode="&#x159;" horiz-adv-x="766" d="M574 1058q93 0 172 -36q0 -251 -7 -265q-12 -12 -61 -12q-39 0 -53 8q-25 106 -30 158q-21 4 -46 4q-124 0 -215 -139v-635q68 -10 111 -20q9 -13 9 -52q0 -47 -12 -61q-14 -8 -127 -8h-116q-113 0 -127 8q-12 14 -12 61q0 39 9 52q46 11 111 20v763q-103 2 -109 7 q-11 4 -11 67q0 31 7 45q108 35 204 35h6l42 -138q119 138 255 138zM399 1358h5q121 110 297 196q13 -10 26.5 -47.5t16.5 -67.5q-172 -91 -338 -249h-8q-165 157 -338 249q3 30 16.5 67.5t26.5 47.5q181 -90 296 -196z" />
<glyph unicode="&#x15a;" horiz-adv-x="919" d="M679 1776q33 -17 57.5 -51.5t30.5 -73.5q-36 -54 -175 -136.5t-262 -106.5q-12 10 -25.5 47.5t-16.5 67.5q211 95 391 253zM685 341q0 63 -28.5 106.5t-87.5 80.5q-43 28 -184 98t-184 105q-104 83 -104 252q0 77 23 138.5t61 101.5t91 66.5t110.5 37.5t122.5 11 q114 0 232 -35v-132q0 -112 -7 -126q-12 -12 -61 -12q-39 0 -53 8q-14 55 -26 150q-47 5 -85 5q-267 0 -267 -201q0 -87 57 -138q37 -32 174.5 -101.5t194.5 -105.5q82 -52 123.5 -112.5t41.5 -162.5q0 -98 -40 -175t-107.5 -124t-150 -71.5t-172.5 -24.5q-147 0 -269 58 v140q0 112 7 126q12 12 61 12q39 0 53 -8q19 -84 27 -171q75 -13 145 -13q84 0 148.5 19t109 69.5t44.5 128.5z" />
<glyph unicode="&#x15b;" horiz-adv-x="801" d="M576 293q0 44 -27.5 77.5t-72 55.5t-98 42.5t-107 46t-98 58.5t-72 87t-27.5 125q0 75 29.5 129.5t80.5 85t111 44.5t131 14q127 0 254 -41v-84q0 -112 -7 -126q-12 -12 -61 -12q-39 0 -53 8q-12 48 -19 103q-80 13 -137 13q-35 0 -64.5 -5.5t-55.5 -18.5t-41 -38 t-15 -59q0 -46 28 -80.5t72 -56.5t98 -42t108 -44.5t98 -56t72 -84t28 -121.5q0 -65 -24.5 -120.5t-66 -94t-96 -65.5t-115 -40t-123.5 -13q-127 0 -236 47v145q0 112 7 126q12 12 61 12q39 0 53 -8q16 -70 27 -167q46 -10 97 -10q39 0 81.5 9t84 27.5t68.5 53t27 78.5z M552 1558q33 -17 57.5 -51.5t30.5 -73.5q-36 -54 -175 -136.5t-262 -106.5q-12 10 -25.5 47.5t-16.5 67.5q211 95 391 253z" />
<glyph unicode="&#x15c;" horiz-adv-x="919" d="M497 1604h-5q-115 -106 -296 -196q-13 10 -26.5 47.5t-16.5 67.5q173 92 338 249h8q166 -158 338 -249q-3 -30 -16.5 -67.5t-26.5 -47.5q-176 86 -297 196zM685 341q0 63 -28.5 106.5t-87.5 80.5q-43 28 -184 98t-184 105q-104 83 -104 252q0 77 23 138.5t61 101.5 t91 66.5t110.5 37.5t122.5 11q114 0 232 -35v-132q0 -112 -7 -126q-12 -12 -61 -12q-39 0 -53 8q-14 55 -26 150q-47 5 -85 5q-267 0 -267 -201q0 -87 57 -138q37 -32 174.5 -101.5t194.5 -105.5q82 -52 123.5 -112.5t41.5 -162.5q0 -98 -40 -175t-107.5 -124t-150 -71.5 t-172.5 -24.5q-147 0 -269 58v140q0 112 7 126q12 12 61 12q39 0 53 -8q19 -84 27 -171q75 -13 145 -13q84 0 148.5 19t109 69.5t44.5 128.5z" />
<glyph unicode="&#x15d;" horiz-adv-x="801" d="M576 293q0 44 -27.5 77.5t-72 55.5t-98 42.5t-107 46t-98 58.5t-72 87t-27.5 125q0 75 29.5 129.5t80.5 85t111 44.5t131 14q127 0 254 -41v-84q0 -112 -7 -126q-12 -12 -61 -12q-39 0 -53 8q-12 48 -19 103q-80 13 -137 13q-35 0 -64.5 -5.5t-55.5 -18.5t-41 -38 t-15 -59q0 -46 28 -80.5t72 -56.5t98 -42t108 -44.5t98 -56t72 -84t28 -121.5q0 -65 -24.5 -120.5t-66 -94t-96 -65.5t-115 -40t-123.5 -13q-127 0 -236 47v145q0 112 7 126q12 12 61 12q39 0 53 -8q16 -70 27 -167q46 -10 97 -10q39 0 81.5 9t84 27.5t68.5 53t27 78.5z M427 1386h-5q-115 -106 -296 -196q-13 10 -26.5 47.5t-16.5 67.5q173 92 338 249h8q166 -158 338 -249q-3 -30 -16.5 -67.5t-26.5 -47.5q-176 86 -297 196z" />
<glyph unicode="&#x15e;" horiz-adv-x="919" d="M354 -187q0 46 33 79t79 33q43 0 79 -30.5t36 -92.5q0 -80 -59.5 -161.5t-129.5 -118.5l-42 54q49 84 49 130t-45 107zM685 341q0 63 -28.5 106.5t-87.5 80.5q-43 28 -184 98t-184 105q-104 83 -104 252q0 77 23 138.5t61 101.5t91 66.5t110.5 37.5t122.5 11 q114 0 232 -35v-132q0 -112 -7 -126q-12 -12 -61 -12q-39 0 -53 8q-14 55 -26 150q-47 5 -85 5q-267 0 -267 -201q0 -87 57 -138q37 -32 174.5 -101.5t194.5 -105.5q82 -52 123.5 -112.5t41.5 -162.5q0 -98 -40 -175t-107.5 -124t-150 -71.5t-172.5 -24.5q-147 0 -269 58 v140q0 112 7 126q12 12 61 12q39 0 53 -8q19 -84 27 -171q75 -13 145 -13q84 0 148.5 19t109 69.5t44.5 128.5z" />
<glyph unicode="&#x15f;" horiz-adv-x="801" d="M287 -187q0 46 33 79t79 33q43 0 79 -30.5t36 -92.5q0 -80 -59.5 -161.5t-129.5 -118.5l-42 54q49 84 49 130t-45 107zM576 293q0 44 -27.5 77.5t-72 55.5t-98 42.5t-107 46t-98 58.5t-72 87t-27.5 125q0 75 29.5 129.5t80.5 85t111 44.5t131 14q127 0 254 -41v-84 q0 -112 -7 -126q-12 -12 -61 -12q-39 0 -53 8q-12 48 -19 103q-80 13 -137 13q-35 0 -64.5 -5.5t-55.5 -18.5t-41 -38t-15 -59q0 -46 28 -80.5t72 -56.5t98 -42t108 -44.5t98 -56t72 -84t28 -121.5q0 -65 -24.5 -120.5t-66 -94t-96 -65.5t-115 -40t-123.5 -13 q-127 0 -236 47v145q0 112 7 126q12 12 61 12q39 0 53 -8q16 -70 27 -167q46 -10 97 -10q39 0 81.5 9t84 27.5t68.5 53t27 78.5z" />
<glyph unicode="&#x160;" horiz-adv-x="919" d="M685 341q0 63 -28.5 106.5t-87.5 80.5q-43 28 -184 98t-184 105q-104 83 -104 252q0 77 23 138.5t61 101.5t91 66.5t110.5 37.5t122.5 11q114 0 232 -35v-132q0 -112 -7 -126q-12 -12 -61 -12q-39 0 -53 8q-14 55 -26 150q-47 5 -85 5q-267 0 -267 -201q0 -87 57 -138 q37 -32 174.5 -101.5t194.5 -105.5q82 -52 123.5 -112.5t41.5 -162.5q0 -98 -40 -175t-107.5 -124t-150 -71.5t-172.5 -24.5q-147 0 -269 58v140q0 112 7 126q12 12 61 12q39 0 53 -8q19 -84 27 -171q75 -13 145 -13q84 0 148.5 19t109 69.5t44.5 128.5zM456 1576h5 q121 110 297 196q13 -10 26.5 -47.5t16.5 -67.5q-172 -91 -338 -249h-8q-165 157 -338 249q3 30 16.5 67.5t26.5 47.5q181 -90 296 -196z" />
<glyph unicode="&#x161;" horiz-adv-x="801" d="M576 293q0 44 -27.5 77.5t-72 55.5t-98 42.5t-107 46t-98 58.5t-72 87t-27.5 125q0 75 29.5 129.5t80.5 85t111 44.5t131 14q127 0 254 -41v-84q0 -112 -7 -126q-12 -12 -61 -12q-39 0 -53 8q-12 48 -19 103q-80 13 -137 13q-35 0 -64.5 -5.5t-55.5 -18.5t-41 -38 t-15 -59q0 -46 28 -80.5t72 -56.5t98 -42t108 -44.5t98 -56t72 -84t28 -121.5q0 -65 -24.5 -120.5t-66 -94t-96 -65.5t-115 -40t-123.5 -13q-127 0 -236 47v145q0 112 7 126q12 12 61 12q39 0 53 -8q16 -70 27 -167q46 -10 97 -10q39 0 81.5 9t84 27.5t68.5 53t27 78.5z M419 1358h5q121 110 297 196q13 -10 26.5 -47.5t16.5 -67.5q-172 -91 -338 -249h-8q-165 157 -338 249q3 30 16.5 67.5t26.5 47.5q181 -90 296 -196z" />
<glyph unicode="&#x162;" horiz-adv-x="1060" d="M45 1318h970v-147q0 -112 -7 -126q-12 -12 -61 -12q-39 0 -53 8q-12 46 -24 133h-263v-1033q68 -10 111 -20q9 -13 9 -52q0 -47 -12 -61q-14 -8 -127 -8h-116q-113 0 -127 8q-12 14 -12 61q0 39 9 52q46 11 111 20v1033h-264q-12 -84 -23 -133q-14 -8 -53 -8 q-49 0 -61 12q-7 14 -7 126v147zM416 -187q0 46 33 79t79 33q43 0 79 -30.5t36 -92.5q0 -80 -59.5 -161.5t-129.5 -118.5l-42 54q49 84 49 130t-45 107z" />
<glyph unicode="&#x163;" horiz-adv-x="754" d="M734 172v-129q-137 -63 -256 -63q-145 0 -234 98.5t-89 305.5v510h-115v144h115v186l145 27h10v-213h288v-144h-288v-510q0 -135 51 -198t136 -63q41 0 89 14q8 85 27 165q14 8 53 8q49 0 61 -12q7 -14 7 -126z" />
<glyph unicode="&#x164;" horiz-adv-x="1060" d="M45 1318h970v-147q0 -112 -7 -126q-12 -12 -61 -12q-39 0 -53 8q-12 46 -24 133h-263v-1033q68 -10 111 -20q9 -13 9 -52q0 -47 -12 -61q-14 -8 -127 -8h-116q-113 0 -127 8q-12 14 -12 61q0 39 9 52q46 11 111 20v1033h-264q-12 -84 -23 -133q-14 -8 -53 -8 q-49 0 -61 12q-7 14 -7 126v147zM527 1576h5q121 110 297 196q13 -10 26.5 -47.5t16.5 -67.5q-172 -91 -338 -249h-8q-165 157 -338 249q3 30 16.5 67.5t26.5 47.5q181 -90 296 -196z" />
<glyph unicode="&#x165;" horiz-adv-x="1145" d="M734 172v-129q-137 -63 -256 -63q-145 0 -234 98.5t-89 305.5v510h-115v144h115v186l145 27h10v-213h288v-144h-288v-510q0 -135 51 -198t136 -63q41 0 89 14q8 85 27 165q14 8 53 8q49 0 61 -12q7 -14 7 -126zM838 1336q0 46 33 79t79 33q43 0 79 -30.5t36 -92.5 q0 -80 -59.5 -161.5t-129.5 -118.5l-42 54q49 84 49 130t-45 107z" />
<glyph unicode="&#x166;" horiz-adv-x="1060" d="M247 755h206v419h-264q-12 -84 -23 -133q-14 -8 -53 -8q-49 0 -61 12q-7 14 -7 126v147h970v-147q0 -112 -7 -126q-12 -12 -61 -12q-39 0 -53 8q-12 46 -24 133h-263v-419h198v-144h-198v-470q68 -10 111 -20q9 -13 9 -52q0 -47 -12 -61q-14 -8 -127 -8h-116 q-113 0 -127 8q-12 14 -12 61q0 39 9 52q46 11 111 20v470h-206v144z" />
<glyph unicode="&#x167;" horiz-adv-x="754" d="M734 172v-129q-137 -63 -256 -63q-145 0 -234 98.5t-89 305.5v227h-115v144h115v139h-115v144h115v186l145 27h10v-213h288v-144h-288v-139h288v-144h-288v-227q0 -135 51 -198t136 -63q41 0 89 14q8 85 27 165q14 8 53 8q49 0 61 -12q7 -14 7 -126z" />
<glyph unicode="&#x168;" horiz-adv-x="1291" d="M174 1318h116q113 0 127 -8q12 -14 12 -61q0 -39 -9 -52q-55 -13 -111 -21v-636q0 -82 10.5 -147t27 -108t43.5 -74.5t53 -48t63.5 -26t66.5 -12t69 -2.5q43 0 75 2.5t69.5 12.5t64 27.5t53 48.5t42.5 74.5t26 107.5t10 145v636q-54 8 -111 21q-9 13 -9 52q0 47 12 61 q14 8 127 8h116q113 0 127 -8q12 -14 12 -61q0 -39 -9 -52q-55 -13 -111 -21v-686q0 -94 -16 -170t-42 -128t-65.5 -91.5t-80.5 -62t-93 -36t-97 -18t-99 -4.5q-53 0 -97.5 4.5t-96 18t-92.5 36t-80 61.5t-65 91t-41.5 128.5t-15.5 170.5v686q-54 8 -111 21q-9 13 -9 52 q0 47 12 61q14 8 127 8zM850 1633v6q96 14 141 -27q-10 -86 -77 -140t-156 -54q-41 0 -75 13t-53 29t-45 29t-53 13q-39 0 -65 -20t-26 -58v-6q-96 -14 -141 27q10 86 76 140t153 54q52 0 120.5 -42t110.5 -42q37 0 63.5 20t26.5 58z" />
<glyph unicode="&#x169;" horiz-adv-x="1162" d="M960 1058v-924q160 0 171 -7q11 -4 11 -67q0 -31 -7 -45q-43 -14 -107 -22.5t-99.5 -10.5t-54.5 -2h-6l-37 119q-72 -49 -159 -84t-156 -35q-77 0 -141 21t-116 65.5t-81 123t-29 184.5v530q-102 2 -108 7q-11 4 -11 67q0 31 7 45q43 14 107 22.5t99.5 10.5t54.5 2h6 v-675q0 -260 227 -260q111 0 274 99v682q-102 2 -108 7q-11 4 -11 67q0 31 7 45q43 14 107 22.5t99.5 10.5t54.5 2h6zM785 1442v6q96 14 141 -27q-10 -86 -77 -140t-156 -54q-41 0 -75 13t-53 29t-45 29t-53 13q-39 0 -65 -20t-26 -58v-6q-96 -14 -141 27q10 86 76 140 t153 54q52 0 120.5 -42t110.5 -42q37 0 63.5 20t26.5 58z" />
<glyph unicode="&#x16a;" horiz-adv-x="1291" d="M174 1318h116q113 0 127 -8q12 -14 12 -61q0 -39 -9 -52q-55 -13 -111 -21v-636q0 -82 10.5 -147t27 -108t43.5 -74.5t53 -48t63.5 -26t66.5 -12t69 -2.5q43 0 75 2.5t69.5 12.5t64 27.5t53 48.5t42.5 74.5t26 107.5t10 145v636q-54 8 -111 21q-9 13 -9 52q0 47 12 61 q14 8 127 8h116q113 0 127 -8q12 -14 12 -61q0 -39 -9 -52q-55 -13 -111 -21v-686q0 -94 -16 -170t-42 -128t-65.5 -91.5t-80.5 -62t-93 -36t-97 -18t-99 -4.5q-53 0 -97.5 4.5t-96 18t-92.5 36t-80 61.5t-65 91t-41.5 128.5t-15.5 170.5v686q-54 8 -111 21q-9 13 -9 52 q0 47 12 61q14 8 127 8zM344 1554h602v-144h-602v144z" />
<glyph unicode="&#x16b;" horiz-adv-x="1162" d="M960 1058v-924q160 0 171 -7q11 -4 11 -67q0 -31 -7 -45q-43 -14 -107 -22.5t-99.5 -10.5t-54.5 -2h-6l-37 119q-72 -49 -159 -84t-156 -35q-77 0 -141 21t-116 65.5t-81 123t-29 184.5v530q-102 2 -108 7q-11 4 -11 67q0 31 7 45q43 14 107 22.5t99.5 10.5t54.5 2h6 v-675q0 -260 227 -260q111 0 274 99v682q-102 2 -108 7q-11 4 -11 67q0 31 7 45q43 14 107 22.5t99.5 10.5t54.5 2h6zM280 1338h602v-144h-602v144z" />
<glyph unicode="&#x16e;" horiz-adv-x="1291" d="M174 1318h116q113 0 127 -8q12 -14 12 -61q0 -39 -9 -52q-55 -13 -111 -21v-636q0 -82 10.5 -147t27 -108t43.5 -74.5t53 -48t63.5 -26t66.5 -12t69 -2.5q43 0 75 2.5t69.5 12.5t64 27.5t53 48.5t42.5 74.5t26 107.5t10 145v636q-54 8 -111 21q-9 13 -9 52q0 47 12 61 q14 8 127 8h116q113 0 127 -8q12 -14 12 -61q0 -39 -9 -52q-55 -13 -111 -21v-686q0 -94 -16 -170t-42 -128t-65.5 -91.5t-80.5 -62t-93 -36t-97 -18t-99 -4.5q-53 0 -97.5 4.5t-96 18t-92.5 36t-80 61.5t-65 91t-41.5 128.5t-15.5 170.5v686q-54 8 -111 21q-9 13 -9 52 q0 47 12 61q14 8 127 8zM445 1607q0 80 59 138.5t141 58.5q81 0 141 -58.5t60 -138.5t-60 -139.5t-141 -59.5t-140.5 59t-59.5 140zM564 1607q0 -33 24 -57t57 -24t57.5 24t24.5 57q0 32 -24.5 56.5t-57.5 24.5t-57 -24.5t-24 -56.5z" />
<glyph unicode="&#x16f;" horiz-adv-x="1162" d="M960 1058v-924q160 0 171 -7q11 -4 11 -67q0 -31 -7 -45q-43 -14 -107 -22.5t-99.5 -10.5t-54.5 -2h-6l-37 119q-72 -49 -159 -84t-156 -35q-77 0 -141 21t-116 65.5t-81 123t-29 184.5v530q-102 2 -108 7q-11 4 -11 67q0 31 7 45q43 14 107 22.5t99.5 10.5t54.5 2h6 v-675q0 -260 227 -260q111 0 274 99v682q-102 2 -108 7q-11 4 -11 67q0 31 7 45q43 14 107 22.5t99.5 10.5t54.5 2h6zM380 1411q0 80 59 138.5t141 58.5q81 0 141 -58.5t60 -138.5t-60 -139.5t-141 -59.5q-82 0 -141 59t-59 140zM499 1411q0 -33 24 -57t57 -24t57.5 24 t24.5 57q0 32 -24.5 56.5t-57.5 24.5t-57 -24.5t-24 -56.5z" />
<glyph unicode="&#x170;" horiz-adv-x="1291" d="M967 1865q36 -7 70.5 -32t52.5 -60q-19 -63 -126 -184t-216 -181q-14 6 -38.5 37t-36.5 58q170 155 294 362zM606 1865q37 -7 71.5 -32t51.5 -60q-19 -63 -125.5 -184t-215.5 -181q-14 6 -38.5 37t-37.5 58q175 159 294 362zM174 1318h116q113 0 127 -8q12 -14 12 -61 q0 -39 -9 -52q-55 -13 -111 -21v-636q0 -82 10.5 -147t27 -108t43.5 -74.5t53 -48t63.5 -26t66.5 -12t69 -2.5q43 0 75 2.5t69.5 12.5t64 27.5t53 48.5t42.5 74.5t26 107.5t10 145v636q-54 8 -111 21q-9 13 -9 52q0 47 12 61q14 8 127 8h116q113 0 127 -8q12 -14 12 -61 q0 -39 -9 -52q-55 -13 -111 -21v-686q0 -94 -16 -170t-42 -128t-65.5 -91.5t-80.5 -62t-93 -36t-97 -18t-99 -4.5q-53 0 -97.5 4.5t-96 18t-92.5 36t-80 61.5t-65 91t-41.5 128.5t-15.5 170.5v686q-54 8 -111 21q-9 13 -9 52q0 47 12 61q14 8 127 8z" />
<glyph unicode="&#x171;" horiz-adv-x="1162" d="M960 1058v-924q160 0 171 -7q11 -4 11 -67q0 -31 -7 -45q-43 -14 -107 -22.5t-99.5 -10.5t-54.5 -2h-6l-37 119q-72 -49 -159 -84t-156 -35q-77 0 -141 21t-116 65.5t-81 123t-29 184.5v530q-102 2 -108 7q-11 4 -11 67q0 31 7 45q43 14 107 22.5t99.5 10.5t54.5 2h6 v-675q0 -260 227 -260q111 0 274 99v682q-102 2 -108 7q-11 4 -11 67q0 31 7 45q43 14 107 22.5t99.5 10.5t54.5 2h6zM847 1647q36 -7 70.5 -32t52.5 -60q-19 -63 -126 -184t-216 -181q-14 6 -38.5 37t-36.5 58q170 155 294 362zM486 1647q37 -7 71.5 -32t51.5 -60 q-19 -63 -125.5 -184t-215.5 -181q-14 6 -38.5 37t-37.5 58q175 159 294 362z" />
<glyph unicode="&#x172;" horiz-adv-x="1291" d="M174 1318h116q113 0 127 -8q12 -14 12 -61q0 -39 -9 -52q-55 -13 -111 -21v-636q0 -82 10.5 -147t27 -108t43.5 -74.5t53 -48t63.5 -26t66.5 -12t69 -2.5q43 0 75 2.5t69.5 12.5t64 27.5t53 48.5t42.5 74.5t26 107.5t10 145v636q-54 8 -111 21q-9 13 -9 52q0 47 12 61 q14 8 127 8h116q113 0 127 -8q12 -14 12 -61q0 -39 -9 -52q-55 -13 -111 -21v-686q0 -94 -16 -170t-42 -128t-65.5 -91.5t-80.5 -62t-93 -36t-97 -18t-99 -4.5q-53 0 -97.5 4.5t-96 18t-92.5 36t-80 61.5t-65 91t-41.5 128.5t-15.5 170.5v686q-54 8 -111 21q-9 13 -9 52 q0 47 12 61q14 8 127 8zM805 101l24 -101q-91 -42 -132.5 -106.5t-41.5 -126.5q0 -104 91 -104q60 0 152 46l7 -5v-131q-72 -51 -156 -51q-99 0 -170 71.5t-71 175.5t88 192.5t209 139.5z" />
<glyph unicode="&#x173;" horiz-adv-x="1162" d="M1060 103l24 -101q-91 -42 -133.5 -107.5t-42.5 -127.5q0 -104 91 -104q60 0 152 46l7 -5v-131q-72 -51 -156 -51q-99 0 -170 71.5t-71 175.5t89 193.5t210 140.5zM960 1058v-924q160 0 171 -7q11 -4 11 -67q0 -31 -7 -45q-43 -14 -107 -22.5t-99.5 -10.5t-54.5 -2h-6 l-37 119q-72 -49 -159 -84t-156 -35q-77 0 -141 21t-116 65.5t-81 123t-29 184.5v530q-102 2 -108 7q-11 4 -11 67q0 31 7 45q43 14 107 22.5t99.5 10.5t54.5 2h6v-675q0 -260 227 -260q111 0 274 99v682q-102 2 -108 7q-11 4 -11 67q0 31 7 45q43 14 107 22.5t99.5 10.5 t54.5 2h6z" />
<glyph unicode="&#x174;" horiz-adv-x="1866" d="M935 1604h-5q-115 -106 -296 -196q-13 10 -26.5 47.5t-16.5 67.5q173 92 338 249h8q166 -158 338 -249q-3 -30 -16.5 -67.5t-26.5 -47.5q-176 86 -297 196zM1310 272l258 904q-73 10 -117 21q-9 13 -9 52q0 47 12 61q14 8 127 8h116q113 0 127 -8q12 -14 12 -61 q0 -39 -9 -52q-48 -12 -101 -19l-338 -1178h-156l-299 1045l-299 -1045h-156l-338 1178q-53 7 -101 19q-9 13 -9 52q0 47 12 61q14 8 127 8h116q113 0 127 -8q12 -14 12 -61q0 -39 -9 -52q-43 -11 -118 -21l258 -904l300 1046h156z" />
<glyph unicode="&#x175;" horiz-adv-x="1719" d="M1434 1038h116q113 0 127 -8q12 -14 12 -61q0 -38 -9 -52q-41 -11 -114 -21l-284 -896h-192l-231 790l-231 -790h-193l-284 896q-57 8 -112 21q-9 14 -9 52q0 47 12 61q14 8 127 8h116q113 0 127 -8q12 -14 12 -61q0 -38 -9 -52q-43 -11 -114 -21l230 -725l257 867h142 l257 -867l230 725q-57 8 -113 21q-9 14 -9 52q0 47 12 61q14 8 127 8zM861 1386h-5q-115 -106 -296 -196q-13 10 -26.5 47.5t-16.5 67.5q173 92 338 249h8q166 -158 338 -249q-3 -30 -16.5 -67.5t-26.5 -47.5q-176 86 -297 196z" />
<glyph unicode="&#x176;" horiz-adv-x="1166" d="M587 1604h-5q-115 -106 -296 -196q-13 10 -26.5 47.5t-16.5 67.5q173 92 338 249h8q166 -158 338 -249q-3 -30 -16.5 -67.5t-26.5 -47.5q-176 86 -297 196zM641 0h-116q-113 0 -127 8q-12 14 -12 61q0 39 9 52q46 11 111 20v351l-333 681q-86 12 -134 24q-9 13 -9 52 q0 47 12 61q14 8 127 8h116q113 0 127 -8q12 -14 12 -61q0 -39 -9 -52q-39 -9 -91 -17l259 -530l258 530q-49 7 -90 17q-9 13 -9 52q0 47 12 61q14 8 127 8h116q113 0 127 -8q12 -14 12 -61q0 -39 -9 -52q-46 -12 -135 -24l-332 -681v-351q68 -10 111 -20q9 -13 9 -52 q0 -47 -12 -61q-14 -8 -127 -8z" />
<glyph unicode="&#x177;" horiz-adv-x="1052" d="M941 1038l-1 -2q54 -2 65 -6q12 -14 12 -61q0 -38 -9 -52q-44 -11 -116 -21l-396 -1148q-79 -226 -300 -226q-117 0 -256 63v129q0 112 7 126q12 12 61 12q39 0 53 -8q16 -68 27 -164q45 -15 89 -15q57 0 103.5 27.5t66.5 84.5l77 223h-48l-309 899q-37 5 -95 18 q-9 14 -9 52q0 47 12 61q7 3 45 5l-1 3h199q113 0 127 -8q12 -14 12 -61q0 -38 -9 -52q-55 -13 -120 -22l252 -730l253 733q-53 7 -101 19q-9 14 -9 52q0 47 12 61q14 8 127 8h179zM480 1386h-5q-115 -106 -296 -196q-13 10 -26.5 47.5t-16.5 67.5q173 92 338 249h8 q166 -158 338 -249q-3 -30 -16.5 -67.5t-26.5 -47.5q-176 86 -297 196z" />
<glyph unicode="&#x178;" horiz-adv-x="1166" d="M289 1520q0 46 33.5 79t79.5 33q47 0 80.5 -33t33.5 -79t-33.5 -79t-80.5 -33q-46 0 -79.5 33t-33.5 79zM655 1520q0 46 33.5 79t79.5 33q47 0 80.5 -33t33.5 -79t-33.5 -79t-80.5 -33q-46 0 -79.5 33t-33.5 79zM641 0h-116q-113 0 -127 8q-12 14 -12 61q0 39 9 52 q46 11 111 20v351l-333 681q-86 12 -134 24q-9 13 -9 52q0 47 12 61q14 8 127 8h116q113 0 127 -8q12 -14 12 -61q0 -39 -9 -52q-39 -9 -91 -17l259 -530l258 530q-49 7 -90 17q-9 13 -9 52q0 47 12 61q14 8 127 8h116q113 0 127 -8q12 -14 12 -61q0 -39 -9 -52 q-46 -12 -135 -24l-332 -681v-351q68 -10 111 -20q9 -13 9 -52q0 -47 -12 -61q-14 -8 -127 -8z" />
<glyph unicode="&#x179;" horiz-adv-x="960" d="M637 1776q33 -17 57.5 -51.5t30.5 -73.5q-36 -54 -175 -136.5t-262 -106.5q-12 10 -25.5 47.5t-16.5 67.5q211 95 391 253zM880 1318l4 -5l-596 -1169h459q8 84 27 164q14 8 53 8q49 0 61 -12q7 -14 7 -126v-178h-826l-4 5l593 1169h-430q-12 -84 -23 -133q-14 -8 -53 -8 q-49 0 -61 12q-7 14 -7 126v147h796z" />
<glyph unicode="&#x17a;" horiz-adv-x="911" d="M55 0l-5 5l546 889h-386q-11 -78 -23 -130q-14 -8 -53 -8q-49 0 -61 12q-7 14 -7 126v144h790l5 -6l-546 -888h399q8 65 23 130q14 8 53 8q49 0 61 -12q7 -14 7 -126v-144h-803zM646 1558q33 -17 57.5 -51.5t30.5 -73.5q-36 -54 -175 -136.5t-262 -106.5 q-12 10 -25.5 47.5t-16.5 67.5q211 95 391 253z" />
<glyph unicode="&#x17b;" horiz-adv-x="960" d="M880 1318l4 -5l-596 -1169h459q8 84 27 164q14 8 53 8q49 0 61 -12q7 -14 7 -126v-178h-826l-4 5l593 1169h-430q-12 -84 -23 -133q-14 -8 -53 -8q-49 0 -61 12q-7 14 -7 126v147h796zM378 1520q0 46 33.5 79t79.5 33q47 0 80.5 -33t33.5 -79t-33.5 -79t-80.5 -33 q-46 0 -79.5 33t-33.5 79z" />
<glyph unicode="&#x17c;" horiz-adv-x="911" d="M55 0l-5 5l546 889h-386q-11 -78 -23 -130q-14 -8 -53 -8q-49 0 -61 12q-7 14 -7 126v144h790l5 -6l-546 -888h399q8 65 23 130q14 8 53 8q49 0 61 -12q7 -14 7 -126v-144h-803zM355 1302q0 46 33.5 79t79.5 33q47 0 80.5 -33t33.5 -79t-33.5 -79t-80.5 -33 q-46 0 -79.5 33t-33.5 79z" />
<glyph unicode="&#x17d;" horiz-adv-x="960" d="M880 1318l4 -5l-596 -1169h459q8 84 27 164q14 8 53 8q49 0 61 -12q7 -14 7 -126v-178h-826l-4 5l593 1169h-430q-12 -84 -23 -133q-14 -8 -53 -8q-49 0 -61 12q-7 14 -7 126v147h796zM489 1576h5q121 110 297 196q13 -10 26.5 -47.5t16.5 -67.5q-172 -91 -338 -249h-8 q-165 157 -338 249q3 30 16.5 67.5t26.5 47.5q181 -90 296 -196z" />
<glyph unicode="&#x17e;" horiz-adv-x="911" d="M55 0l-5 5l546 889h-386q-11 -78 -23 -130q-14 -8 -53 -8q-49 0 -61 12q-7 14 -7 126v144h790l5 -6l-546 -888h399q8 65 23 130q14 8 53 8q49 0 61 -12q7 -14 7 -126v-144h-803zM476 1358h5q121 110 297 196q13 -10 26.5 -47.5t16.5 -67.5q-172 -91 -338 -249h-8 q-165 157 -338 249q3 30 16.5 67.5t26.5 47.5q181 -90 296 -196z" />
<glyph unicode="&#x192;" horiz-adv-x="627" d="M596 1297q-42 8 -74 8q-84 0 -128.5 -60t-44.5 -203v-4h235v-143h-235v-969q0 -207 -89 -305.5t-234 -98.5q-119 0 -256 63v129q0 112 7 126q12 12 61 12q39 0 53 -8q19 -80 27 -164q47 -15 89 -15q85 0 136 63t51 198v969h-168v143h168v4q0 406 310 406q104 0 243 -44 q0 -253 -7 -267q-12 -12 -61 -12q-39 0 -53 8q-25 107 -30 164z" />
<glyph unicode="&#x19a;" horiz-adv-x="627" d="M391 865v-724q68 -10 111 -20q9 -13 9 -52q0 -47 -12 -61q-14 -8 -127 -8h-116q-113 0 -127 8q-12 14 -12 61q0 39 9 52q46 11 111 20v668l-154 -56l-43 115l197 71v355q-103 2 -109 7q-11 4 -11 67q0 31 7 45q43 14 107 22.5t99.5 10.5t54.5 2h6v-453l173 63l43 -115z " />
<glyph unicode="&#x1b7;" horiz-adv-x="970" d="M910 1308l-530 -547q77 0 151 -14t141.5 -45t118.5 -75.5t81 -110t30 -143.5q0 -82 -28.5 -149.5t-74.5 -112.5t-106 -76t-121 -44.5t-121 -13.5q-93 0 -210 30t-196 83l34 118l5 10q70 -44 167.5 -70.5t178.5 -26.5q136 0 227.5 73t91.5 183q0 72 -58 129t-147 86 t-188 29h-168v140l400 411h-371q-12 -95 -26 -150q-14 -8 -53 -8q-49 0 -61 12q-7 14 -7 126v166h832z" />
<glyph unicode="&#x1e4;" horiz-adv-x="1268" d="M1290 320h-162v-322h-59l-92 71q-130 -89 -291 -89q-179 0 -317.5 89t-213.5 245.5t-75 352.5q0 112 25 211.5t77.5 184t129 145.5t184 95.5t237.5 34.5q167 0 309 -41v-142q0 -112 -7 -126q-12 -12 -61 -12q-39 0 -53 8q-17 69 -26 157q-76 11 -150 11 q-125 0 -223.5 -40.5t-160.5 -111t-94 -163.5t-32 -202q0 -153 59.5 -279t167 -199.5t241.5 -73.5q102 0 172 37t102 77v82h-162v144h162v105h-285v155h436v-260h162v-144z" />
<glyph unicode="&#x1e5;" horiz-adv-x="1019" d="M1059 -192h-79q-43 -97 -145 -169q-76 -55 -172 -86t-192 -31q-174 0 -281 97q-85 75 -100 189h-70v144h85q31 89 106 165q-40 23 -63 74q-22 49 -22 93q0 88 75 181q-42 43 -64 113q-22 68 -22 134q0 149 107 247q109 99 277 99q114 0 201 -48q65 49 140 78 q69 27 125 27l46 -131q-103 -17 -195 -75q60 -86 60 -193q0 -151 -108 -257q-112 -109 -279 -109q-100 0 -192 45q-35 -44 -35 -85t34 -67t94 -26h196q206 0 317 -87q90 -72 101 -178h55v-144zM319 850q-60 -62 -60 -147q0 -84 61 -147q67 -69 178 -69q108 0 174 69 q58 59 58 145q0 85 -59 149q-67 70 -176 70q-108 0 -176 -70zM448 84h-117q-54 -62 -77 -132h589q-16 74 -113 106q-83 26 -282 26zM813 -192h-568q13 -57 51 -92q64 -59 195 -59q149 0 257 83q38 28 65 68z" />
<glyph unicode="&#x1e6;" horiz-adv-x="1268" d="M1069 -2l-92 71q-130 -89 -291 -89q-179 0 -317.5 89t-213.5 245.5t-75 352.5q0 112 25 211.5t77.5 184t129 145.5t184 95.5t237.5 34.5q167 0 309 -41v-142q0 -112 -7 -126q-12 -12 -61 -12q-39 0 -53 8q-17 69 -26 157q-76 11 -150 11q-125 0 -223.5 -40.5t-160.5 -111 t-94 -163.5t-32 -202q0 -153 59.5 -279t167 -199.5t241.5 -73.5q102 0 172 37t102 77v331h-285v155h436v-726h-59zM663 1558h5q121 110 297 196q13 -10 26.5 -47.5t16.5 -67.5q-172 -91 -338 -249h-8q-165 157 -338 249q3 30 16.5 67.5t26.5 47.5q181 -90 296 -196z" />
<glyph unicode="&#x1e7;" horiz-adv-x="1034" d="M98 712q0 149 108 247.5t276 98.5q111 0 201 -48q65 48 138 76.5t127 28.5l46 -131q-101 -17 -195 -75q60 -87 60 -193q0 -151 -110 -258.5t-277 -107.5q-102 0 -192 45q-35 -44 -35 -85q0 -40 34 -66.5t94 -26.5h196q204 0 311.5 -83.5t107.5 -208.5 q0 -109 -79.5 -203.5t-202 -147t-252.5 -52.5q-174 0 -279 94.5t-105 236.5q0 63 33 134t91 130q-40 23 -62.5 71.5t-22.5 95.5q0 88 75 181q-41 44 -63.5 110.5t-22.5 136.5zM431 84h-117q-42 -48 -67 -106t-25 -111q0 -97 60.5 -153.5t191.5 -56.5q151 0 253.5 80 t102.5 178q0 38 -13.5 66.5t-42 46.5t-61 29.5t-82.5 17t-94 7.5t-106 2zM478 920q-109 0 -172.5 -66.5t-63.5 -150.5q0 -85 64 -150.5t175 -65.5q109 0 170.5 64.5t61.5 149.5q0 86 -63 152.5t-172 66.5zM483 1328h5q121 110 297 196q13 -10 26.5 -47.5t16.5 -67.5 q-172 -91 -338 -249h-8q-165 157 -338 249q3 30 16.5 67.5t26.5 47.5q181 -90 296 -196z" />
<glyph unicode="&#x1e8;" horiz-adv-x="1120" d="M978 0q-2 0 -6 2q-101 47 -244 177t-259 272t-154 231v-541q68 -10 111 -20q9 -13 9 -52q0 -47 -12 -61q-12 -8 -108 -8h-155q-96 0 -108 8q-12 14 -12 61q0 39 9 52q46 11 111 20v1035q-54 8 -111 21q-9 13 -9 52q0 47 12 61q12 6 108 8h136q113 0 127 -8q12 -14 12 -61 q0 -39 -9 -52q-55 -13 -111 -21v-476l409 486q-47 10 -49 11q-9 13 -9 52q0 47 12 61q14 8 127 8h117q113 0 127 -8q12 -14 12 -61q0 -39 -9 -52q-58 -14 -143 -25l-403 -478q50 -96 183 -241t263 -244q45 45 65 55q42 -6 83 -53q-5 -28 -38 -86.5t-84 -124.5zM532 1558h5 q121 110 297 196q13 -10 26.5 -47.5t16.5 -67.5q-172 -91 -338 -249h-8q-165 157 -338 249q3 30 16.5 67.5t26.5 47.5q181 -90 296 -196z" />
<glyph unicode="&#x1e9;" horiz-adv-x="1029" d="M921 244q42 -6 83 -53q-5 -28 -38 -86.5t-84 -124.5q-58 3 -136 56t-149 127.5t-135 152.5t-103 136t-44 75v-386q68 -10 111 -20q9 -13 9 -52q0 -47 -12 -61q-14 -8 -127 -8h-116q-113 0 -127 8q-12 14 -12 61q0 39 9 52q46 11 111 20v1153q-102 2 -108 7q-11 4 -11 67 q0 31 7 45q43 14 106.5 22.5t99 10.5t54.5 2h6v-902l299 358q-43 7 -65 13q-9 14 -9 52q0 47 12 61q14 8 127 8h116q113 0 127 -8q12 -14 12 -61q0 -38 -9 -52q-55 -13 -120 -22l-302 -359q11 -45 120.5 -167.5t215.5 -196.5q57 60 82 72zM213 1668h5q121 110 297 196 q13 -10 26.5 -47.5t16.5 -67.5q-172 -91 -338 -249h-8q-165 157 -338 249q3 30 16.5 67.5t26.5 47.5q181 -90 296 -196z" />
<glyph unicode="&#x1ee;" horiz-adv-x="970" d="M910 1308l-530 -547q77 0 151 -14t141.5 -45t118.5 -75.5t81 -110t30 -143.5q0 -82 -28.5 -149.5t-74.5 -112.5t-106 -76t-121 -44.5t-121 -13.5q-93 0 -210 30t-196 83l34 118l5 10q70 -44 167.5 -70.5t178.5 -26.5q136 0 227.5 73t91.5 183q0 72 -58 129t-147 86 t-188 29h-168v140l400 411h-371q-12 -95 -26 -150q-14 -8 -53 -8q-49 0 -61 12q-7 14 -7 126v166h832zM463 1558h5q121 110 297 196q13 -10 26.5 -47.5t16.5 -67.5q-172 -91 -338 -249h-8q-165 157 -338 249q3 30 16.5 67.5t26.5 47.5q181 -90 296 -196z" />
<glyph unicode="&#x1ef;" horiz-adv-x="962" d="M876 1028l-496 -523q78 0 151.5 -14.5t141 -46.5t118.5 -79t81 -117t30 -155q0 -82 -28.5 -149.5t-74.5 -112.5t-106 -76t-121 -44.5t-121 -13.5q-93 0 -210 30t-196 83l34 118l5 10q70 -44 167.5 -70.5t178.5 -26.5q136 0 227.5 73t91.5 183q0 83 -58 145.5t-146 92.5 t-189 30h-168v140l366 387h-344q-7 -55 -19 -103q-14 -8 -53 -8q-49 0 -61 12q-7 14 -7 126v119h798zM447 1328h5q121 110 297 196q13 -10 26.5 -47.5t16.5 -67.5q-172 -91 -338 -249h-8q-165 157 -338 249q3 30 16.5 67.5t26.5 47.5q181 -90 296 -196z" />
<glyph unicode="&#x1fc;" horiz-adv-x="1493" d="M285 0h-116q-113 0 -127 8q-12 14 -12 61q0 39 9 52q49 12 106 19l405 1178h898v-144q0 -112 -7 -126q-12 -12 -61 -12q-39 0 -53 8q-15 67 -23 130h-498l153 -443h241q8 65 23 130q14 8 53 8q49 0 61 -12q7 -14 7 -126v-144q0 -112 -7 -126q-12 -12 -61 -12q-39 0 -53 8 q-15 67 -23 130h-192l153 -443h143q8 65 23 130q14 8 53 8q49 0 61 -12q7 -14 7 -126v-144h-288h-21h-116q-113 0 -127 8q-12 14 -12 61q0 39 9 52q47 11 109 20l-57 166h-582l-58 -166q65 -10 110 -20q9 -13 9 -52q0 -47 -12 -61q-14 -8 -127 -8zM412 451h484l-242 701z M1098 1706q33 -17 57.5 -51.5t30.5 -73.5q-36 -54 -175 -136.5t-262 -106.5q-12 10 -25.5 47.5t-16.5 67.5q211 95 391 253z" />
<glyph unicode="&#x1fe;" horiz-adv-x="1383" d="M342 -168l76 210q-158 80 -248 244t-90 374q0 190 77.5 344.5t219.5 244t321 89.5q91 0 182 -27l50 137l144 -53l-55 -150q134 -87 209 -241t75 -344t-77 -345t-218.5 -245t-320.5 -90q-64 0 -124 12l-77 -213zM234 672q0 -165 61 -294t174 -195l361 991q-63 20 -136 20 q-212 0 -336 -146.5t-124 -375.5zM1149 648q0 146 -47 264.5t-135 190.5l-353 -972q38 -7 85 -7q211 0 330.5 146t119.5 378zM843 1838q33 -17 57.5 -51.5t30.5 -73.5q-36 -54 -175 -136.5t-262 -106.5q-12 10 -25.5 47.5t-16.5 67.5q211 95 391 253z" />
<glyph unicode="&#x1ff;" horiz-adv-x="1112" d="M896 1187l-512 -1408l-144 53l513 1409zM80 516q0 150 60.5 273.5t171 196t248.5 72.5t247 -73t167 -195t58 -269q0 -150 -60 -273t-170.5 -195.5t-249.5 -72.5t-247.5 72.5t-166.5 194.5t-58 269zM235 524q0 -172 85.5 -286t240.5 -114q151 0 233.5 108t82.5 281 q0 113 -34.5 202t-108.5 144t-178 55q-151 0 -236 -109.5t-85 -280.5zM707 1558q33 -17 57.5 -51.5t30.5 -73.5q-36 -54 -175 -136.5t-262 -106.5q-12 10 -25.5 47.5t-16.5 67.5q211 95 391 253z" />
<glyph unicode="&#x23d;" horiz-adv-x="1058" d="M1014 0h-745q-113 0 -127 8q-12 14 -12 61q0 39 9 52q54 12 101 19v659l-153 -55l-47 127l200 72v235q-53 7 -101 19q-9 13 -9 52q0 47 12 61q14 8 127 8h116q113 0 127 -8q12 -14 12 -61q0 -39 -9 -52q-55 -13 -120 -22v-176l182 66l47 -127l-229 -83v-711h475 q8 65 23 130q14 8 53 8q49 0 61 -12q7 -14 7 -126v-144z" />
<glyph unicode="&#x292;" horiz-adv-x="962" d="M876 1028l-496 -523q78 0 151.5 -14.5t141 -46.5t118.5 -79t81 -117t30 -155q0 -82 -28.5 -149.5t-74.5 -112.5t-106 -76t-121 -44.5t-121 -13.5q-93 0 -210 30t-196 83l34 118l5 10q70 -44 167.5 -70.5t178.5 -26.5q136 0 227.5 73t91.5 183q0 83 -58 145.5t-146 92.5 t-189 30h-168v140l366 387h-344q-7 -55 -19 -103q-14 -8 -53 -8q-49 0 -61 12q-7 14 -7 126v119h798z" />
<glyph unicode="&#x2c6;" horiz-adv-x="892" d="M448 1386h-5q-115 -106 -296 -196q-13 10 -26.5 47.5t-16.5 67.5q173 92 338 249h8q166 -158 338 -249q-3 -30 -16.5 -67.5t-26.5 -47.5q-176 86 -297 196z" />
<glyph unicode="&#x2c7;" horiz-adv-x="892" d="M443 1358h5q121 110 297 196q13 -10 26.5 -47.5t16.5 -67.5q-172 -91 -338 -249h-8q-165 157 -338 249q3 30 16.5 67.5t26.5 47.5q181 -90 296 -196z" />
<glyph unicode="&#x2d8;" horiz-adv-x="918" d="M195 1580q86 -114 259 -114q174 0 269 114q26 -16 50 -50.5t25 -61.5q-54 -68 -145.5 -105t-189.5 -37q-101 0 -192.5 35.5t-150.5 106.5q1 27 25 61.5t50 50.5z" />
<glyph unicode="&#x2d9;" horiz-adv-x="347" d="M60 1302q0 46 33.5 79t79.5 33q47 0 80.5 -33t33.5 -79t-33.5 -79t-80.5 -33q-46 0 -79.5 33t-33.5 79z" />
<glyph unicode="&#x2da;" horiz-adv-x="603" d="M101 1411q0 80 59 138.5t141 58.5q81 0 141 -58.5t60 -138.5t-60 -139.5t-141 -59.5t-140.5 59t-59.5 140zM220 1411q0 -33 24 -57t57 -24t57.5 24t24.5 57q0 32 -24.5 56.5t-57.5 24.5t-57 -24.5t-24 -56.5z" />
<glyph unicode="&#x2db;" horiz-adv-x="554" d="M374 101l24 -101q-91 -42 -132.5 -106.5t-41.5 -126.5q0 -104 91 -104q60 0 152 46l7 -5v-131q-72 -51 -156 -51q-99 0 -170 71.5t-71 175.5t88 192.5t209 139.5z" />
<glyph unicode="&#x2dc;" horiz-adv-x="892" d="M651 1442v6q96 14 141 -27q-10 -86 -77 -140t-156 -54q-41 0 -75 13t-53 29t-45 29t-53 13q-39 0 -65 -20t-26 -58v-6q-96 -14 -141 27q10 86 76 140t153 54q52 0 120.5 -42t110.5 -42q37 0 63.5 20t26.5 58z" />
<glyph unicode="&#x2dd;" horiz-adv-x="993" d="M763 1647q36 -7 70.5 -32t52.5 -60q-19 -63 -126 -184t-216 -181q-14 6 -38.5 37t-36.5 58q170 155 294 362zM402 1647q37 -7 71.5 -32t51.5 -60q-19 -63 -125.5 -184t-215.5 -181q-14 6 -38.5 37t-37.5 58q175 159 294 362z" />
<glyph unicode="&#x1ef2;" horiz-adv-x="1166" d="M391 1776q180 -158 391 -253q-3 -30 -16.5 -67.5t-25.5 -47.5q-123 24 -262 106.5t-175 136.5q6 39 30.5 73.5t57.5 51.5zM641 0h-116q-113 0 -127 8q-12 14 -12 61q0 39 9 52q46 11 111 20v351l-333 681q-86 12 -134 24q-9 13 -9 52q0 47 12 61q14 8 127 8h116 q113 0 127 -8q12 -14 12 -61q0 -39 -9 -52q-39 -9 -91 -17l259 -530l258 530q-49 7 -90 17q-9 13 -9 52q0 47 12 61q14 8 127 8h116q113 0 127 -8q12 -14 12 -61q0 -39 -9 -52q-46 -12 -135 -24l-332 -681v-351q68 -10 111 -20q9 -13 9 -52q0 -47 -12 -61q-14 -8 -127 -8z " />
<glyph unicode="&#x1ef3;" horiz-adv-x="1052" d="M941 1038l-1 -2q54 -2 65 -6q12 -14 12 -61q0 -38 -9 -52q-44 -11 -116 -21l-396 -1148q-79 -226 -300 -226q-117 0 -256 63v129q0 112 7 126q12 12 61 12q39 0 53 -8q16 -68 27 -164q45 -15 89 -15q57 0 103.5 27.5t66.5 84.5l77 223h-48l-309 899q-37 5 -95 18 q-9 14 -9 52q0 47 12 61q7 3 45 5l-1 3h199q113 0 127 -8q12 -14 12 -61q0 -38 -9 -52q-55 -13 -120 -22l252 -730l253 733q-53 7 -101 19q-9 14 -9 52q0 47 12 61q14 8 127 8h179zM374 1558q180 -158 391 -253q-3 -30 -16.5 -67.5t-25.5 -47.5q-123 24 -262 106.5 t-175 136.5q6 39 30.5 73.5t57.5 51.5z" />
<glyph unicode="&#x2013;" horiz-adv-x="1052" d="M50 618h952v-144h-952v144z" />
<glyph unicode="&#x2014;" horiz-adv-x="1201" d="M50 618h1101v-144h-1101v144z" />
<glyph unicode="&#x2018;" horiz-adv-x="391" d="M306 1157q0 -46 -33 -79t-79 -33q-43 0 -78.5 30.5t-35.5 92.5q0 80 59 161.5t129 118.5l43 -54q-49 -81 -49 -130q0 -47 44 -107z" />
<glyph unicode="&#x2019;" horiz-adv-x="391" d="M84 1336q0 46 33 79t79 33q43 0 79 -30.5t36 -92.5q0 -80 -59.5 -161.5t-129.5 -118.5l-42 54q49 84 49 130t-45 107z" />
<glyph unicode="&#x201a;" horiz-adv-x="392" d="M85 92q0 46 33 79t79 33q43 0 79 -30.5t36 -92.5q0 -80 -59.5 -161.5t-129.5 -118.5l-43 54q50 83 50 130q0 46 -45 107z" />
<glyph unicode="&#x201c;" horiz-adv-x="718" d="M634 1157q0 -46 -33 -79t-79 -33q-43 0 -79 30.5t-36 92.5q0 80 59.5 161.5t129.5 118.5l42 -54q-49 -84 -49 -130t45 -107zM306 1157q0 -46 -33 -79t-79 -33q-43 0 -78.5 30.5t-35.5 92.5q0 80 59 161.5t129 118.5l43 -54q-49 -81 -49 -130q0 -47 44 -107z" />
<glyph unicode="&#x201d;" horiz-adv-x="718" d="M84 1336q0 46 33 79t79 33q43 0 79 -30.5t36 -92.5q0 -80 -59.5 -161.5t-129.5 -118.5l-42 54q49 84 49 130t-45 107zM412 1336q0 46 33 79t79 33q43 0 78.5 -30.5t35.5 -92.5q0 -80 -59 -161.5t-129 -118.5l-43 54q49 81 49 130q0 47 -44 107z" />
<glyph unicode="&#x201e;" horiz-adv-x="718" d="M84 92q0 46 33 79t79 33q43 0 79 -30.5t36 -92.5q0 -80 -59.5 -161.5t-129.5 -118.5l-42 54q49 84 49 130t-45 107zM412 92q0 46 33 79t79 33q43 0 78.5 -30.5t35.5 -92.5q0 -80 -59 -161.5t-129 -118.5l-43 54q49 81 49 130q0 47 -44 107z" />
<glyph unicode="&#x2020;" horiz-adv-x="890" d="M495 -268h-112q-12 96 -18.5 449.5t-6.5 622.5h164q0 -256 -7.5 -615.5t-19.5 -456.5zM385 1448h112q25 -163 25 -320h-164q0 153 27 320zM840 884h-790v154h790v-154z" />
<glyph unicode="&#x2021;" horiz-adv-x="890" d="M840 884h-790v154h790v-154zM840 0h-790v154h790v-154zM502 519q25 -163 25 -320h-164q0 153 27 320q-27 167 -27 320h164q0 -157 -25 -320zM390 1448h112q25 -163 25 -320h-164q0 153 27 320zM502 -410h-112q-27 167 -27 320h164q0 -158 -25 -320z" />
<glyph unicode="&#x2022;" horiz-adv-x="771" d="M80 518q0 123 89.5 213.5t215.5 90.5q125 0 215.5 -90.5t90.5 -213.5t-90.5 -213.5t-215.5 -90.5q-126 0 -215.5 90.5t-89.5 213.5z" />
<glyph unicode="&#x2026;" horiz-adv-x="1161" d="M80 92q0 46 33.5 79t79.5 33q47 0 80.5 -33t33.5 -79t-33.5 -79t-80.5 -33q-46 0 -79.5 33t-33.5 79zM467 92q0 46 33.5 79t79.5 33q47 0 80.5 -33t33.5 -79t-33.5 -79t-80.5 -33q-46 0 -79.5 33t-33.5 79zM854 92q0 46 33.5 79t79.5 33q47 0 80.5 -33t33.5 -79 t-33.5 -79t-80.5 -33q-46 0 -79.5 33t-33.5 79z" />
<glyph unicode="&#x2030;" horiz-adv-x="2382" d="M80 1000q0 143 93 240.5t237 97.5q143 0 233.5 -96.5t90.5 -236.5q0 -143 -93 -240t-237 -97q-143 0 -233.5 96t-90.5 236zM220 1001q0 -80 51.5 -135t133.5 -55q83 0 136 56t53 138q0 79 -52 134.5t-133 55.5q-83 0 -136 -56t-53 -138zM904 312q0 143 93 240.5t237 97.5 q143 0 233.5 -96.5t90.5 -236.5q0 -143 -93 -240t-237 -97q-143 0 -233.5 96t-90.5 236zM1044 313q0 -80 51.5 -135t133.5 -55q83 0 136 56t53 138q0 79 -52 134.5t-133 55.5q-83 0 -136 -56t-53 -138zM1648 312q0 143 93 240.5t237 97.5q143 0 233.5 -96.5t90.5 -236.5 q0 -143 -93 -240t-237 -97q-143 0 -233.5 96t-90.5 236zM1788 313q0 -80 51.5 -135t133.5 -55q83 0 136 56t53 138q0 79 -52 134.5t-133 55.5q-83 0 -136 -56t-53 -138zM432 241l646 924l126 -88l-646 -924z" />
<glyph unicode="&#x2039;" horiz-adv-x="796" d="M544 1449l132 -77l-381 -658l381 -658l-132 -77l-424 735z" />
<glyph unicode="&#x203a;" horiz-adv-x="796" d="M252 -21l-132 77l380 658l-380 658l132 77l424 -735z" />
<glyph unicode="&#x2044;" horiz-adv-x="1012" d="M120 241l646 924l126 -88l-646 -924z" />
<glyph unicode="&#x2063;" horiz-adv-x="600" />
<glyph unicode="&#x20ac;" horiz-adv-x="1189" d="M1139 144v-99q-157 -65 -313 -65q-222 0 -389.5 125.5t-225.5 344.5h-167l-4 4l52 147h95q-2 19 -2 59q0 44 2 66h-143l-4 4l52 140h118q60 225 239.5 346.5t430.5 121.5q151 0 269 -41v-123q0 -112 -7 -126q-12 -12 -61 -12q-39 0 -53 8q-12 47 -24 136q-78 13 -140 13 q-180 0 -310 -83t-183 -240h634l4 -4l-52 -140h-615q-3 -33 -3 -68q0 -39 2 -57h566l4 -11l-52 -140h-487q53 -154 178.5 -239t292.5 -85q74 0 152 18q11 78 23 130q14 8 53 8q49 0 61 -12q7 -14 7 -126z" />
<glyph unicode="&#x2122;" horiz-adv-x="1404" d="M980 1005l169 332h142l3 -659h-117l-3 488l-153 -298h-85l-154 300l-2 -490h-117l2 659h145l168 -332h2zM45 1337h525v-112h-204v-547h-117v547h-204v112z" />
<glyph unicode="&#x212e;" horiz-adv-x="1712" d="M410 627v-366q174 -196 460 -196q147 0 255 49t196 154h153v-55q-222 -233 -619 -233q-317 0 -541 186q-224 188 -224 495q0 309 223 493q224 185 556 185q331 0 542 -197q211 -196 211 -515h-1212zM1314 713v338q-107 110 -207 156t-249 48q-145 -3 -245 -49.5 t-203 -154.5v-338h904z" />
<glyph unicode="&#x2212;" horiz-adv-x="1030" d="M910 438h-790v154h790v-154z" />
<glyph unicode="&#x2248;" horiz-adv-x="1033" d="M749 807v7q110 16 162 -31q-12 -98 -88.5 -160t-178.5 -62q-47 0 -86 15t-60.5 33t-51 33t-61.5 15q-44 0 -73.5 -23t-29.5 -66v-7q-110 -16 -162 31q12 98 87.5 160t174.5 62q49 0 94 -24t87.5 -48t83.5 -24q42 0 72 23t30 66zM749 499v7q110 16 162 -31 q-12 -98 -88.5 -160t-178.5 -62q-47 0 -86 15t-60.5 33t-51 33t-61.5 15q-44 0 -73.5 -23t-29.5 -66v-7q-110 -16 -162 31q12 98 87.5 160t174.5 62q49 0 94 -24t87.5 -48t83.5 -24q42 0 72 23t30 66z" />
<glyph unicode="&#x2260;" horiz-adv-x="1030" d="M591 952l144 -53l-310 -852l-144 53zM910 592h-790v154h790v-154zM910 284h-790v154h790v-154z" />
<glyph unicode="&#x2264;" horiz-adv-x="1030" d="M766 1058l88 -125l-411 -288l411 -288l-88 -125l-590 413zM910 0h-790v154h790v-154z" />
<glyph unicode="&#x2265;" horiz-adv-x="1030" d="M264 232l-88 125l411 288l-411 288l88 125l590 -413zM910 0h-790v154h790v-154z" />
<glyph unicode="&#x2400;" horiz-adv-x="0" />
<glyph unicode="&#x25fc;" horiz-adv-x="1040" d="M0 1040h1040v-1040h-1040v1040z" />
<glyph unicode="&#xfb03;" horiz-adv-x="1786" d="M1737 121q9 -14 9 -52q0 -47 -12 -61q-14 -8 -127 -8h-116q-113 0 -127 8q-12 14 -12 61q0 39 9 52q46 11 111 20v754h-468v-754q68 -10 111 -20q9 -14 9 -52q0 -47 -12 -61q-14 -8 -127 -8h-116q-113 0 -127 8q-12 14 -12 61q0 39 9 52q46 11 111 20v754h-487v-754 q68 -10 111 -20q9 -13 9 -52q0 -47 -12 -61q-14 -8 -127 -8h-116q-113 0 -127 8q-12 14 -12 61q0 39 9 52q46 11 111 20v754h-168v143h168v4q0 115 23 195.5t67 126t101 65t134 19.5q162 0 405 -84q78 84 236 84q53 0 111.5 -8t115 -23t94 -26t82 -26.5t45.5 -15.5 q-1 -202 -7 -212q-12 -12 -61 -12q-39 0 -53 8q-21 88 -25 114q-185 58 -292 58q-92 0 -136.5 -57.5t-44.5 -205.5v-4h622v-897q68 -10 111 -20zM850 1038v4q0 118 22 194q-212 69 -328 69q-92 0 -136.5 -57.5t-44.5 -205.5v-4h487z" />
<glyph unicode="&#xfb04;" horiz-adv-x="1758" d="M1709 121q9 -14 9 -52q0 -47 -12 -61q-14 -8 -127 -8h-116q-113 0 -127 8q-12 14 -12 61q0 39 9 52q46 11 111 20v1148q-134 17 -220 17q-58 0 -98.5 -10t-75.5 -37t-52 -79t-17 -130v-12h234v-144h-234v-753q68 -10 111 -20q9 -14 9 -52q0 -47 -12 -61q-14 -8 -127 -8 h-116q-113 0 -127 8q-12 14 -12 61q0 39 9 52q46 11 111 20v753l-464 1v-754q68 -10 111 -20q9 -13 9 -52q0 -47 -12 -61q-14 -8 -127 -8h-116q-113 0 -127 8q-12 14 -12 61q0 39 9 52q46 11 111 20v754h-168v143h168v4q0 115 23 195.5t67 126t101 65t134 19.5 q155 0 386 -78q79 78 261 78q115 0 263 -20l144 20h10v-1307q68 -10 111 -20zM827 1038v12q0 118 22 193q-200 62 -305 62q-92 0 -136.5 -57.5t-44.5 -205.5v-4h464z" />
<glyph horiz-adv-x="818" d="M667 1295l1 1q-50 10 -83 10q-85 0 -129 -56.5t-44 -198.5v-13h235v-144h-235v-917q0 -222 -47 -435h-154l-9 8q56 233 56 427v917h-168v144h168v13q0 215 81 306t224 91q105 0 255 -46q0 -251 -7 -265q-12 -12 -61 -12q-39 0 -53 8q-25 108 -30 162z" />
<glyph horiz-adv-x="1321" d="M731 1058q116 0 233 -31l102 31h11v-1132q0 -109 -32.5 -189.5t-90.5 -126t-128 -67t-154 -21.5q-205 0 -410 106v129q0 112 7 126q12 12 61 12q39 0 53 -8q16 -70 27 -168q136 -52 252 -52q117 0 189 61t72 198v145q-117 -91 -267 -91q-132 0 -235.5 76t-158 202 t-54.5 277q0 112 32 205.5t94.5 165.5t164 112t232.5 40zM677 123q166 0 246 113v639q-101 41 -203 41q-161 0 -259 -102t-98 -293q0 -79 18.5 -148.5t55 -126.5t98.5 -90t142 -33z" />
<glyph horiz-adv-x="1321" d="M1075 1058v-1122q0 -210 -115 -312t-314 -102q-128 0 -237 38.5t-175.5 110.5t-66.5 161q0 76 52 142.5t161 104.5q-81 70 -127.5 193.5t-46.5 262.5q0 112 32 205.5t94.5 165.5t164 112t232.5 40q116 0 233 -31l102 31h11zM678 123q76 0 139.5 28.5t103.5 84.5v639 q-101 41 -202 41q-162 0 -260 -102t-98 -293q0 -80 18.5 -149.5t55 -126t99 -89.5t144.5 -33zM921 -64v135q-73 -54 -124.5 -69.5t-142.5 -21.5q-39 -2 -61 -4t-60 -6.5t-60.5 -10.5t-51 -17t-44 -25.5t-26.5 -36t-11 -48.5q0 -77 80.5 -121t219.5 -44q127 0 204 68t77 201z " />
<glyph horiz-adv-x="1168" d="M80 516q0 150 64 273.5t181 196t263 72.5q147 0 262 -73t176.5 -195t61.5 -269q0 -150 -63.5 -273t-180.5 -195.5t-264 -72.5t-262 72.5t-176.5 194.5t-61.5 269zM237 524q0 -111 39.5 -200t121 -144.5t192.5 -55.5q160 0 250.5 109t90.5 280q0 173 -91.5 287t-255.5 114 q-161 0 -254 -110t-93 -280z" />
<glyph horiz-adv-x="618" d="M569 121q9 -13 9 -52q0 -47 -12 -61q-14 -8 -127 -8h-116q-113 0 -127 8q-12 14 -12 61q0 39 9 52q46 11 111 20v704q-129 -46 -264 -46v145q100 0 173 26q56 19 132 68h113v-897q68 -10 111 -20z" />
<glyph horiz-adv-x="911" d="M91 951q167 107 369 107q90 0 155.5 -29t99.5 -77t49.5 -99t15.5 -106q0 -90 -44.5 -187t-114.5 -175.5t-150.5 -140.5t-156.5 -94v-6h373q8 65 23 130q14 8 53 8q49 0 61 -12q7 -14 7 -126v-144h-801v144q84 40 161 84.5t158.5 103.5t140.5 119t97 131.5t38 140.5 q0 89 -55.5 142t-135.5 53q-88 0 -191 -40q-8 -128 -31 -196q-17 -9 -59 -8t-55 12q-7 14 -7 265z" />
<glyph horiz-adv-x="973" d="M92 870v84q82 51 177.5 77.5t178.5 26.5q49 0 98.5 -9t101 -33t91 -60t64.5 -95t25 -133q0 -197 -166 -306q242 -89 242 -338q0 -82 -28.5 -148.5t-74.5 -109.5t-106 -72t-120.5 -41.5t-121.5 -12.5q-95 0 -212 29t-196 82v68q0 112 7 126q12 12 61 12q39 0 53 -8 q13 -59 21 -120q131 -47 245 -47q135 0 226.5 72.5t91.5 181.5q0 83 -59.5 139t-145.5 79t-189 23h-132v140h156q39 0 78.5 8t79 27t69.5 46t49 68.5t19 91.5q0 96 -71 147.5t-179 51.5q-93 0 -188 -36q-13 -95 -24 -141q-14 -8 -53 -8q-49 0 -61 12q-7 14 -7 126z" />
<glyph horiz-adv-x="970" d="M613 1038h176v-895h152v-143h-152v-300h-154v300h-615v143zM635 143v654l-432 -654h432z" />
<glyph horiz-adv-x="973" d="M202 1011v27h645v-142h-517l-40 -369q69 0 121 -2.5t119.5 -12t117 -25.5t100.5 -45.5t83 -70t52.5 -101.5t20.5 -138q0 -109 -38.5 -194.5t-102.5 -136t-140.5 -76t-159.5 -25.5q-94 0 -205.5 29.5t-187.5 81.5v81q0 112 7 126q12 12 61 12q39 0 53 -8q15 -65 23 -133 q128 -47 239 -47q133 0 214.5 84.5t81.5 210.5q0 138 -113.5 193.5t-362.5 55.5h-140z" />
<glyph horiz-adv-x="968" d="M834 1338v-144q-93 0 -172 -20.5t-137 -58t-103 -83t-77 -102t-52.5 -108t-34.5 -108.5q119 93 260 93q157 0 264 -113t107 -270q0 -53 -12.5 -109.5t-43 -117.5t-76 -108.5t-118 -78t-162.5 -30.5q-101 0 -178.5 37.5t-124.5 104t-70.5 151t-23.5 184.5q0 128 25 249.5 t82.5 237.5t142 202.5t214.5 139t290 52.5zM497 662q-111 0 -264 -100q-5 -46 -5 -104q0 -158 79 -245.5t193 -87.5q58 0 104.5 25t74 65.5t42 89.5t14.5 100q0 118 -71 187.5t-167 69.5z" />
<glyph horiz-adv-x="838" d="M50 1038h768l-532 -1318h-154l473 1174h-407q-3 -31 -27 -135q-14 -8 -53 -8q-49 0 -61 12q-7 14 -7 265v10z" />
<glyph horiz-adv-x="988" d="M870 1001q0 -108 -54.5 -181.5t-158.5 -131.5q58 -27 102 -56t85 -70.5t63 -98t22 -124.5q0 -87 -37.5 -157t-99.5 -113t-138.5 -66t-159.5 -23q-84 0 -160.5 23t-138 66.5t-98.5 113.5t-37 156q0 71 23.5 129t66.5 99.5t85 68.5t97 52q-103 57 -158 130.5t-55 182.5 q0 106 54 184t138 115.5t183 37.5q72 0 138.5 -21.5t120 -62.5t85.5 -106.5t32 -146.5zM214 333q0 -96 83.5 -152.5t196.5 -56.5t197 56.5t84 155.5q0 33 -10 62.5t-32.5 55t-44.5 45t-60 41t-63.5 34.5t-70.5 34q-47 -23 -72 -35.5t-64 -34.5t-59.5 -41t-43 -44.5 t-32 -55.5t-9.5 -64zM715 1001q0 93 -66 143t-155 50q-90 0 -155 -49.5t-65 -142.5q0 -86 57 -142t163 -102q107 46 164 102.5t57 140.5z" />
<glyph horiz-adv-x="968" d="M135 -300v144q110 0 201.5 30.5t152 77.5t107.5 113t72.5 127.5t42.5 130.5q-118 -92 -260 -92q-157 0 -264 113t-107 270q0 53 12.5 109.5t43 117.5t76 108.5t118 78t162.5 30.5q101 0 178.5 -37.5t124.5 -104t70.5 -151t23.5 -184.5q0 -128 -25 -249.5t-82.5 -237.5 t-142 -202.5t-214.5 -139t-290 -52.5zM472 376q111 0 264 100q5 56 5 104q0 158 -79 245.5t-193 87.5q-58 0 -104.5 -25t-74 -65.5t-42 -89.5t-14.5 -100q0 -118 71 -187.5t167 -69.5z" />
<glyph horiz-adv-x="1192" d="M1072 646q-4 -332 -133 -499t-347 -167q-105 0 -188.5 42t-135.5 109.5t-86.5 159t-48 183t-13.5 189.5q0 327 127.5 501t344.5 174q218 0 349 -177t131 -515zM917 665q0 279 -82 404t-242 125t-239 -131.5t-79 -400.5q0 -538 318 -538q81 0 139 27t100.5 89t63.5 167.5 t21 257.5z" />
<glyph horiz-adv-x="778" d="M649 121q9 -13 9 -52q0 -47 -12 -61q-14 -8 -127 -8h-116q-113 0 -127 8q-12 14 -12 61q0 39 9 52q46 11 111 20v984q-129 -46 -264 -46v145q100 0 173 26q56 19 132 68h113v-1177q68 -10 111 -20z" />
<glyph horiz-adv-x="1138" d="M120 0v144q706 499 706 805q0 111 -79.5 177.5t-206.5 66.5q-94 0 -189 -35q-8 -127 -31 -195q-17 -9 -59 -8t-55 12q-7 14 -7 265q74 47 180 76.5t199 29.5q79 0 148.5 -23.5t123.5 -68t85.5 -117t31.5 -164.5q0 -86 -29 -170.5t-80 -162t-131 -161.5t-171 -160.5 t-212 -166.5h530q8 65 23 130q14 8 53 8q49 0 61 -12q7 -14 7 -126v-144h-898z" />
<glyph horiz-adv-x="1099" d="M167 1150v84q82 51 177.5 77.5t178.5 26.5q49 0 98.5 -9t101 -33t91 -60t64.5 -95t25 -133q0 -197 -166 -306q242 -89 242 -338q0 -82 -28.5 -148.5t-74.5 -109.5t-106 -72t-120.5 -41.5t-121.5 -12.5q-95 0 -212 29t-196 82v68q0 112 7 126q12 12 61 12q39 0 53 -8 q13 -63 21 -120q127 -47 245 -47q135 0 226.5 72.5t91.5 181.5q0 83 -59.5 139t-145.5 79t-189 23h-132v140h156q39 0 78.5 8t79 27t69.5 46t49 68.5t19 91.5q0 96 -71 147.5t-179 51.5q-94 0 -188 -36q-13 -95 -24 -141q-14 -8 -53 -8q-49 0 -61 12q-7 14 -7 126z" />
<glyph horiz-adv-x="1161" d="M713 1318h176v-875h152v-143h-152v-300h-154v300h-615v143zM735 443v634l-432 -634h432z" />
<glyph horiz-adv-x="1074" d="M252 1291v27h645v-142h-517l-40 -369q69 0 121 -2.5t119.5 -12t117 -25.5t100.5 -45.5t83 -70t52.5 -101.5t20.5 -138q0 -109 -38.5 -194.5t-102.5 -136t-140.5 -76t-159.5 -25.5q-94 0 -205.5 29.5t-187.5 81.5v81q0 112 7 126q12 12 61 12q39 0 53 -8q15 -68 23 -134 q126 -46 239 -46q133 0 214.5 84.5t81.5 210.5q0 138 -113.5 193.5t-362.5 55.5h-140z" />
<glyph horiz-adv-x="1049" d="M874 1338v-144q-93 0 -172 -20.5t-137 -58t-103 -83t-77 -102t-52.5 -108t-34.5 -108.5q119 93 260 93q157 0 264 -113t107 -270q0 -53 -12.5 -109.5t-43 -117.5t-76 -108.5t-118 -78t-162.5 -30.5q-101 0 -178.5 37.5t-124.5 104t-70.5 151t-23.5 184.5q0 128 25 249.5 t82.5 237.5t142 202.5t214.5 139t290 52.5zM537 662q-111 0 -264 -100q-5 -46 -5 -104q0 -158 79 -245.5t193 -87.5q58 0 104.5 25t74 65.5t42 89.5t14.5 100q0 118 -71 187.5t-167 69.5z" />
<glyph horiz-adv-x="1008" d="M120 1318h768l-532 -1318h-154l473 1174h-407q-3 -31 -27 -135q-14 -8 -53 -8q-49 0 -61 12q-7 14 -7 265v10z" />
<glyph horiz-adv-x="1109" d="M930 1001q0 -108 -54.5 -181.5t-158.5 -131.5q58 -27 102 -56t85 -70.5t63 -98t22 -124.5q0 -87 -37.5 -157t-99.5 -113t-138.5 -66t-159.5 -23q-84 0 -160.5 23t-138 66.5t-98.5 113.5t-37 156q0 71 23.5 129t66.5 99.5t85 68.5t97 52q-103 57 -158 130.5t-55 182.5 q0 106 54 184t138 115.5t183 37.5q72 0 138.5 -21.5t120 -62.5t85.5 -106.5t32 -146.5zM274 333q0 -96 83.5 -152.5t196.5 -56.5t197 56.5t84 155.5q0 33 -10 62.5t-32.5 55t-44.5 45t-60 41t-63.5 34.5t-70.5 34q-47 -23 -72 -35.5t-64 -34.5t-59.5 -41t-43 -44.5 t-32 -55.5t-9.5 -64zM775 1001q0 93 -66 143t-155 50q-90 0 -155 -49.5t-65 -142.5q0 -86 57 -142t163 -102q107 46 164 102.5t57 140.5z" />
<glyph horiz-adv-x="1049" d="M175 -20v144q110 0 201.5 30.5t152 77.5t107.5 113t72.5 127.5t42.5 130.5q-118 -92 -260 -92q-157 0 -264 113t-107 270q0 53 12.5 109.5t43 117.5t76 108.5t118 78t162.5 30.5q101 0 178.5 -37.5t124.5 -104t70.5 -151t23.5 -184.5q0 -128 -25 -249.5t-82.5 -237.5 t-142 -202.5t-214.5 -139t-290 -52.5zM512 656q111 0 264 100q5 56 5 104q0 158 -79 245.5t-193 87.5q-58 0 -104.5 -25t-74 -65.5t-42 -89.5t-14.5 -100q0 -118 71 -187.5t167 -69.5z" />
<glyph horiz-adv-x="1248" d="M120 516q0 150 64 273.5t181 196t263 72.5q147 0 262 -73t176.5 -195t61.5 -269q0 -150 -63.5 -273t-180.5 -195.5t-264 -72.5t-262 72.5t-176.5 194.5t-61.5 269zM277 524q0 -111 39.5 -200t121 -144.5t192.5 -55.5q160 0 250.5 109t90.5 280q0 173 -91.5 287 t-255.5 114q-161 0 -254 -110t-93 -280z" />
<glyph horiz-adv-x="778" d="M649 121q9 -13 9 -52q0 -47 -12 -61q-14 -8 -127 -8h-116q-113 0 -127 8q-12 14 -12 61q0 39 9 52q46 11 111 20v704q-129 -46 -264 -46v145q100 0 173 26q56 19 132 68h113v-897q68 -10 111 -20z" />
<glyph horiz-adv-x="1041" d="M181 951q167 107 369 107q90 0 155.5 -29t99.5 -77t49.5 -99t15.5 -106q0 -90 -44.5 -187t-114.5 -175.5t-150.5 -140.5t-156.5 -94v-6h373q8 65 23 130q14 8 53 8q49 0 61 -12q7 -14 7 -126v-144h-801v144q84 40 161 84.5t158.5 103.5t140.5 119t97 131.5t38 140.5 q0 89 -55.5 142t-135.5 53q-88 0 -191 -40q-8 -128 -31 -196q-17 -9 -59 -8t-55 12q-7 14 -7 265z" />
<glyph horiz-adv-x="1099" d="M167 870v84q82 51 177.5 77.5t178.5 26.5q49 0 98.5 -9t101 -33t91 -60t64.5 -95t25 -133q0 -197 -166 -306q242 -89 242 -338q0 -82 -28.5 -148.5t-74.5 -109.5t-106 -72t-120.5 -41.5t-121.5 -12.5q-95 0 -212 29t-196 82v68q0 112 7 126q12 12 61 12q39 0 53 -8 q13 -59 21 -120q131 -47 245 -47q135 0 226.5 72.5t91.5 181.5q0 83 -59.5 139t-145.5 79t-189 23h-132v140h156q39 0 78.5 8t79 27t69.5 46t49 68.5t19 91.5q0 96 -71 147.5t-179 51.5q-94 0 -188 -36q-13 -95 -24 -141q-14 -8 -53 -8q-49 0 -61 12q-7 14 -7 126z" />
<glyph horiz-adv-x="1161" d="M713 1038h176v-895h152v-143h-152v-300h-154v300h-615v143zM735 143v654l-432 -654h432z" />
<glyph horiz-adv-x="1074" d="M252 1011v27h645v-142h-517l-40 -369q69 0 121 -2.5t119.5 -12t117 -25.5t100.5 -45.5t83 -70t52.5 -101.5t20.5 -138q0 -109 -38.5 -194.5t-102.5 -136t-140.5 -76t-159.5 -25.5q-94 0 -205.5 29.5t-187.5 81.5v81q0 112 7 126q12 12 61 12q39 0 53 -8q15 -65 23 -133 q128 -47 239 -47q133 0 214.5 84.5t81.5 210.5q0 138 -113.5 193.5t-362.5 55.5h-140z" />
<glyph horiz-adv-x="1049" d="M874 1338v-144q-93 0 -172 -20.5t-137 -58t-103 -83t-77 -102t-52.5 -108t-34.5 -108.5q119 93 260 93q157 0 264 -113t107 -270q0 -53 -12.5 -109.5t-43 -117.5t-76 -108.5t-118 -78t-162.5 -30.5q-101 0 -178.5 37.5t-124.5 104t-70.5 151t-23.5 184.5q0 128 25 249.5 t82.5 237.5t142 202.5t214.5 139t290 52.5zM537 662q-111 0 -264 -100q-5 -46 -5 -104q0 -158 79 -245.5t193 -87.5q58 0 104.5 25t74 65.5t42 89.5t14.5 100q0 118 -71 187.5t-167 69.5z" />
<glyph horiz-adv-x="1008" d="M120 1038h768l-532 -1318h-154l473 1174h-407q-3 -31 -27 -135q-14 -8 -53 -8q-49 0 -61 12q-7 14 -7 265v10z" />
<glyph horiz-adv-x="1109" d="M930 1001q0 -108 -54.5 -181.5t-158.5 -131.5q58 -27 102 -56t85 -70.5t63 -98t22 -124.5q0 -87 -37.5 -157t-99.5 -113t-138.5 -66t-159.5 -23q-84 0 -160.5 23t-138 66.5t-98.5 113.5t-37 156q0 71 23.5 129t66.5 99.5t85 68.5t97 52q-103 57 -158 130.5t-55 182.5 q0 106 54 184t138 115.5t183 37.5q72 0 138.5 -21.5t120 -62.5t85.5 -106.5t32 -146.5zM274 333q0 -96 83.5 -152.5t196.5 -56.5t197 56.5t84 155.5q0 33 -10 62.5t-32.5 55t-44.5 45t-60 41t-63.5 34.5t-70.5 34q-47 -23 -72 -35.5t-64 -34.5t-59.5 -41t-43 -44.5 t-32 -55.5t-9.5 -64zM775 1001q0 93 -66 143t-155 50q-90 0 -155 -49.5t-65 -142.5q0 -86 57 -142t163 -102q107 46 164 102.5t57 140.5z" />
<glyph horiz-adv-x="1049" d="M175 -300v144q110 0 201.5 30.5t152 77.5t107.5 113t72.5 127.5t42.5 130.5q-118 -92 -260 -92q-157 0 -264 113t-107 270q0 53 12.5 109.5t43 117.5t76 108.5t118 78t162.5 30.5q101 0 178.5 -37.5t124.5 -104t70.5 -151t23.5 -184.5q0 -128 -25 -249.5t-82.5 -237.5 t-142 -202.5t-214.5 -139t-290 -52.5zM512 376q111 0 264 100q5 56 5 104q0 158 -79 245.5t-193 87.5q-58 0 -104.5 -25t-74 -65.5t-42 -89.5t-14.5 -100q0 -118 71 -187.5t167 -69.5z" />
</font>
</defs>
</svg>
