<?xml version="1.0" standalone="no"?>
<!DOCTYPE svg PUBLIC "-//W3C//DTD SVG 1.1//EN" "http://www.w3.org/Graphics/SVG/1.1/DTD/svg11.dtd" >
<svg xmlns="http://www.w3.org/2000/svg">
<metadata></metadata>
<defs>
<font id="flanders_art_sansregular" horiz-adv-x="1121" >
<font-face units-per-em="2048" ascent="1536" descent="-512" />
<missing-glyph horiz-adv-x="600" />
<glyph unicode="fi" horiz-adv-x="1145" d="M363 895h468v-895h154v1038h-622v4q0 149 48 209q42 54 133 54q34 0 74 -6q83 -13 161 -35q90 -26 128 -39q23 -9 33 -12l42 136q-23 7 -65 22q-43 15 -107 34q-153 43 -276 43q-159 0 -236 -84q-90 -98 -90 -322v-4h-168v-143h168v-895h155v895z" />
<glyph unicode="fl" horiz-adv-x="1140" d="M208 1038h-168v-144h168v-895h155v895h234v144h-234v12q0 150 68 209q56 47 175 47q96 0 220 -17v-1290h154v1449h-10l-144 -20q-148 20 -263 20q-175 0 -256 -73q-99 -90 -99 -325v-12z" />
<glyph unicode="fl&#x2a;" horiz-adv-x="5545" d="M2311 1046v-92h-236v-131h226v-92h-226v-221h-94v536h330zM2464 1098v-588h-96v582l83 6h13zM2698 582q31 0 47 13q31 16 31 61v26h-28q-51 0 -73 -6q-36 -9 -36 -41q0 -53 59 -53zM2714 942q65 0 109 -32q47 -37 47 -109v-155q0 -28 17 -45q15 -10 46 -19l-44 -78 q-30 0 -46 8q-32 17 -48 34q-39 -25 -48 -29q-23 -13 -64 -13q-33 0 -63 9q-36 14 -53 40q-24 34 -24 84q0 58 32 86q31 31 115 31q50 0 86 -3v22q0 41 -23 62q-26 18 -58 18q-16 0 -58 -10q-40 -13 -54 -20l-24 83q74 36 155 36zM3212 942q62 0 106 -36q46 -43 46 -114 v-282h-94v252q0 42 -30 69q-26 18 -65 18q-49 0 -92 -26v-313h-96v422h81l10 -33q67 43 134 43zM3639 595q46 0 87 25v223q-42 10 -68 10q-55 0 -88 -33q-33 -36 -33 -99q0 -51 27 -86q27 -40 75 -40zM3820 1098v-588h-72l-17 33q-48 -39 -113 -39q-88 0 -134 61 q-45 57 -45 141q0 112 64 176q62 60 161 60q24 0 62 -5v155l80 6h14zM4001 762h169q-3 45 -28 67q-20 20 -50 20q-35 0 -56 -20q-31 -27 -35 -67zM4089 942q26 0 62 -13q43 -11 72 -51q35 -51 35 -129v-62h-257q12 -49 49 -74q28 -18 76 -18q58 0 105 26l5 -1v-92 q-33 -14 -61 -19q-21 -5 -58 -5q-95 0 -153 55q-66 61 -66 164q0 100 60 162q55 57 131 57zM4533 942q15 0 42 -5q24 -5 42 -13l-30 -96q-37 21 -72 21q-42 0 -86 -31v-308h-93v422h79l10 -34q51 44 108 44zM4792 942q45 0 94 -18v-86l-7 -1q-40 17 -71 17q-30 0 -49 -11 q-19 -10 -19 -28t28 -31q7 -5 29 -11l25 -9q25 -10 37 -18q35 -19 49 -54q7 -24 7 -47q0 -71 -48 -108q-43 -33 -113 -33q-68 0 -109 28v88l3 3q29 -13 47 -19q19 -9 58 -9q32 0 47 9q23 15 23 39t-30 41q-10 6 -26 11q-60 22 -66 25q-32 15 -48 50q-8 22 -8 45q0 60 44 95 q43 32 103 32zM559 1120q33 0 91 -155q32 -86 48 -155q3 -12 39 -157q5 -17 35 -158q10 -40 51 -116t50 -122q12 -57 70 -98q23 -16 57 -16q47 0 90.5 30t51.5 67q7 20 3 38q-8 59 -52 79q-18 6 -60 28q-14 9 -31.5 32t-24.5 47.5t13 36.5q2 2 8 2q10 0 34 -19.5t38 -21.5h2 l32 8q22 9 33 9q18 0 46 -19v-382q-13 0 -55 8.5t-75 8.5q-3 0 -10.5 -1t-11.5 -1q-86 -7 -120 -98q-5 -12 -10 -32.5t-7.5 -36t-0.5 -16.5q3 -7 42 -28t110.5 -42.5t137.5 -21.5v-120q-98 0 -192.5 78t-112.5 130q-13 28 -13 70q-1 19 -4.5 59.5t-4.5 60.5 q-2 35 -20.5 76.5t-46 88t-35.5 62.5q-5 11 -16.5 44.5t-15.5 42.5q-19 53 -57 255q-37 182 -64 295.5t-35 136.5l-8 23h1zM542 893q35 -123 -25 -212q-106 -147 -120 -269q-8 -59 -2 -142q6 -36 0 -92.5t-34 -81.5q-9 -4 -11 -4q-5 6 -1 14.5t1.5 43.5t-17.5 74 q-25 59 -35 111.5t2 124.5q14 67 54 143q14 24 47 65.5t62 76t53 76t26 72.5zM570 638l8.5 -8.5t16.5 -30t16.5 -57t2 -92.5t-20.5 -133q-21 -87 -14 -160.5t25.5 -121.5t46.5 -79q40 -43 65.5 -80t34 -59t11 -37.5t0.5 -21.5l-3 -6q-16 21 -49.5 45.5t-65.5 47t-67 54 t-58.5 74.5t-36.5 98.5t-3.5 136.5t43.5 179q28 80 40 143t10 86zM439 1263q2 -5 4.5 -13t4.5 -32t-2 -46t-21 -48.5t-47 -45.5q-76 -46 -119 -127q-9 44 -6 77q2 31 13 58t30.5 46.5t33.5 31t34.5 24t21.5 13.5q47 31 53 62zM470 1092q30 0 47 -33q37 -82 -125 -214 q-48 -40 -78 -80t-38 -68.5t-9 -51.5t3 -35l5 -11q-4 2 -10 6t-21 18.5t-25.5 30.5t-16 41t0.5 51.5t30.5 61.5t67.5 71q95 79 137 132t37 67zM890 903q22 0 36.5 13t12.5 40h-2q-4 0 -8 -1.5t-10 -3.5t-10 -3q-24 -8 -28 -8q-13 0 -13 16q0 12 17 12.5t19 2.5q4 4 6 11.5 t-2 9.5q-15 3 -21 3t-11 -2q-16 -7 -29 -25q-3 -2 -8.5 -1.5t-5.5 -3.5q-7 -27 12 -43.5t45 -16.5zM836 1017q64 0 103.5 -25.5t50 -63t10.5 -69.5t-8 -55q0 -1 -3 -1q-17 0 -23.5 19t7.5 29q-5 13 -21 18.5t-46 9.5t-47 9q-23 6 -43 25.5t-31 39t-23 35.5t-22 16 q52 13 96 13zM1158 1499l732 -2114l-7 -4l-735 2114zM1947 -63v-36q33 -14 68 -14q50 0 82 25q37 24 37 75q0 29 -11 44q-6 10 -31 26q-20 15 -52 28q-31 17 -40 25q-14 10 -14 36q0 28 18 41q21 9 49 9q8 0 59 -6v2v32q-23 8 -59 8q-48 0 -72 -19q-33 -24 -33 -71 q0 -41 27 -63q8 -6 45 -26q5 -3 23 -12.5t25 -14.5q30 -16 30 -47q0 -28 -23 -44q-21 -12 -53 -12q-8 0 -23.5 2t-17.5 2q-6 2 -17.5 5t-16.5 5zM2170 157v-37h28v-130q0 -55 25 -80q21 -23 56 -23q29 0 66 15l-11 36q-28 -15 -48 -15q-24 0 -35 15q-14 17 -14 52v130h74v37 h-74v53h-1l-38 -6v-47h-28zM2576 -113l22 37q-22 8 -30 27q-6 18 -6 39v84q0 49 -23 69q-23 19 -58 19q-29 0 -52 -5q-23 -6 -45 -17l9 -34q22 10 41 15q20 3 39 3q26 0 36 -9q14 -14 14 -41v-31q-13 0 -30 1t-23 1q-53 0 -78 -19q-24 -21 -24 -56q0 -42 30 -68 q26 -15 56 -15q25 0 47 11q25 11 35 26q15 -29 40 -37zM2523 9v-22q0 -37 -25 -53q-21 -11 -47 -11q-13 0 -25 9q-18 10 -18 38q0 27 31 34q19 5 84 5zM2620 157v-37h28v-130q0 -52 25 -80q21 -23 58 -23q29 0 66 15l-11 36q-30 -15 -49 -15q-22 0 -36 15q-12 17 -12 52v130 h73v37h-73v53h-3l-38 -6v-47h-28zM3025 13v36q0 28 -7 52q-7 29 -25 42q-20 19 -59 19q-56 0 -87 -39q-27 -34 -27 -95q0 -70 36 -108q34 -33 86 -33q38 0 76 19v36l-1 1q-37 -20 -70 -20q-34 0 -60 23q-25 23 -28 67h166zM2986 49h-125q5 35 25 55q16 20 47 20t40 -21 q9 -14 13 -54zM3214 24q0 -56 34 -97q35 -40 88 -40q52 0 87 40q33 36 33 99q0 56 -31 95q-36 41 -88 41q-51 0 -87 -41t-36 -97zM3253 26q0 41 22 70q21 28 61 28q39 0 62 -29q19 -28 19 -72t-19 -72q-23 -28 -61 -28t-62 29q-22 33 -22 74zM3489 157v-37h42v-228h39v228 h61v37h-61q0 35 13 53q9 14 32 14q19 0 46 -9l12 34q-36 13 -62 13q-37 0 -58 -24q-22 -25 -22 -81h-42zM3806 157v-37h30v-130q0 -56 23 -80q25 -23 58 -23q29 0 66 15l-11 36q-30 -15 -50 -15q-25 0 -33 15q-14 15 -14 52v130h72v37h-72v53h-3l-36 -6v-47h-30zM4026 256 v-364h39v209q6 2 17 8t18 9q22 6 34 6q30 0 42 -12q17 -17 17 -52v-168h40v170q0 52 -27 76q-25 24 -67 24q-9 0 -38 -9q-16 -5 -36 -18v127h-3zM4497 13v36q0 28 -7 52q-7 31 -26 42q-19 19 -58 19q-58 0 -88 -39q-26 -37 -26 -95q0 -70 36 -108q34 -33 86 -33q38 0 76 19 v36l-1 1q-40 -20 -71 -20q-33 0 -59 23q-25 22 -28 67h166zM4458 49h-125q7 38 23 55q17 20 48 20t43 -21q11 -24 11 -54zM4889 -30l26 -78h43l-118 336h-51l-116 -336h41l26 78h149zM4753 7l61 178l62 -178h-123zM5004 157v-265h39v198q25 34 55 34q18 0 38 -6l12 35 q-4 2 -22 6q-18 3 -22 3q-34 0 -64 -36l-9 31h-27zM5168 157v-37h29v-130q0 -53 25 -80q21 -23 57 -23q29 0 66 15l-11 36q-28 -15 -48 -15q-24 0 -35 15q-14 17 -14 52v130h74v37h-74v53h-1l-39 -6v-47h-29z" />
<glyph unicode="vl&#x2a;" horiz-adv-x="5729" d="M2292 1010h-92l-132 -380l-129 380h-94l173 -499h102zM2353 1052v-533h86v539h-11zM2829 511l41 72q-24 4 -42 19q-16 14 -16 39v145q0 67 -44 100q-40 29 -100 29q-74 0 -142 -35l22 -75q19 11 50 19q27 8 52 8q33 0 53 -16q25 -18 25 -58v-18q-36 3 -82 3 q-72 0 -106 -28q-28 -24 -28 -82q0 -52 20 -76q17 -25 49 -36q25 -10 58 -10q30 0 59 11q13 6 45 30q18 -21 44 -33q19 -8 42 -8zM2725 676v-24q0 -41 -27 -58q-17 -12 -44 -12q-25 0 -40.5 13.5t-15.5 36.5q0 32 34 37q22 7 93 7zM3212 511l39 72q-24 4 -42 19 q-16 18 -16 39v145q0 69 -43 100q-41 29 -100 29q-75 0 -143 -35l22 -75q15 9 50 19q27 8 52 8q33 0 55 -16q21 -16 21 -58v-18q-34 3 -79 3q-73 0 -107 -28q-28 -25 -28 -82q0 -51 22 -76q14 -24 47 -36q25 -10 58 -10q32 0 59 11q7 4 46 30q16 -20 43 -33q19 -8 44 -8z M3107 676v-24q0 -40 -28 -58q-16 -12 -43 -12q-25 0 -41 13.5t-16 36.5q0 32 35 37q22 7 93 7zM3303 905v-386h89v286q36 25 84 25q36 0 61 -17q27 -24 27 -64v-230h87v257q0 70 -42 104q-37 33 -98 33q-73 0 -125 -37l-10 29h-73zM4070 519v539h-14l-75 -6v-142 q-19 3 -56 3q-93 0 -149 -52q-58 -60 -58 -164q0 -79 41 -129q44 -57 123 -57q61 0 105 36l16 -28h67zM3981 824v-205q-39 -25 -78 -25q-46 0 -71 38q-23 34 -23 79q0 59 31 93q27 28 81 28q33 0 60 -8zM4451 619h-3q-52 -25 -98 -25q-39 0 -72 21q-32 20 -42 64h235v59 q0 73 -32 117q-24 36 -66 49q-23 9 -58 9q-70 0 -119 -50q-56 -56 -56 -152q0 -94 60 -151q55 -49 140 -49q23 0 55 5q41 11 56 17v86zM4390 749h-156q9 42 33 61q21 20 51 20t47 -20q24 -24 25 -61zM4765 810l28 89q-13 6 -37 12q-14 2 -39 2q-54 0 -100 -37l-10 29h-73 v-386h87v283q40 27 79 27q35 0 65 -19zM5100 619h-4q-48 -25 -98 -25q-40 0 -69 21q-36 20 -45 64h236v59q0 76 -33 117q-26 36 -67 49q-22 9 -55 9q-74 0 -120 -50q-55 -57 -55 -152q0 -94 60 -151q53 -49 140 -49q23 0 53 5q34 8 57 17v86zM5040 749h-156q4 38 31 61 q23 20 52 20q28 0 47 -20q20 -19 26 -61zM5182 905v-386h88v286q39 25 84 25q38 0 63 -17q26 -24 26 -64v-230h86v257q0 72 -40 104q-38 33 -99 33q-72 0 -125 -37l-9 29h-74zM2161 177h-35l-65 -186l-63 186h-34l76 -220h44zM2353 58v30q0 22 -5 42q-10 28 -20 36 q-18 14 -50 14q-47 0 -74 -29q-20 -30 -20 -82q0 -54 28 -89q28 -28 72 -28q32 0 64 16v31q-31 -17 -59 -17q-27 0 -49 20q-21 19 -25 56h138zM2320 88h-105q8 31 21 45q16 18 42 18q22 0 33 -19q9 -14 9 -44zM2412 177v-220h33v164q18 31 45 31q9 0 30 -8l11 28q-5 7 -19 7 q-5 1 -17 1q-31 0 -53 -28l-8 25h-22zM2571 260v-292q35 -16 75 -16q57 0 85 36q26 26 26 81q0 53 -26 78q-25 33 -69 33q-29 0 -58 -19v102h-1zM2604 -10v137q20 24 53 24t52 -24q16 -20 16 -56q0 -40 -22 -64q-22 -25 -55 -25q-17 0 -44 8zM2962 58v30q0 30 -5 42 q-5 21 -21 36q-15 14 -50 14q-48 0 -72 -29q-22 -33 -22 -82q0 -56 31 -89q24 -28 70 -28q31 0 64 16v31h-1q-31 -17 -60 -17q-26 0 -48 20q-22 24 -23 56h137zM2929 88h-103q3 25 19 45q18 18 41 18q21 0 34 -19q9 -16 9 -44zM3161 58v30q0 30 -4 42q-5 21 -21 36 q-15 14 -49 14q-49 0 -72 -29q-23 -32 -23 -82q0 -53 29 -89q27 -28 74 -28q29 0 62 16v31q-32 -17 -59 -17t-50 20q-22 24 -23 56h136zM3131 88h-105q4 28 20 45q18 18 40 18q24 0 35 -19q4 -8 10 -44zM3209 260v-303h33v306h-2zM3478 -43v306h-2l-31 -3v-83q-21 3 -41 3 q-56 0 -83 -33q-29 -26 -29 -76q0 -45 26 -83q29 -36 69 -36q30 0 64 25l5 -20h22zM3445 143v-136q-20 -25 -52 -25q-35 0 -53 28q-14 18 -14 56q0 42 22 64q20 22 55 22q6 0 42 -9zM3546 236q0 -7 5 -14q7 -7 16 -7q13 0 17 7q8 6 8 14q0 11 -8 16q-4 8 -17 8q-8 0 -16 -8 q-5 -5 -5 -16zM3551 177v-220h33v220h-33zM3659 177v-220h33v173q23 13 26 14q29 8 32 8q19 0 34 -12q14 -16 14 -44v-139h33v140q0 47 -24 64q-18 19 -54 19q-20 0 -35 -8q-9 -4 -31 -15l-6 20h-22zM3984 2h-42q-27 0 -27 20q0 11 8 18q14 -8 41 -8q36 0 57 23q24 22 24 53 q0 26 -13 43q28 14 41 15l-8 27q-13 0 -28 -5q-28 -16 -30 -17q-17 9 -42 9q-34 0 -59 -20q-22 -22 -22 -52q0 -20 5 -28q6 -19 14 -25q-17 -22 -17 -39q0 -3 2 -9.5t2 -9.5q1 -3 3.5 -6t6 -6t4.5 -5q-26 -22 -26 -55q0 -26 22 -50q24 -21 59 -21q39 0 77 26q35 27 35 61 q0 29 -21 44q-22 17 -66 17zM3929 -25h25q41 0 60 -6q25 -7 25 -29q0 -24 -21 -40q-23 -17 -54 -17q-24 0 -41 13q-12 12 -12 33q0 23 18 46zM3964 152q21 0 37 -14q13 -12 13 -33q0 -19 -13 -31q-9 -14 -36 -14q-25 0 -37 14q-14 13 -14 33q0 18 14 31q14 14 36 14z M4534 177h-30l-59 -184l-55 184h-29l-55 -184l-58 184h-33l71 -220h40l50 167l49 -167h40zM4729 58v30q0 28 -6 42q-5 24 -22 36q-15 14 -48 14q-49 0 -72 -29q-24 -31 -24 -82q0 -54 32 -89q25 -28 72 -28q29 0 62 16v31q-31 -17 -59 -17q-27 0 -50 20q-21 21 -24 56h139z M4696 88h-104q5 30 20 45q18 18 39 18q27 0 36 -19q9 -20 9 -44zM4787 177v-220h33v164q18 31 45 31q7 0 31 -8l11 28q-11 7 -18 7q-7 1 -18 1q-29 0 -54 -28l-8 25h-22zM5101 -48l14 28q-10 4 -39 27q-15 12 -36 37q-19 19 -20 27l91 106h-43l-87 -105v191h-2l-31 -5v-301 h33v112q0 -3 6 -9l2 -4t3 -4.5t3 -4.5q5 -8 31 -40q25 -27 39 -38q20 -14 36 -17zM5131 177v-31h22v-108q0 -42 20 -67q19 -19 48 -19q24 0 57 14l-10 31q-23 -15 -40 -15q-19 0 -30 14q-9 12 -9 42v108h59v31h-59v45h-5l-31 -6v-39h-22zM1953 -660l11 4l-763 2242l-11 -4z M1195 468v-388q-11 0 -61 9.5t-91 6.5q-85 -4 -123 -99q-7 -17 -13.5 -49.5t-5.5 -36.5q3 -8 43 -29t112 -42t139 -21v-120q-52 0 -108 25t-96.5 60.5t-69 69t-35.5 53.5q-11 28 -11 70q-1 20 -5 62t-6 60q-1 36 -19.5 78t-46.5 87.5t-36 64.5q-3 8 -15 41.5t-18 45.5 q-10 27 -23 87t-23.5 115.5t-11.5 57.5q-37 184 -64 299t-35 138l-8 23q3 1 9.5 -1.5t30.5 -41t53 -113.5q29 -76 49 -156q12 -57 39 -159q6 -26 17 -81t17 -82q10 -41 52 -116.5t51 -122.5q14 -63 72 -102q49 -31 119 1t83 84q3 27 1 37q-6 57 -54 80q-2 1 -11.5 5.5 t-23.5 11.5t-25 13q-15 10 -32 32.5t-24 46.5t14 36q13 6 39.5 -15.5t40.5 -21.5q10 -2 24 3t25.5 9.5t29 1.5t35.5 -17zM545 905q38 -123 -25 -214q-105 -154 -120 -270q-7 -44 -2 -145q1 -30 2.5 -61t-7 -64.5t-29.5 -51.5q-11 -7 -13 -5.5t0 11.5t2.5 18.5t0 25t-6 37 t-15.5 43.5q-12 30 -18.5 50.5t-12.5 51t-5.5 64.5t7.5 73q14 66 53 143q16 28 65 87.5t85.5 113.5t38.5 93zM575 649l8.5 -8.5t17 -31t17 -58.5t2.5 -94t-20 -135q-22 -87 -16 -161t25.5 -122.5t49.5 -80.5q40 -44 65.5 -81.5t34 -59.5t11 -37.5t0.5 -21.5l-3 -6 q-16 21 -49.5 45.5t-66 47.5t-68.5 54.5t-59.5 75t-37 100t-4 138t43.5 180.5q28 83 40.5 147t10.5 86zM261 966q40 76 120 128q31 19 48.5 45t20.5 50t2 45.5t-6 34.5l-4 13q-3 -15 -16 -31t-25 -25l-12 -8q-2 -1 -18 -11t-27 -17.5t-28.5 -23.5t-29 -32t-21 -40.5 t-11.5 -50.5q-2 -42 7 -77zM520 1076q-7 15 -19 23t-20 8h-8l4 -10q4 -54 -165 -198q-4 -4 -9 -8q-44 -36 -69 -71t-30.5 -62.5t-1.5 -51.5t16.5 -41t24.5 -29.5t22 -18.5l10 -6q-2 4 -4.5 12t-2.5 33t9 52t39 68t79 81q172 143 125 219zM746 1019q86 21 138.5 9t81 -37 t38 -61.5t8 -65t-8.5 -48.5q-18 -6 -26.5 16t9.5 31q-7 14 -24 19.5t-47 9.5t-47 9q-24 7 -44 26.5t-31.5 39t-24 35.5t-22.5 17zM842 977q-11 -35 26 -53q34 -17 61 -1q22 14 17 46q-6 1 -15.5 -2.5t-18 -6.5t-17 -5t-13.5 1t-6 13q0 13 18.5 13.5t20.5 2.5t3.5 11t-1.5 11 q-15 5 -31 1q-7 -2 -12 -6t-11 -11t-7 -8q-4 -3 -8 -3t-6 -3z" />
<glyph unicode="vll&#x2a;" horiz-adv-x="1595" d="M1295 483v-388q-10 0 -60.5 9.5t-91.5 6.5q-87 -4 -123 -99q-5 -11 -10 -32t-7 -36.5t-1 -17.5q3 -7 42.5 -28t111.5 -42.5t139 -21.5v-121q-68 0 -140.5 43t-115 90t-53.5 76q-11 28 -11 71q-1 19 -5 60.5t-6 61.5q-2 36 -20.5 77.5t-46 87t-35.5 63.5q-4 11 -16 44.5 t-17 44.5q-10 26 -23 86t-24 115.5t-11 57.5q-37 184 -64 299t-35 138l-9 24q3 1 9.5 -1.5t31 -41.5t53.5 -114q28 -71 49 -156q7 -35 39 -159q7 -29 18 -83.5t16 -78.5q10 -41 52 -117t51 -122q13 -62 72 -102q49 -32 119 0t83 84q4 18 2 37q-9 58 -55 80l-23 11 q-22 11 -36 19q-15 10 -32 32.5t-24.5 47t13.5 35.5q12 6 39 -15.5t40 -22.5q10 -1 24.5 4t25.5 9.5t28.5 1.5t36.5 -17zM645 921q41 -122 -25 -214q-105 -156 -121 -272q-6 -42 -1 -144q1 -30 2.5 -61t-7.5 -64.5t-30 -50.5q-10 -7 -12 -5.5t0 10.5q1 9 2 14.5t1 18.5 t-1.5 25t-6.5 30t-13 36q-12 29 -18.5 50t-13 51.5t-6 65t7.5 72.5q12 68 53 144q16 28 65 87t85.5 113t38.5 94zM674 664l8.5 -8.5t17 -30.5t17 -58t3 -94t-19.5 -135q-22 -88 -15.5 -161.5t26 -122t48.5 -80.5q40 -44 65.5 -81.5t34 -60t11 -38t0.5 -21.5l-3 -6 q-15 19 -43 40.5t-56.5 40t-60 45.5t-57.5 56.5t-44.5 74t-25 97t4 126.5t40.5 161q28 83 40.5 147t10.5 87zM361 981q38 75 119 129q31 19 48.5 45t20.5 50t2 45.5t-5 34.5l-5 13q-2 -15 -15 -31.5t-25 -25.5l-12 -9q-1 -1 -15 -8.5t-22.5 -13.5t-24 -17.5t-26 -24.5 t-22 -29t-18 -37t-7.5 -44q-3 -36 7 -77zM620 1090q-7 16 -18.5 24t-19.5 8l-8 1l4 -10q3 -55 -166 -199q-4 -4 -9 -8q-44 -36 -69 -71t-30.5 -62t-1.5 -51.5t16.5 -41.5t24.5 -29.5t22 -18.5l10 -6q-2 4 -4.5 12t-2.5 33.5t9 52.5t39 68t78 81q171 140 126 217zM847 1034 q71 14 120 11.5t78 -22.5t44.5 -45t19.5 -55t2 -53t-8 -39q-18 -5 -27 16.5t9 30.5q-6 14 -22.5 20t-47 9t-47.5 8q-24 7 -44.5 27t-31.5 39.5t-23 35.5t-22 17zM942 993q-11 -36 27 -54q34 -17 61 0q22 13 17 45q-6 1 -16 -2.5t-18.5 -6.5t-16.5 -5t-13 1t-6 13q0 13 18 14 t20 3q3 3 4 11t-3 10q-13 6 -30 2q-9 -4 -20 -14l-11 -11q-3 -3 -7.5 -3t-5.5 -3z" />
<glyph unicode="&#xd;" horiz-adv-x="0" />
<glyph unicode=" "  horiz-adv-x="600" />
<glyph unicode="&#x09;" horiz-adv-x="600" />
<glyph unicode="&#xa0;" horiz-adv-x="600" />
<glyph unicode="!" horiz-adv-x="467" d="M180 406h112q2 20 8 108q7 138 12 358q1 35 2.5 103.5t1.5 102.5q3 135 3 350h-164q0 -147 3 -350q4 -285 8 -401q5 -210 14 -271zM120 92q0 -47 34 -79q33 -33 79 -33t81 33q33 33 33 79t-33 79q-35 33 -81 33t-79 -33q-34 -32 -34 -79z" />
<glyph unicode="&#x22;" horiz-adv-x="718" d="M80 1099l42 -54q70 39 126 115q63 85 63 165q0 62 -39 96q-34 27 -76 27q-46 0 -79 -33t-33 -79q45 -62 45 -107q0 -46 -49 -130zM407 1099l43 -54q70 39 126 115q62 86 62 165q0 62 -39 96q-33 27 -75 27q-46 0 -79 -33t-33 -79q44 -61 44 -107q0 -49 -49 -130z" />
<glyph unicode="#" horiz-adv-x="1153" d="M1060 791l53 144l-5 6h-152l62 232l-139 51l-6 -3l-75 -280h-276l62 232l-139 51l-6 -3l-75 -280h-230l-53 -144l6 -6h237l-70 -261h-161l-53 -144l6 -6h168l-66 -249l141 -52l4 2l79 299h276l-66 -249l141 -52l4 2l79 299h213l53 144l-5 6h-221l70 261h144zM688 530 h-276l70 261h276z" />
<glyph unicode="$" horiz-adv-x="919" d="M90 178v-140q119 -58 269 -58h11q8 0 12 1v-130h154v154q130 39 208 128q85 100 85 242q0 100 -47 171q-32 47 -118 104q-60 39 -207 112q-126 63 -162 95q-57 51 -57 138q0 111 83 161q67 40 184 40q94 0 229 -27l3 2v132q-98 30 -201 34v111h-154v-122 q-130 -26 -201 -104q-84 -90 -84 -239q0 -169 104 -252q36 -29 175 -100q153 -78 193 -103q59 -37 87.5 -80.5t28.5 -106.5q0 -115 -93 -170q-80 -47 -209 -47q-75 0 -160 17q-83 17 -130 38z" />
<glyph unicode="%" horiz-adv-x="1638" d="M80 1000q0 -140 89 -234q91 -98 235 -98q146 0 239 98q91 96 91 239q0 139 -88 235q-93 98 -236 98t-238 -98q-92 -97 -92 -240zM220 1001q0 80 53 138q51 56 136 56q83 0 134 -56t51 -134q0 -80 -52 -137t-137 -57q-83 0 -134 56t-51 134zM1078 1165l-646 -924l126 -88 l646 924zM904 312q0 -140 89 -234q91 -98 235 -98q146 0 239 98q91 96 91 239q0 139 -88 235q-93 98 -236 98t-238 -98q-92 -97 -92 -240zM1044 313q0 80 53 138q51 56 136 56q83 0 134 -56t51 -134q0 -80 -52 -137t-137 -57q-83 0 -134 56t-51 134z" />
<glyph unicode="&#x26;" horiz-adv-x="1252" d="M986 730h-8q-37 -211 -104 -344l-322 323q130 62 189 120q91 88 91 222q0 138 -93 218q-84 69 -218 69q-148 0 -237 -89q-88 -86 -88 -233q0 -168 118 -291q-121 -73 -177.5 -158.5t-56.5 -201.5q0 -177 120 -283q116 -102 302 -102q236 0 392 170l171 -170l107 109 l-186 186q93 159 134 401zM350 1029q0 77 44 121t131 44q72 0 110 -31q45 -37 45 -115q0 -97 -70 -160q-44 -41 -135 -80q-2 0 -4.5 -1t-3.5 -2q-2 0 -4 -1.5t-4 -2.5q-48 46 -75 98q-34 62 -34 130zM409 635l379 -379q-117 -132 -289 -132q-125 0 -196 66q-69 64 -69 172 q0 92 54 166q42 58 121 107z" />
<glyph unicode="'" horiz-adv-x="391" d="M80 1099l42 -54q70 39 126 115q63 85 63 165q0 62 -39 96q-34 27 -76 27q-46 0 -79 -33t-33 -79q45 -62 45 -107q0 -46 -49 -130z" />
<glyph unicode="(" horiz-adv-x="570" d="M336 -20l114 101q-161 275 -161 605q0 333 161 664l-111 98h-4q-215 -376 -215 -768q0 -384 212 -700h4z" />
<glyph unicode=")" horiz-adv-x="570" d="M234 -20h4q212 316 212 700q0 392 -215 768h-4l-111 -98q161 -331 161 -664q0 -330 -161 -605z" />
<glyph unicode="*" horiz-adv-x="909" d="M613 166l134 94q-84 122 -194 238q151 -23 306 -23v164q-145 0 -309 -25q110 115 197 240l-134 94q-83 -117 -158 -269q-70 141 -159 269l-134 -94q84 -121 199 -241q-165 26 -311 26v-164q158 0 309 23q-117 -122 -197 -238l134 -94q83 118 159 268q74 -148 158 -268z M455 446l-84 59v104l82 59l85 -58l2 -104z" />
<glyph unicode="+" horiz-adv-x="1030" d="M592 592v318h-154v-318h-318v-154h318v-318h154v318h318v154h-318z" />
<glyph unicode="," horiz-adv-x="392" d="M80 -145l43 -54q70 39 126 115q63 85 63 165q0 62 -39 96q-34 27 -76 27q-46 0 -79 -33t-33 -79q45 -62 45 -107q0 -47 -50 -130z" />
<glyph unicode="-" horiz-adv-x="600" d="M550 618h-500v-144h500v144z" />
<glyph unicode="." horiz-adv-x="387" d="M80 92q0 -47 34 -79q33 -33 79 -33t81 33q33 33 33 79t-33 79q-35 33 -81 33t-79 -33q-34 -32 -34 -79z" />
<glyph unicode="/" horiz-adv-x="971" d="M852 1395l-144 53l-588 -1616l144 -53z" />
<glyph unicode="0" horiz-adv-x="1112" d="M1032 646q0 338 -135 521q-126 171 -345 171q-217 0 -342 -170q-130 -177 -130 -505q0 -172 41 -313q48 -166 147 -261q114 -109 284 -109q219 0 343 161q133 172 137 505zM877 665q0 -297 -84 -425q-76 -116 -240 -116q-160 0 -239 133t-79 405q0 269 79 400.5 t239 131.5q159 0 240 -121q84 -128 84 -408z" />
<glyph unicode="1" horiz-adv-x="618" d="M40 1224v-145q135 0 264 46v-1125h154v1318h-113q-76 -49 -132 -68q-73 -26 -173 -26z" />
<glyph unicode="2" horiz-adv-x="1008" d="M30 0h898v144h-674q309 228 454 408q169 210 169 413q0 181 -116 281q-109 92 -273 92q-96 0 -198 -29q-112 -32 -181 -77l42 -115l9 -7q62 37 138 60q77 23 152 23q127 0 206 -65q80 -66 80 -179q0 -86 -52 -183q-65 -118 -210 -262q-173 -169 -444 -360v-144z" />
<glyph unicode="3" horiz-adv-x="973" d="M224 757v-140h132q166 0 270 -55q124 -65 124 -186q0 -109 -92 -182q-91 -72 -226 -72q-80 0 -178 27q-98 25 -169 69l-8 -7l-32 -120q80 -53 204 -83q115 -28 204 -28q104 0 203 37q110 41 174 122q74 92 74 225q0 132 -69 220q-62 78 -173 118q75 48 118 120 q48 80 48 186q0 121 -64 201q-57 68 -149 101q-80 28 -167 28q-80 0 -175 -26q-100 -27 -181 -78l32 -115l8 -7q144 85 293 85q106 0 176 -49q74 -53 74 -150q0 -119 -101 -186q-83 -55 -194 -55h-156z" />
<glyph unicode="4" horiz-adv-x="970" d="M789 1318h-176l-593 -875v-143h615v-300h154v300h152v143h-152v875zM635 1077v-634h-432z" />
<glyph unicode="5" horiz-adv-x="973" d="M202 1318v-27l-69 -625h140q249 0 358 -53q118 -58 118 -194q0 -129 -79 -211q-84 -86 -217 -86q-76 0 -171 26q-106 27 -172 70l-8 -7l-32 -120q82 -54 195 -83q110 -28 208 -28q171 0 291 103q140 120 140 332q0 172 -100 266q-82 77 -238 106q-107 20 -276 20l40 369 h517v142h-645z" />
<glyph unicode="6" horiz-adv-x="968" d="M834 1194v144q-260 0 -441 -137q-157 -119 -240 -333q-73 -188 -73 -411q0 -208 95 -335q103 -142 302 -142q146 0 246 79q85 66 129 177q37 94 37 188q0 158 -106 269q-109 114 -265 114q-141 0 -260 -93q30 124 87 217q73 120 181 185q128 78 308 78zM497 662 q96 0 164 -66q74 -74 74 -191q0 -113 -57 -190q-66 -90 -178 -90q-114 0 -189 84q-83 91 -83 249q0 57 5 104q155 100 264 100z" />
<glyph unicode="7" horiz-adv-x="838" d="M818 1318h-768v-144h555l-473 -1174h154z" />
<glyph unicode="8" horiz-adv-x="988" d="M870 1001q0 159 -117 253q-106 84 -259 84q-156 0 -260 -86q-115 -95 -115 -251q0 -107 60 -188q50 -68 153 -125q-118 -53 -183 -121q-89 -96 -89 -228q0 -169 135 -269q121 -90 299 -90q177 0 299 89q136 100 136 270q0 130 -84 222q-65 70 -188 127q104 59 154 126 q59 80 59 187zM715 1001q0 -84 -62 -146q-51 -50 -159 -97q-105 47 -156 96q-64 62 -64 148q0 92 69 146q61 46 151 46t151 -46q70 -55 70 -147zM214 333q0 96 86 165q49 39 194 110q143 -68 193 -109q88 -71 88 -163q0 -99 -88 -158q-79 -54 -193 -54q-115 0 -193 54 q-87 59 -87 155z" />
<glyph unicode="9" horiz-adv-x="968" d="M135 124v-144q260 0 441 137q157 119 240 333q73 188 73 411q0 207 -94 336q-105 141 -303 141q-145 0 -246 -78q-84 -66 -128 -177q-38 -96 -38 -189q0 -157 106 -268q110 -115 265 -115q142 0 260 92q-30 -122 -87 -216q-71 -119 -181 -185q-130 -78 -308 -78zM472 656 q-97 0 -164 67q-74 72 -74 190q0 113 57 190q66 90 178 90q115 0 190 -83q82 -92 82 -250q0 -48 -5 -104q-151 -100 -264 -100z" />
<glyph unicode=":" horiz-adv-x="387" d="M80 946q0 -47 34 -79q33 -33 79 -33t81 33q33 33 33 79t-33 79q-35 33 -81 33t-79 -33q-34 -32 -34 -79zM80 92q0 -47 34 -79q33 -33 79 -33t81 33q33 33 33 79t-33 79q-35 33 -81 33t-79 -33q-34 -32 -34 -79z" />
<glyph unicode=";" horiz-adv-x="392" d="M84 946q0 -47 34 -79q33 -33 79 -33t81 33q33 33 33 79t-33 79q-35 33 -81 33t-79 -33q-34 -32 -34 -79zM80 -145l43 -54q70 39 126 115q63 85 63 165q0 62 -39 96q-34 27 -76 27q-46 0 -79 -33t-33 -79q45 -62 45 -107q0 -47 -50 -130z" />
<glyph unicode="&#x3c;" horiz-adv-x="918" d="M798 806l-88 125l-590 -413l590 -413l88 125l-411 288z" />
<glyph unicode="=" horiz-adv-x="1030" d="M120 592h790v154h-790v-154zM120 284h790v154h-790v-154z" />
<glyph unicode="&#x3e;" horiz-adv-x="918" d="M120 230l88 -125l590 413l-590 413l-88 -125l411 -288z" />
<glyph unicode="?" horiz-adv-x="975" d="M162 1191h9q36 50 116 80q79 30 166 30q120 0 188 -57q65 -54 65 -146q0 -47 -16 -82q-29 -64 -106 -131q-46 -42 -71 -67q-90 -90 -133 -181q-60 -128 -60 -303h154q0 88 17 158q30 125 104 212q16 19 35.5 39.5t33.5 34t37.5 36t33.5 32.5q31 28 61 70q60 85 60 191 q0 165 -123 259q-107 82 -268 82q-104 0 -202 -39q-93 -39 -143 -103zM285 92q0 -47 34 -79q33 -33 79 -33t81 33q33 33 33 79t-33 79q-35 33 -81 33t-79 -33q-34 -32 -34 -79z" />
<glyph unicode="@" horiz-adv-x="1422" d="M1234 190l88 145q-88 27 -120 105q-23 54 -23 157v263q0 192 -102 270q-93 71 -303 71q-182 0 -333 -69q-166 -76 -257 -216q-104 -158 -104 -381q0 -301 176 -493q179 -195 481 -195q124 0 229 34q120 37 200 113l-104 94q-105 -97 -325 -97q-232 0 -369 158 q-134 154 -134 395q0 245 146 382q141 132 391 132q131 0 189 -42q65 -47 65 -156v-62q-138 12 -209 12q-206 0 -304 -78q-92 -73 -92 -223q0 -173 117 -256q88 -63 220 -63q99 0 185 42q78 38 135 103q54 -111 157 -145zM1025 667v-84q0 -102 -49 -162q-41 -50 -107 -71 q-47 -16 -102 -16q-85 0 -138 44q-56 46 -56 132q0 100 91 133q67 25 258 25h50q17 -1 53 -1z" />
<glyph unicode="A" horiz-adv-x="1164" d="M291 307h582l106 -307h160l-454 1318h-207l-453 -1318h160zM824 451h-484l242 701z" />
<glyph unicode="B" horiz-adv-x="1106" d="M160 1318v-1318h226q209 0 330 21q156 27 238 106q92 87 92 257q0 117 -49 192.5t-152 117.5q118 83 118 273q0 194 -146 275q-137 76 -457 76h-200zM315 751v423h65q235 0 318 -34q56 -23 83.5 -67.5t27.5 -120.5q0 -72 -26.5 -113t-82.5 -61q-50 -18 -123 -22.5 t-205 -4.5h-57zM315 146v459h148q227 0 318 -41q110 -50 110 -194q0 -76 -29 -121t-89 -68q-93 -35 -357 -35h-101z" />
<glyph unicode="C" horiz-adv-x="1081" d="M1041 163l-7 4q-63 -20 -150 -32q-73 -10 -139 -10q-249 0 -384 151q-127 142 -127 384q0 245 128 385q134 148 383 148q66 0 139 -10q87 -12 150 -32l7 4v142q-64 18 -150 30q-83 11 -154 11q-318 0 -491 -189q-160 -174 -166 -469q0 -317 164 -504q171 -196 493 -196 q81 0 154 11q86 12 150 30v142z" />
<glyph unicode="D" horiz-adv-x="1298" d="M160 1318v-1318h389q142 0 265 49t214 138q91 88 140.5 209.5t49.5 263.5q0 141 -52 262t-146 211q-93 88 -219 136.5t-268 48.5h-373zM315 144v1030h218q108 0 204.5 -38.5t169.5 -108.5q156 -151 156 -383q0 -223 -137 -360q-142 -140 -377 -140h-234z" />
<glyph unicode="E" horiz-adv-x="1004" d="M954 1318h-794v-1318h794v144h-639v443h639v144h-639v443h639v144z" />
<glyph unicode="F" horiz-adv-x="1016" d="M966 1318h-806v-1318h155v582h651v154h-651v438h651v144z" />
<glyph unicode="G" horiz-adv-x="1268" d="M1069 -2h59v726h-436v-155h285v-331q-38 -43 -89 -70q-82 -44 -185 -44q-202 0 -336 161q-132 156 -132 391q0 227 127 366q136 151 383 151q66 0 140 -10q86 -12 149 -32l8 4v142q-64 19 -151 30q-83 11 -158 11q-319 0 -493 -197q-160 -181 -160 -474 q0 -146 43.5 -272.5t123.5 -218.5q170 -196 439 -196q163 0 291 89z" />
<glyph unicode="H" horiz-adv-x="1273" d="M315 582h643v-582h155v1318h-155v-582h-643v582h-155v-1318h155v582z" />
<glyph unicode="I" horiz-adv-x="474" d="M314 0v1318h-154v-1318h154z" />
<glyph unicode="J" horiz-adv-x="731" d="M167 123v-143q183 0 272 122q75 103 75 282v934h-155v-934q0 -132 -54 -201q-47 -60 -133 -60h-5z" />
<glyph unicode="K" horiz-adv-x="1101" d="M522 670l-2 -1q80 -136 259 -305.5t288 -229.5q-57 -98 -89 -134q-2 0 -6 2q-101 47 -244 177t-259 272t-154 231v-682h-155v1318h155v-618l519 618h190v-9l-518 -615l8 -14z" />
<glyph unicode="L" horiz-adv-x="974" d="M305 1318h-155v-1318h774v144h-619v1174z" />
<glyph unicode="M" horiz-adv-x="1413" d="M1052 1318l-337 -664h-4l-337 664h-209v-1318h150v1112l380 -732h36l372 723v-1103h160v1318h-211z" />
<glyph unicode="N" horiz-adv-x="1263" d="M315 0v1028l643 -1028h155v1318h-155v-1019l-637 1019h-161v-1318h155z" />
<glyph unicode="O" horiz-adv-x="1383" d="M80 660q0 -143 43.5 -267.5t123.5 -216.5q81 -94 193 -145t247 -51q134 0 248 51.5t197 145.5q82 93 126.5 217t44.5 266q0 293 -165 483q-81 93 -193 144t-247 51t-249 -51t-197 -144q-172 -193 -172 -483zM234 672q0 231 122 373q127 149 338 149q215 0 338 -156 q117 -149 117 -390q0 -232 -117 -375q-122 -149 -333 -149q-216 0 -344 159q-121 150 -121 389z" />
<glyph unicode="P" horiz-adv-x="1130" d="M160 1318v-1318h155v424h95q188 0 330 42q151 45 238 146q92 106 92 278q0 223 -164 328q-160 100 -487 100h-259zM315 570v602h124q224 0 338 -63q138 -76 138 -243q0 -162 -129 -233q-115 -63 -347 -63h-124z" />
<glyph unicode="Q" horiz-adv-x="1383" d="M1092 -282l70 129q-57 19 -122 63q-73 48 -122 114q175 72 281 243q104 171 104 393q0 293 -165 483q-81 93 -193 144t-247 51t-249 -51t-197 -144q-172 -193 -172 -483q0 -143 43.5 -267.5t123.5 -216.5q81 -94 193 -145t247 -51q33 0 78 5q50 -99 153 -181 q94 -75 174 -86zM232 672q0 230 123 373q127 149 339 149q216 0 339 -156q118 -150 118 -390q0 -232 -118 -375q-123 -149 -334 -149q-215 0 -345 159q-122 149 -122 389z" />
<glyph unicode="R" horiz-adv-x="1233" d="M160 1318v-1318h155v431h96q172 0 287 23q40 -83 100 -179q70 -112 143 -189q84 -91 157 -106l85 126q-60 23 -134 99q-63 61 -122 151q-54 80 -80 146q109 50 164 141q59 95 59 244q0 225 -129 326q-136 105 -458 105h-323zM315 576v597h158q219 0 324 -59 q121 -70 121 -240q0 -163 -127 -234q-114 -64 -343 -64h-133z" />
<glyph unicode="S" horiz-adv-x="919" d="M93 179l-3 -1v-140q119 -58 269 -58q129 0 233.5 43t170.5 134.5t66 217.5q0 54 -9.5 93t-33.5 71.5t-49.5 55t-72.5 55.5q-47 34 -191 108t-178 104q-57 51 -57 133q0 201 267 201q94 0 229 -27l3 2v132q-120 35 -232 35q-89 0 -162 -21t-128.5 -63t-86.5 -111t-31 -160 q0 -169 104 -252q31 -26 189 -108t179 -95q59 -37 87.5 -80.5t28.5 -106.5q0 -58 -25.5 -101.5t-69 -68t-95.5 -36t-112 -11.5q-70 0 -154 15.5t-136 39.5z" />
<glyph unicode="T" horiz-adv-x="1060" d="M1015 1318h-970v-144h408v-1174h154v1174h408v144z" />
<glyph unicode="U" horiz-adv-x="1403" d="M1190 1318h-154v-778q0 -182 -49 -280q-42 -85 -124 -115q-59 -23 -167 -23q-103 0 -157 21q-84 32 -125 114q-51 97 -51 283v778h-154v-828q0 -211 77 -333q66 -104 186 -145q92 -32 225 -32q135 0 228 32q121 41 187 146q78 122 78 332v828z" />
<glyph unicode="V" horiz-adv-x="1164" d="M185 1318h-160l453 -1318h207l454 1318h-160l-397 -1153z" />
<glyph unicode="W" horiz-adv-x="1716" d="M559 0l299 1045l299 -1045h156l378 1318h-157l-299 -1046l-299 1046h-156l-300 -1046l-298 1046h-157l378 -1318h156z" />
<glyph unicode="X" horiz-adv-x="1138" d="M881 1318l-312 -481l-312 481h-180l402 -619l-454 -699h180l364 560l364 -560h180l-454 699l402 619h-180z" />
<glyph unicode="Y" horiz-adv-x="1010" d="M831 1318l-326 -668l-326 668h-154l403 -826v-492h154v492l403 826h-154z" />
<glyph unicode="Z" horiz-adv-x="950" d="M658 1174l-593 -1169l4 -5h816v144h-597l596 1169l-4 5h-793v-144h571z" />
<glyph unicode="[" horiz-adv-x="580" d="M460 1448h-340v-1448h340v144h-186v1160h186v144z" />
<glyph unicode="\" horiz-adv-x="971" d="M708 -221l144 53l-588 1616l-144 -53z" />
<glyph unicode="]" horiz-adv-x="580" d="M120 0h340v1448h-340v-144h186v-1160h-186v-144z" />
<glyph unicode="_" horiz-adv-x="800" d="M800 144h-800v-144h800v144z" />
<glyph unicode="`" horiz-adv-x="667" d="M182 1558q-33 -18 -57.5 -51.5t-30.5 -73.5q36 -55 168 -132q151 -88 269 -111q11 10 25 48q12 33 17 67q-122 54 -248 142q-72 50 -143 111z" />
<glyph unicode="a" horiz-adv-x="1022" d="M894 -20l88 145q-45 14 -74.5 39t-44 61.5t-19.5 73.5t-5 88v330q0 341 -323 341q-112 0 -188 -17.5t-191 -64.5l40 -135q147 74 312 74q99 0 147.5 -47t48.5 -151v-129q-138 12 -209 12q-194 0 -295 -70.5t-101 -229.5q0 -174 117 -257q88 -63 220 -63q194 0 320 145 q54 -111 157 -145zM685 457v-84q0 -67 -21.5 -116.5t-60.5 -78t-88 -41.5t-110 -13q-68 0 -120 48.5t-52 127.5q0 59 29.5 92t89.5 49q36 9 88.5 13t111.5 3.5t133 -0.5z" />
<glyph unicode="b" horiz-adv-x="1110" d="M305 1448l-145 -20v-1374q178 -74 347 -74q247 0 385 150t138 395q0 147 -52 267t-155.5 193t-240.5 73q-148 0 -267 -91v481h-10zM315 154v647q79 113 246 113q156 0 235 -103.5t79 -271.5q0 -187 -96 -302t-261 -115q-122 0 -203 32z" />
<glyph unicode="c" horiz-adv-x="914" d="M859 190l-7 5q-139 -71 -274 -71q-150 0 -243 99q-102 108 -102 309q0 197 102 296q90 86 243 86q134 0 274 -71l7 5v136q-149 74 -297 74q-211 0 -338 -123q-144 -139 -144 -409q0 -272 148 -418q129 -128 334 -128q148 0 297 74v136z" />
<glyph unicode="d" horiz-adv-x="1110" d="M852 -1h98v1449h-10l-145 -20v-391q-107 21 -192 21q-257 0 -395 -152q-128 -141 -128 -372q0 -234 122 -390q127 -164 326 -164q163 0 292 111zM795 875v-638q-81 -113 -246 -113q-155 0 -240 121q-74 106 -74 276q0 192 101 296q94 99 256 99q97 0 203 -41z" />
<glyph unicode="e" horiz-adv-x="956" d="M881 480v140q0 74 -11 137.5t-37.5 120t-66.5 95.5t-101 62t-139 23q-112 0 -198.5 -39.5t-140 -111t-80.5 -166t-27 -209.5q0 -255 128.5 -403.5t353.5 -148.5q147 0 298 74v143l-3 1q-146 -74 -280 -74q-148 0 -240 96.5t-103 259.5h647zM729 620h-488 q20 131 92.5 212.5t189.5 81.5q59 0 100 -22.5t63.5 -64.5t32 -92t10.5 -115z" />
<glyph unicode="f" horiz-adv-x="646" d="M213 1038h-168v-143h168v-895h155v895h235v143h-235v4q0 141 48 207q42 56 125 56q74 0 183 -37l42 136q-139 44 -243 44q-145 0 -222 -88q-88 -101 -88 -318v-4z" />
<glyph unicode="g" horiz-adv-x="1034" d="M569 217h-196q-60 0 -94 26t-34 67t35 85q92 -45 192 -45q167 0 279 109q108 106 108 257q0 107 -60 193q92 58 195 75l-46 131q-56 0 -125 -27q-75 -29 -140 -78q-87 48 -201 48q-168 0 -277 -99q-107 -98 -107 -247q0 -66 22 -134q22 -70 64 -113q-75 -93 -75 -181 q0 -44 22 -93q23 -51 63 -74q-59 -59 -91.5 -129.5t-32.5 -134.5q0 -142 103 -234q107 -97 281 -97q96 0 192 31t172 86q79 56 124.5 130t45.5 156q0 124 -102 205q-111 87 -317 87zM478 920q109 0 176 -70q59 -64 59 -149q0 -86 -58 -145q-66 -69 -174 -69q-111 0 -178 69 q-61 63 -61 147q0 85 60 147q68 70 176 70zM314 84h117q199 0 282 -26q117 -39 117 -143q0 -100 -99 -175q-108 -83 -257 -83q-131 0 -195 59q-57 53 -57 151q0 112 92 217z" />
<glyph unicode="h" d="M305 1448l-145 -20v-1428h155v815q78 47 130 69q77 31 144 31q104 0 161 -54q66 -66 66 -205v-656h155v664q0 206 -109 307q-95 87 -258 87q-61 0 -147 -32q-70 -26 -142 -70v492h-10z" />
<glyph unicode="i" horiz-adv-x="535" d="M160 1321q0 -42 32.5 -74t74.5 -32q44 0 76 31.5t32 74.5q0 45 -31.5 76t-76.5 31t-76 -31t-31 -76zM344 1038h-154v-1038h154v1038z" />
<glyph unicode="j" horiz-adv-x="530" d="M165 1321q0 -44 32 -74q30 -32 75 -32q44 0 76 32q32 30 32 74t-32 76q-33 31 -76 31q-44 0 -75 -31q-32 -32 -32 -76zM349 1038h-155v-1112q0 -132 -54 -201q-47 -60 -133 -60q-88 0 -195 62l-42 -142q139 -63 256 -63q145 0 229 93q94 102 94 311v1112z" />
<glyph unicode="k" horiz-adv-x="975" d="M882 -20l64 137q-76 23 -183 115q-90 78 -174 177q-78 91 -86 127l422 502h-198l-412 -492v902h-10l-145 -27v-1421h155v527q3 -8 21 -37q15 -26 45 -67q62 -88 146 -183q94 -109 181 -176q101 -80 174 -84z" />
<glyph unicode="l" horiz-adv-x="474" d="M314 1448h-10l-144 -20v-1428h154v1448z" />
<glyph unicode="m" horiz-adv-x="1648" d="M752 0h154v665q0 96 -24 173q139 77 234 77q105 0 161 -55q66 -66 66 -205v-656h155v665q0 206 -109 307q-95 87 -258 87q-63 0 -156 -36q-73 -29 -149 -76q-88 112 -237 112q-67 0 -134 -27q-71 -29 -162 -88l-35 95h-98v-1038h155v817q128 98 246 98q89 0 137 -57 q54 -65 54 -202v-656z" />
<glyph unicode="n" d="M264 1038h-104v-1038h155v815q79 47 130 68q79 32 144 32q105 0 161 -55q66 -66 66 -205v-655h155v664q0 206 -109 307q-95 87 -258 87q-68 0 -161 -37q-74 -30 -150 -79z" />
<glyph unicode="o" horiz-adv-x="1112" d="M80 516q0 -226 130 -378q134 -158 342 -158q210 0 347 158q133 155 133 383q0 226 -129 379q-63 75 -151 116.5t-192 41.5t-192.5 -41.5t-152.5 -116.5q-135 -156 -135 -384zM235 524q0 170 83 278q86 112 238 112q155 0 241 -118q80 -110 80 -283q0 -174 -80 -278 q-85 -111 -236 -111q-154 0 -244 119q-82 107 -82 281z" />
<glyph unicode="p" horiz-adv-x="1110" d="M264 1038h-104v-1496h155v459q97 -21 192 -21q256 0 396 163q127 148 127 383q0 230 -122 380q-125 152 -326 152q-162 0 -290 -110zM315 162v640q78 112 246 112q157 0 240 -111q74 -99 74 -264q0 -193 -100 -306q-99 -111 -257 -111q-106 0 -203 40z" />
<glyph unicode="q" horiz-adv-x="1110" d="M795 -458h155v1442q-178 74 -347 74q-257 0 -395 -151q-128 -140 -128 -372q0 -233 122 -391q127 -164 326 -164q150 0 267 91v-529zM795 884v-648q-82 -113 -246 -113q-155 0 -240 123q-74 107 -74 275q0 192 101 296q94 99 256 99q115 0 203 -32z" />
<glyph unicode="r" horiz-adv-x="752" d="M264 1038h-104v-1038h155v776q91 139 215 139q77 0 143 -32l54 139q-40 18 -85 27q-46 9 -87 9q-136 0 -255 -138z" />
<glyph unicode="s" horiz-adv-x="821" d="M86 177l-6 -5v-145q110 -47 236 -47q169 0 290 82q135 93 135 251q0 86 -28.5 137.5t-105.5 91.5q-43 22 -148.5 64.5t-140.5 65.5q-81 51 -81 126q0 121 176 121q108 0 229 -33l6 3v140q-104 29 -211 29q-100 0 -176.5 -26t-126.5 -89t-50 -158q0 -166 159 -251 q46 -25 139.5 -63t125.5 -58q78 -48 78 -120q0 -55 -43.5 -95t-101 -56.5t-116.5 -16.5q-107 0 -239 52z" />
<glyph unicode="t" horiz-adv-x="744" d="M155 1038h-115v-144h115v-510q0 -209 94 -311q84 -93 229 -93q117 0 256 63l-42 142q-108 -62 -195 -62q-86 0 -133 60q-54 69 -54 201v510h288v144h-288v213h-10l-145 -27v-186z" />
<glyph unicode="u" d="M863 0h98v1038h-155v-816q-72 -43 -131 -67q-75 -32 -143 -32q-105 0 -160 55q-67 65 -67 205v655h-155v-664q0 -206 110 -306q95 -88 257 -88q70 0 163 38q75 31 152 81z" />
<glyph unicode="v" horiz-adv-x="979" d="M593 0l357 1038h-160l-300 -873l-300 873h-160l356 -1038h207z" />
<glyph unicode="w" horiz-adv-x="1564" d="M1205 0l329 1038h-149l-275 -867l-257 867h-142l-257 -867l-274 867h-150l328 -1038h193l231 790l231 -790h192z" />
<glyph unicode="x" horiz-adv-x="1023" d="M765 1038l-249 -356l-249 356h-185l337 -482l-389 -556h185l296 424l297 -424h185l-385 549l342 489h-185z" />
<glyph unicode="y" horiz-adv-x="971" d="M376 0h48l-77 -223q-22 -58 -69 -86q-43 -26 -101 -26q-88 0 -195 62l-42 -142q141 -63 256 -63q221 0 300 226l445 1290h-160l-301 -873l-301 873h-160z" />
<glyph unicode="z" horiz-adv-x="882" d="M611 894l-546 -889l5 -5h803v144h-543l546 888l-5 6h-790v-144h530z" />
<glyph unicode="{" horiz-adv-x="810" d="M690 123h-12q-90 0 -138 41q-58 48 -58 157v124q0 186 -96 269q96 83 96 269v124q0 110 58 158q47 40 138 40h12v142q-13 0 -19 1h-20q-145 0 -226 -71q-97 -85 -97 -270v-124q0 -108 -57 -157q-49 -41 -139 -41h-12v-142h20q89 -2 134 -43q54 -49 54 -155v-124 q0 -185 97 -270q81 -71 226 -71q14 0 20 1h19v142z" />
<glyph unicode="|" horiz-adv-x="314" d="M234 1448h-154v-1718h154v1718z" />
<glyph unicode="}" horiz-adv-x="810" d="M120 123v-142h19q6 -1 20 -1q145 0 226 71q97 85 97 270v124q0 105 55 155q45 41 133 43h20v142h-12q-90 0 -138 41q-58 48 -58 157v124q0 185 -97 270q-81 71 -226 71h-20q-6 -1 -19 -1v-142h12q91 0 139 -40q57 -49 57 -158v-124q0 -186 96 -269q-96 -83 -96 -269v-124 q0 -108 -57 -157q-49 -41 -139 -41h-12z" />
<glyph unicode="~" horiz-adv-x="1031" d="M749 661v-7q0 -42 -32 -67q-28 -22 -70 -22q-24 0 -48.5 8.5t-36.5 15t-41 24.5q-80 48 -139 48q-99 0 -173 -61q-77 -63 -89 -161q32 -29 78 -34q31 -5 84 3v7q0 43 31 67q28 22 72 22q25 0 43 -7q23 -8 70 -41q18 -13 38 -23q47 -25 108 -25q103 0 178 61q77 63 89 161 q-31 28 -78 35q-32 3 -84 -4z" />
<glyph unicode="&#xa1;" horiz-adv-x="467" d="M347 947q0 46 -33 79q-35 33 -80 33q-47 0 -80 -33q-34 -32 -34 -79t34 -79q33 -33 80 -33q45 0 80 33q33 33 33 79zM287 633h-112q-5 -42 -8 -107q-7 -139 -12 -359q-1 -35 -2.5 -103.5t-1.5 -101.5q-3 -136 -3 -351h164q0 215 -2 351q-3 190 -8 401q-6 184 -15 270z " />
<glyph unicode="&#xa2;" horiz-adv-x="899" d="M859 190l-7 5q-139 -71 -274 -71q-150 0 -243 99q-102 108 -102 309q0 197 102 296q90 86 243 86q134 0 274 -71l7 5v136q-118 57 -222 69v155h-154v-155q-182 -24 -285 -146q-118 -139 -118 -381q0 -244 120 -389q105 -126 283 -151v-136h154v135q104 12 222 69v136z " />
<glyph unicode="&#xa3;" horiz-adv-x="1002" d="M40 753v-144h218q26 -116 26 -182q0 -132 -82 -212q-73 -71 -160 -71v-144h920v144h-632q111 121 111 262q0 59 -28 203h329v144h-357q-20 116 -20 177q0 123 65.5 193t189.5 70q111 0 222 -50l46 127q-158 68 -311 68q-166 0 -260 -90q-107 -104 -107 -306 q0 -84 19 -189h-189z" />
<glyph unicode="&#xa5;" horiz-adv-x="1010" d="M582 150h315v154h-315v154h315v154h-257l345 706h-154l-326 -668l-326 668h-154l344 -706h-262v-154h321v-154h-321v-154h321v-150h154v150z" />
<glyph unicode="&#xa6;" horiz-adv-x="314" d="M80 1448v-700h154v700h-154zM234 -270v700h-154v-700h154z" />
<glyph unicode="&#xa7;" horiz-adv-x="930" d="M768 1281v132q-107 35 -206 35q-114 0 -198 -44q-97 -52 -137 -155q-72 -96 -111 -237q-36 -132 -36 -264q0 -191 81 -305q53 -75 185 -159q7 -4 28.5 -18t30.5 -20t28 -19t30.5 -21.5t27 -21t28.5 -25t25 -25.5q27 -31 36 -52q15 -35 15 -84q0 -110 -71 -161 q-58 -41 -161 -41q-88 0 -194 30l-7 -6v-132q107 -35 206 -35q115 0 199 45q96 51 136 154q74 103 111 238q36 130 36 263q0 191 -81 305q-52 74 -184 159q-6 4 -25.5 16.5t-27 17t-25 16t-26.5 18t-24 18t-25 20.5t-22.5 20.5t-23.5 23.5q-51 53 -51 136q0 110 72 161 q57 41 160 41q88 0 194 -30zM293 822q31 -33 75 -60q12 -8 42 -27t47 -29q121 -77 171 -140q79 -99 79 -240q0 -54 -13 -130q-23 49 -57 83q-12 12 -26.5 24t-33 25t-31.5 21t-37.5 23.5t-35.5 22.5q-121 77 -171 140q-79 99 -79 240q0 61 13 129q21 -46 57 -82z" />
<glyph unicode="&#xa8;" horiz-adv-x="791" d="M99 1302q0 -47 34 -79q33 -33 79 -33t81 33q33 33 33 79t-33 79q-35 33 -81 33t-79 -33q-34 -32 -34 -79zM465 1302q0 -47 34 -79q33 -33 79 -33t81 33q33 33 33 79t-33 79q-35 33 -81 33t-79 -33q-34 -32 -34 -79z" />
<glyph unicode="&#xa9;" horiz-adv-x="1604" d="M80 709q0 -150 51.5 -283t145.5 -233q96 -102 228.5 -158.5t290.5 -56.5t292.5 56.5t232.5 158.5q97 101 150 236t53 287q0 150 -51.5 284t-145.5 234q-96 102 -228.5 158t-290.5 56q-157 0 -291.5 -56.5t-232.5 -158.5q-98 -101 -151 -236t-53 -288zM223 710 q0 164 75 301q74 133 205 212q136 80 303 80q253 0 416 -173q76 -81 117 -188t41 -227q0 -122 -42 -230t-120 -189q-167 -173 -420 -173q-251 0 -416 173q-76 80 -117.5 187t-41.5 227zM1054 487l-5 3q-105 -50 -200 -50q-110 0 -175 66q-71 73 -71 211q0 132 70 197 q63 60 168 60q95 0 208 -51l5 4v140q-112 58 -231 58q-165 0 -262 -96q-112 -110 -112 -317q0 -211 115 -324q100 -100 259 -100q119 0 231 58v141z" />
<glyph unicode="&#xab;" horiz-adv-x="1188" d="M676 1372l-132 77l-424 -735l424 -735l132 77l-381 658zM1068 1372l-132 77l-424 -735l424 -735l132 77l-381 658z" />
<glyph unicode="&#xae;" horiz-adv-x="1218" d="M80 906q0 -111 37.5 -208.5t106.5 -169.5q150 -158 381 -158q116 0 215 41.5t170 116.5q148 156 148 383t-144 379q-150 158 -381 158q-232 0 -384 -158q-149 -155 -149 -384zM201 907q0 176 115 296q116 122 296 122t294 -122q110 -118 110 -293q0 -176 -114 -295 q-116 -122 -296 -122t-294 122q-111 117 -111 292zM876 670l-3 7q-40 22 -81 75q-40 50 -55 91q96 46 96 167q0 97 -56 140q-59 46 -199 46h-180v-570h108v186h65q39 0 67 4q33 -68 62 -109q47 -67 96 -89zM506 914v181h75q73 0 106 -16q40 -21 40 -76q0 -54 -41 -72 q-35 -17 -112 -17h-68z" />
<glyph unicode="&#xaf;" horiz-adv-x="842" d="M722 1338h-602v-144h602v144z" />
<glyph unicode="&#xb0;" horiz-adv-x="814" d="M80 1000q0 -140 89 -234q91 -98 235 -98q146 0 239 98q91 96 91 239q0 139 -88 235q-93 98 -236 98t-238 -98q-92 -97 -92 -240zM220 1001q0 80 53 138q51 56 136 56q83 0 134 -56t51 -134q0 -80 -52 -137t-137 -57q-83 0 -134 56t-51 134z" />
<glyph unicode="&#xb1;" horiz-adv-x="1030" d="M592 720v318h-154v-318h-318v-154h318v-318h154v318h318v154h-318zM120 0h790v154h-790v-154z" />
<glyph unicode="&#xb4;" horiz-adv-x="662" d="M485 1558q-75 -64 -142 -111q-124 -86 -249 -142q1 -27 16 -67q13 -37 26 -48q119 23 270 111q60 35 105.5 71t61.5 61q-6 40 -30.5 73.5t-57.5 51.5z" />
<glyph unicode="&#xb6;" horiz-adv-x="1334" d="M518 0h154v1193q57 0 131 -12v-1181h161v1128q95 -47 164 -126h4l102 106q-65 101 -221 163q-166 66 -371 66q-135 0 -236 -28q-144 -39 -225 -127q-101 -108 -101 -289q0 -152 70 -235q59 -73 167 -101q79 -21 201 -21v-536zM518 1181v-493q-137 2 -209 45 q-85 50 -85 162q0 105 66 177q76 82 228 109z" />
<glyph unicode="&#xb7;" horiz-adv-x="387" d="M80 518q0 -47 34 -79q33 -33 79 -33t81 33q33 33 33 79t-33 79q-35 33 -81 33t-79 -33q-34 -32 -34 -79z" />
<glyph unicode="&#xb8;" horiz-adv-x="543" d="M356 0h-159v-159q59 0 104 -27q55 -34 55 -84q0 -39 -33 -62q-30 -21 -70 -21q-65 0 -140 33q-39 -29 -47 -107q76 -51 174 -51q108 0 178 56q71 58 71 150q0 69 -35 121q-38 53 -98 71v80z" />
<glyph unicode="&#xbb;" horiz-adv-x="1188" d="M120 56l132 -77l424 735l-424 735l-132 -77l380 -658zM512 56l132 -77l424 735l-424 735l-132 -77l380 -658z" />
<glyph unicode="&#xbf;" horiz-adv-x="975" d="M691 946q0 46 -33 79q-35 33 -80 33q-47 0 -80 -33q-34 -32 -34 -79t34 -79q33 -33 80 -33q45 0 80 33q33 33 33 79zM814 -153h-9q-36 -50 -115 -80t-167 -30q-120 0 -188 57q-65 54 -65 146q0 45 17 82q30 66 105 131q46 42 71 67q90 90 133 182q60 127 60 302h-154 q0 -93 -16 -158q-30 -123 -105 -212q-16 -19 -36.5 -40.5t-31 -32t-40 -38t-32.5 -30.5q-32 -30 -61 -71q-60 -85 -60 -191q0 -165 123 -259q107 -82 268 -82q106 0 202 40q96 38 143 102z" />
<glyph unicode="&#xc0;" horiz-adv-x="1164" d="M430 1838q-33 -18 -57.5 -51.5t-30.5 -73.5q36 -55 168 -132q151 -88 269 -111q11 10 25 48q12 33 17 67q-122 54 -248 142q-72 50 -143 111zM291 307h582l106 -307h160l-454 1318h-207l-453 -1318h160zM824 451h-484l242 701z" />
<glyph unicode="&#xc1;" horiz-adv-x="1164" d="M733 1838q-75 -64 -142 -111q-124 -86 -249 -142q1 -27 16 -67q13 -37 26 -48q119 23 270 111q60 35 105.5 71t61.5 61q-6 40 -30.5 73.5t-57.5 51.5zM291 307h582l106 -307h160l-454 1318h-207l-453 -1318h160zM824 451h-484l242 701z" />
<glyph unicode="&#xc2;" horiz-adv-x="1164" d="M579 1666h5q124 -113 297 -196q13 11 26 48q12 33 17 67q-173 92 -338 249h-8q-160 -154 -338 -249q1 -23 17 -67q13 -37 26 -48q93 46 155 87q74 48 141 109zM291 307h582l106 -307h160l-454 1318h-207l-453 -1318h160zM824 451h-484l242 701z" />
<glyph unicode="&#xc3;" horiz-adv-x="1164" d="M786 1728v-6q0 -39 -28 -59q-25 -19 -62 -19q-20 0 -42 7.5t-33 13.5t-35 21q-68 42 -121 42q-88 0 -152 -53q-67 -55 -77 -141q26 -25 68 -30q31 -4 73 3v6q0 39 26 58.5t65 19.5q10 0 20 -2t16 -3.5t17.5 -8t14 -8t16.5 -10.5t15 -10q62 -42 127 -42q89 0 156 54 t77 140q-26 25 -68 30q-31 4 -73 -3zM291 307h582l106 -307h160l-454 1318h-207l-453 -1318h160zM824 451h-484l242 701z" />
<glyph unicode="&#xc4;" horiz-adv-x="1164" d="M285 1582q0 -47 34 -79q33 -33 79 -33t81 33q33 33 33 79t-33 79q-35 33 -81 33t-79 -33q-34 -32 -34 -79zM651 1582q0 -47 34 -79q33 -33 79 -33t81 33q33 33 33 79t-33 79q-35 33 -81 33t-79 -33q-34 -32 -34 -79zM291 307h582l106 -307h160l-454 1318h-207l-453 -1318 h160zM824 451h-484l242 701z" />
<glyph unicode="&#xc5;" horiz-adv-x="1164" d="M25 0h160l106 307h582l106 -307h160l-454 1317q44 28 70.5 72.5t26.5 96.5q0 81 -60 139t-141 58q-83 0 -141 -58q-59 -59 -59 -139q0 -52 26 -97t70 -72zM500 1486q0 31 24 57q24 24 57 24q32 0 58 -24q24 -26 24 -57q0 -33 -24.5 -57t-57.5 -24t-57 24t-24 57zM824 451 h-484l242 701z" />
<glyph unicode="&#xc6;" horiz-adv-x="1421" d="M291 307h582l106 -307h397v144h-287l-153 443h440v144h-489l-153 443h642v144h-898l-453 -1318h160zM824 451h-484l242 701z" />
<glyph unicode="&#xc7;" horiz-adv-x="1081" d="M637 -14v-145q59 0 104 -27q55 -34 55 -84q0 -39 -33 -62q-30 -21 -70 -21q-65 0 -140 33q-39 -29 -47 -107q76 -51 174 -51q108 0 178 56q71 58 71 150q0 69 -35 121q-38 53 -98 71v62q133 6 245 39v142l-7 4q-63 -20 -150 -32q-73 -10 -139 -10q-249 0 -384 151 q-127 142 -127 384q0 245 128 385q134 148 383 148q66 0 139 -10q87 -12 150 -32l7 4v142q-64 18 -150 30q-83 11 -154 11q-318 0 -491 -189q-160 -174 -166 -469q0 -294 139 -473q146 -192 418 -221z" />
<glyph unicode="&#xc8;" horiz-adv-x="998" d="M429 1838q-33 -18 -57.5 -51.5t-30.5 -73.5q36 -55 168 -132q151 -88 269 -111q11 10 25 48q12 33 17 67q-122 54 -248 142q-72 50 -143 111zM954 1318h-794v-1318h794v144h-639v443h639v144h-639v443h639v144z" />
<glyph unicode="&#xc9;" horiz-adv-x="998" d="M697 1838q-75 -64 -142 -111q-124 -86 -249 -142q1 -27 16 -67q13 -37 26 -48q119 23 270 111q60 35 105.5 71t61.5 61q-6 40 -30.5 73.5t-57.5 51.5zM954 1318h-794v-1318h794v144h-639v443h639v144h-639v443h639v144z" />
<glyph unicode="&#xca;" horiz-adv-x="998" d="M565 1666h5q124 -113 297 -196q13 11 26 48q12 33 17 67q-173 92 -338 249h-8q-160 -154 -338 -249q1 -23 17 -67q13 -37 26 -48q93 46 155 87q74 48 141 109zM954 1318h-794v-1318h794v144h-639v443h639v144h-639v443h639v144z" />
<glyph unicode="&#xcb;" horiz-adv-x="998" d="M287 1582q0 -47 34 -79q33 -33 79 -33t81 33q33 33 33 79t-33 79q-35 33 -81 33t-79 -33q-34 -32 -34 -79zM653 1582q0 -47 34 -79q33 -33 79 -33t81 33q33 33 33 79t-33 79q-35 33 -81 33t-79 -33q-34 -32 -34 -79zM954 1318h-794v-1318h794v144h-639v443h639v144h-639 v443h639v144z" />
<glyph unicode="&#xcc;" horiz-adv-x="474" d="M86 1838q-33 -18 -57.5 -51.5t-30.5 -73.5q36 -55 168 -132q151 -88 269 -111q11 10 25 48q12 33 17 67q-122 54 -248 142q-72 50 -143 111zM314 1318h-154v-1318h154v1318z" />
<glyph unicode="&#xcd;" horiz-adv-x="474" d="M389 1838q-75 -64 -142 -111q-124 -86 -249 -142q1 -27 16 -67q13 -37 26 -48q119 23 270 111q60 35 105.5 71t61.5 61q-6 40 -30.5 73.5t-57.5 51.5zM314 1318h-154v-1318h154v1318z" />
<glyph unicode="&#xce;" horiz-adv-x="474" d="M234 1666h5q124 -113 297 -196q13 11 26 48q12 33 17 67q-173 92 -338 249h-8q-160 -154 -338 -249q1 -23 17 -67q13 -37 26 -48q93 46 155 87q74 48 141 109zM314 1318h-154v-1318h154v1318z" />
<glyph unicode="&#xcf;" horiz-adv-x="474" d="M-59 1582q0 -47 34 -79q33 -33 79 -33t81 33q33 33 33 79t-33 79q-35 33 -81 33t-79 -33q-34 -32 -34 -79zM307 1582q0 -47 34 -79q33 -33 79 -33t81 33q33 33 33 79t-33 79q-35 33 -81 33t-79 -33q-34 -32 -34 -79zM314 1318h-154v-1318h154v1318z" />
<glyph unicode="&#xd0;" horiz-adv-x="1350" d="M212 729h-172v-144h172v-585h389q142 0 265 49t214 138q91 88 140.5 209.5t49.5 263.5q0 141 -52 262t-146 211q-93 88 -219 136.5t-268 48.5h-373v-589zM367 729v445h218q108 0 204.5 -38.5t169.5 -108.5q156 -151 156 -383q0 -223 -137 -360q-142 -140 -377 -140h-234 v441h173v144h-173z" />
<glyph unicode="&#xd1;" horiz-adv-x="1263" d="M836 1728v-6q0 -39 -28 -59q-25 -19 -62 -19q-20 0 -42 7.5t-33 13.5t-35 21q-68 42 -121 42q-88 0 -152 -53q-67 -55 -77 -141q26 -25 68 -30q31 -4 73 3v6q0 39 26 58.5t65 19.5q10 0 20 -2t16 -3.5t17.5 -8t14 -8t16.5 -10.5t15 -10q62 -42 127 -42q89 0 156 54 t77 140q-26 25 -68 30q-31 4 -73 -3zM315 0v1028l643 -1028h155v1318h-155v-1019l-637 1019h-161v-1318h155z" />
<glyph unicode="&#xd2;" horiz-adv-x="1383" d="M540 1838q-33 -18 -57.5 -51.5t-30.5 -73.5q36 -55 168 -132q151 -88 269 -111q11 10 25 48q12 33 17 67q-122 54 -248 142q-72 50 -143 111zM80 660q0 -143 43.5 -267.5t123.5 -216.5q81 -94 193 -145t247 -51q134 0 248 51.5t197 145.5q82 93 126.5 217t44.5 266 q0 293 -165 483q-81 93 -193 144t-247 51t-249 -51t-197 -144q-172 -193 -172 -483zM234 672q0 231 122 373q127 149 338 149q215 0 338 -156q117 -149 117 -390q0 -232 -117 -375q-122 -149 -333 -149q-216 0 -344 159q-121 150 -121 389z" />
<glyph unicode="&#xd3;" horiz-adv-x="1383" d="M843 1838q-75 -64 -142 -111q-124 -86 -249 -142q1 -27 16 -67q13 -37 26 -48q119 23 270 111q60 35 105.5 71t61.5 61q-6 40 -30.5 73.5t-57.5 51.5zM80 660q0 -143 43.5 -267.5t123.5 -216.5q81 -94 193 -145t247 -51q134 0 248 51.5t197 145.5q82 93 126.5 217 t44.5 266q0 293 -165 483q-81 93 -193 144t-247 51t-249 -51t-197 -144q-172 -193 -172 -483zM234 672q0 231 122 373q127 149 338 149q215 0 338 -156q117 -149 117 -390q0 -232 -117 -375q-122 -149 -333 -149q-216 0 -344 159q-121 150 -121 389z" />
<glyph unicode="&#xd4;" horiz-adv-x="1383" d="M688 1666h5q124 -113 297 -196q13 11 26 48q12 33 17 67q-173 92 -338 249h-8q-160 -154 -338 -249q1 -23 17 -67q13 -37 26 -48q93 46 155 87q74 48 141 109zM80 660q0 -143 43.5 -267.5t123.5 -216.5q81 -94 193 -145t247 -51q134 0 248 51.5t197 145.5 q82 93 126.5 217t44.5 266q0 293 -165 483q-81 93 -193 144t-247 51t-249 -51t-197 -144q-172 -193 -172 -483zM234 672q0 231 122 373q127 149 338 149q215 0 338 -156q117 -149 117 -390q0 -232 -117 -375q-122 -149 -333 -149q-216 0 -344 159q-121 150 -121 389z" />
<glyph unicode="&#xd5;" horiz-adv-x="1383" d="M896 1728v-6q0 -39 -28 -59q-25 -19 -62 -19q-20 0 -42 7.5t-33 13.5t-35 21q-68 42 -121 42q-88 0 -152 -53q-67 -55 -77 -141q26 -25 68 -30q31 -4 73 3v6q0 39 26 58.5t65 19.5q10 0 20 -2t16 -3.5t17.5 -8t14 -8t16.5 -10.5t15 -10q62 -42 127 -42q89 0 156 54 t77 140q-26 25 -68 30q-31 4 -73 -3zM80 660q0 -143 43.5 -267.5t123.5 -216.5q81 -94 193 -145t247 -51q134 0 248 51.5t197 145.5q82 93 126.5 217t44.5 266q0 293 -165 483q-81 93 -193 144t-247 51t-249 -51t-197 -144q-172 -193 -172 -483zM234 672q0 231 122 373 q127 149 338 149q215 0 338 -156q117 -149 117 -390q0 -232 -117 -375q-122 -149 -333 -149q-216 0 -344 159q-121 150 -121 389z" />
<glyph unicode="&#xd6;" horiz-adv-x="1383" d="M395 1582q0 -47 34 -79q33 -33 79 -33t81 33q33 33 33 79t-33 79q-35 33 -81 33t-79 -33q-34 -32 -34 -79zM761 1582q0 -47 34 -79q33 -33 79 -33t81 33q33 33 33 79t-33 79q-35 33 -81 33t-79 -33q-34 -32 -34 -79zM80 660q0 -143 43.5 -267.5t123.5 -216.5 q81 -94 193 -145t247 -51q134 0 248 51.5t197 145.5q82 93 126.5 217t44.5 266q0 293 -165 483q-81 93 -193 144t-247 51t-249 -51t-197 -144q-172 -193 -172 -483zM234 672q0 231 122 373q127 149 338 149q215 0 338 -156q117 -149 117 -390q0 -232 -117 -375 q-122 -149 -333 -149q-216 0 -344 159q-121 150 -121 389z" />
<glyph unicode="&#xd7;" horiz-adv-x="908" d="M345 515l-225 -225l109 -109l225 225l225 -225l109 109l-225 225l225 225l-109 109l-225 -225l-225 225l-109 -109z" />
<glyph unicode="&#xd8;" horiz-adv-x="1383" d="M342 -168l144 -53l77 213q60 -12 124 -12q134 0 248 51.5t197 145.5q82 93 126.5 217t44.5 266q0 188 -75 344q-74 152 -209 241l55 150l-144 53l-50 -137q-91 27 -182 27q-135 0 -249 -51t-197 -144q-172 -193 -172 -483q0 -208 91 -374q90 -165 247 -244zM830 1174 l-361 -991q-114 66 -174 196q-61 128 -61 293q0 231 122 373q127 149 338 149q71 0 136 -20zM614 131l353 972q88 -72 135 -190.5t47 -264.5q0 -232 -117 -375q-122 -149 -333 -149q-50 0 -85 7z" />
<glyph unicode="&#xd9;" horiz-adv-x="1403" d="M550 1838q-33 -18 -57.5 -51.5t-30.5 -73.5q36 -55 168 -132q151 -88 269 -111q11 10 25 48q12 33 17 67q-122 54 -248 142q-72 50 -143 111zM1190 1318h-154v-778q0 -182 -49 -280q-42 -85 -124 -115q-59 -23 -167 -23q-103 0 -157 21q-84 32 -125 114q-51 97 -51 283 v778h-154v-828q0 -211 77 -333q66 -104 186 -145q92 -32 225 -32q135 0 228 32q121 41 187 146q78 122 78 332v828z" />
<glyph unicode="&#xda;" horiz-adv-x="1403" d="M853 1838q-75 -64 -142 -111q-124 -86 -249 -142q1 -27 16 -67q13 -37 26 -48q119 23 270 111q60 35 105.5 71t61.5 61q-6 40 -30.5 73.5t-57.5 51.5zM1190 1318h-154v-778q0 -182 -49 -280q-42 -85 -124 -115q-59 -23 -167 -23q-103 0 -157 21q-84 32 -125 114 q-51 97 -51 283v778h-154v-828q0 -211 77 -333q66 -104 186 -145q92 -32 225 -32q135 0 228 32q121 41 187 146q78 122 78 332v828z" />
<glyph unicode="&#xdb;" horiz-adv-x="1403" d="M698 1666h5q124 -113 297 -196q13 11 26 48q12 33 17 67q-173 92 -338 249h-8q-160 -154 -338 -249q1 -23 17 -67q13 -37 26 -48q93 46 155 87q74 48 141 109zM1190 1318h-154v-778q0 -182 -49 -280q-42 -85 -124 -115q-59 -23 -167 -23q-103 0 -157 21q-84 32 -125 114 q-51 97 -51 283v778h-154v-828q0 -211 77 -333q66 -104 186 -145q92 -32 225 -32q135 0 228 32q121 41 187 146q78 122 78 332v828z" />
<glyph unicode="&#xdc;" horiz-adv-x="1403" d="M405 1582q0 -47 34 -79q33 -33 79 -33t81 33q33 33 33 79t-33 79q-35 33 -81 33t-79 -33q-34 -32 -34 -79zM771 1582q0 -47 34 -79q33 -33 79 -33t81 33q33 33 33 79t-33 79q-35 33 -81 33t-79 -33q-34 -32 -34 -79zM1190 1318h-154v-778q0 -182 -49 -280 q-42 -85 -124 -115q-59 -23 -167 -23q-103 0 -157 21q-84 32 -125 114q-51 97 -51 283v778h-154v-828q0 -211 77 -333q66 -104 186 -145q92 -32 225 -32q135 0 228 32q121 41 187 146q78 122 78 332v828z" />
<glyph unicode="&#xdd;" horiz-adv-x="1010" d="M656 1838q-75 -64 -142 -111q-124 -86 -249 -142q1 -27 16 -67q13 -37 26 -48q119 23 270 111q60 35 105.5 71t61.5 61q-6 40 -30.5 73.5t-57.5 51.5zM831 1318l-326 -668l-326 668h-154l403 -826v-492h154v492l403 826h-154z" />
<glyph unicode="&#xde;" horiz-adv-x="1130" d="M906 1001q164 -105 164 -328q0 -172 -92 -278q-87 -101 -238 -146q-142 -42 -330 -42h-95v-207h-155v1318h155v-217h104q327 0 487 -100zM786 416q129 71 129 233q0 167 -138 243q-114 63 -338 63h-124v-602h124q232 0 347 63z" />
<glyph unicode="&#xdf;" horiz-adv-x="1161" d="M473 172v-145q110 -47 233 -47q167 0 271 82q114 90 114 246q0 66 -19 110q-37 85 -124 127q-44 21 -168 64q-38 13 -74 34q-72 43 -76 115q1 40 17 66q26 47 86 75l57 27q75 35 104 72q47 59 47 157q0 157 -112 231q-94 62 -256 62q-202 0 -305 -99q-108 -103 -108 -323 v-1026h155v1026q0 117 59 192q66 86 199 86q86 0 141 -31q65 -37 65 -104q0 -41 -22 -63q-29 -28 -129 -74q-39 -20 -72 -51q-79 -77 -79 -229q0 -65 20 -111q36 -84 125 -129q52 -26 169 -69q40 -15 74 -35q71 -45 71 -120q0 -80 -74 -125q-63 -38 -147 -38q-52 0 -123 17 q-59 14 -113 35z" />
<glyph unicode="&#xe0;" horiz-adv-x="1022" d="M359 1558q-33 -18 -57.5 -51.5t-30.5 -73.5q36 -55 168 -132q151 -88 269 -111q11 10 25 48q12 33 17 67q-122 54 -248 142q-72 50 -143 111zM894 -20l88 145q-88 27 -120 105q-23 54 -23 157v330q0 185 -97 270q-81 71 -226 71q-119 0 -199 -20q-69 -17 -180 -62 l40 -135q79 39 158 58q74 16 154 16q91 0 139 -40q57 -49 57 -158v-129q-138 12 -209 12q-207 0 -304 -77q-92 -75 -92 -223q0 -174 117 -257q88 -63 220 -63q99 0 185 42q78 38 135 103q54 -111 157 -145zM685 457v-84q0 -144 -99 -206q-67 -43 -181 -43q-49 0 -97 31 q-75 47 -75 145q0 59 29.5 92t89.5 49q36 9 88.5 13t111.5 3.5t133 -0.5z" />
<glyph unicode="&#xe1;" horiz-adv-x="1022" d="M662 1558q-75 -64 -142 -111q-124 -86 -249 -142q1 -27 16 -67q13 -37 26 -48q119 23 270 111q60 35 105.5 71t61.5 61q-6 40 -30.5 73.5t-57.5 51.5zM894 -20l88 145q-88 27 -120 105q-23 54 -23 157v330q0 185 -97 270q-81 71 -226 71q-119 0 -199 -20 q-69 -17 -180 -62l40 -135q79 39 158 58q74 16 154 16q91 0 139 -40q57 -49 57 -158v-129q-138 12 -209 12q-207 0 -304 -77q-92 -75 -92 -223q0 -174 117 -257q88 -63 220 -63q99 0 185 42q78 38 135 103q54 -111 157 -145zM685 457v-84q0 -144 -99 -206q-67 -43 -181 -43 q-49 0 -97 31q-75 47 -75 145q0 59 29.5 92t89.5 49q36 9 88.5 13t111.5 3.5t133 -0.5z" />
<glyph unicode="&#xe2;" horiz-adv-x="1022" d="M508 1386h5q124 -113 297 -196q13 11 26 48q12 33 17 67q-173 92 -338 249h-8q-160 -154 -338 -249q1 -23 17 -67q13 -37 26 -48q93 46 155 87q74 48 141 109zM894 -20l88 145q-88 27 -120 105q-23 54 -23 157v330q0 185 -97 270q-81 71 -226 71q-119 0 -199 -20 q-69 -17 -180 -62l40 -135q79 39 158 58q74 16 154 16q91 0 139 -40q57 -49 57 -158v-129q-138 12 -209 12q-207 0 -304 -77q-92 -75 -92 -223q0 -174 117 -257q88 -63 220 -63q99 0 185 42q78 38 135 103q54 -111 157 -145zM685 457v-84q0 -144 -99 -206q-67 -43 -181 -43 q-49 0 -97 31q-75 47 -75 145q0 59 29.5 92t89.5 49q36 9 88.5 13t111.5 3.5t133 -0.5z" />
<glyph unicode="&#xe3;" horiz-adv-x="1022" d="M715 1448v-6q0 -39 -28 -59q-25 -19 -62 -19q-20 0 -42 7.5t-33 13.5t-35 21q-68 42 -121 42q-88 0 -152 -53q-67 -55 -77 -141q26 -25 68 -30q31 -4 73 3v6q0 39 26 58.5t65 19.5q10 0 20 -2t16 -3.5t17.5 -8t14 -8t16.5 -10.5t15 -10q62 -42 127 -42q89 0 156 54 t77 140q-26 25 -68 30q-31 4 -73 -3zM894 -20l88 145q-88 27 -120 105q-23 54 -23 157v330q0 185 -97 270q-81 71 -226 71q-119 0 -199 -20q-69 -17 -180 -62l40 -135q79 39 158 58q74 16 154 16q91 0 139 -40q57 -49 57 -158v-129q-138 12 -209 12q-207 0 -304 -77 q-92 -75 -92 -223q0 -174 117 -257q88 -63 220 -63q99 0 185 42q78 38 135 103q54 -111 157 -145zM685 457v-84q0 -144 -99 -206q-67 -43 -181 -43q-49 0 -97 31q-75 47 -75 145q0 59 29.5 92t89.5 49q36 9 88.5 13t111.5 3.5t133 -0.5z" />
<glyph unicode="&#xe4;" horiz-adv-x="1022" d="M214 1302q0 -47 34 -79q33 -33 79 -33t81 33q33 33 33 79t-33 79q-35 33 -81 33t-79 -33q-34 -32 -34 -79zM580 1302q0 -47 34 -79q33 -33 79 -33t81 33q33 33 33 79t-33 79q-35 33 -81 33t-79 -33q-34 -32 -34 -79zM894 -20l88 145q-88 27 -120 105q-23 54 -23 157v330 q0 185 -97 270q-81 71 -226 71q-119 0 -199 -20q-69 -17 -180 -62l40 -135q79 39 158 58q74 16 154 16q91 0 139 -40q57 -49 57 -158v-129q-138 12 -209 12q-207 0 -304 -77q-92 -75 -92 -223q0 -174 117 -257q88 -63 220 -63q99 0 185 42q78 38 135 103q54 -111 157 -145z M685 457v-84q0 -144 -99 -206q-67 -43 -181 -43q-49 0 -97 31q-75 47 -75 145q0 59 29.5 92t89.5 49q36 9 88.5 13t111.5 3.5t133 -0.5z" />
<glyph unicode="&#xe5;" horiz-adv-x="1022" d="M316 1367q0 -80 59 -139q58 -60 141 -60q81 0 141 60q60 58 60 139t-60 139t-141 58q-83 0 -141 -58q-59 -59 -59 -139zM435 1367q0 31 24 57q24 24 57 24q32 0 58 -24q24 -26 24 -57q0 -33 -24.5 -57t-57.5 -24t-57 24t-24 57zM894 -20l88 145q-88 27 -120 105 q-23 54 -23 157v330q0 185 -97 270q-81 71 -226 71q-119 0 -199 -20q-69 -17 -180 -62l40 -135q79 39 158 58q74 16 154 16q91 0 139 -40q57 -49 57 -158v-129q-138 12 -209 12q-207 0 -304 -77q-92 -75 -92 -223q0 -174 117 -257q88 -63 220 -63q99 0 185 42q78 38 135 103 q54 -111 157 -145zM685 457v-84q0 -144 -99 -206q-67 -43 -181 -43q-49 0 -97 31q-75 47 -75 145q0 59 29.5 92t89.5 49q36 9 88.5 13t111.5 3.5t133 -0.5z" />
<glyph unicode="&#xe6;" horiz-adv-x="1535" d="M1485 480v140q0 121 -21 201q-28 108 -100 167q-86 70 -234 70q-216 0 -333 -143q-40 75 -117 112q-66 31 -164 31q-119 0 -199 -20q-69 -17 -180 -62l40 -135q79 39 158 58q74 16 154 16q91 0 139 -40q57 -49 57 -158v-129q-138 12 -209 12q-207 0 -304 -77 q-92 -75 -92 -223q0 -174 117 -257q88 -63 220 -63q50 0 99 11q91 22 160 77q68 53 100 109q65 -98 166.5 -147.5t223.5 -49.5q147 0 298 74v143l-3 1q-146 -74 -280 -74q-141 0 -232 88q-100 96 -111 268h647zM1333 620h-488q20 133 92 211q77 83 190 83t163 -87 q41 -72 43 -207zM685 457v-84q0 -144 -99 -206q-67 -43 -181 -43q-49 0 -97 31q-75 47 -75 145q0 59 29.5 92t89.5 49q36 9 88.5 13t111.5 3.5t133 -0.5z" />
<glyph unicode="&#xe7;" horiz-adv-x="899" d="M459 -10v-149q59 0 104 -27q55 -34 55 -84q0 -39 -33 -62q-30 -21 -70 -21q-65 0 -140 33q-39 -29 -47 -107q76 -51 174 -51q108 0 178 56q71 58 71 150q0 69 -35 121q-38 53 -98 71v63q119 11 241 71v136l-7 5q-139 -71 -274 -71q-150 0 -243 99q-102 108 -102 309 q0 197 102 296q90 86 243 86q134 0 274 -71l7 5v136q-149 74 -297 74q-211 0 -338 -123q-144 -139 -144 -409q0 -237 112 -378q98 -126 267 -158z" />
<glyph unicode="&#xe8;" horiz-adv-x="931" d="M391 1558q-33 -18 -57.5 -51.5t-30.5 -73.5q36 -55 168 -132q151 -88 269 -111q11 10 25 48q12 33 17 67q-122 54 -248 142q-72 50 -143 111zM881 480v140q0 121 -21 201q-28 108 -100 167q-86 70 -234 70q-223 0 -339 -151q-107 -138 -107 -375q0 -272 144 -419 q130 -133 338 -133q147 0 298 74v143l-3 1q-146 -74 -280 -74q-141 0 -232 88q-100 96 -111 268h647zM729 620h-488q20 133 92 211q77 83 190 83t163 -87q41 -72 43 -207z" />
<glyph unicode="&#xe9;" horiz-adv-x="931" d="M681 1558q-75 -64 -142 -111q-124 -86 -249 -142q1 -27 16 -67q13 -37 26 -48q119 23 270 111q60 35 105.5 71t61.5 61q-6 40 -30.5 73.5t-57.5 51.5zM881 480v140q0 121 -21 201q-28 108 -100 167q-86 70 -234 70q-223 0 -339 -151q-107 -138 -107 -375q0 -272 144 -419 q130 -133 338 -133q147 0 298 74v143l-3 1q-146 -74 -280 -74q-141 0 -232 88q-100 96 -111 268h647zM729 620h-488q20 133 92 211q77 83 190 83t163 -87q41 -72 43 -207z" />
<glyph unicode="&#xea;" horiz-adv-x="931" d="M523 1386h5q124 -113 297 -196q13 11 26 48q12 33 17 67q-173 92 -338 249h-8q-160 -154 -338 -249q1 -23 17 -67q13 -37 26 -48q93 46 155 87q74 48 141 109zM881 480v140q0 121 -21 201q-28 108 -100 167q-86 70 -234 70q-223 0 -339 -151q-107 -138 -107 -375 q0 -272 144 -419q130 -133 338 -133q147 0 298 74v143l-3 1q-146 -74 -280 -74q-141 0 -232 88q-100 96 -111 268h647zM729 620h-488q20 133 92 211q77 83 190 83t163 -87q41 -72 43 -207z" />
<glyph unicode="&#xeb;" horiz-adv-x="931" d="M218 1302q0 -47 34 -79q33 -33 79 -33t81 33q33 33 33 79t-33 79q-35 33 -81 33t-79 -33q-34 -32 -34 -79zM584 1302q0 -47 34 -79q33 -33 79 -33t81 33q33 33 33 79t-33 79q-35 33 -81 33t-79 -33q-34 -32 -34 -79zM881 480v140q0 121 -21 201q-28 108 -100 167 q-86 70 -234 70q-223 0 -339 -151q-107 -138 -107 -375q0 -272 144 -419q130 -133 338 -133q147 0 298 74v143l-3 1q-146 -74 -280 -74q-141 0 -232 88q-100 96 -111 268h647zM729 620h-488q20 133 92 211q77 83 190 83t163 -87q41 -72 43 -207z" />
<glyph unicode="&#xec;" horiz-adv-x="535" d="M116 1558q-33 -18 -57.5 -51.5t-30.5 -73.5q36 -55 168 -132q151 -88 269 -111q11 10 25 48q12 33 17 67q-122 54 -248 142q-72 50 -143 111zM344 1038h-154v-1038h154v1038z" />
<glyph unicode="&#xed;" horiz-adv-x="535" d="M419 1558q-75 -64 -142 -111q-124 -86 -249 -142q1 -27 16 -67q13 -37 26 -48q119 23 270 111q60 35 105.5 71t61.5 61q-6 40 -30.5 73.5t-57.5 51.5zM344 1038h-154v-1038h154v1038z" />
<glyph unicode="&#xee;" horiz-adv-x="535" d="M265 1386h5q124 -113 297 -196q13 11 26 48q12 33 17 67q-173 92 -338 249h-8q-160 -154 -338 -249q1 -23 17 -67q13 -37 26 -48q93 46 155 87q74 48 141 109zM344 1038h-154v-1038h154v1038z" />
<glyph unicode="&#xef;" horiz-adv-x="535" d="M-29 1302q0 -47 34 -79q33 -33 79 -33t81 33q33 33 33 79t-33 79q-35 33 -81 33t-79 -33q-34 -32 -34 -79zM337 1302q0 -47 34 -79q33 -33 79 -33t81 33q33 33 33 79t-33 79q-35 33 -81 33t-79 -33q-34 -32 -34 -79zM344 1038h-154v-1038h154v1038z" />
<glyph unicode="&#xf0;" horiz-adv-x="1092" d="M320 1449l-80 -110q117 -52 205 -108l-216 -79l43 -115l295 108q99 -82 155 -177q-76 30 -171 30q-212 0 -341 -143q-130 -144 -130 -370t125 -363q128 -142 341 -142t336 138q130 144 130 403q0 211 -90 394q-78 158 -209 283l211 78l-43 115l-276 -101 q-150 113 -285 159zM235 494q0 170 78 263q80 97 233 97q155 0 236 -103q75 -96 75 -268t-75 -263q-79 -96 -229 -96q-158 0 -241 104q-77 96 -77 266z" />
<glyph unicode="&#xf1;" d="M765 1448v-6q0 -39 -28 -59q-25 -19 -62 -19q-20 0 -42 7.5t-33 13.5t-35 21q-68 42 -121 42q-88 0 -152 -53q-67 -55 -77 -141q26 -25 68 -30q31 -4 73 3v6q0 39 26 58.5t65 19.5q10 0 20 -2t16 -3.5t17.5 -8t14 -8t16.5 -10.5t15 -10q62 -42 127 -42q89 0 156 54 t77 140q-26 25 -68 30q-31 4 -73 -3zM264 1038h-104v-1038h155v815q79 47 130 68q79 32 144 32q105 0 161 -55q66 -66 66 -205v-655h155v664q0 206 -109 307q-95 87 -258 87q-68 0 -161 -37q-74 -30 -150 -79z" />
<glyph unicode="&#xf2;" horiz-adv-x="1112" d="M421 1558q-33 -18 -57.5 -51.5t-30.5 -73.5q36 -55 168 -132q151 -88 269 -111q11 10 25 48q12 33 17 67q-122 54 -248 142q-72 50 -143 111zM80 516q0 -226 130 -378q134 -158 342 -158q210 0 347 158q133 155 133 383q0 226 -129 379q-63 75 -151 116.5t-192 41.5 t-192.5 -41.5t-152.5 -116.5q-135 -156 -135 -384zM235 524q0 170 83 278q86 112 238 112q155 0 241 -118q80 -110 80 -283q0 -174 -80 -278q-85 -111 -236 -111q-154 0 -244 119q-82 107 -82 281z" />
<glyph unicode="&#xf3;" horiz-adv-x="1112" d="M707 1558q-75 -64 -142 -111q-124 -86 -249 -142q1 -27 16 -67q13 -37 26 -48q119 23 270 111q60 35 105.5 71t61.5 61q-6 40 -30.5 73.5t-57.5 51.5zM80 516q0 -226 130 -378q134 -158 342 -158q210 0 347 158q133 155 133 383q0 226 -129 379q-63 75 -151 116.5 t-192 41.5t-192.5 -41.5t-152.5 -116.5q-135 -156 -135 -384zM235 524q0 170 83 278q86 112 238 112q155 0 241 -118q80 -110 80 -283q0 -174 -80 -278q-85 -111 -236 -111q-154 0 -244 119q-82 107 -82 281z" />
<glyph unicode="&#xf4;" horiz-adv-x="1112" d="M553 1386h5q124 -113 297 -196q13 11 26 48q12 33 17 67q-173 92 -338 249h-8q-160 -154 -338 -249q1 -23 17 -67q13 -37 26 -48q93 46 155 87q74 48 141 109zM80 516q0 -226 130 -378q134 -158 342 -158q210 0 347 158q133 155 133 383q0 226 -129 379 q-63 75 -151 116.5t-192 41.5t-192.5 -41.5t-152.5 -116.5q-135 -156 -135 -384zM235 524q0 170 83 278q86 112 238 112q155 0 241 -118q80 -110 80 -283q0 -174 -80 -278q-85 -111 -236 -111q-154 0 -244 119q-82 107 -82 281z" />
<glyph unicode="&#xf5;" horiz-adv-x="1112" d="M760 1448v-6q0 -39 -28 -59q-25 -19 -62 -19q-20 0 -42 7.5t-33 13.5t-35 21q-68 42 -121 42q-88 0 -152 -53q-67 -55 -77 -141q26 -25 68 -30q31 -4 73 3v6q0 39 26 58.5t65 19.5q10 0 20 -2t16 -3.5t17.5 -8t14 -8t16.5 -10.5t15 -10q62 -42 127 -42q89 0 156 54 t77 140q-26 25 -68 30q-31 4 -73 -3zM80 516q0 -226 130 -378q134 -158 342 -158q210 0 347 158q133 155 133 383q0 226 -129 379q-63 75 -151 116.5t-192 41.5t-192.5 -41.5t-152.5 -116.5q-135 -156 -135 -384zM235 524q0 170 83 278q86 112 238 112q155 0 241 -118 q80 -110 80 -283q0 -174 -80 -278q-85 -111 -236 -111q-154 0 -244 119q-82 107 -82 281z" />
<glyph unicode="&#xf6;" horiz-adv-x="1112" d="M259 1302q0 -47 34 -79q33 -33 79 -33t81 33q33 33 33 79t-33 79q-35 33 -81 33t-79 -33q-34 -32 -34 -79zM625 1302q0 -47 34 -79q33 -33 79 -33t81 33q33 33 33 79t-33 79q-35 33 -81 33t-79 -33q-34 -32 -34 -79zM80 516q0 -226 130 -378q134 -158 342 -158 q210 0 347 158q133 155 133 383q0 226 -129 379q-63 75 -151 116.5t-192 41.5t-192.5 -41.5t-152.5 -116.5q-135 -156 -135 -384zM235 524q0 170 83 278q86 112 238 112q155 0 241 -118q80 -110 80 -283q0 -174 -80 -278q-85 -111 -236 -111q-154 0 -244 119 q-82 107 -82 281z" />
<glyph unicode="&#xf7;" horiz-adv-x="1030" d="M401 946q0 -47 34 -79q33 -33 79 -33t81 33q33 33 33 79t-33 79q-35 33 -81 33t-79 -33q-34 -32 -34 -79zM120 438h790v154h-790v-154zM401 92q0 -47 34 -79q33 -33 79 -33t81 33q33 33 33 79t-33 79q-35 33 -81 33t-79 -33q-34 -32 -34 -79z" />
<glyph unicode="&#xf8;" horiz-adv-x="1112" d="M240 -168l144 -53l76 210q44 -9 92 -9q210 0 347 158q133 155 133 383q0 143 -56 264q-56 119 -157 191l77 211l-143 54l-73 -199q-57 16 -120 16q-104 0 -192.5 -41.5t-152.5 -116.5q-135 -156 -135 -384q0 -154 63 -278q65 -129 174 -194zM631 906l-262 -718 q-65 53 -99.5 141t-34.5 195q0 170 83 278q86 112 238 112q35 0 75 -8zM511 127l256 704q110 -110 110 -318q0 -174 -80 -278q-85 -111 -236 -111q-26 0 -50 3z" />
<glyph unicode="&#xf9;" d="M409 1558q-33 -18 -57.5 -51.5t-30.5 -73.5q36 -55 168 -132q151 -88 269 -111q11 10 25 48q12 33 17 67q-122 54 -248 142q-72 50 -143 111zM863 0h98v1038h-155v-816q-72 -43 -131 -67q-75 -32 -143 -32q-105 0 -160 55q-67 65 -67 205v655h-155v-664q0 -206 110 -306 q95 -88 257 -88q70 0 163 38q75 31 152 81z" />
<glyph unicode="&#xfa;" d="M712 1558q-75 -64 -142 -111q-124 -86 -249 -142q1 -27 16 -67q13 -37 26 -48q119 23 270 111q60 35 105.5 71t61.5 61q-6 40 -30.5 73.5t-57.5 51.5zM863 0h98v1038h-155v-816q-72 -43 -131 -67q-75 -32 -143 -32q-105 0 -160 55q-67 65 -67 205v655h-155v-664 q0 -206 110 -306q95 -88 257 -88q70 0 163 38q75 31 152 81z" />
<glyph unicode="&#xfb;" d="M557 1386h5q124 -113 297 -196q13 11 26 48q12 33 17 67q-173 92 -338 249h-8q-160 -154 -338 -249q1 -23 17 -67q13 -37 26 -48q93 46 155 87q74 48 141 109zM863 0h98v1038h-155v-816q-72 -43 -131 -67q-75 -32 -143 -32q-105 0 -160 55q-67 65 -67 205v655h-155v-664 q0 -206 110 -306q95 -88 257 -88q70 0 163 38q75 31 152 81z" />
<glyph unicode="&#xfc;" d="M264 1302q0 -47 34 -79q33 -33 79 -33t81 33q33 33 33 79t-33 79q-35 33 -81 33t-79 -33q-34 -32 -34 -79zM630 1302q0 -47 34 -79q33 -33 79 -33t81 33q33 33 33 79t-33 79q-35 33 -81 33t-79 -33q-34 -32 -34 -79zM863 0h98v1038h-155v-816q-72 -43 -131 -67 q-75 -32 -143 -32q-105 0 -160 55q-67 65 -67 205v655h-155v-664q0 -206 110 -306q95 -88 257 -88q70 0 163 38q75 31 152 81z" />
<glyph unicode="&#xfd;" horiz-adv-x="970" d="M637 1558q-75 -64 -142 -111q-124 -86 -249 -142q1 -27 16 -67q13 -37 26 -48q119 23 270 111q60 35 105.5 71t61.5 61q-6 40 -30.5 73.5t-57.5 51.5zM376 0h48l-77 -223q-22 -58 -69 -86q-43 -26 -101 -26q-88 0 -195 62l-42 -142q141 -63 256 -63q221 0 300 226 l445 1290h-160l-301 -873l-301 873h-160z" />
<glyph unicode="&#xfe;" horiz-adv-x="1110" d="M315 1448h-10l-145 -20v-1886h155v461q92 -23 192 -23q256 0 396 163q127 146 127 382q0 230 -122 380q-126 153 -326 153q-148 0 -267 -91v481zM315 162v640q78 112 246 112q157 0 240 -111q74 -99 74 -264q0 -193 -100 -306q-99 -111 -257 -111q-106 0 -203 40z" />
<glyph unicode="&#xff;" horiz-adv-x="970" d="M189 1302q0 -47 34 -79q33 -33 79 -33t81 33q33 33 33 79t-33 79q-35 33 -81 33t-79 -33q-34 -32 -34 -79zM555 1302q0 -47 34 -79q33 -33 79 -33t81 33q33 33 33 79t-33 79q-35 33 -81 33t-79 -33q-34 -32 -34 -79zM376 0h48l-77 -223q-22 -58 -69 -86q-43 -26 -101 -26 q-88 0 -195 62l-42 -142q141 -63 256 -63q221 0 300 226l445 1290h-160l-301 -873l-301 873h-160z" />
<glyph unicode="&#x100;" horiz-adv-x="1164" d="M883 1618h-602v-144h602v144zM291 307h582l106 -307h160l-454 1318h-207l-453 -1318h160zM824 451h-484l242 701z" />
<glyph unicode="&#x101;" horiz-adv-x="1022" d="M812 1338h-602v-144h602v144zM894 -20l88 145q-88 27 -120 105q-23 54 -23 157v330q0 185 -97 270q-81 71 -226 71q-119 0 -199 -20q-69 -17 -180 -62l40 -135q79 39 158 58q74 16 154 16q91 0 139 -40q57 -49 57 -158v-129q-138 12 -209 12q-207 0 -304 -77 q-92 -75 -92 -223q0 -174 117 -257q88 -63 220 -63q99 0 185 42q78 38 135 103q54 -111 157 -145zM685 457v-84q0 -144 -99 -206q-67 -43 -181 -43q-49 0 -97 31q-75 47 -75 145q0 59 29.5 92t89.5 49q36 9 88.5 13t111.5 3.5t133 -0.5z" />
<glyph unicode="&#x102;" horiz-adv-x="1164" d="M318 1724q-26 -17 -50 -49q-25 -35 -25 -63q59 -70 155 -107q86 -35 188 -35q97 0 186 36q96 38 149 106q0 28 -25 63q-24 32 -50 49q-95 -114 -269 -114t-259 114zM291 307h582l106 -307h160l-454 1318h-207l-453 -1318h160zM824 451h-484l242 701z" />
<glyph unicode="&#x103;" horiz-adv-x="1022" d="M247 1445q-26 -17 -50 -49q-25 -35 -25 -63q59 -70 155 -107q86 -35 188 -35q97 0 186 36q96 38 149 106q0 28 -25 63q-24 32 -50 49q-95 -114 -269 -114t-259 114zM894 -20l88 145q-88 27 -120 105q-23 54 -23 157v330q0 185 -97 270q-81 71 -226 71q-119 0 -199 -20 q-69 -17 -180 -62l40 -135q79 39 158 58q74 16 154 16q91 0 139 -40q57 -49 57 -158v-129q-138 12 -209 12q-207 0 -304 -77q-92 -75 -92 -223q0 -174 117 -257q88 -63 220 -63q99 0 185 42q78 38 135 103q54 -111 157 -145zM685 457v-84q0 -144 -99 -206q-67 -43 -181 -43 q-49 0 -97 31q-75 47 -75 145q0 59 29.5 92t89.5 49q36 9 88.5 13t111.5 3.5t133 -0.5z" />
<glyph unicode="&#x104;" horiz-adv-x="1164" d="M685 1318h-207l-453 -1318h160l106 307h582l99 -287q-69 -51 -109 -112q-45 -67 -45 -139q0 -104 72 -176q71 -71 169 -71q84 0 156 51v131l-7 5q-88 -46 -152 -46q-41 0 -64 23q-27 25 -27 81q0 63 38 120q46 71 136 113zM824 451h-484l242 701z" />
<glyph unicode="&#x105;" horiz-adv-x="1022" d="M894 -20l88 145q-88 27 -120 105q-23 54 -23 157v330q0 185 -97 270q-81 71 -226 71q-119 0 -199 -20q-69 -17 -180 -62l40 -135q79 39 158 58q74 16 154 16q91 0 139 -40q57 -49 57 -158v-129q-138 12 -209 12q-207 0 -304 -77q-92 -75 -92 -223q0 -174 117 -257 q88 -63 220 -63q99 0 185 42q78 38 135 103q22 -48 58 -84q-83 -54 -130 -119q-54 -75 -54 -153q0 -104 72 -176q71 -71 169 -71q84 0 156 51v131l-7 5q-88 -46 -152 -46q-41 0 -64 23q-27 25 -27 81q0 54 30 107q36 63 106 106zM685 457v-84q0 -144 -99 -206 q-67 -43 -181 -43q-49 0 -97 31q-75 47 -75 145q0 59 29.5 92t89.5 49q36 9 88.5 13t111.5 3.5t133 -0.5z" />
<glyph unicode="&#x106;" horiz-adv-x="1081" d="M851 1838q-75 -64 -142 -111q-124 -86 -249 -142q1 -27 16 -67q13 -37 26 -48q119 23 270 111q60 35 105.5 71t61.5 61q-6 40 -30.5 73.5t-57.5 51.5zM1041 163l-7 4q-63 -20 -150 -32q-73 -10 -139 -10q-249 0 -384 151q-127 142 -127 384q0 245 128 385 q134 148 383 148q66 0 139 -10q87 -12 150 -32l7 4v142q-64 18 -150 30q-83 11 -154 11q-318 0 -491 -189q-160 -174 -166 -469q0 -317 164 -504q171 -196 493 -196q81 0 154 11q86 12 150 30v142z" />
<glyph unicode="&#x107;" horiz-adv-x="899" d="M601 1558q-75 -64 -142 -111q-124 -86 -249 -142q1 -27 16 -67q13 -37 26 -48q119 23 270 111q60 35 105.5 71t61.5 61q-6 40 -30.5 73.5t-57.5 51.5zM859 190l-7 5q-139 -71 -274 -71q-150 0 -243 99q-102 108 -102 309q0 197 102 296q90 86 243 86q134 0 274 -71l7 5 v136q-149 74 -297 74q-211 0 -338 -123q-144 -139 -144 -409q0 -272 148 -418q129 -128 334 -128q148 0 297 74v136z" />
<glyph unicode="&#x108;" horiz-adv-x="1081" d="M672 1666h5q124 -113 297 -196q13 11 26 48q12 33 17 67q-173 92 -338 249h-8q-160 -154 -338 -249q1 -23 17 -67q13 -37 26 -48q93 46 155 87q74 48 141 109zM1041 163l-7 4q-63 -20 -150 -32q-73 -10 -139 -10q-249 0 -384 151q-127 142 -127 384q0 245 128 385 q134 148 383 148q66 0 139 -10q87 -12 150 -32l7 4v142q-64 18 -150 30q-83 11 -154 11q-318 0 -491 -189q-160 -174 -166 -469q0 -317 164 -504q171 -196 493 -196q81 0 154 11q86 12 150 30v142z" />
<glyph unicode="&#x109;" horiz-adv-x="899" d="M553 1386h5q124 -113 297 -196q13 11 26 48q12 33 17 67q-173 92 -338 249h-8q-160 -154 -338 -249q1 -23 17 -67q13 -37 26 -48q93 46 155 87q74 48 141 109zM859 190l-7 5q-139 -71 -274 -71q-150 0 -243 99q-102 108 -102 309q0 197 102 296q90 86 243 86 q134 0 274 -71l7 5v136q-149 74 -297 74q-211 0 -338 -123q-144 -139 -144 -409q0 -272 148 -418q129 -128 334 -128q148 0 297 74v136z" />
<glyph unicode="&#x10c;" horiz-adv-x="1081" d="M740 1638h-5q-118 108 -296 196q-13 -11 -26 -47q-16 -43 -17 -68q178 -95 338 -249h8q165 157 338 249q-5 36 -17 68q-13 36 -26 47q-180 -89 -297 -196zM1041 163l-7 4q-63 -20 -150 -32q-73 -10 -139 -10q-249 0 -384 151q-127 142 -127 384q0 245 128 385 q134 148 383 148q66 0 139 -10q87 -12 150 -32l7 4v142q-64 18 -150 30q-83 11 -154 11q-318 0 -491 -189q-160 -174 -166 -469q0 -317 164 -504q171 -196 493 -196q81 0 154 11q86 12 150 30v142z" />
<glyph unicode="&#x10d;" horiz-adv-x="899" d="M561 1358h-5q-118 108 -296 196q-13 -11 -26 -47q-16 -43 -17 -68q178 -95 338 -249h8q165 157 338 249q-5 36 -17 68q-13 36 -26 47q-180 -89 -297 -196zM859 190l-7 5q-139 -71 -274 -71q-150 0 -243 99q-102 108 -102 309q0 197 102 296q90 86 243 86q134 0 274 -71 l7 5v136q-149 74 -297 74q-211 0 -338 -123q-144 -139 -144 -409q0 -272 148 -418q129 -128 334 -128q148 0 297 74v136z" />
<glyph unicode="&#x10e;" horiz-adv-x="1298" d="M538 1638h-5q-118 108 -296 196q-13 -11 -26 -47q-16 -43 -17 -68q178 -95 338 -249h8q165 157 338 249q-5 36 -17 68q-13 36 -26 47q-180 -89 -297 -196zM160 1318v-1318h389q142 0 265 49t214 138q91 88 140.5 209.5t49.5 263.5q0 141 -52 262t-146 211 q-93 88 -219 136.5t-268 48.5h-373zM315 144v1030h218q108 0 204.5 -38.5t169.5 -108.5q156 -151 156 -383q0 -223 -137 -360q-142 -140 -377 -140h-234z" />
<glyph unicode="&#x10f;" horiz-adv-x="1501" d="M852 0h98v1448h-10l-145 -20v-391q-107 21 -192 21q-257 0 -395 -152q-128 -141 -128 -372q0 -233 122 -389q127 -164 326 -164q163 0 292 111zM1190 1099l42 -54q70 39 126 115q63 85 63 165q0 62 -39 96q-34 27 -76 27q-46 0 -79 -33t-33 -79q45 -62 45 -107 q0 -46 -49 -130zM795 875v-637q-81 -113 -246 -113q-155 0 -240 121q-74 106 -74 275q0 192 101 296q94 99 256 99q97 0 203 -41z" />
<glyph unicode="&#x111;" horiz-adv-x="1110" d="M1091 1318h-491v-144h491v144zM852 -1h98v1449h-10l-145 -20v-391q-107 21 -192 21q-257 0 -395 -152q-128 -141 -128 -372q0 -234 122 -390q127 -164 326 -164q163 0 292 111zM795 875v-638q-81 -113 -246 -113q-155 0 -240 121q-74 106 -74 276q0 192 101 296 q94 99 256 99q97 0 203 -41z" />
<glyph unicode="&#x112;" horiz-adv-x="998" d="M871 1618h-602v-144h602v144zM954 1318h-794v-1318h794v144h-639v443h639v144h-639v443h639v144z" />
<glyph unicode="&#x113;" horiz-adv-x="946" d="M811 1338h-602v-144h602v144zM881 480v140q0 121 -21 201q-28 108 -100 167q-86 70 -234 70q-223 0 -339 -151q-107 -138 -107 -375q0 -272 144 -419q130 -133 338 -133q147 0 298 74v143l-3 1q-146 -74 -280 -74q-141 0 -232 88q-100 96 -111 268h647zM729 620h-488 q20 133 92 211q77 83 190 83t163 -87q41 -72 43 -207z" />
<glyph unicode="&#x116;" horiz-adv-x="998" d="M478 1582q0 -47 34 -79q33 -33 79 -33t81 33q33 33 33 79t-33 79q-35 33 -81 33t-79 -33q-34 -32 -34 -79zM954 1318h-794v-1318h794v144h-639v443h639v144h-639v443h639v144z" />
<glyph unicode="&#x117;" horiz-adv-x="931" d="M427 1302q0 -47 34 -79q33 -33 79 -33t81 33q33 33 33 79t-33 79q-35 33 -81 33t-79 -33q-34 -32 -34 -79zM881 480v140q0 121 -21 201q-28 108 -100 167q-86 70 -234 70q-223 0 -339 -151q-107 -138 -107 -375q0 -272 144 -419q130 -133 338 -133q147 0 298 74v143l-3 1 q-146 -74 -280 -74q-141 0 -232 88q-100 96 -111 268h647zM729 620h-488q20 133 92 211q77 83 190 83t163 -87q41 -72 43 -207z" />
<glyph unicode="&#x118;" horiz-adv-x="998" d="M954 1318h-794v-1318h602q-129 -107 -129 -231q0 -104 72 -176q71 -71 169 -71q84 0 156 51v131l-7 5q-88 -46 -152 -46q-41 0 -64 23q-27 25 -27 81q0 63 38 120q46 71 136 113v144h-639v443h639v144h-639v443h639v144z" />
<glyph unicode="&#x119;" horiz-adv-x="946" d="M881 480v140q0 121 -21 201q-28 108 -100 167q-86 70 -234 70q-223 0 -339 -151q-107 -138 -107 -375q0 -253 125 -399q112 -131 301 -150q-109 -102 -109 -214q0 -104 72 -176q71 -71 169 -71q84 0 156 51v131l-7 5q-88 -46 -152 -46q-41 0 -64 23q-27 25 -27 81 q0 63 38 120q46 71 136 113q70 19 142 54v143l-3 1q-146 -74 -280 -74q-141 0 -232 88q-100 96 -111 268h647zM729 620h-488q20 133 92 211q77 83 190 83t163 -87q41 -72 43 -207z" />
<glyph unicode="&#x11a;" horiz-adv-x="998" d="M567 1638h-5q-118 108 -296 196q-13 -11 -26 -47q-16 -43 -17 -68q178 -95 338 -249h8q165 157 338 249q-5 36 -17 68q-13 36 -26 47q-180 -89 -297 -196zM954 1318h-794v-1318h794v144h-639v443h639v144h-639v443h639v144z" />
<glyph unicode="&#x11b;" horiz-adv-x="946" d="M533 1358h-5q-118 108 -296 196q-13 -11 -26 -47q-16 -43 -17 -68q178 -95 338 -249h8q165 157 338 249q-5 36 -17 68q-13 36 -26 47q-180 -89 -297 -196zM881 480v140q0 121 -21 201q-28 108 -100 167q-86 70 -234 70q-223 0 -339 -151q-107 -138 -107 -375 q0 -272 144 -419q130 -133 338 -133q147 0 298 74v143l-3 1q-146 -74 -280 -74q-141 0 -232 88q-100 96 -111 268h647zM729 620h-488q20 133 92 211q77 83 190 83t163 -87q41 -72 43 -207z" />
<glyph unicode="&#x11c;" horiz-adv-x="1268" d="M681 1666h5q124 -113 297 -196q13 11 26 48q12 33 17 67q-173 92 -338 249h-8q-160 -154 -338 -249q1 -23 17 -67q13 -37 26 -48q93 46 155 87q74 48 141 109zM1069 -2h59v726h-436v-155h285v-331q-38 -43 -89 -70q-82 -44 -185 -44q-202 0 -336 161q-132 156 -132 391 q0 227 127 366q136 151 383 151q66 0 140 -10q86 -12 149 -32l8 4v142q-64 19 -151 30q-83 11 -158 11q-319 0 -493 -197q-160 -181 -160 -474q0 -146 43.5 -272.5t123.5 -218.5q170 -196 439 -196q163 0 291 89z" />
<glyph unicode="&#x11d;" horiz-adv-x="1034" d="M479 1386h5q124 -113 297 -196q13 11 26 48q12 33 17 67q-173 92 -338 249h-8q-160 -154 -338 -249q1 -23 17 -67q13 -37 26 -48q93 46 155 87q74 48 141 109zM569 217h-196q-60 0 -94 26t-34 67t35 85q92 -45 192 -45q167 0 279 109q108 106 108 257q0 107 -60 193 q92 58 195 75l-46 131q-56 0 -125 -27q-75 -29 -140 -78q-87 48 -201 48q-168 0 -277 -99q-107 -98 -107 -247q0 -66 22 -134q22 -70 64 -113q-75 -93 -75 -181q0 -44 22 -93q23 -51 63 -74q-59 -59 -91.5 -129.5t-32.5 -134.5q0 -142 103 -234q107 -97 281 -97q96 0 192 31 t172 86q79 56 124.5 130t45.5 156q0 124 -102 205q-111 87 -317 87zM478 920q109 0 176 -70q59 -64 59 -149q0 -86 -58 -145q-66 -69 -174 -69q-111 0 -178 69q-61 63 -61 147q0 85 60 147q68 70 176 70zM314 84h117q199 0 282 -26q117 -39 117 -143q0 -100 -99 -175 q-108 -83 -257 -83q-131 0 -195 59q-57 53 -57 151q0 112 92 217z" />
<glyph unicode="&#x11e;" horiz-adv-x="1268" d="M452 1704q-26 -17 -50 -49q-25 -35 -25 -63q59 -70 155 -107q86 -35 188 -35q98 0 186 36q96 38 149 106q0 28 -25 63q-24 32 -50 49q-95 -114 -269 -114t-259 114zM1069 -2h59v726h-436v-155h285v-331q-38 -43 -89 -70q-82 -44 -185 -44q-202 0 -336 161 q-132 156 -132 391q0 227 127 366q136 151 383 151q66 0 140 -10q86 -12 149 -32l8 4v142q-64 19 -151 30q-83 11 -158 11q-319 0 -493 -197q-160 -181 -160 -474q0 -146 43.5 -272.5t123.5 -218.5q170 -196 439 -196q163 0 291 89z" />
<glyph unicode="&#x11f;" horiz-adv-x="1034" d="M233 1447q-26 -17 -50 -49q-25 -35 -25 -63q59 -70 155 -107q86 -35 188 -35q97 0 186 36q96 38 149 106q0 28 -25 63q-24 32 -50 49q-95 -114 -269 -114t-259 114zM569 217h-196q-60 0 -94 26t-34 67t35 85q92 -45 192 -45q167 0 279 109q108 106 108 257q0 107 -60 193 q92 58 195 75l-46 131q-56 0 -125 -27q-75 -29 -140 -78q-87 48 -201 48q-168 0 -277 -99q-107 -98 -107 -247q0 -66 22 -134q22 -70 64 -113q-75 -93 -75 -181q0 -44 22 -93q23 -51 63 -74q-59 -59 -91.5 -129.5t-32.5 -134.5q0 -142 103 -234q107 -97 281 -97q96 0 192 31 t172 86q79 56 124.5 130t45.5 156q0 124 -102 205q-111 87 -317 87zM478 920q109 0 176 -70q59 -64 59 -149q0 -86 -58 -145q-66 -69 -174 -69q-111 0 -178 69q-61 63 -61 147q0 85 60 147q68 70 176 70zM314 84h117q199 0 282 -26q117 -39 117 -143q0 -100 -99 -175 q-108 -83 -257 -83q-131 0 -195 59q-57 53 -57 151q0 112 92 217z" />
<glyph unicode="&#x120;" horiz-adv-x="1268" d="M577 1560q0 -47 34 -79q33 -33 79 -33t81 33q33 33 33 79t-33 79q-35 33 -81 33t-79 -33q-34 -32 -34 -79zM1069 -2h59v726h-436v-155h285v-331q-38 -43 -89 -70q-82 -44 -185 -44q-202 0 -336 161q-132 156 -132 391q0 227 127 366q136 151 383 151q66 0 140 -10 q86 -12 149 -32l8 4v142q-64 19 -151 30q-83 11 -158 11q-319 0 -493 -197q-160 -181 -160 -474q0 -146 43.5 -272.5t123.5 -218.5q170 -196 439 -196q163 0 291 89z" />
<glyph unicode="&#x121;" horiz-adv-x="1034" d="M379 1334q0 -47 34 -79q33 -33 79 -33t81 33q33 33 33 79t-33 79q-35 33 -81 33t-79 -33q-34 -32 -34 -79zM569 217h-196q-60 0 -94 26t-34 67t35 85q92 -45 192 -45q167 0 279 109q108 106 108 257q0 107 -60 193q92 58 195 75l-46 131q-56 0 -125 -27q-75 -29 -140 -78 q-87 48 -201 48q-168 0 -277 -99q-107 -98 -107 -247q0 -66 22 -134q22 -70 64 -113q-75 -93 -75 -181q0 -44 22 -93q23 -51 63 -74q-59 -59 -91.5 -129.5t-32.5 -134.5q0 -142 103 -234q107 -97 281 -97q96 0 192 31t172 86q79 56 124.5 130t45.5 156q0 124 -102 205 q-111 87 -317 87zM478 920q109 0 176 -70q59 -64 59 -149q0 -86 -58 -145q-66 -69 -174 -69q-111 0 -178 69q-61 63 -61 147q0 85 60 147q68 70 176 70zM314 84h117q199 0 282 -26q117 -39 117 -143q0 -100 -99 -175q-108 -83 -257 -83q-131 0 -195 59q-57 53 -57 151 q0 112 92 217z" />
<glyph unicode="&#x122;" horiz-adv-x="1268" d="M1069 -2h59v726h-436v-155h285v-331q-38 -43 -89 -70q-82 -44 -185 -44q-202 0 -336 161q-132 156 -132 391q0 227 127 366q136 151 383 151q66 0 140 -10q86 -12 149 -32l8 4v142q-64 19 -151 30q-83 11 -158 11q-319 0 -493 -197q-160 -181 -160 -474 q0 -146 43.5 -272.5t123.5 -218.5q170 -196 439 -196q163 0 291 89zM575 -424l42 -54q70 39 126 115q63 85 63 165q0 62 -39 96q-34 27 -76 27q-46 0 -79 -33t-33 -79q45 -62 45 -107q0 -46 -49 -130z" />
<glyph unicode="&#x123;" horiz-adv-x="1034" d="M606 1537l-43 54q-70 -37 -125 -114q-63 -85 -63 -166q0 -63 39 -95q32 -28 75 -28q46 0 79 33t33 79q-44 61 -44 107q0 49 49 130zM569 217h-196q-60 0 -94 26t-34 67t35 85q92 -45 192 -45q167 0 279 109q108 106 108 257q0 107 -60 193q92 58 195 75l-46 131 q-56 0 -125 -27q-75 -29 -140 -78q-87 48 -201 48q-168 0 -277 -99q-107 -98 -107 -247q0 -66 22 -134q22 -70 64 -113q-75 -93 -75 -181q0 -44 22 -93q23 -51 63 -74q-59 -59 -91.5 -129.5t-32.5 -134.5q0 -142 103 -234q107 -97 281 -97q96 0 192 31t172 86 q79 56 124.5 130t45.5 156q0 124 -102 205q-111 87 -317 87zM478 920q109 0 176 -70q59 -64 59 -149q0 -86 -58 -145q-66 -69 -174 -69q-111 0 -178 69q-61 63 -61 147q0 85 60 147q68 70 176 70zM314 84h117q199 0 282 -26q117 -39 117 -143q0 -100 -99 -175 q-108 -83 -257 -83q-131 0 -195 59q-57 53 -57 151q0 112 92 217z" />
<glyph unicode="&#x124;" horiz-adv-x="1273" d="M633 1666h5q124 -113 297 -196q13 11 26 48q12 33 17 67q-173 92 -338 249h-8q-160 -154 -338 -249q1 -23 17 -67q13 -37 26 -48q93 46 155 87q74 48 141 109zM315 582h643v-582h155v1318h-155v-582h-643v582h-155v-1318h155v582z" />
<glyph unicode="&#x125;" d="M246 1644h5q124 -113 297 -196q13 11 26 48q12 33 17 67q-173 92 -338 249h-8q-160 -154 -338 -249q1 -23 17 -67q13 -37 26 -48q93 46 155 87q74 48 141 109zM305 1448l-145 -20v-1428h155v815q78 47 130 69q77 31 144 31q104 0 161 -54q66 -66 66 -205v-656h155v664 q0 206 -109 307q-95 87 -258 87q-61 0 -147 -32q-70 -26 -142 -70v492h-10z" />
<glyph unicode="&#x126;" horiz-adv-x="1273" d="M315 582h643v-582h155v1318h-155v-280h-643v280h-155v-1318h155v582zM958 882v-146h-643v146h643z" />
<glyph unicode="&#x127;" d="M160 1318h-120v-144h120v-1174h155v815q78 47 130 69q77 31 144 31q104 0 161 -54q66 -66 66 -205v-656h155v664q0 206 -109 307q-95 87 -258 87q-61 0 -147 -32q-70 -26 -142 -70v218h283v144h-283v130h-10l-145 -20v-110z" />
<glyph unicode="&#x128;" horiz-adv-x="474" d="M442 1728v-6q0 -39 -28 -59q-25 -19 -62 -19q-20 0 -42 7.5t-33 13.5t-35 21q-68 42 -121 42q-88 0 -152 -53q-67 -55 -77 -141q26 -25 68 -30q31 -4 73 3v6q0 39 26 58.5t65 19.5q10 0 20 -2t16 -3.5t17.5 -8t14 -8t16.5 -10.5t15 -10q62 -42 127 -42q89 0 156 54 t77 140q-26 25 -68 30q-31 4 -73 -3zM314 1318h-154v-1318h154v1318z" />
<glyph unicode="&#x12a;" horiz-adv-x="474" d="M538 1618h-602v-144h602v144zM314 1318h-154v-1318h154v1318z" />
<glyph unicode="&#x12b;" horiz-adv-x="535" d="M569 1338h-602v-144h602v144zM344 1038h-154v-1038h154v1038z" />
<glyph unicode="&#x12c;" horiz-adv-x="474" d="M-27 1739q-26 -17 -50 -49q-25 -35 -25 -63q59 -70 155 -107q86 -35 188 -35q97 0 186 36q96 38 149 106q0 28 -25 63q-24 32 -50 49q-95 -114 -269 -114t-259 114zM314 1318h-154v-1318h154v1318z" />
<glyph unicode="&#x12d;" horiz-adv-x="535" d="M4 1448q-26 -17 -50 -49q-25 -35 -25 -63q59 -70 155 -107q86 -35 188 -35q98 0 186 36q96 38 149 106q0 28 -25 63q-24 32 -50 49q-95 -114 -269 -114t-259 114zM344 1038h-154v-1038h154v1038z" />
<glyph unicode="&#x12e;" horiz-adv-x="474" d="M314 1318h-154v-1318h52q-129 -107 -129 -231q0 -104 72 -176q71 -71 169 -71q84 0 156 51v131l-7 5q-88 -46 -152 -46q-41 0 -64 23q-27 25 -27 81q0 63 38 120q46 71 136 113l-24 101q-19 -7 -66 -32v1249z" />
<glyph unicode="&#x12f;" horiz-adv-x="535" d="M160 1321q0 -44 32 -74q30 -32 75 -32q44 0 76 32q32 30 32 74t-32 76q-33 31 -76 31q-44 0 -75 -31q-32 -32 -32 -76zM420 -296l-7 5q-88 -46 -152 -46q-41 0 -64 23q-27 25 -27 81q0 63 38 120q46 71 136 113v1038h-154v-1009q-74 -50 -118 -115q-49 -72 -49 -145 q0 -104 72 -176q71 -71 169 -71q84 0 156 51v131z" />
<glyph unicode="&#x130;" horiz-adv-x="474" d="M123 1582q0 -47 34 -79q33 -33 79 -33t81 33q33 33 33 79t-33 79q-35 33 -81 33t-79 -33q-34 -32 -34 -79zM314 1318h-154v-1318h154v1318z" />
<glyph unicode="&#x131;" horiz-adv-x="474" d="M314 1038h-154v-1038h154v1038z" />
<glyph unicode="&#x132;" horiz-adv-x="1124" d="M99 1581q0 -44 32 -74q30 -32 75 -32q44 0 76 32q32 30 32 74t-32 76q-33 31 -76 31q-44 0 -75 -31q-32 -32 -32 -76zM806 1581q0 -44 32 -74q30 -32 75 -32q44 0 76 32q32 30 32 74t-32 76q-33 31 -76 31q-44 0 -75 -31q-32 -32 -32 -76zM129 1318v-887h154v887h-154z M348 139l-60 -133q84 -26 209 -26q135 0 228 32q121 41 187 146q78 122 78 332v828h-154v-778q0 -182 -49 -280q-42 -85 -124 -115q-59 -23 -167 -23q-95 0 -148 17z" />
<glyph unicode="&#x133;" horiz-adv-x="1181" d="M160 1321q0 -44 32 -74q30 -32 75 -32q44 0 76 32q32 30 32 74t-32 76q-33 31 -76 31q-44 0 -75 -31q-32 -32 -32 -76zM816 1321q0 -44 32 -74q30 -32 75 -32q44 0 76 32q32 30 32 74t-32 76q-33 31 -76 31q-44 0 -75 -31q-32 -32 -32 -76zM1000 1038h-155v-816 q-72 -43 -131 -67q-75 -32 -143 -32q-105 0 -160 55q-67 65 -67 205v655h-155v-664q0 -206 110 -306q95 -88 257 -88q65 0 147 32q75 28 142 70v-156q0 -132 -54 -201q-47 -60 -133 -60q-88 0 -195 62l-42 -142q139 -63 256 -63q145 0 229 93q94 102 94 311v1112z" />
<glyph unicode="&#x134;" horiz-adv-x="731" d="M432 1666h5q124 -113 297 -196q13 11 26 48q12 33 17 67q-173 92 -338 249h-8q-160 -154 -338 -249q1 -23 17 -67q13 -37 26 -48q93 46 155 87q74 48 141 109zM167 123v-143q183 0 272 122q75 103 75 282v934h-155v-934q0 -132 -54 -201q-47 -60 -133 -60h-5z" />
<glyph unicode="&#x135;" horiz-adv-x="530" d="M262 1386h5q124 -113 297 -196q13 11 26 48q12 33 17 67q-173 92 -338 249h-8q-160 -154 -338 -249q1 -23 17 -67q13 -37 26 -48q93 46 155 87q74 48 141 109zM349 1038h-155v-1112q0 -132 -54 -201q-47 -60 -133 -60q-88 0 -195 62l-42 -142q139 -63 256 -63 q145 0 229 93q94 102 94 311v1112z" />
<glyph unicode="&#x136;" horiz-adv-x="1101" d="M449 -424l42 -54q70 39 126 115q63 85 63 165q0 62 -39 96q-34 27 -76 27q-46 0 -79 -33t-33 -79q45 -62 45 -107q0 -46 -49 -130zM522 670l-2 -1q80 -136 259 -305.5t288 -229.5q-57 -98 -89 -134q-2 0 -6 2q-101 47 -244 177t-259 272t-154 231v-682h-155v1318h155 v-618l519 618h190v-9l-518 -615l8 -14z" />
<glyph unicode="&#x137;" horiz-adv-x="975" d="M882 -20l64 137q-76 23 -183 115q-90 78 -174 177q-78 91 -86 127l422 502h-198l-412 -492v902h-10l-145 -27v-1421h155v527q3 -8 21 -37q15 -26 45 -67q62 -88 146 -183q94 -109 181 -176q101 -80 174 -84zM364 -424l42 -54q70 39 126 115q63 85 63 165q0 62 -39 96 q-34 27 -76 27q-46 0 -79 -33t-33 -79q45 -62 45 -107q0 -46 -49 -130z" />
<glyph unicode="&#x139;" horiz-adv-x="968" d="M382 1838q-75 -64 -142 -111q-124 -86 -249 -142q1 -27 16 -67q13 -37 26 -48q119 23 270 111q60 35 105.5 71t61.5 61q-6 40 -30.5 73.5t-57.5 51.5zM305 1318h-155v-1318h774v144h-619v1174z" />
<glyph unicode="&#x13a;" horiz-adv-x="474" d="M389 1816q-75 -64 -142 -111q-124 -86 -249 -142q1 -27 16 -67q13 -37 26 -48q119 23 270 111q60 35 105.5 71t61.5 61q-6 40 -30.5 73.5t-57.5 51.5zM304 1448l-144 -20v-1428h154v1448h-10z" />
<glyph unicode="&#x13b;" horiz-adv-x="968" d="M305 1318h-155v-1318h774v144h-619v1174zM444 -424l42 -54q70 39 126 115q63 85 63 165q0 62 -39 96q-34 27 -76 27q-46 0 -79 -33t-33 -79q45 -62 45 -107q0 -46 -49 -130z" />
<glyph unicode="&#x13c;" horiz-adv-x="474" d="M304 1448l-144 -20v-1428h154v1448h-10zM121 -424l42 -54q70 39 126 115q63 85 63 165q0 62 -39 96q-34 27 -76 27q-46 0 -79 -33t-33 -79q45 -62 45 -107q0 -46 -49 -130z" />
<glyph unicode="&#x13d;" horiz-adv-x="968" d="M570 1099l42 -54q70 39 126 115q63 85 63 165q0 62 -39 96q-34 27 -76 27q-46 0 -79 -33t-33 -79q45 -62 45 -107q0 -46 -49 -130zM305 1318h-155v-1318h774v144h-619v1174z" />
<glyph unicode="&#x13e;" horiz-adv-x="865" d="M304 1448l-144 -20v-1428h154v1448h-10zM554 1099l42 -54q70 39 126 115q63 85 63 165q0 62 -39 96q-34 27 -76 27q-46 0 -79 -33t-33 -79q45 -62 45 -107q0 -46 -49 -130z" />
<glyph unicode="&#x13f;" horiz-adv-x="968" d="M305 1318h-155v-1318h774v144h-619v1174zM675 729q0 -47 34 -79q33 -33 79 -33t81 33q33 33 33 79t-33 79q-35 33 -81 33t-79 -33q-34 -32 -34 -79z" />
<glyph unicode="&#x140;" horiz-adv-x="800" d="M304 1448l-144 -20v-1428h154v1448h-10zM436 729q0 -47 34 -79q33 -33 79 -33t81 33q33 33 33 79t-33 79q-35 33 -81 33t-79 -33q-34 -32 -34 -79z" />
<glyph unicode="&#x141;" horiz-adv-x="1058" d="M240 735l-200 -72l47 -127l153 55v-591h774v144h-619v503l229 83l-47 127l-182 -66v527h-155v-583z" />
<glyph unicode="&#x142;" horiz-adv-x="634" d="M250 947l-210 -76l47 -127l163 59v-803h154v858l220 80l-47 127l-173 -63v446h-10l-144 -20v-481z" />
<glyph unicode="&#x143;" horiz-adv-x="1263" d="M783 1838q-75 -64 -142 -111q-124 -86 -249 -142q1 -27 16 -67q13 -37 26 -48q119 23 270 111q60 35 105.5 71t61.5 61q-6 40 -30.5 73.5t-57.5 51.5zM315 0v1028l643 -1028h155v1318h-155v-1019l-637 1019h-161v-1318h155z" />
<glyph unicode="&#x144;" d="M738 1558q-75 -64 -142 -111q-124 -86 -249 -142q1 -27 16 -67q13 -37 26 -48q119 23 270 111q60 35 105.5 71t61.5 61q-6 40 -30.5 73.5t-57.5 51.5zM264 1038h-104v-1038h155v815q79 47 130 68q79 32 144 32q105 0 161 -55q66 -66 66 -205v-655h155v664q0 206 -109 307 q-95 87 -258 87q-68 0 -161 -37q-74 -30 -150 -79z" />
<glyph unicode="&#x145;" horiz-adv-x="1263" d="M315 0v1028l643 -1028h155v1318h-155v-1019l-637 1019h-161v-1318h155zM520 -424l42 -54q70 39 126 115q63 85 63 165q0 62 -39 96q-34 27 -76 27q-46 0 -79 -33t-33 -79q45 -62 45 -107q0 -46 -49 -130z" />
<glyph unicode="&#x146;" d="M264 1038h-104v-1038h155v815q79 47 130 68q79 32 144 32q105 0 161 -55q66 -66 66 -205v-655h155v664q0 206 -109 307q-95 87 -258 87q-68 0 -161 -37q-74 -30 -150 -79zM438 -424l42 -54q70 39 126 115q63 85 63 165q0 62 -39 96q-34 27 -76 27q-46 0 -79 -33t-33 -79 q45 -62 45 -107q0 -46 -49 -130z" />
<glyph unicode="&#x147;" horiz-adv-x="1263" d="M673 1614h-5q-118 108 -296 196q-13 -11 -26 -47q-16 -43 -17 -68q178 -95 338 -249h8q165 157 338 249q-5 36 -17 68q-13 36 -26 47q-180 -89 -297 -196zM315 0v1028l643 -1028h155v1318h-155v-1019l-637 1019h-161v-1318h155z" />
<glyph unicode="&#x148;" d="M562 1358h-5q-118 108 -296 196q-13 -11 -26 -47q-16 -43 -17 -68q178 -95 338 -249h8q165 157 338 249q-5 36 -17 68q-13 36 -26 47q-180 -89 -297 -196zM264 1038h-104v-1038h155v815q79 47 130 68q79 32 144 32q105 0 161 -55q66 -66 66 -205v-655h155v664 q0 206 -109 307q-95 87 -258 87q-68 0 -161 -37q-74 -30 -150 -79z" />
<glyph unicode="&#x14a;" horiz-adv-x="1263" d="M766 -334v-143q183 0 272 122q75 103 75 282v1391h-155v-1019l-637 1019h-161v-1318h155v1028l643 -1028v-73q0 -132 -54 -201q-47 -60 -133 -60h-5z" />
<glyph unicode="&#x14b;" d="M816 655v-729q0 -132 -54 -201q-47 -60 -133 -60q-88 0 -195 62l-42 -142q139 -63 256 -63q145 0 229 93q94 102 94 311v738q0 206 -109 307q-95 87 -258 87q-68 0 -161 -37q-74 -30 -150 -79l-29 96h-104v-1038h155v815q79 47 130 68q79 32 144 32q105 0 161 -55 q66 -66 66 -205z" />
<glyph unicode="&#x14c;" horiz-adv-x="1383" d="M1006 1618h-602v-144h602v144zM80 660q0 -143 43.5 -267.5t123.5 -216.5q81 -94 193 -145t247 -51q134 0 248 51.5t197 145.5q82 93 126.5 217t44.5 266q0 293 -165 483q-81 93 -193 144t-247 51t-249 -51t-197 -144q-172 -193 -172 -483zM234 672q0 231 122 373 q127 149 338 149q215 0 338 -156q117 -149 117 -390q0 -232 -117 -375q-122 -149 -333 -149q-216 0 -344 159q-121 150 -121 389z" />
<glyph unicode="&#x14d;" horiz-adv-x="1112" d="M857 1338h-602v-144h602v144zM80 516q0 -226 130 -378q134 -158 342 -158q210 0 347 158q133 155 133 383q0 226 -129 379q-63 75 -151 116.5t-192 41.5t-192.5 -41.5t-152.5 -116.5q-135 -156 -135 -384zM235 524q0 170 83 278q86 112 238 112q155 0 241 -118 q80 -110 80 -283q0 -174 -80 -278q-85 -111 -236 -111q-154 0 -244 119q-82 107 -82 281z" />
<glyph unicode="&#x150;" horiz-adv-x="1383" d="M723 1927q-50 -85 -100 -151q-86 -113 -194 -211q10 -24 37 -58q24 -30 39 -37q107 60 222 189q99 112 119 176q-17 35 -51.5 60t-71.5 32zM1084 1927q-61 -98 -101 -151q-89 -116 -193 -211q8 -18 37 -58q22 -30 38 -37q70 38 155 118q72 69 124 140q49 66 63 107 q-18 36 -52 60.5t-71 31.5zM80 660q0 -143 43.5 -267.5t123.5 -216.5q81 -94 193 -145t247 -51q134 0 248 51.5t197 145.5q82 93 126.5 217t44.5 266q0 293 -165 483q-81 93 -193 144t-247 51t-249 -51t-197 -144q-172 -193 -172 -483zM234 672q0 231 122 373 q127 149 338 149q215 0 338 -156q117 -149 117 -390q0 -232 -117 -375q-122 -149 -333 -149q-216 0 -344 159q-121 150 -121 389z" />
<glyph unicode="&#x151;" horiz-adv-x="1112" d="M536 1647q-50 -85 -100 -151q-86 -113 -194 -211q10 -24 37 -58q24 -30 39 -37q107 60 222 189q99 112 119 176q-17 35 -51.5 60t-71.5 32zM897 1647q-61 -98 -101 -151q-89 -116 -193 -211q8 -18 37 -58q22 -30 38 -37q70 38 155 118q72 69 124 140q49 66 63 107 q-18 36 -52 60.5t-71 31.5zM80 516q0 -226 130 -378q134 -158 342 -158q210 0 347 158q133 155 133 383q0 226 -129 379q-63 75 -151 116.5t-192 41.5t-192.5 -41.5t-152.5 -116.5q-135 -156 -135 -384zM235 524q0 170 83 278q86 112 238 112q155 0 241 -118 q80 -110 80 -283q0 -174 -80 -278q-85 -111 -236 -111q-154 0 -244 119q-82 107 -82 281z" />
<glyph unicode="&#x152;" horiz-adv-x="1696" d="M857 0h794v144h-639v443h639v144h-639v443h639v144h-794q-78 20 -159 20q-135 0 -249 -51t-197 -144q-172 -193 -172 -483q0 -143 43.5 -267.5t123.5 -216.5q81 -94 193 -145t247 -51q89 0 170 23v-3zM857 1166v-1016q-73 -26 -158 -26q-216 0 -344 159 q-121 150 -121 389q0 231 122 373q127 149 338 149q91 0 163 -28z" />
<glyph unicode="&#x153;" horiz-adv-x="1728" d="M1678 480v140q0 121 -21 201q-28 108 -100 167q-86 70 -234 70q-135 0 -234 -58q-89 -52 -146 -157q-64 101 -162 158t-221 57q-104 0 -192.5 -41.5t-152.5 -116.5q-135 -156 -135 -384q0 -226 130 -378q134 -158 342 -158q129 0 234 62q101 60 164 166q60 -110 174 -172 q103 -56 235 -56q147 0 298 74v143l-3 1q-146 -74 -280 -74q-141 0 -232 88q-100 96 -111 268h647zM235 524q0 170 83 278q86 112 238 112q155 0 241 -118q80 -110 80 -283q0 -174 -80 -278q-85 -111 -236 -111q-154 0 -244 119q-82 107 -82 281zM1526 620h-488 q20 133 92 211q77 83 190 83t163 -87q41 -72 43 -207z" />
<glyph unicode="&#x154;" horiz-adv-x="1233" d="M699 1838q-75 -64 -142 -111q-124 -86 -249 -142q1 -27 16 -67q13 -37 26 -48q119 23 270 111q60 35 105.5 71t61.5 61q-6 40 -30.5 73.5t-57.5 51.5zM160 1318v-1318h155v431h96q172 0 287 23q40 -83 100 -179q70 -112 143 -189q84 -91 157 -106l85 126q-60 23 -134 99 q-63 61 -122 151q-54 80 -80 146q109 50 164 141q59 95 59 244q0 225 -129 326q-136 105 -458 105h-323zM315 576v597h158q219 0 324 -59q121 -70 121 -240q0 -163 -127 -234q-114 -64 -343 -64h-133z" />
<glyph unicode="&#x155;" horiz-adv-x="813" d="M558 1558q-75 -64 -142 -111q-124 -86 -249 -142q1 -27 16 -67q13 -37 26 -48q119 23 270 111q60 35 105.5 71t61.5 61q-6 40 -30.5 73.5t-57.5 51.5zM316 1038h-104v-1038h155v776q91 139 215 139q77 0 143 -32l54 139q-40 18 -85 27q-47 9 -87 9q-136 0 -255 -138z" />
<glyph unicode="&#x156;" horiz-adv-x="1233" d="M160 1318v-1318h155v431h96q172 0 287 23q40 -83 100 -179q70 -112 143 -189q84 -91 157 -106l85 126q-60 23 -134 99q-63 61 -122 151q-54 80 -80 146q109 50 164 141q59 95 59 244q0 225 -129 326q-136 105 -458 105h-323zM315 576v597h158q219 0 324 -59 q121 -70 121 -240q0 -163 -127 -234q-114 -64 -343 -64h-133zM508 -424l42 -54q70 39 126 115q63 85 63 165q0 62 -39 96q-34 27 -76 27q-46 0 -79 -33t-33 -79q45 -62 45 -107q0 -46 -49 -130z" />
<glyph unicode="&#x157;" horiz-adv-x="813" d="M316 1038h-104v-1038h155v776q91 139 215 139q77 0 143 -32l54 139q-40 18 -85 27q-47 9 -87 9q-136 0 -255 -138zM178 -424l42 -54q70 39 126 115q63 85 63 165q0 62 -39 96q-34 27 -76 27q-46 0 -79 -33t-33 -79q45 -62 45 -107q0 -46 -49 -130z" />
<glyph unicode="&#x158;" horiz-adv-x="1233" d="M555 1614h-5q-118 108 -296 196q-13 -11 -26 -47q-16 -43 -17 -68q178 -95 338 -249h8q165 157 338 249q-5 36 -17 68q-13 36 -26 47q-180 -89 -297 -196zM160 1318v-1318h155v431h96q172 0 287 23q40 -83 100 -179q70 -112 143 -189q84 -91 157 -106l85 126 q-60 23 -134 99q-63 61 -122 151q-54 80 -80 146q109 50 164 141q59 95 59 244q0 225 -129 326q-136 105 -458 105h-323zM315 576v597h158q219 0 324 -59q121 -70 121 -240q0 -163 -127 -234q-114 -64 -343 -64h-133z" />
<glyph unicode="&#x159;" horiz-adv-x="813" d="M467 1358h-5q-118 108 -296 196q-13 -11 -26 -47q-16 -43 -17 -68q178 -95 338 -249h8q165 157 338 249q-5 36 -17 68q-13 36 -26 47q-180 -89 -297 -196zM316 1038h-104v-1038h155v776q91 139 215 139q77 0 143 -32l54 139q-40 18 -85 27q-47 9 -87 9q-136 0 -255 -138z " />
<glyph unicode="&#x15a;" horiz-adv-x="919" d="M611 1838q-75 -64 -142 -111q-124 -86 -249 -142q1 -27 16 -67q13 -37 26 -48q119 23 270 111q60 35 105.5 71t61.5 61q-6 40 -30.5 73.5t-57.5 51.5zM93 179l-3 -1v-140q119 -58 269 -58q129 0 233.5 43t170.5 134.5t66 217.5q0 54 -9.5 93t-33.5 71.5t-49.5 55 t-72.5 55.5q-47 34 -191 108t-178 104q-57 51 -57 133q0 201 267 201q94 0 229 -27l3 2v132q-120 35 -232 35q-89 0 -162 -21t-128.5 -63t-86.5 -111t-31 -160q0 -169 104 -252q31 -26 189 -108t179 -95q59 -37 87.5 -80.5t28.5 -106.5q0 -58 -25.5 -101.5t-69 -68 t-95.5 -36t-112 -11.5q-70 0 -154 15.5t-136 39.5z" />
<glyph unicode="&#x15b;" horiz-adv-x="771" d="M537 1558q-75 -64 -142 -111q-124 -86 -249 -142q1 -27 16 -67q13 -37 26 -48q119 23 270 111q60 35 105.5 71t61.5 61q-6 40 -30.5 73.5t-57.5 51.5zM55 172v-145q110 -47 236 -47q169 0 290 82q135 93 135 251q0 63 -21 110q-40 82 -138 133q-37 19 -185 78 q-43 15 -81 40q-79 49 -79 124q0 66 56 97q44 24 120 24q56 0 134 -13q52 -9 95 -20l6 3v140q-104 29 -211 29q-151 0 -242 -59q-111 -72 -111 -214q0 -67 22 -112q38 -86 137 -139q55 -30 184 -81q47 -19 81 -40q78 -48 78 -120q0 -83 -95 -131q-73 -37 -166 -37 q-55 0 -126 17q-59 14 -113 35z" />
<glyph unicode="&#x15c;" horiz-adv-x="919" d="M456 1666h5q124 -113 297 -196q13 11 26 48q12 33 17 67q-173 92 -338 249h-8q-160 -154 -338 -249q1 -23 17 -67q13 -37 26 -48q93 46 155 87q74 48 141 109zM93 179l-3 -1v-140q119 -58 269 -58q129 0 233.5 43t170.5 134.5t66 217.5q0 54 -9.5 93t-33.5 71.5t-49.5 55 t-72.5 55.5q-47 34 -191 108t-178 104q-57 51 -57 133q0 201 267 201q94 0 229 -27l3 2v132q-120 35 -232 35q-89 0 -162 -21t-128.5 -63t-86.5 -111t-31 -160q0 -169 104 -252q31 -26 189 -108t179 -95q59 -37 87.5 -80.5t28.5 -106.5q0 -58 -25.5 -101.5t-69 -68 t-95.5 -36t-112 -11.5q-70 0 -154 15.5t-136 39.5z" />
<glyph unicode="&#x15d;" horiz-adv-x="771" d="M372 1386h5q124 -113 297 -196q13 11 26 48q12 33 17 67q-173 92 -338 249h-8q-160 -154 -338 -249q1 -23 17 -67q13 -37 26 -48q93 46 155 87q74 48 141 109zM55 172v-145q110 -47 236 -47q169 0 290 82q135 93 135 251q0 63 -21 110q-40 82 -138 133q-37 19 -185 78 q-43 15 -81 40q-79 49 -79 124q0 66 56 97q44 24 120 24q56 0 134 -13q52 -9 95 -20l6 3v140q-104 29 -211 29q-151 0 -242 -59q-111 -72 -111 -214q0 -67 22 -112q38 -86 137 -139q55 -30 184 -81q47 -19 81 -40q78 -48 78 -120q0 -83 -95 -131q-73 -37 -166 -37 q-55 0 -126 17q-59 14 -113 35z" />
<glyph unicode="&#x15e;" horiz-adv-x="919" d="M346 -424l42 -54q70 39 126 115q63 85 63 165q0 62 -39 96q-34 27 -76 27q-46 0 -79 -33t-33 -79q45 -62 45 -107q0 -46 -49 -130zM93 179l-3 -1v-140q119 -58 269 -58q129 0 233.5 43t170.5 134.5t66 217.5q0 54 -9.5 93t-33.5 71.5t-49.5 55t-72.5 55.5 q-47 34 -191 108t-178 104q-57 51 -57 133q0 201 267 201q94 0 229 -27l3 2v132q-120 35 -232 35q-89 0 -162 -21t-128.5 -63t-86.5 -111t-31 -160q0 -169 104 -252q31 -26 189 -108t179 -95q59 -37 87.5 -80.5t28.5 -106.5q0 -58 -25.5 -101.5t-69 -68t-95.5 -36 t-112 -11.5q-70 0 -154 15.5t-136 39.5z" />
<glyph unicode="&#x15f;" horiz-adv-x="801" d="M70 172v-145q110 -47 236 -47q169 0 290 82q135 93 135 251q0 63 -21 110q-40 82 -138 133q-37 19 -185 78q-43 15 -81 40q-79 49 -79 124q0 66 56 97q44 24 120 24q56 0 134 -13q52 -9 95 -20l6 3v140q-104 29 -211 29q-151 0 -242 -59q-111 -72 -111 -214 q0 -67 22 -112q38 -86 137 -139q55 -30 184 -81q47 -19 81 -40q78 -48 78 -120q0 -83 -95 -131q-73 -37 -166 -37q-55 0 -126 17q-59 14 -113 35zM296 -424l42 -54q70 39 126 115q63 85 63 165q0 62 -39 96q-34 27 -76 27q-46 0 -79 -33t-33 -79q45 -62 45 -107 q0 -46 -49 -130z" />
<glyph unicode="&#x160;" horiz-adv-x="919" d="M481 1614h-5q-118 108 -296 196q-13 -11 -26 -47q-16 -43 -17 -68q178 -95 338 -249h8q165 157 338 249q-5 36 -17 68q-13 36 -26 47q-180 -89 -297 -196zM93 179l-3 -1v-140q119 -58 269 -58q129 0 233.5 43t170.5 134.5t66 217.5q0 54 -9.5 93t-33.5 71.5t-49.5 55 t-72.5 55.5q-47 34 -191 108t-178 104q-57 51 -57 133q0 201 267 201q94 0 229 -27l3 2v132q-120 35 -232 35q-89 0 -162 -21t-128.5 -63t-86.5 -111t-31 -160q0 -169 104 -252q31 -26 189 -108t179 -95q59 -37 87.5 -80.5t28.5 -106.5q0 -58 -25.5 -101.5t-69 -68 t-95.5 -36t-112 -11.5q-70 0 -154 15.5t-136 39.5z" />
<glyph unicode="&#x161;" horiz-adv-x="801" d="M413 1358h-5q-118 108 -296 196q-13 -11 -26 -47q-16 -43 -17 -68q178 -95 338 -249h8q165 157 338 249q-5 36 -17 68q-13 36 -26 47q-180 -89 -297 -196zM70 172v-145q110 -47 236 -47q169 0 290 82q135 93 135 251q0 63 -21 110q-40 82 -138 133q-37 19 -185 78 q-43 15 -81 40q-79 49 -79 124q0 66 56 97q44 24 120 24q56 0 134 -13q52 -9 95 -20l6 3v140q-104 29 -211 29q-151 0 -242 -59q-111 -72 -111 -214q0 -67 22 -112q38 -86 137 -139q55 -30 184 -81q47 -19 81 -40q78 -48 78 -120q0 -83 -95 -131q-73 -37 -166 -37 q-55 0 -126 17q-59 14 -113 35z" />
<glyph unicode="&#x162;" horiz-adv-x="1060" d="M1015 1318h-970v-144h408v-1174h154v1174h408v144zM406 -424l42 -54q70 39 126 115q63 85 63 165q0 62 -39 96q-34 27 -76 27q-46 0 -79 -33t-33 -79q45 -62 45 -107q0 -46 -49 -130z" />
<glyph unicode="&#x163;" horiz-adv-x="744" d="M155 1038h-115v-144h115v-510q0 -209 94 -311q84 -93 229 -93q117 0 256 63l-42 142q-108 -62 -195 -62q-86 0 -133 60q-54 69 -54 201v510h288v144h-288v213h-10l-145 -27v-186zM330 -424l42 -54q70 39 126 115q63 85 63 165q0 62 -39 96q-34 27 -76 27q-46 0 -79 -33 t-33 -79q45 -62 45 -107q0 -46 -49 -130z" />
<glyph unicode="&#x164;" horiz-adv-x="1060" d="M532 1614h-5q-118 108 -296 196q-13 -11 -26 -47q-16 -43 -17 -68q178 -95 338 -249h8q165 157 338 249q-5 36 -17 68q-13 36 -26 47q-180 -89 -297 -196zM1015 1318h-970v-144h408v-1174h154v1174h408v144z" />
<glyph unicode="&#x165;" horiz-adv-x="1135" d="M824 1099l42 -54q70 39 126 115q63 85 63 165q0 62 -39 96q-34 27 -76 27q-46 0 -79 -33t-33 -79q45 -62 45 -107q0 -46 -49 -130zM155 1038h-115v-144h115v-510q0 -209 94 -311q84 -93 229 -93q117 0 256 63l-42 142q-108 -62 -195 -62q-86 0 -133 60q-54 69 -54 201 v510h288v144h-288v213h-10l-145 -27v-186z" />
<glyph unicode="&#x166;" horiz-adv-x="1060" d="M453 755h-206v-144h206v-611h154v611h198v144h-198v419h408v144h-970v-144h408v-419z" />
<glyph unicode="&#x167;" horiz-adv-x="744" d="M155 1038h-115v-144h115v-139h-115v-144h115v-227q0 -209 94 -311q84 -93 229 -93q117 0 256 63l-42 142q-108 -62 -195 -62q-86 0 -133 60q-54 69 -54 201v227h288v144h-288v139h288v144h-288v213h-10l-145 -27v-186z" />
<glyph unicode="&#x168;" horiz-adv-x="1403" d="M906 1728v-6q0 -39 -28 -59q-25 -19 -62 -19q-20 0 -42 7.5t-33 13.5t-35 21q-68 42 -121 42q-88 0 -152 -53q-67 -55 -77 -141q26 -25 68 -30q31 -4 73 3v6q0 39 26 58.5t65 19.5q10 0 20 -2t16 -3.5t17.5 -8t14 -8t16.5 -10.5t15 -10q62 -42 127 -42q89 0 156 54 t77 140q-26 25 -68 30q-31 4 -73 -3zM1190 1318h-154v-778q0 -182 -49 -280q-42 -85 -124 -115q-59 -23 -167 -23q-103 0 -157 21q-84 32 -125 114q-51 97 -51 283v778h-154v-828q0 -211 77 -333q66 -104 186 -145q92 -32 225 -32q135 0 228 32q121 41 187 146 q78 122 78 332v828z" />
<glyph unicode="&#x169;" d="M765 1448v-6q0 -39 -28 -59q-25 -19 -62 -19q-20 0 -42 7.5t-33 13.5t-35 21q-68 42 -121 42q-88 0 -152 -53q-67 -55 -77 -141q26 -25 68 -30q31 -4 73 3v6q0 39 26 58.5t65 19.5q10 0 20 -2t16 -3.5t17.5 -8t14 -8t16.5 -10.5t15 -10q62 -42 127 -42q89 0 156 54 t77 140q-26 25 -68 30q-31 4 -73 -3zM863 0h98v1038h-155v-816q-72 -43 -131 -67q-75 -32 -143 -32q-105 0 -160 55q-67 65 -67 205v655h-155v-664q0 -206 110 -306q95 -88 257 -88q70 0 163 38q75 31 152 81z" />
<glyph unicode="&#x16a;" horiz-adv-x="1403" d="M1002 1618h-602v-144h602v144zM1190 1318h-154v-778q0 -182 -49 -280q-42 -85 -124 -115q-59 -23 -167 -23q-103 0 -157 21q-84 32 -125 114q-51 97 -51 283v778h-154v-828q0 -211 77 -333q66 -104 186 -145q92 -32 225 -32q135 0 228 32q121 41 187 146q78 122 78 332 v828z" />
<glyph unicode="&#x16b;" d="M861 1341h-602v-144h602v144zM863 0h98v1038h-155v-816q-72 -43 -131 -67q-75 -32 -143 -32q-105 0 -160 55q-67 65 -67 205v655h-155v-664q0 -206 110 -306q95 -88 257 -88q70 0 163 38q75 31 152 81z" />
<glyph unicode="&#x16e;" horiz-adv-x="1403" d="M501 1449q0 -80 59 -139q58 -60 141 -60q81 0 141 60q60 58 60 139t-60 139t-141 58q-83 0 -141 -58q-59 -59 -59 -139zM620 1449q0 31 24 57q24 24 57 24q32 0 58 -24q24 -26 24 -57q0 -33 -24.5 -57t-57.5 -24t-57 24t-24 57zM1190 1318h-154v-778q0 -182 -49 -280 q-42 -85 -124 -115q-59 -23 -167 -23q-103 0 -157 21q-84 32 -125 114q-51 97 -51 283v778h-154v-828q0 -211 77 -333q66 -104 186 -145q92 -32 225 -32q135 0 228 32q121 41 187 146q78 122 78 332v828z" />
<glyph unicode="&#x16f;" d="M368 1411q0 -80 59 -139q58 -60 141 -60q81 0 141 60q60 58 60 139t-60 139t-141 58q-83 0 -141 -58q-59 -59 -59 -139zM487 1411q0 31 24 57q24 24 57 24q32 0 58 -24q24 -26 24 -57q0 -33 -24.5 -57t-57.5 -24t-57 24t-24 57zM863 0h98v1038h-155v-816 q-72 -43 -131 -67q-75 -32 -143 -32q-105 0 -160 55q-67 65 -67 205v655h-155v-664q0 -206 110 -306q95 -88 257 -88q70 0 163 38q75 31 152 81z" />
<glyph unicode="&#x170;" horiz-adv-x="1403" d="M699 1927q-50 -85 -100 -151q-86 -113 -194 -211q10 -24 37 -58q24 -30 39 -37q107 60 222 189q99 112 119 176q-17 35 -51.5 60t-71.5 32zM1060 1927q-61 -98 -101 -151q-89 -116 -193 -211q8 -18 37 -58q22 -30 38 -37q70 38 155 118q72 69 124 140q52 69 63 107 q-18 36 -52 60.5t-71 31.5zM1190 1318h-154v-778q0 -182 -49 -280q-42 -85 -124 -115q-59 -23 -167 -23q-103 0 -157 21q-84 32 -125 114q-51 97 -51 283v778h-154v-828q0 -211 77 -333q66 -104 186 -145q92 -32 225 -32q135 0 228 32q121 41 187 146q78 122 78 332v828z " />
<glyph unicode="&#x171;" d="M554 1647q-50 -85 -100 -151q-86 -113 -194 -211q10 -24 37 -58q24 -30 39 -37q107 60 222 189q99 112 119 176q-17 35 -51.5 60t-71.5 32zM915 1647q-61 -98 -101 -151q-89 -116 -193 -211q8 -18 37 -58q22 -30 38 -37q70 38 155 118q72 69 124 140q49 66 63 107 q-18 36 -52 60.5t-71 31.5zM863 0h98v1038h-155v-816q-72 -43 -131 -67q-75 -32 -143 -32q-105 0 -160 55q-67 65 -67 205v655h-155v-664q0 -206 110 -306q95 -88 257 -88q70 0 163 38q75 31 152 81z" />
<glyph unicode="&#x172;" horiz-adv-x="1403" d="M1190 1318h-154v-778q0 -182 -49 -280q-42 -85 -124 -115q-59 -23 -167 -23q-103 0 -157 21q-84 32 -125 114q-51 97 -51 283v778h-154v-828q0 -203 71 -324q60 -102 173 -147q88 -36 216 -38q-107 -100 -107 -212q0 -104 72 -176q71 -71 169 -71q84 0 156 51v131l-7 5 q-88 -46 -152 -46q-41 0 -64 23q-27 25 -27 81q0 62 37 120q45 70 135 113q140 34 217 136q92 125 92 354v828z" />
<glyph unicode="&#x173;" d="M961 1038h-155v-816q-72 -43 -131 -67q-75 -32 -143 -32q-105 0 -160 55q-67 65 -67 205v655h-155v-664q0 -206 110 -306q95 -88 257 -88q70 0 163 38q75 31 152 81l14 -44q-86 -51 -144 -124q-62 -78 -62 -162q0 -104 72 -176q71 -71 169 -71q84 0 156 51v131l-7 5 q-88 -46 -152 -46q-41 0 -64 23q-27 25 -27 81q0 63 38 120q46 71 136 113v1038z" />
<glyph unicode="&#x174;" horiz-adv-x="1716" d="M855 1666h5q124 -113 297 -196q13 11 26 48q12 33 17 67q-173 92 -338 249h-8q-160 -154 -338 -249q1 -23 17 -67q13 -37 26 -48q93 46 155 87q74 48 141 109zM559 0l299 1045l299 -1045h156l378 1318h-157l-299 -1046l-299 1046h-156l-300 -1046l-298 1046h-157 l378 -1318h156z" />
<glyph unicode="&#x175;" horiz-adv-x="1564" d="M779 1386h5q124 -113 297 -196q13 11 26 48q12 33 17 67q-173 92 -338 249h-8q-160 -154 -338 -249q1 -23 17 -67q13 -37 26 -48q93 46 155 87q74 48 141 109zM1205 0l329 1038h-149l-275 -867l-257 867h-142l-257 -867l-274 867h-150l328 -1038h193l231 790l231 -790 h192z" />
<glyph unicode="&#x176;" horiz-adv-x="1010" d="M502 1666h5q124 -113 297 -196q13 11 26 48q12 33 17 67q-173 92 -338 249h-8q-160 -154 -338 -249q1 -23 17 -67q13 -37 26 -48q93 46 155 87q74 48 141 109zM831 1318l-326 -668l-326 668h-154l403 -826v-492h154v492l403 826h-154z" />
<glyph unicode="&#x177;" horiz-adv-x="970" d="M482 1386h5q124 -113 297 -196q13 11 26 48q12 33 17 67q-173 92 -338 249h-8q-160 -154 -338 -249q1 -23 17 -67q13 -37 26 -48q93 46 155 87q74 48 141 109zM376 0h48l-77 -223q-22 -58 -69 -86q-43 -26 -101 -26q-88 0 -195 62l-42 -142q141 -63 256 -63 q221 0 300 226l445 1290h-160l-301 -873l-301 873h-160z" />
<glyph unicode="&#x178;" horiz-adv-x="1010" d="M208 1582q0 -47 34 -79q33 -33 79 -33t81 33q33 33 33 79t-33 79q-35 33 -81 33t-79 -33q-34 -32 -34 -79zM574 1582q0 -47 34 -79q33 -33 79 -33t81 33q33 33 33 79t-33 79q-35 33 -81 33t-79 -33q-34 -32 -34 -79zM831 1318l-326 -668l-326 668h-154l403 -826v-492h154 v492l403 826h-154z" />
<glyph unicode="&#x179;" horiz-adv-x="950" d="M626 1838q-75 -64 -142 -111q-124 -86 -249 -142q1 -27 16 -67q13 -37 26 -48q119 23 270 111q60 35 105.5 71t61.5 61q-6 40 -30.5 73.5t-57.5 51.5zM658 1174l-593 -1169l4 -5h816v144h-597l596 1169l-4 5h-793v-144h571z" />
<glyph unicode="&#x17a;" horiz-adv-x="911" d="M647 1558q-75 -64 -142 -111q-124 -86 -249 -142q1 -27 16 -67q13 -37 26 -48q119 23 270 111q60 35 105.5 71t61.5 61q-6 40 -30.5 73.5t-57.5 51.5zM596 894l-546 -889l5 -5h803v144h-543l546 888l-5 6h-790v-144h530z" />
<glyph unicode="&#x17b;" horiz-adv-x="950" d="M396 1560q0 -47 34 -79q33 -33 79 -33t81 33q33 33 33 79t-33 79q-35 33 -81 33t-79 -33q-34 -32 -34 -79zM658 1174l-593 -1169l4 -5h816v144h-597l596 1169l-4 5h-793v-144h571z" />
<glyph unicode="&#x17c;" horiz-adv-x="911" d="M355 1302q0 -47 34 -79q33 -33 79 -33t81 33q33 33 33 79t-33 79q-35 33 -81 33t-79 -33q-34 -32 -34 -79zM596 894l-546 -889l5 -5h803v144h-543l546 888l-5 6h-790v-144h530z" />
<glyph unicode="&#x17d;" horiz-adv-x="950" d="M477 1638h-5q-118 108 -296 196q-13 -11 -26 -47q-16 -43 -17 -68q178 -95 338 -249h8q165 157 338 249q-5 36 -17 68q-13 36 -26 47q-180 -89 -297 -196zM658 1174l-593 -1169l4 -5h816v144h-597l596 1169l-4 5h-793v-144h571z" />
<glyph unicode="&#x17e;" horiz-adv-x="911" d="M457 1358h-5q-118 108 -296 196q-13 -11 -26 -47q-16 -43 -17 -68q178 -95 338 -249h8q165 157 338 249q-5 36 -17 68q-13 36 -26 47q-180 -89 -297 -196zM596 894l-546 -889l5 -5h803v144h-543l546 888l-5 6h-790v-144h530z" />
<glyph unicode="&#x192;" horiz-adv-x="627" d="M194 1038h-168v-143h168v-969q0 -132 -54 -201q-47 -60 -133 -60q-88 0 -195 62l-42 -142q139 -63 256 -63q145 0 229 93q94 102 94 311v969h235v143h-235v4q0 141 48 207q42 56 125 56q74 0 183 -37l42 136q-139 44 -243 44q-145 0 -222 -88q-88 -101 -88 -318v-4z" />
<glyph unicode="&#x1b7;" horiz-adv-x="970" d="M188 761l400 411h-518v146h832l8 -10l-530 -547q77 0 151 -14t141.5 -45t118.5 -75.5t81 -110t30 -143.5q0 -82 -28.5 -149.5t-74.5 -112.5t-106 -76t-121 -44.5t-121 -13.5q-93 0 -210 30t-196 83l34 118l5 10q70 -44 167.5 -70.5t178.5 -26.5q136 0 227.5 73t91.5 183 q0 72 -58 129t-147 86t-188 29h-168v140z" />
<glyph unicode="&#x1e4;" horiz-adv-x="1268" d="M1290 320h-162v-322h-59l-92 71q-128 -89 -291 -89q-269 0 -439 196q-80 92 -123.5 218.5t-43.5 272.5q0 293 160 474q174 197 493 197q75 0 158 -11q87 -11 151 -30v-142l-8 -4q-63 20 -149 32q-74 10 -140 10q-247 0 -383 -151q-127 -139 -127 -366q0 -235 132 -391 q134 -161 336 -161q103 0 185 44q51 27 89 70v82h-162v144h162v105h-285v155h436v-260h162v-144z" />
<glyph unicode="&#x1e5;" horiz-adv-x="1099" d="M1059 -192h-79q-43 -97 -145 -169q-76 -55 -172 -86t-192 -31q-174 0 -281 97q-85 75 -100 189h-70v144h85q31 89 106 165q-40 23 -63 74q-22 49 -22 93q0 88 75 181q-42 43 -64 113q-22 68 -22 134q0 149 107 247q109 99 277 99q114 0 201 -48q65 49 140 78 q69 27 125 27l46 -131q-103 -17 -195 -75q60 -86 60 -193q0 -151 -108 -257q-112 -109 -279 -109q-100 0 -192 45q-35 -44 -35 -85t34 -67t94 -26h196q206 0 317 -87q90 -72 101 -178h55v-144zM319 850q-60 -62 -60 -147q0 -84 61 -147q67 -69 178 -69q108 0 174 69 q58 59 58 145q0 85 -59 149q-67 70 -176 70q-108 0 -176 -70zM448 84h-117q-54 -62 -77 -132h589q-16 74 -113 106q-83 26 -282 26zM813 -192h-568q13 -57 51 -92q64 -59 195 -59q149 0 257 83q38 28 65 68z" />
<glyph unicode="&#x1e6;" horiz-adv-x="1268" d="M1069 -2h59v726h-436v-155h285v-331q-38 -43 -89 -70q-82 -44 -185 -44q-202 0 -336 161q-132 156 -132 391q0 227 127 366q136 151 383 151q66 0 140 -10q86 -12 149 -32l8 4v142q-64 19 -151 30q-83 11 -158 11q-319 0 -493 -197q-160 -181 -160 -474 q0 -146 43.5 -272.5t123.5 -218.5q170 -196 439 -196q163 0 291 89zM668 1558h-5q-118 108 -296 196q-13 -11 -26 -47q-16 -43 -17 -68q178 -95 338 -249h8q165 157 338 249q-5 36 -17 68q-13 36 -26 47q-180 -89 -297 -196z" />
<glyph unicode="&#x1e7;" horiz-adv-x="1034" d="M569 217h-196q-60 0 -94 26t-34 67t35 85q92 -45 192 -45q167 0 279 109q108 106 108 257q0 107 -60 193q92 58 195 75l-46 131q-56 0 -125 -27q-75 -29 -140 -78q-87 48 -201 48q-168 0 -277 -99q-107 -98 -107 -247q0 -66 22 -134q22 -70 64 -113q-75 -93 -75 -181 q0 -44 22 -93q23 -51 63 -74q-59 -59 -91.5 -129.5t-32.5 -134.5q0 -142 103 -234q107 -97 281 -97q96 0 192 31t172 86q79 56 124.5 130t45.5 156q0 124 -102 205q-111 87 -317 87zM478 920q109 0 176 -70q59 -64 59 -149q0 -86 -58 -145q-66 -69 -174 -69q-111 0 -178 69 q-61 63 -61 147q0 85 60 147q68 70 176 70zM314 84h117q199 0 282 -26q117 -39 117 -143q0 -100 -99 -175q-108 -83 -257 -83q-131 0 -195 59q-57 53 -57 151q0 112 92 217zM488 1328h-5q-118 108 -296 196q-13 -11 -26 -47q-16 -43 -17 -68q178 -95 338 -249h8 q165 157 338 249q-5 36 -17 68q-13 36 -26 47q-180 -89 -297 -196z" />
<glyph unicode="&#x1e8;" horiz-adv-x="1101" d="M522 670l-2 -1q80 -136 259 -305.5t288 -229.5q-57 -98 -89 -134q-2 0 -6 2q-101 47 -244 177t-259 272t-154 231v-682h-155v1318h155v-618l519 618h190v-9l-518 -615l8 -14zM532 1558h-5q-118 108 -296 196q-13 -11 -26 -47q-16 -43 -17 -68q178 -95 338 -249h8 q165 157 338 249q-5 36 -17 68q-13 36 -26 47q-180 -89 -297 -196z" />
<glyph unicode="&#x1e9;" horiz-adv-x="975" d="M882 -20l64 137q-76 23 -183 115q-90 78 -174 177q-78 91 -86 127l422 502h-198l-412 -492v902h-10l-145 -27v-1421h155v527q3 -8 21 -37q15 -26 45 -67q62 -88 146 -183q94 -109 181 -176q101 -80 174 -84zM245 1668h-5q-118 108 -296 196q-13 -11 -26 -47 q-16 -43 -17 -68q178 -95 338 -249h8q165 157 338 249q-5 36 -17 68q-13 36 -26 47q-180 -89 -297 -196z" />
<glyph unicode="&#x1ee;" horiz-adv-x="970" d="M188 761l400 411h-518v146h832l8 -10l-530 -547q77 0 151 -14t141.5 -45t118.5 -75.5t81 -110t30 -143.5q0 -82 -28.5 -149.5t-74.5 -112.5t-106 -76t-121 -44.5t-121 -13.5q-93 0 -210 30t-196 83l34 118l5 10q70 -44 167.5 -70.5t178.5 -26.5q136 0 227.5 73t91.5 183 q0 72 -58 129t-147 86t-188 29h-168v140zM468 1558h-5q-118 108 -296 196q-13 -11 -26 -47q-16 -43 -17 -68q178 -95 338 -249h8q165 157 338 249q-5 36 -17 68q-13 36 -26 47q-180 -89 -297 -196z" />
<glyph unicode="&#x1ef;" horiz-adv-x="971" d="M188 505l366 387h-484v146h798l8 -10l-496 -523q78 0 151.5 -14.5t141 -46.5t118.5 -79t81 -117t30 -155q0 -82 -28.5 -149.5t-74.5 -112.5t-106 -76t-121 -44.5t-121 -13.5q-93 0 -210 30t-196 83l34 118l5 10q70 -44 167.5 -70.5t178.5 -26.5q136 0 227.5 73t91.5 183 q0 83 -58 145.5t-146 92.5t-189 30h-168v140zM468 1328h-5q-118 108 -296 196q-13 -11 -26 -47q-16 -43 -17 -68q178 -95 338 -249h8q165 157 338 249q-5 36 -17 68q-13 36 -26 47q-180 -89 -297 -196z" />
<glyph unicode="&#x1fc;" horiz-adv-x="1421" d="M929 1817q-75 -64 -142 -111q-124 -86 -249 -142q1 -27 16 -67q13 -37 26 -48q119 23 270 111q60 35 105.5 71t61.5 61q-6 40 -30.5 73.5t-57.5 51.5zM291 307h582l106 -307h397v144h-287l-153 443h440v144h-489l-153 443h642v144h-898l-453 -1318h160zM824 451h-484 l242 701z" />
<glyph unicode="&#x1fe;" horiz-adv-x="1383" d="M843 1838q-75 -64 -142 -111q-124 -86 -249 -142q1 -27 16 -67q13 -37 26 -48q119 23 270 111q60 35 105.5 71t61.5 61q-6 40 -30.5 73.5t-57.5 51.5zM325 -168l144 -53l79 217q64 -16 139 -16q134 0 248 51.5t197 145.5q82 93 126.5 217t44.5 266q0 194 -79 352 q-78 156 -218 242l51 141l-144 53l-48 -133q-81 23 -167 23q-135 0 -249 -51t-197 -144q-172 -193 -172 -483q0 -206 86 -366q87 -163 238 -245zM815 1179l-360 -988q-106 70 -164 197q-57 126 -57 284q0 231 122 373q127 149 338 149q56 0 121 -15zM598 134l356 979 q96 -71 145.5 -191.5t49.5 -273.5q0 -232 -117 -375q-122 -149 -333 -149q-57 0 -101 10z" />
<glyph unicode="&#x1ff;" horiz-adv-x="1112" d="M707 1558q-75 -64 -142 -111q-124 -86 -249 -142q1 -27 16 -67q13 -37 26 -48q119 23 270 111q60 35 105.5 71t61.5 61q-6 40 -30.5 73.5t-57.5 51.5zM240 -168l144 -53l76 210q44 -9 92 -9q210 0 347 158q133 155 133 383q0 143 -56 264q-56 119 -157 191l77 211 l-143 54l-73 -199q-57 16 -120 16q-104 0 -192.5 -41.5t-152.5 -116.5q-135 -156 -135 -384q0 -154 63 -278q65 -129 174 -194zM631 906l-262 -718q-65 53 -99.5 141t-34.5 195q0 170 83 278q86 112 238 112q35 0 75 -8zM511 127l256 704q110 -110 110 -318q0 -174 -80 -278 q-85 -111 -236 -111q-26 0 -50 3z" />
<glyph unicode="&#x292;" horiz-adv-x="971" d="M188 505l366 387h-484v146h798l8 -10l-496 -523q78 0 151.5 -14.5t141 -46.5t118.5 -79t81 -117t30 -155q0 -82 -28.5 -149.5t-74.5 -112.5t-106 -76t-121 -44.5t-121 -13.5q-93 0 -210 30t-196 83l34 118l5 10q70 -44 167.5 -70.5t178.5 -26.5q136 0 227.5 73t91.5 183 q0 83 -58 145.5t-146 92.5t-189 30h-168v140z" />
<glyph unicode="&#x2c6;" horiz-adv-x="892" d="M443 1386h5q124 -113 297 -196q13 11 26 48q12 33 17 67q-173 92 -338 249h-8q-160 -154 -338 -249q1 -23 17 -67q13 -37 26 -48q93 46 155 87q74 48 141 109z" />
<glyph unicode="&#x2c7;" horiz-adv-x="892" d="M448 1358h-5q-118 108 -296 196q-13 -11 -26 -47q-16 -43 -17 -68q178 -95 338 -249h8q165 157 338 249q-5 36 -17 68q-13 36 -26 47q-180 -89 -297 -196z" />
<glyph unicode="&#x2d8;" horiz-adv-x="918" d="M195 1580q-26 -17 -50 -49q-25 -35 -25 -63q59 -70 155 -107q86 -35 188 -35q97 0 186 36q96 38 149 106q0 28 -25 63q-24 32 -50 49q-95 -114 -269 -114t-259 114z" />
<glyph unicode="&#x2d9;" horiz-adv-x="347" d="M60 1302q0 -47 34 -79q33 -33 79 -33t81 33q33 33 33 79t-33 79q-35 33 -81 33t-79 -33q-34 -32 -34 -79z" />
<glyph unicode="&#x2da;" horiz-adv-x="603" d="M101 1411q0 -80 59 -139q58 -60 141 -60q81 0 141 60q60 58 60 139t-60 139t-141 58q-83 0 -141 -58q-59 -59 -59 -139zM220 1411q0 31 24 57q24 24 57 24q32 0 58 -24q24 -26 24 -57q0 -33 -24.5 -57t-57.5 -24t-57 24t-24 57z" />
<glyph unicode="&#x2db;" horiz-adv-x="554" d="M398 0l-24 101q-123 -53 -202 -132q-95 -97 -95 -200q0 -104 72 -176q71 -71 169 -71q84 0 156 51v131l-7 5q-88 -46 -152 -46q-41 0 -64 23q-27 25 -27 81q0 63 38 120q46 71 136 113z" />
<glyph unicode="&#x2dc;" horiz-adv-x="892" d="M651 1448v-6q0 -39 -28 -59q-25 -19 -62 -19q-20 0 -42 7.5t-33 13.5t-35 21q-68 42 -121 42q-88 0 -152 -53q-67 -55 -77 -141q26 -25 68 -30q31 -4 73 3v6q0 39 26 58.5t65 19.5q10 0 20 -2t16 -3.5t17.5 -8t14 -8t16.5 -10.5t15 -10q62 -42 127 -42q89 0 156 54 t77 140q-26 25 -68 30q-31 4 -73 -3z" />
<glyph unicode="&#x2dd;" horiz-adv-x="993" d="M402 1647q-50 -85 -100 -151q-86 -113 -194 -211q10 -24 37 -58q24 -30 39 -37q107 60 222 189q99 112 119 176q-17 35 -51.5 60t-71.5 32zM763 1647q-61 -98 -101 -151q-89 -116 -193 -211q8 -18 37 -58q22 -30 38 -37q70 38 155 118q72 69 124 140q52 69 63 107 q-18 36 -52 60.5t-71 31.5z" />
<glyph unicode="&#x1ef2;" horiz-adv-x="1010" d="M353 1838q-33 -18 -57.5 -51.5t-30.5 -73.5q36 -55 168 -132q151 -88 269 -111q11 10 25 48q12 33 17 67q-122 54 -248 142q-72 50 -143 111zM831 1318l-326 -668l-326 668h-154l403 -826v-492h154v492l403 826h-154z" />
<glyph unicode="&#x1ef3;" horiz-adv-x="970" d="M334 1558q-33 -18 -57.5 -51.5t-30.5 -73.5q36 -55 168 -132q151 -88 269 -111q11 10 25 48q12 33 17 67q-122 54 -248 142q-72 50 -143 111zM376 0h48l-77 -223q-22 -58 -69 -86q-43 -26 -101 -26q-88 0 -195 62l-42 -142q141 -63 256 -63q221 0 300 226l445 1290h-160 l-301 -873l-301 873h-160z" />
<glyph unicode="&#x2013;" horiz-adv-x="1052" d="M1002 618h-952v-144h952v144z" />
<glyph unicode="&#x2014;" horiz-adv-x="1201" d="M1151 618h-1101v-144h1101v144z" />
<glyph unicode="&#x2018;" horiz-adv-x="391" d="M311 1394l-43 54q-70 -37 -125 -114q-63 -85 -63 -166q0 -63 39 -95q32 -28 75 -28q46 0 79 33t33 79q-44 61 -44 107q0 49 49 130z" />
<glyph unicode="&#x2019;" horiz-adv-x="391" d="M80 1099l42 -54q70 39 126 115q63 85 63 165q0 62 -39 96q-34 27 -76 27q-46 0 -79 -33t-33 -79q45 -62 45 -107q0 -46 -49 -130z" />
<glyph unicode="&#x201a;" horiz-adv-x="392" d="M80 -145l43 -54q70 39 126 115q63 85 63 165q0 62 -39 96q-34 27 -76 27q-46 0 -79 -33t-33 -79q45 -62 45 -107q0 -47 -50 -130z" />
<glyph unicode="&#x201c;" horiz-adv-x="718" d="M311 1394l-43 54q-70 -37 -125 -114q-63 -85 -63 -166q0 -63 39 -95q32 -28 75 -28q46 0 79 33t33 79q-44 61 -44 107q0 49 49 130zM638 1394l-42 54q-69 -37 -126 -114q-63 -85 -63 -166q0 -63 40 -95q32 -28 75 -28q46 0 79 33t33 79q-45 62 -45 107q0 46 49 130z" />
<glyph unicode="&#x201d;" horiz-adv-x="718" d="M80 1099l42 -54q70 39 126 115q63 85 63 165q0 62 -39 96q-34 27 -76 27q-46 0 -79 -33t-33 -79q45 -62 45 -107q0 -46 -49 -130zM407 1099l43 -54q70 39 126 115q62 86 62 165q0 62 -39 96q-33 27 -75 27q-46 0 -79 -33t-33 -79q44 -61 44 -107q0 -49 -49 -130z" />
<glyph unicode="&#x201e;" horiz-adv-x="718" d="M407 -145l43 -54q70 37 125 114q63 85 63 166q0 63 -39 95q-32 28 -75 28q-46 0 -79 -33t-33 -79q44 -61 44 -107q0 -49 -49 -130zM80 -145l42 -54q69 37 126 114q63 85 63 166q0 63 -40 95q-32 28 -75 28q-46 0 -79 -33t-33 -79q45 -62 45 -107q0 -46 -49 -130z" />
<glyph unicode="&#x2020;" horiz-adv-x="890" d="M497 1448h-112q-27 -168 -27 -320h164q0 156 -25 320zM50 884h790v154h-790v-154zM383 -268h112q9 85 15 283q6 179 9 426q3 215 3 363h-164q0 -149 3 -363q4 -306 8 -426q4 -191 14 -283z" />
<glyph unicode="&#x2021;" horiz-adv-x="890" d="M502 1448h-112q-27 -168 -27 -320h164q0 156 -25 320zM50 884h790v154h-790v-154zM527 839h-164q0 -152 27 -320q-27 -168 -27 -320h164q0 156 -25 320q25 164 25 320zM50 0h790v154h-790v-154zM390 -410h112q25 164 25 320h-164q0 -152 27 -320z" />
<glyph unicode="&#x2022;" horiz-adv-x="771" d="M80 518q0 -124 89 -213q89 -91 216 -91q125 0 216 91q90 90 90 213t-90 213q-91 91 -216 91q-127 0 -216 -91q-89 -89 -89 -213z" />
<glyph unicode="&#x2026;" horiz-adv-x="1161" d="M80 92q0 -47 34 -79q33 -33 79 -33t81 33q33 33 33 79t-33 79q-35 33 -81 33t-79 -33q-34 -32 -34 -79zM467 92q0 -47 34 -79q33 -33 79 -33t81 33q33 33 33 79t-33 79q-35 33 -81 33t-79 -33q-34 -32 -34 -79zM854 92q0 -47 34 -79q33 -33 79 -33t81 33q33 33 33 79 t-33 79q-35 33 -81 33t-79 -33q-34 -32 -34 -79z" />
<glyph unicode="&#x2030;" horiz-adv-x="2382" d="M80 1000q0 -140 89 -234q91 -98 235 -98q146 0 239 98q91 96 91 239q0 139 -88 235q-93 98 -236 98t-238 -98q-92 -97 -92 -240zM220 1001q0 80 53 138q51 56 136 56q83 0 134 -56t51 -134q0 -80 -52 -137t-137 -57q-83 0 -134 56t-51 134zM1078 1165l-646 -924l126 -88 l646 924zM904 312q0 -140 89 -234q91 -98 235 -98q146 0 239 98q91 96 91 239q0 139 -88 235q-93 98 -236 98t-238 -98q-92 -97 -92 -240zM1648 312q0 -140 89 -234q91 -98 235 -98q146 0 239 98q91 96 91 239q0 139 -88 235q-93 98 -236 98t-238 -98q-92 -97 -92 -240z M1044 313q0 80 53 138q51 56 136 56q83 0 134 -56t51 -134q0 -80 -52 -137t-137 -57q-83 0 -134 56t-51 134zM1788 313q0 80 53 138q51 56 136 56q83 0 134 -56t51 -134q0 -80 -52 -137t-137 -57q-83 0 -134 56t-51 134z" />
<glyph unicode="&#x2039;" horiz-adv-x="796" d="M676 1372l-132 77l-424 -735l424 -735l132 77l-381 658z" />
<glyph unicode="&#x203a;" horiz-adv-x="796" d="M120 56l132 -77l424 735l-424 735l-132 -77l380 -658z" />
<glyph unicode="&#x2044;" horiz-adv-x="1012" d="M766 1165l-646 -924l126 -88l646 924z" />
<glyph unicode="&#x2063;" horiz-adv-x="600" />
<glyph unicode="&#x20ac;" horiz-adv-x="1189" d="M92 601l-52 -147l4 -4h167q58 -220 228 -346q164 -124 387 -124q155 0 313 65v142l-7 4q-148 -65 -289 -65q-167 0 -291 84q-127 86 -180 240h487l52 140l-4 11h-566q-2 18 -2 28v29q0 35 3 68h615l52 140l-4 4h-634q53 156 185 241q127 82 308 82q114 0 235 -35l50 139 q-118 41 -269 41q-252 0 -427 -119q-184 -124 -243 -349h-118l-52 -140l4 -4h143q-2 -22 -2 -33v-33v-30q0 -11 2 -29h-95z" />
<glyph unicode="&#x2122;" horiz-adv-x="1404" d="M570 1337h-525v-112h204v-547h117v547h204v112zM1149 1337l-169 -332h-2l-168 332h-145v-659h115v490l156 -300h85l153 298v-488h120v659h-145z" />
<glyph unicode="&#x212e;" horiz-adv-x="1712" d="M410 627h1212q0 210 -96 372.5t-267 251t-390 88.5q-221 0 -397.5 -82.5t-279 -238t-102.5 -357.5q0 -200 103 -356.5t276.5 -240.5t385.5 -84q397 0 619 233v55h-153q-89 -107 -195 -154q-110 -49 -256 -49q-286 0 -460 196v366zM1314 713h-904v338q105 109 201 154 q101 46 247 50q145 -1 252 -49q94 -44 204 -155v-338z" />
<glyph unicode="&#x2212;" horiz-adv-x="1030" d="M120 438h790v154h-790v-154z" />
<glyph unicode="&#x2248;" horiz-adv-x="1033" d="M749 814v-7q0 -42 -32 -67q-28 -22 -70 -22q-24 0 -48.5 8.5t-36.5 15t-41 24.5q-80 48 -139 48q-99 0 -173 -61q-77 -63 -89 -161q32 -29 78 -34q31 -4 84 3v7q0 43 31 67q28 22 72 22q25 0 43 -7q23 -8 70 -41q18 -13 38 -23q47 -25 108 -25q103 0 178 61q77 63 89 161 q-31 28 -78 35q-32 3 -84 -4zM749 506v-7q0 -42 -32 -67q-28 -22 -70 -22q-24 0 -48.5 8.5t-36.5 15t-41 24.5q-80 48 -139 48q-99 0 -173 -61q-77 -63 -89 -161q32 -29 78 -34q31 -4 84 3v7q0 43 31 67q28 22 72 22q25 0 43 -7q23 -8 70 -41q18 -13 38 -23q47 -25 108 -25 q103 0 178 61q77 63 89 161q-31 28 -78 35q-32 3 -84 -4z" />
<glyph unicode="&#x2260;" horiz-adv-x="1030" d="M511 284h399v154h-343l56 154h287v154h-231l56 153l-144 53l-75 -206h-396v-154h340l-56 -154h-284v-154h228l-67 -184l144 -53z" />
<glyph unicode="&#x2264;" horiz-adv-x="1030" d="M854 933l-88 125l-590 -413l590 -413l88 125l-411 288zM120 0h790v154h-790v-154z" />
<glyph unicode="&#x2265;" horiz-adv-x="1030" d="M176 357l88 -125l590 413l-590 413l-88 -125l411 -288zM120 0h790v154h-790v-154z" />
<glyph unicode="&#x2400;" horiz-adv-x="600" />
<glyph unicode="&#x25fc;" horiz-adv-x="1040" d="M0 1040h1040v-1040h-1040v1040z" />
<glyph unicode="&#xfb03;" horiz-adv-x="1786" d="M1004 895h468v-895h154v1038h-622v4q0 149 48 209q42 54 133 54q33 0 74 -6q83 -13 161 -35q90 -26 128 -39q22 -9 33 -12l42 136q-23 7 -65 22q-43 15 -107 34q-153 43 -276 43q-158 0 -236 -84q-99 35 -176 53q-131 31 -229 31q-159 0 -236 -84q-90 -98 -90 -322v-4 h-168v-143h168v-895h155v895h486v-895h155v895zM849 1038h-486v4q0 149 48 209q42 54 133 54q60 0 169 -24q37 -8 159 -45q-23 -80 -23 -194v-4z" />
<glyph unicode="&#xfb04;" horiz-adv-x="1758" d="M363 0v895h463v-896h155v895h234v144h-234v12q0 150 68 209q56 47 175 47q96 0 220 -17v-1290h154v1449h-10l-144 -20q-148 20 -263 20q-180 0 -261 -78q-88 30 -173 50q-119 28 -213 28q-159 0 -236 -84q-90 -98 -90 -322v-4h-168v-143h168v-895h155zM826 1038h-463v4 q0 149 48 209q42 54 133 54q60 0 154 -21q49 -11 151 -41q-23 -80 -23 -193v-12z" />
<glyph horiz-adv-x="600" />
<glyph horiz-adv-x="600" />
<glyph horiz-adv-x="818" d="M211 -458h154q23 112 30 169q17 136 17 266v917h235v144h-235v13q0 141 48 203q40 52 125 52q71 0 183 -38l42 137q-135 43 -243 43q-146 0 -222 -84q-88 -98 -88 -313v-13h-168v-144h168v-917q0 -78 -7 -142q-12 -124 -34 -224l-6 -24t-5 -22.5t-3 -14.5z" />
<glyph horiz-adv-x="1110" d="M795 71v-145q0 -138 -78 -203q-67 -56 -183 -56q-92 0 -196 33q-92 27 -162 70l-42 -142q88 -45 193 -74q112 -32 217 -32q179 0 283 89q123 103 123 315v1132h-11l-103 -31q-117 31 -233 31q-257 0 -395 -151q-128 -140 -128 -372q0 -233 122 -391q127 -164 326 -164 q150 0 267 91zM795 875v-639q-82 -113 -246 -113q-155 0 -240 123q-74 107 -74 275q0 192 101 296q94 99 256 99q102 0 203 -41z" />
<glyph horiz-adv-x="1149" d="M989 1058h-11l-103 -31q-117 31 -233 31q-257 0 -395 -151q-128 -140 -128 -372q0 -139 46 -260q47 -125 128 -196q-109 -38 -164 -108q-49 -63 -49 -139q0 -134 144 -224q136 -86 335 -86t310 99q120 106 120 315v1122zM834 875v-639q-82 -113 -243 -113 q-158 0 -243 123q-74 105 -74 275q0 192 101 296q96 99 257 99q101 0 202 -41zM834 71v-135q0 -134 -79 -204q-74 -65 -202 -65q-137 0 -219 44q-81 44 -81 121q0 84 106 119q62 20 208 29q93 7 134 19q59 18 133 72z" />
<glyph horiz-adv-x="617" d="M237 939l-197 -71l43 -115l154 56v-809h154v865l216 78l-43 115l-173 -63v453h-10l-144 -20v-489z" />
<glyph horiz-adv-x="1168" d="M80 516q0 -227 138 -378q142 -158 362 -158q224 0 367 158q141 155 141 383q0 226 -137 379q-143 158 -363 158q-110 0 -204 -41.5t-162 -116.5q-142 -156 -142 -384zM237 524q0 172 91 278q94 112 256 112q165 0 259 -118q88 -111 88 -283q0 -169 -88 -277 q-91 -112 -253 -112q-166 0 -262 119q-91 109 -91 281z" />
<glyph horiz-adv-x="636" d="M58 944v-145q135 0 264 46v-845h154v1038h-113q-76 -49 -132 -68q-73 -26 -173 -26z" />
<glyph horiz-adv-x="911" d="M831 144h-517v6q108 46 209 136q112 98 180 213q77 129 77 248q0 123 -65 206q-86 105 -255 105q-203 0 -369 -107l43 -116l8 -7q67 41 141 64q83 26 151 26q79 0 134 -52q57 -54 57 -143q0 -111 -97 -229q-80 -98 -230 -198q-114 -78 -268 -152v-144h801v144z" />
<glyph horiz-adv-x="973" d="M224 477v-140h132q166 0 270 -55q124 -65 124 -186q0 -109 -92 -182q-91 -72 -226 -72q-80 0 -178 27q-98 25 -169 69l-8 -7l-32 -120q80 -53 204 -83q115 -28 204 -28q104 0 203 37q110 41 174 122q74 92 74 225q0 132 -69 220q-62 78 -173 118q75 48 118 120 q48 80 48 186q0 121 -64 201q-57 68 -149 101q-80 28 -167 28q-80 0 -175 -26q-100 -27 -181 -78l32 -115l8 -7q144 85 293 85q106 0 176 -49q74 -53 74 -150q0 -119 -101 -186q-83 -55 -194 -55h-156z" />
<glyph horiz-adv-x="970" d="M789 1038h-176l-593 -895v-143h615v-300h154v300h152v143h-152v895zM635 797v-654h-432z" />
<glyph horiz-adv-x="973" d="M202 1038v-27l-69 -625h140q249 0 358 -53q118 -58 118 -194q0 -129 -79 -211q-84 -86 -217 -86q-76 0 -171 26q-106 27 -172 70l-8 -7l-32 -120q82 -54 195 -83q110 -28 208 -28q171 0 291 103q140 120 140 332q0 172 -100 266q-82 77 -238 106q-107 20 -276 20l40 369 h517v142h-645z" />
<glyph horiz-adv-x="968" d="M834 1194v144q-260 0 -441 -137q-157 -119 -240 -333q-73 -188 -73 -411q0 -208 95 -335q103 -142 302 -142q146 0 246 79q85 66 129 177q37 94 37 188q0 158 -106 269q-109 114 -265 114q-141 0 -260 -93q30 124 87 217q73 120 181 185q128 78 308 78zM497 662 q96 0 164 -66q74 -74 74 -191q0 -113 -57 -190q-66 -90 -178 -90q-114 0 -189 84q-83 91 -83 249q0 57 5 104q155 100 264 100z" />
<glyph horiz-adv-x="838" d="M818 1038h-768v-144h555l-473 -1174h154z" />
<glyph horiz-adv-x="988" d="M870 1001q0 159 -117 253q-106 84 -259 84q-156 0 -260 -86q-115 -95 -115 -251q0 -107 60 -188q50 -68 153 -125q-118 -53 -183 -121q-89 -96 -89 -228q0 -169 135 -269q121 -90 299 -90q177 0 299 89q136 100 136 270q0 130 -84 222q-65 70 -188 127q104 59 154 126 q59 80 59 187zM715 1001q0 -84 -62 -146q-51 -50 -159 -97q-105 47 -156 96q-64 62 -64 148q0 92 69 146q61 46 151 46t151 -46q70 -55 70 -147zM214 333q0 96 86 165q49 39 194 110q143 -68 193 -109q88 -71 88 -163q0 -99 -88 -158q-79 -54 -193 -54q-115 0 -193 54 q-87 59 -87 155z" />
<glyph horiz-adv-x="968" d="M135 -156v-144q260 0 441 137q157 119 240 333q73 188 73 411q0 207 -94 336q-105 141 -303 141q-145 0 -246 -78q-84 -66 -128 -177q-38 -96 -38 -189q0 -157 106 -268q110 -115 265 -115q142 0 260 92q-30 -122 -87 -216q-71 -119 -181 -185q-130 -78 -308 -78z M472 376q-97 0 -164 67q-74 72 -74 190q0 113 57 190q66 90 178 90q115 0 190 -83q82 -92 82 -250q0 -48 -5 -104q-151 -100 -264 -100z" />
<glyph horiz-adv-x="1192" d="M1072 646q0 338 -135 521q-126 171 -345 171q-217 0 -342 -170q-130 -177 -130 -505q0 -172 41 -313q48 -166 147 -261q114 -109 284 -109q219 0 343 161q133 172 137 505zM917 665q0 -297 -84 -425q-76 -116 -240 -116q-160 0 -239 133t-79 405q0 269 79 400.5 t239 131.5q159 0 240 -121q84 -128 84 -408z" />
<glyph horiz-adv-x="658" d="M120 1224v-145q135 0 264 46v-1125h154v1318h-113q-76 -49 -132 -68q-73 -26 -173 -26z" />
<glyph horiz-adv-x="1138" d="M120 0h898v144h-674q309 228 454 408q169 210 169 413q0 181 -116 281q-109 92 -273 92q-96 0 -198 -29q-112 -32 -181 -77l42 -115l9 -7q62 37 138 60q77 23 152 23q127 0 206 -65q80 -66 80 -179q0 -86 -52 -183q-65 -118 -210 -262q-173 -169 -444 -360v-144z" />
<glyph horiz-adv-x="1099" d="M299 757v-140h132q166 0 270 -55q124 -65 124 -186q0 -109 -92 -182q-91 -72 -226 -72q-80 0 -178 27q-98 25 -169 69l-8 -7l-32 -120q80 -53 204 -83q115 -28 204 -28q104 0 203 37q110 41 174 122q74 92 74 225q0 132 -69 220q-62 78 -173 118q75 48 118 120 q48 80 48 186q0 121 -64 201q-57 68 -149 101q-80 28 -167 28q-80 0 -175 -26q-100 -27 -181 -78l32 -115l8 -7q144 85 293 85q106 0 176 -49q74 -53 74 -150q0 -119 -101 -186q-83 -55 -194 -55h-156z" />
<glyph horiz-adv-x="1161" d="M889 1318h-176l-593 -875v-143h615v-300h154v300h152v143h-152v875zM735 1077v-634h-432z" />
<glyph horiz-adv-x="1074" d="M252 1318v-27l-69 -625h140q249 0 358 -53q118 -58 118 -194q0 -129 -79 -211q-84 -86 -217 -86q-76 0 -171 26q-106 27 -172 70l-8 -7l-32 -120q82 -54 195 -83q110 -28 208 -28q171 0 291 103q140 120 140 332q0 172 -100 266q-82 77 -238 106q-107 20 -276 20l40 369 h517v142h-645z" />
<glyph horiz-adv-x="1049" d="M874 1194v144q-260 0 -441 -137q-157 -119 -240 -333q-73 -188 -73 -411q0 -208 95 -335q103 -142 302 -142q146 0 246 79q85 66 129 177q37 94 37 188q0 158 -106 269q-109 114 -265 114q-141 0 -260 -93q30 124 87 217q73 120 181 185q128 78 308 78zM537 662 q96 0 164 -66q74 -74 74 -191q0 -113 -57 -190q-66 -90 -178 -90q-114 0 -189 84q-83 91 -83 249q0 57 5 104q155 100 264 100z" />
<glyph horiz-adv-x="1008" d="M888 1318h-768v-144h555l-473 -1174h154z" />
<glyph horiz-adv-x="1109" d="M930 1001q0 159 -117 253q-106 84 -259 84q-156 0 -260 -86q-115 -95 -115 -251q0 -107 60 -188q50 -68 153 -125q-118 -53 -183 -121q-89 -96 -89 -228q0 -169 135 -269q121 -90 299 -90q177 0 299 89q136 100 136 270q0 130 -84 222q-65 70 -188 127q104 59 154 126 q59 80 59 187zM775 1001q0 -84 -62 -146q-51 -50 -159 -97q-105 47 -156 96q-64 62 -64 148q0 92 69 146q61 46 151 46t151 -46q70 -55 70 -147zM274 333q0 96 86 165q49 39 194 110q143 -68 193 -109q88 -71 88 -163q0 -99 -88 -158q-79 -54 -193 -54q-115 0 -193 54 q-87 59 -87 155z" />
<glyph horiz-adv-x="1049" d="M175 124v-144q260 0 441 137q157 119 240 333q73 188 73 411q0 207 -94 336q-105 141 -303 141q-145 0 -246 -78q-84 -66 -128 -177q-38 -96 -38 -189q0 -157 106 -268q110 -115 265 -115q142 0 260 92q-30 -122 -87 -216q-71 -119 -181 -185q-130 -78 -308 -78zM512 656 q-97 0 -164 67q-74 72 -74 190q0 113 57 190q66 90 178 90q115 0 190 -83q82 -92 82 -250q0 -48 -5 -104q-151 -100 -264 -100z" />
<glyph horiz-adv-x="1248" d="M120 516q0 -227 138 -378q142 -158 362 -158q224 0 367 158q141 155 141 383q0 226 -137 379q-143 158 -363 158q-110 0 -204 -41.5t-162 -116.5q-142 -156 -142 -384zM277 524q0 172 91 278q94 112 256 112q165 0 259 -118q88 -111 88 -283q0 -169 -88 -277 q-91 -112 -253 -112q-166 0 -262 119q-91 109 -91 281z" />
<glyph horiz-adv-x="658" d="M120 944v-145q135 0 264 46v-845h154v1038h-113q-76 -49 -132 -68q-73 -26 -173 -26z" />
<glyph horiz-adv-x="1041" d="M921 144h-517v6q108 46 209 136q112 98 180 213q77 129 77 248q0 123 -65 206q-86 105 -255 105q-203 0 -369 -107l43 -116l8 -7q67 41 141 64q83 26 151 26q79 0 134 -52q57 -54 57 -143q0 -111 -97 -229q-80 -98 -230 -198q-114 -78 -268 -152v-144h801v144z" />
<glyph horiz-adv-x="1099" d="M299 477v-140h132q166 0 270 -55q124 -65 124 -186q0 -109 -92 -182q-91 -72 -226 -72q-80 0 -178 27q-98 25 -169 69l-8 -7l-32 -120q80 -53 204 -83q115 -28 204 -28q104 0 203 37q110 41 174 122q74 92 74 225q0 132 -69 220q-62 78 -173 118q75 48 118 120 q48 80 48 186q0 121 -64 201q-57 68 -149 101q-80 28 -167 28q-80 0 -175 -26q-100 -27 -181 -78l32 -115l8 -7q144 85 293 85q106 0 176 -49q74 -53 74 -150q0 -119 -101 -186q-83 -55 -194 -55h-156z" />
<glyph horiz-adv-x="1161" d="M889 1038h-176l-593 -895v-143h615v-300h154v300h152v143h-152v895zM735 797v-654h-432z" />
<glyph horiz-adv-x="1074" d="M252 1038v-27l-69 -625h140q249 0 358 -53q118 -58 118 -194q0 -129 -79 -211q-84 -86 -217 -86q-76 0 -171 26q-106 27 -172 70l-8 -7l-32 -120q82 -54 195 -83q110 -28 208 -28q171 0 291 103q140 120 140 332q0 172 -100 266q-82 77 -238 106q-107 20 -276 20l40 369 h517v142h-645z" />
<glyph horiz-adv-x="1049" d="M874 1194v144q-260 0 -441 -137q-157 -119 -240 -333q-73 -188 -73 -411q0 -208 95 -335q103 -142 302 -142q146 0 246 79q85 66 129 177q37 94 37 188q0 158 -106 269q-109 114 -265 114q-141 0 -260 -93q30 124 87 217q73 120 181 185q128 78 308 78zM537 662 q96 0 164 -66q74 -74 74 -191q0 -113 -57 -190q-66 -90 -178 -90q-114 0 -189 84q-83 91 -83 249q0 57 5 104q155 100 264 100z" />
<glyph horiz-adv-x="1008" d="M888 1038h-768v-144h555l-473 -1174h154z" />
<glyph horiz-adv-x="1109" d="M930 1001q0 159 -117 253q-106 84 -259 84q-156 0 -260 -86q-115 -95 -115 -251q0 -107 60 -188q50 -68 153 -125q-118 -53 -183 -121q-89 -96 -89 -228q0 -169 135 -269q121 -90 299 -90q177 0 299 89q136 100 136 270q0 130 -84 222q-65 70 -188 127q104 59 154 126 q59 80 59 187zM775 1001q0 -84 -62 -146q-51 -50 -159 -97q-105 47 -156 96q-64 62 -64 148q0 92 69 146q61 46 151 46t151 -46q70 -55 70 -147zM274 333q0 96 86 165q49 39 194 110q143 -68 193 -109q88 -71 88 -163q0 -99 -88 -158q-79 -54 -193 -54q-115 0 -193 54 q-87 59 -87 155z" />
<glyph horiz-adv-x="1049" d="M175 -156v-144q260 0 441 137q157 119 240 333q73 188 73 411q0 207 -94 336q-105 141 -303 141q-145 0 -246 -78q-84 -66 -128 -177q-38 -96 -38 -189q0 -157 106 -268q110 -115 265 -115q142 0 260 92q-30 -122 -87 -216q-71 -119 -181 -185q-130 -78 -308 -78z M512 376q-97 0 -164 67q-74 72 -74 190q0 113 57 190q66 90 178 90q115 0 190 -83q82 -92 82 -250q0 -48 -5 -104q-151 -100 -264 -100z" />
</font>
</defs>
</svg>
